M48
; DRILL file {KiCad (6.0.9)} date Fri 25 Nov 2022 00:28:22 EET
; FORMAT={-:-/ absolute / metric / decimal}
; #@! TF.CreationDate,2022-11-25T00:28:22+02:00
; #@! TF.GenerationSoftware,Kicad,Pcbnew,(6.0.9)
; #@! TF.FileFunction,Plated,1,2,PTH
FMAT,2
METRIC
; #@! TA.AperFunction,Plated,PTH,ViaDrill
T1C0.300
; #@! TA.AperFunction,Plated,PTH,ComponentDrill
T2C0.600
%
G90
G05
T1
X51.435Y-61.595
X51.435Y-70.485
X53.34Y-29.972
X53.34Y-41.656
X53.34Y-53.34
X53.34Y-65.024
X53.34Y-76.962
X53.34Y-88.9
X53.34Y-100.838
X53.34Y-112.776
X58.639Y-57.404
X58.639Y-69.088
X58.639Y-104.902
X58.641Y-45.72
X58.671Y-81.026
X58.717Y-92.964
X59.02Y-31.623
X59.02Y-33.147
X59.143Y-120.4
X59.147Y-38.608
X59.147Y-61.976
X59.147Y-73.66
X59.147Y-109.474
X59.149Y-50.292
X59.179Y-85.598
X59.225Y-97.536
X59.528Y-36.03
X59.646Y-118.881
X59.655Y-116.84
X60.163Y-58.928
X60.163Y-70.612
X60.163Y-106.426
X60.165Y-47.244
X60.195Y-82.55
X60.241Y-94.488
X60.544Y-34.581
X64.736Y-46.737
X64.989Y-34.036
X65.504Y-53.368
X65.532Y-29.972
X65.532Y-30.988
X65.532Y-41.656
X65.532Y-42.672
X65.532Y-54.356
X65.532Y-65.024
X65.532Y-66.04
X65.532Y-77.018
X65.532Y-78.034
X65.532Y-88.9
X65.532Y-89.916
X65.532Y-100.838
X65.532Y-101.854
X65.532Y-112.776
X65.532Y-113.792
X66.259Y-70.358
X66.259Y-94.234
X68.208Y-120.974
X68.326Y-109.982
X69.657Y-38.328
X69.657Y-61.696
X69.657Y-73.38
X69.657Y-109.194
X69.659Y-50.012
X69.689Y-85.318
X69.736Y-97.256
X71.12Y-46.736
X71.339Y-70.358
X71.339Y-94.234
X71.847Y-35.56
X72.136Y-50.8
X73.152Y-71.628
X73.66Y-29.972
X73.66Y-30.988
X73.66Y-32.004
X73.66Y-33.02
X73.66Y-34.036
X73.66Y-39.116
X73.66Y-41.656
X73.66Y-42.672
X73.66Y-43.688
X73.66Y-44.704
X73.66Y-45.72
X73.66Y-51.816
X73.66Y-53.34
X73.66Y-54.356
X73.66Y-55.372
X73.66Y-56.388
X73.66Y-57.404
X73.66Y-62.992
X73.66Y-65.024
X73.66Y-66.04
X73.66Y-67.056
X73.66Y-68.072
X73.66Y-69.088
X73.66Y-76.962
X73.66Y-77.978
X73.66Y-78.994
X73.66Y-80.01
X73.66Y-81.026
X73.66Y-83.312
X73.66Y-88.9
X73.66Y-89.916
X73.66Y-90.932
X73.66Y-91.948
X73.66Y-92.964
X73.66Y-101.854
X73.66Y-102.87
X73.66Y-103.886
X73.66Y-104.902
X73.66Y-105.918
X73.66Y-112.776
X73.66Y-113.792
X73.66Y-114.808
X73.66Y-115.824
X73.66Y-116.84
X74.387Y-75.946
X74.422Y-95.25
X74.93Y-47.244
X74.93Y-100.33
X75.184Y-58.674
X78.74Y-40.894
X78.74Y-82.804
X78.994Y-54.356
X78.994Y-94.996
X78.994Y-96.52
X79.248Y-70.866
X79.248Y-102.616
X79.502Y-72.136
X79.502Y-76.2
X79.721Y-53.086
X79.756Y-47.244
X79.975Y-98.552
X80.01Y-48.514
X80.01Y-51.308
X80.264Y-100.076
X82.296Y-104.531
X84.074Y-48.768
X84.328Y-46.736
X84.328Y-50.292
X84.836Y-72.898
X84.836Y-75.692
X85.563Y-52.832
X85.563Y-72.101
X85.581Y-101.582
X85.598Y-76.708
X85.598Y-98.044
X86.106Y-37.338
X86.106Y-46.736
X87.122Y-59.944
X87.122Y-83.058
X87.376Y-35.052
X88.392Y-103.632
X90.424Y-60.452
X91.186Y-54.356
X91.44Y-76.708
X92.202Y-61.468
X92.456Y-24.384
X92.456Y-25.4
X92.456Y-26.416
X92.456Y-27.432
X92.456Y-28.448
X92.456Y-46.482
X92.456Y-47.498
X92.456Y-48.514
X92.456Y-49.53
X92.456Y-50.546
X92.456Y-51.562
X92.456Y-71.12
X92.456Y-72.136
X92.456Y-73.152
X92.456Y-74.168
X92.456Y-75.184
X92.456Y-94.996
X92.456Y-96.012
X92.456Y-97.028
X92.456Y-98.044
X92.456Y-99.06
X104.902Y-49.784
X104.902Y-70.104
X105.156Y-91.186
X105.156Y-102.108
X105.41Y-59.944
X105.41Y-61.468
X105.41Y-82.042
X105.664Y-36.068
X115.824Y-34.036
X115.824Y-49.53
X115.824Y-59.69
X115.824Y-80.264
X116.078Y-70.104
X116.078Y-90.17
X116.205Y-100.33
X120.904Y-49.53
X120.904Y-59.69
X121.132Y-34.011
X121.158Y-70.104
X121.158Y-80.264
X121.158Y-90.17
X121.285Y-100.33
X125.984Y-49.53
X125.984Y-59.69
X126.238Y-34.036
X126.238Y-70.104
X126.238Y-80.264
X126.238Y-90.17
X126.365Y-100.33
X131.064Y-49.53
X131.064Y-59.69
X131.292Y-34.011
X131.318Y-70.104
X131.318Y-80.264
X131.318Y-90.17
X131.445Y-100.33
X136.144Y-49.53
X136.144Y-59.69
X136.144Y-80.264
X136.373Y-34.061
X136.398Y-70.104
X136.398Y-90.17
X136.525Y-100.33
X165.862Y-75.184
X166.624Y-34.29
X166.624Y-54.61
X166.624Y-95.25
X171.45Y-75.184
X171.45Y-95.25
X171.704Y-34.29
X171.704Y-54.61
X176.276Y-73.66
X176.276Y-93.726
X177.292Y-36.068
X177.292Y-56.642
X183.642Y-70.104
X184.404Y-49.53
X184.404Y-59.69
X184.404Y-80.264
X188.976Y-70.104
X189.484Y-49.53
X189.484Y-59.69
X189.484Y-80.264
X240.665Y-64.77
X245.745Y-64.77
X250.825Y-64.77
X255.905Y-64.77
X260.985Y-64.77
T2
X45.015Y-61.72G85X44.415Y-61.72
G05
X45.015Y-70.36G85X44.415Y-70.36
G05
X49.445Y-61.72G85X48.345Y-61.72
G05
X49.445Y-70.36G85X48.345Y-70.36
G05
T0
M30
