  0
SECTION
  2
HEADER
  9
$ANGBASE
  50
0.0
  9
$ANGDIR
  70
1
  9
$MEASUREMENT
  70
1
  0
ENDSEC
  0
SECTION
  2
TABLES
  0
TABLE
  2
LTYPE
  70
4
  0
LTYPE
  5
40F
  2
CONTINUOUS
  70
0
  3
Solid line
  72
65
  73
0
  40
0.0
  0
LTYPE
  5
410
  2
DASHDOT
 70
0
  3
Dash Dot ____ _ ____ _
 72
65
 73
4
 40
2.0
 49
1.25
 49
-0.25
 49
0.25
 49
-0.25
  0
LTYPE
  5
411
  2
DASHED
 70
0
  3
Dashed __ __ __ __ __
 72
65
 73
2
 40
0.75
 49
0.5
 49
-0.25
  0
LTYPE
  5
43B
  2
DOTTED
 70
0
  3
Dotted .  .  .  .
 72
65
 73
2
 40
0.2
 49
0.0
 49
-0.2
  0
ENDTAB
  0
TABLE
  2
STYLE
  70
4
  0
STYLE
  2
KICAD
  70
0
  40
0
  41
1
  42
1
  50
0
  71
0
  3
isocp.shx
  0
STYLE
  2
KICADB
  70
0
  40
0
  41
1
  42
1
  50
0
  71
0
  3
isocp.shx
  0
STYLE
  2
KICADI
  70
0
  40
0
  41
1
  42
1
  50
15
  71
0
  3
isocp.shx
  0
STYLE
  2
KICADBI
  70
0
  40
0
  41
1
  42
1
  50
15
  71
0
  3
isocp.shx
  0
ENDTAB
  0
TABLE
  2
LAYER
  70
1
  0
LAYER
  2
BLACK
  70
0
  62
7
  6
CONTINUOUS
  0
ENDTAB
  0
ENDSEC
  0
SECTION
  2
ENTITIES
0
ARC
8
BLACK
10
52.07
20
-114.3
40
10.16
50
-180
51
-90
0
ARC
8
BLACK
10
52.07
20
-17.78
40
10.16
50
90
51
180
0
LINE
8
BLACK
6
CONTINUOUS
10
52.07
20
-124.46
11
255.27
21
-124.46
0
LINE
8
BLACK
6
CONTINUOUS
10
265.43
20
-114.3
11
265.43
21
-17.78
0
LINE
8
BLACK
6
CONTINUOUS
10
41.91
20
-17.78
11
41.91
21
-114.3
0
ARC
8
BLACK
10
255.27
20
-17.78
40
10.16
50
-0
51
90
0
ARC
8
BLACK
10
255.27
20
-114.3
40
10.16
50
-90
51
-0
0
LINE
8
BLACK
6
CONTINUOUS
10
255.27
20
-7.62
11
52.07
21
-7.62
0
LINE
8
BLACK
6
CONTINUOUS
10
50.015
20
-61.445
11
50.315
21
-61.745
0
LINE
8
BLACK
6
CONTINUOUS
10
50.315
20
-61.445
11
50.015
21
-61.745
0
LINE
8
BLACK
6
CONTINUOUS
10
50.015
20
-70.335
11
50.315
21
-70.635
0
LINE
8
BLACK
6
CONTINUOUS
10
50.315
20
-70.335
11
50.015
21
-70.635
0
LINE
8
BLACK
6
CONTINUOUS
10
50.396
20
-63.35
11
50.696
21
-63.65
0
LINE
8
BLACK
6
CONTINUOUS
10
50.696
20
-63.35
11
50.396
21
-63.65
0
LINE
8
BLACK
6
CONTINUOUS
10
50.396
20
-68.43
11
50.696
21
-68.73
0
LINE
8
BLACK
6
CONTINUOUS
10
50.696
20
-68.43
11
50.396
21
-68.73
0
LINE
8
BLACK
6
CONTINUOUS
10
51.412
20
-65.89
11
51.712
21
-66.19
0
LINE
8
BLACK
6
CONTINUOUS
10
51.712
20
-65.89
11
51.412
21
-66.19
0
LINE
8
BLACK
6
CONTINUOUS
10
51.92
20
-61.826
11
52.22
21
-62.126
0
LINE
8
BLACK
6
CONTINUOUS
10
52.22
20
-61.826
11
51.92
21
-62.126
0
LINE
8
BLACK
6
CONTINUOUS
10
51.92
20
-69.954
11
52.22
21
-70.254
0
LINE
8
BLACK
6
CONTINUOUS
10
52.22
20
-69.954
11
51.92
21
-70.254
0
LINE
8
BLACK
6
CONTINUOUS
10
55.984
20
-31.346
11
56.284
21
-31.646
0
LINE
8
BLACK
6
CONTINUOUS
10
56.284
20
-31.346
11
55.984
21
-31.646
0
LINE
8
BLACK
6
CONTINUOUS
10
55.984
20
-44.046
11
56.284
21
-44.346
0
LINE
8
BLACK
6
CONTINUOUS
10
56.284
20
-44.046
11
55.984
21
-44.346
0
LINE
8
BLACK
6
CONTINUOUS
10
55.984
20
-56.746
11
56.284
21
-57.046
0
LINE
8
BLACK
6
CONTINUOUS
10
56.284
20
-56.746
11
55.984
21
-57.046
0
LINE
8
BLACK
6
CONTINUOUS
10
55.984
20
-69.446
11
56.284
21
-69.746
0
LINE
8
BLACK
6
CONTINUOUS
10
56.284
20
-69.446
11
55.984
21
-69.746
0
LINE
8
BLACK
6
CONTINUOUS
10
55.984
20
-82.146
11
56.284
21
-82.446
0
LINE
8
BLACK
6
CONTINUOUS
10
56.284
20
-82.146
11
55.984
21
-82.446
0
LINE
8
BLACK
6
CONTINUOUS
10
55.984
20
-94.846
11
56.284
21
-95.146
0
LINE
8
BLACK
6
CONTINUOUS
10
56.284
20
-94.846
11
55.984
21
-95.146
0
LINE
8
BLACK
6
CONTINUOUS
10
55.984
20
-107.546
11
56.284
21
-107.846
0
LINE
8
BLACK
6
CONTINUOUS
10
56.284
20
-107.546
11
55.984
21
-107.846
0
LINE
8
BLACK
6
CONTINUOUS
10
56.492
20
-27.282
11
56.792
21
-27.582
0
LINE
8
BLACK
6
CONTINUOUS
10
56.792
20
-27.282
11
56.492
21
-27.582
0
LINE
8
BLACK
6
CONTINUOUS
10
56.492
20
-39.982
11
56.792
21
-40.282
0
LINE
8
BLACK
6
CONTINUOUS
10
56.792
20
-39.982
11
56.492
21
-40.282
0
LINE
8
BLACK
6
CONTINUOUS
10
56.492
20
-52.682
11
56.792
21
-52.982
0
LINE
8
BLACK
6
CONTINUOUS
10
56.792
20
-52.682
11
56.492
21
-52.982
0
LINE
8
BLACK
6
CONTINUOUS
10
56.492
20
-65.382
11
56.792
21
-65.682
0
LINE
8
BLACK
6
CONTINUOUS
10
56.792
20
-65.382
11
56.492
21
-65.682
0
LINE
8
BLACK
6
CONTINUOUS
10
56.492
20
-78.082
11
56.792
21
-78.382
0
LINE
8
BLACK
6
CONTINUOUS
10
56.792
20
-78.082
11
56.492
21
-78.382
0
LINE
8
BLACK
6
CONTINUOUS
10
56.492
20
-90.782
11
56.792
21
-91.082
0
LINE
8
BLACK
6
CONTINUOUS
10
56.792
20
-90.782
11
56.492
21
-91.082
0
LINE
8
BLACK
6
CONTINUOUS
10
56.492
20
-103.482
11
56.792
21
-103.782
0
LINE
8
BLACK
6
CONTINUOUS
10
56.792
20
-103.482
11
56.492
21
-103.782
0
LINE
8
BLACK
6
CONTINUOUS
10
59.794
20
-29.568
11
60.094
21
-29.868
0
LINE
8
BLACK
6
CONTINUOUS
10
60.094
20
-29.568
11
59.794
21
-29.868
0
LINE
8
BLACK
6
CONTINUOUS
10
59.794
20
-42.268
11
60.094
21
-42.568
0
LINE
8
BLACK
6
CONTINUOUS
10
60.094
20
-42.268
11
59.794
21
-42.568
0
LINE
8
BLACK
6
CONTINUOUS
10
59.794
20
-54.968
11
60.094
21
-55.268
0
LINE
8
BLACK
6
CONTINUOUS
10
60.094
20
-54.968
11
59.794
21
-55.268
0
LINE
8
BLACK
6
CONTINUOUS
10
59.794
20
-67.668
11
60.094
21
-67.968
0
LINE
8
BLACK
6
CONTINUOUS
10
60.094
20
-67.668
11
59.794
21
-67.968
0
LINE
8
BLACK
6
CONTINUOUS
10
59.794
20
-80.368
11
60.094
21
-80.668
0
LINE
8
BLACK
6
CONTINUOUS
10
60.094
20
-80.368
11
59.794
21
-80.668
0
LINE
8
BLACK
6
CONTINUOUS
10
59.794
20
-93.068
11
60.094
21
-93.368
0
LINE
8
BLACK
6
CONTINUOUS
10
60.094
20
-93.068
11
59.794
21
-93.368
0
LINE
8
BLACK
6
CONTINUOUS
10
59.794
20
-105.768
11
60.094
21
-106.068
0
LINE
8
BLACK
6
CONTINUOUS
10
60.094
20
-105.768
11
59.794
21
-106.068
0
LINE
8
BLACK
6
CONTINUOUS
10
60.048
20
-23.98
11
60.348
21
-24.28
0
LINE
8
BLACK
6
CONTINUOUS
10
60.348
20
-23.98
11
60.048
21
-24.28
0
LINE
8
BLACK
6
CONTINUOUS
10
60.048
20
-26.266
11
60.348
21
-26.566
0
LINE
8
BLACK
6
CONTINUOUS
10
60.348
20
-26.266
11
60.048
21
-26.566
0
LINE
8
BLACK
6
CONTINUOUS
10
60.048
20
-27.282
11
60.348
21
-27.582
0
LINE
8
BLACK
6
CONTINUOUS
10
60.348
20
-27.282
11
60.048
21
-27.582
0
LINE
8
BLACK
6
CONTINUOUS
10
60.048
20
-36.68
11
60.348
21
-36.98
0
LINE
8
BLACK
6
CONTINUOUS
10
60.348
20
-36.68
11
60.048
21
-36.98
0
LINE
8
BLACK
6
CONTINUOUS
10
60.048
20
-38.966
11
60.348
21
-39.266
0
LINE
8
BLACK
6
CONTINUOUS
10
60.348
20
-38.966
11
60.048
21
-39.266
0
LINE
8
BLACK
6
CONTINUOUS
10
60.048
20
-39.982
11
60.348
21
-40.282
0
LINE
8
BLACK
6
CONTINUOUS
10
60.348
20
-39.982
11
60.048
21
-40.282
0
LINE
8
BLACK
6
CONTINUOUS
10
60.048
20
-49.38
11
60.348
21
-49.68
0
LINE
8
BLACK
6
CONTINUOUS
10
60.348
20
-49.38
11
60.048
21
-49.68
0
LINE
8
BLACK
6
CONTINUOUS
10
60.048
20
-51.666
11
60.348
21
-51.966
0
LINE
8
BLACK
6
CONTINUOUS
10
60.348
20
-51.666
11
60.048
21
-51.966
0
LINE
8
BLACK
6
CONTINUOUS
10
60.048
20
-52.682
11
60.348
21
-52.982
0
LINE
8
BLACK
6
CONTINUOUS
10
60.348
20
-52.682
11
60.048
21
-52.982
0
LINE
8
BLACK
6
CONTINUOUS
10
60.048
20
-62.08
11
60.348
21
-62.38
0
LINE
8
BLACK
6
CONTINUOUS
10
60.348
20
-62.08
11
60.048
21
-62.38
0
LINE
8
BLACK
6
CONTINUOUS
10
60.048
20
-64.366
11
60.348
21
-64.666
0
LINE
8
BLACK
6
CONTINUOUS
10
60.348
20
-64.366
11
60.048
21
-64.666
0
LINE
8
BLACK
6
CONTINUOUS
10
60.048
20
-65.382
11
60.348
21
-65.682
0
LINE
8
BLACK
6
CONTINUOUS
10
60.348
20
-65.382
11
60.048
21
-65.682
0
LINE
8
BLACK
6
CONTINUOUS
10
60.048
20
-74.78
11
60.348
21
-75.08
0
LINE
8
BLACK
6
CONTINUOUS
10
60.348
20
-74.78
11
60.048
21
-75.08
0
LINE
8
BLACK
6
CONTINUOUS
10
60.048
20
-77.066
11
60.348
21
-77.366
0
LINE
8
BLACK
6
CONTINUOUS
10
60.348
20
-77.066
11
60.048
21
-77.366
0
LINE
8
BLACK
6
CONTINUOUS
10
60.048
20
-78.082
11
60.348
21
-78.382
0
LINE
8
BLACK
6
CONTINUOUS
10
60.348
20
-78.082
11
60.048
21
-78.382
0
LINE
8
BLACK
6
CONTINUOUS
10
60.048
20
-87.48
11
60.348
21
-87.78
0
LINE
8
BLACK
6
CONTINUOUS
10
60.348
20
-87.48
11
60.048
21
-87.78
0
LINE
8
BLACK
6
CONTINUOUS
10
60.048
20
-89.766
11
60.348
21
-90.066
0
LINE
8
BLACK
6
CONTINUOUS
10
60.348
20
-89.766
11
60.048
21
-90.066
0
LINE
8
BLACK
6
CONTINUOUS
10
60.048
20
-90.782
11
60.348
21
-91.082
0
LINE
8
BLACK
6
CONTINUOUS
10
60.348
20
-90.782
11
60.048
21
-91.082
0
LINE
8
BLACK
6
CONTINUOUS
10
60.048
20
-100.18
11
60.348
21
-100.48
0
LINE
8
BLACK
6
CONTINUOUS
10
60.348
20
-100.18
11
60.048
21
-100.48
0
LINE
8
BLACK
6
CONTINUOUS
10
60.048
20
-102.466
11
60.348
21
-102.766
0
LINE
8
BLACK
6
CONTINUOUS
10
60.348
20
-102.466
11
60.048
21
-102.766
0
LINE
8
BLACK
6
CONTINUOUS
10
60.048
20
-103.482
11
60.348
21
-103.782
0
LINE
8
BLACK
6
CONTINUOUS
10
60.348
20
-103.482
11
60.048
21
-103.782
0
LINE
8
BLACK
6
CONTINUOUS
10
60.048
20
-112.118
11
60.348
21
-112.418
0
LINE
8
BLACK
6
CONTINUOUS
10
60.348
20
-112.118
11
60.048
21
-112.418
0
LINE
8
BLACK
6
CONTINUOUS
10
62.08
20
-32.87
11
62.38
21
-33.17
0
LINE
8
BLACK
6
CONTINUOUS
10
62.38
20
-32.87
11
62.08
21
-33.17
0
LINE
8
BLACK
6
CONTINUOUS
10
62.08
20
-45.57
11
62.38
21
-45.87
0
LINE
8
BLACK
6
CONTINUOUS
10
62.38
20
-45.57
11
62.08
21
-45.87
0
LINE
8
BLACK
6
CONTINUOUS
10
62.08
20
-58.27
11
62.38
21
-58.57
0
LINE
8
BLACK
6
CONTINUOUS
10
62.38
20
-58.27
11
62.08
21
-58.57
0
LINE
8
BLACK
6
CONTINUOUS
10
62.08
20
-70.97
11
62.38
21
-71.27
0
LINE
8
BLACK
6
CONTINUOUS
10
62.38
20
-70.97
11
62.08
21
-71.27
0
LINE
8
BLACK
6
CONTINUOUS
10
62.08
20
-83.67
11
62.38
21
-83.97
0
LINE
8
BLACK
6
CONTINUOUS
10
62.38
20
-83.67
11
62.08
21
-83.97
0
LINE
8
BLACK
6
CONTINUOUS
10
62.08
20
-96.37
11
62.38
21
-96.67
0
LINE
8
BLACK
6
CONTINUOUS
10
62.38
20
-96.37
11
62.08
21
-96.67
0
LINE
8
BLACK
6
CONTINUOUS
10
63.659
20
-111.555
11
63.959
21
-111.855
0
LINE
8
BLACK
6
CONTINUOUS
10
63.959
20
-111.555
11
63.659
21
-111.855
0
LINE
8
BLACK
6
CONTINUOUS
10
63.858
20
-27.79
11
64.158
21
-28.09
0
LINE
8
BLACK
6
CONTINUOUS
10
64.158
20
-27.79
11
63.858
21
-28.09
0
LINE
8
BLACK
6
CONTINUOUS
10
63.858
20
-40.49
11
64.158
21
-40.79
0
LINE
8
BLACK
6
CONTINUOUS
10
64.158
20
-40.49
11
63.858
21
-40.79
0
LINE
8
BLACK
6
CONTINUOUS
10
63.858
20
-53.19
11
64.158
21
-53.49
0
LINE
8
BLACK
6
CONTINUOUS
10
64.158
20
-53.19
11
63.858
21
-53.49
0
LINE
8
BLACK
6
CONTINUOUS
10
63.858
20
-65.89
11
64.158
21
-66.19
0
LINE
8
BLACK
6
CONTINUOUS
10
64.158
20
-65.89
11
63.858
21
-66.19
0
LINE
8
BLACK
6
CONTINUOUS
10
63.858
20
-78.59
11
64.158
21
-78.89
0
LINE
8
BLACK
6
CONTINUOUS
10
64.158
20
-78.59
11
63.858
21
-78.89
0
LINE
8
BLACK
6
CONTINUOUS
10
63.858
20
-91.29
11
64.158
21
-91.59
0
LINE
8
BLACK
6
CONTINUOUS
10
64.158
20
-91.29
11
63.858
21
-91.59
0
LINE
8
BLACK
6
CONTINUOUS
10
63.858
20
-103.99
11
64.158
21
-104.29
0
LINE
8
BLACK
6
CONTINUOUS
10
64.158
20
-103.99
11
63.858
21
-104.29
0
LINE
8
BLACK
6
CONTINUOUS
10
64.112
20
-108.054
11
64.412
21
-108.354
0
LINE
8
BLACK
6
CONTINUOUS
10
64.412
20
-108.054
11
64.112
21
-108.354
0
LINE
8
BLACK
6
CONTINUOUS
10
64.112
20
-120.195
11
64.412
21
-120.495
0
LINE
8
BLACK
6
CONTINUOUS
10
64.412
20
-120.195
11
64.112
21
-120.495
0
LINE
8
BLACK
6
CONTINUOUS
10
64.6157
20
-118.676
11
64.9157
21
-118.976
0
LINE
8
BLACK
6
CONTINUOUS
10
64.9157
20
-118.676
11
64.6157
21
-118.976
0
LINE
8
BLACK
6
CONTINUOUS
10
64.6243
20
-116.635
11
64.9243
21
-116.935
0
LINE
8
BLACK
6
CONTINUOUS
10
64.9243
20
-116.635
11
64.6243
21
-116.935
0
LINE
8
BLACK
6
CONTINUOUS
10
64.874
20
-26.774
11
65.174
21
-27.074
0
LINE
8
BLACK
6
CONTINUOUS
10
65.174
20
-26.774
11
64.874
21
-27.074
0
LINE
8
BLACK
6
CONTINUOUS
10
64.874
20
-39.474
11
65.174
21
-39.774
0
LINE
8
BLACK
6
CONTINUOUS
10
65.174
20
-39.474
11
64.874
21
-39.774
0
LINE
8
BLACK
6
CONTINUOUS
10
64.874
20
-52.174
11
65.174
21
-52.474
0
LINE
8
BLACK
6
CONTINUOUS
10
65.174
20
-52.174
11
64.874
21
-52.474
0
LINE
8
BLACK
6
CONTINUOUS
10
64.874
20
-64.874
11
65.174
21
-65.174
0
LINE
8
BLACK
6
CONTINUOUS
10
65.174
20
-64.874
11
64.874
21
-65.174
0
LINE
8
BLACK
6
CONTINUOUS
10
64.874
20
-77.574
11
65.174
21
-77.874
0
LINE
8
BLACK
6
CONTINUOUS
10
65.174
20
-77.574
11
64.874
21
-77.874
0
LINE
8
BLACK
6
CONTINUOUS
10
64.874
20
-90.274
11
65.174
21
-90.574
0
LINE
8
BLACK
6
CONTINUOUS
10
65.174
20
-90.274
11
64.874
21
-90.574
0
LINE
8
BLACK
6
CONTINUOUS
10
64.874
20
-102.974
11
65.174
21
-103.274
0
LINE
8
BLACK
6
CONTINUOUS
10
65.174
20
-102.974
11
64.874
21
-103.274
0
LINE
8
BLACK
6
CONTINUOUS
10
65.636
20
-29.06
11
65.936
21
-29.36
0
LINE
8
BLACK
6
CONTINUOUS
10
65.936
20
-29.06
11
65.636
21
-29.36
0
LINE
8
BLACK
6
CONTINUOUS
10
65.636
20
-41.76
11
65.936
21
-42.06
0
LINE
8
BLACK
6
CONTINUOUS
10
65.936
20
-41.76
11
65.636
21
-42.06
0
LINE
8
BLACK
6
CONTINUOUS
10
65.636
20
-54.46
11
65.936
21
-54.76
0
LINE
8
BLACK
6
CONTINUOUS
10
65.936
20
-54.46
11
65.636
21
-54.76
0
LINE
8
BLACK
6
CONTINUOUS
10
65.636
20
-67.16
11
65.936
21
-67.46
0
LINE
8
BLACK
6
CONTINUOUS
10
65.936
20
-67.16
11
65.636
21
-67.46
0
LINE
8
BLACK
6
CONTINUOUS
10
65.636
20
-79.86
11
65.936
21
-80.16
0
LINE
8
BLACK
6
CONTINUOUS
10
65.936
20
-79.86
11
65.636
21
-80.16
0
LINE
8
BLACK
6
CONTINUOUS
10
65.636
20
-92.56
11
65.936
21
-92.86
0
LINE
8
BLACK
6
CONTINUOUS
10
65.936
20
-92.56
11
65.636
21
-92.86
0
LINE
8
BLACK
6
CONTINUOUS
10
65.636
20
-105.26
11
65.936
21
-105.56
0
LINE
8
BLACK
6
CONTINUOUS
10
65.936
20
-105.26
11
65.636
21
-105.56
0
LINE
8
BLACK
6
CONTINUOUS
10
68.739
20
-111.555
11
69.039
21
-111.855
0
LINE
8
BLACK
6
CONTINUOUS
10
69.039
20
-111.555
11
68.739
21
-111.855
0
LINE
8
BLACK
6
CONTINUOUS
10
69.192
20
-29.06
11
69.492
21
-29.36
0
LINE
8
BLACK
6
CONTINUOUS
10
69.492
20
-29.06
11
69.192
21
-29.36
0
LINE
8
BLACK
6
CONTINUOUS
10
69.192
20
-41.76
11
69.492
21
-42.06
0
LINE
8
BLACK
6
CONTINUOUS
10
69.492
20
-41.76
11
69.192
21
-42.06
0
LINE
8
BLACK
6
CONTINUOUS
10
69.192
20
-54.46
11
69.492
21
-54.76
0
LINE
8
BLACK
6
CONTINUOUS
10
69.492
20
-54.46
11
69.192
21
-54.76
0
LINE
8
BLACK
6
CONTINUOUS
10
69.192
20
-67.16
11
69.492
21
-67.46
0
LINE
8
BLACK
6
CONTINUOUS
10
69.492
20
-67.16
11
69.192
21
-67.46
0
LINE
8
BLACK
6
CONTINUOUS
10
69.192
20
-79.86
11
69.492
21
-80.16
0
LINE
8
BLACK
6
CONTINUOUS
10
69.492
20
-79.86
11
69.192
21
-80.16
0
LINE
8
BLACK
6
CONTINUOUS
10
69.192
20
-92.56
11
69.492
21
-92.86
0
LINE
8
BLACK
6
CONTINUOUS
10
69.492
20
-92.56
11
69.192
21
-92.86
0
LINE
8
BLACK
6
CONTINUOUS
10
69.192
20
-105.26
11
69.492
21
-105.56
0
LINE
8
BLACK
6
CONTINUOUS
10
69.492
20
-105.26
11
69.192
21
-105.56
0
LINE
8
BLACK
6
CONTINUOUS
10
69.192
20
-116.69
11
69.492
21
-116.99
0
LINE
8
BLACK
6
CONTINUOUS
10
69.492
20
-116.69
11
69.192
21
-116.99
0
LINE
8
BLACK
6
CONTINUOUS
10
69.645
20
-110.539
11
69.945
21
-110.839
0
LINE
8
BLACK
6
CONTINUOUS
10
69.945
20
-110.539
11
69.645
21
-110.839
0
LINE
8
BLACK
6
CONTINUOUS
10
70.462
20
-24.742
11
70.762
21
-25.042
0
LINE
8
BLACK
6
CONTINUOUS
10
70.762
20
-24.742
11
70.462
21
-25.042
0
LINE
8
BLACK
6
CONTINUOUS
10
70.462
20
-37.442
11
70.762
21
-37.742
0
LINE
8
BLACK
6
CONTINUOUS
10
70.762
20
-37.442
11
70.462
21
-37.742
0
LINE
8
BLACK
6
CONTINUOUS
10
70.462
20
-50.142
11
70.762
21
-50.442
0
LINE
8
BLACK
6
CONTINUOUS
10
70.762
20
-50.142
11
70.462
21
-50.442
0
LINE
8
BLACK
6
CONTINUOUS
10
70.462
20
-62.842
11
70.762
21
-63.142
0
LINE
8
BLACK
6
CONTINUOUS
10
70.762
20
-62.842
11
70.462
21
-63.142
0
LINE
8
BLACK
6
CONTINUOUS
10
70.462
20
-75.542
11
70.762
21
-75.842
0
LINE
8
BLACK
6
CONTINUOUS
10
70.762
20
-75.542
11
70.462
21
-75.842
0
LINE
8
BLACK
6
CONTINUOUS
10
70.462
20
-88.242
11
70.762
21
-88.542
0
LINE
8
BLACK
6
CONTINUOUS
10
70.762
20
-88.242
11
70.462
21
-88.542
0
LINE
8
BLACK
6
CONTINUOUS
10
70.462
20
-100.942
11
70.762
21
-101.242
0
LINE
8
BLACK
6
CONTINUOUS
10
70.762
20
-100.942
11
70.462
21
-101.242
0
LINE
8
BLACK
6
CONTINUOUS
10
70.5013
20
-113.587
11
70.8013
21
-113.887
0
LINE
8
BLACK
6
CONTINUOUS
10
70.8013
20
-113.587
11
70.5013
21
-113.887
0
LINE
8
BLACK
6
CONTINUOUS
10
71.732
20
-12.55
11
72.032
21
-12.85
0
LINE
8
BLACK
6
CONTINUOUS
10
72.032
20
-12.55
11
71.732
21
-12.85
0
LINE
8
BLACK
6
CONTINUOUS
10
71.732
20
-19.662
11
72.032
21
-19.962
0
LINE
8
BLACK
6
CONTINUOUS
10
72.032
20
-19.662
11
71.732
21
-19.962
0
LINE
8
BLACK
6
CONTINUOUS
10
73.819
20
-110.539
11
74.119
21
-110.839
0
LINE
8
BLACK
6
CONTINUOUS
10
74.119
20
-110.539
11
73.819
21
-110.839
0
LINE
8
BLACK
6
CONTINUOUS
10
74.272
20
-13.058
11
74.572
21
-13.358
0
LINE
8
BLACK
6
CONTINUOUS
10
74.572
20
-13.058
11
74.272
21
-13.358
0
LINE
8
BLACK
6
CONTINUOUS
10
74.272
20
-19.662
11
74.572
21
-19.962
0
LINE
8
BLACK
6
CONTINUOUS
10
74.572
20
-19.662
11
74.272
21
-19.962
0
LINE
8
BLACK
6
CONTINUOUS
10
74.78
20
-94.846
11
75.08
21
-95.146
0
LINE
8
BLACK
6
CONTINUOUS
10
75.08
20
-94.846
11
74.78
21
-95.146
0
LINE
8
BLACK
6
CONTINUOUS
10
74.78
20
-102.466
11
75.08
21
-102.766
0
LINE
8
BLACK
6
CONTINUOUS
10
75.08
20
-102.466
11
74.78
21
-102.766
0
LINE
8
BLACK
6
CONTINUOUS
10
74.78
20
-103.99
11
75.08
21
-104.29
0
LINE
8
BLACK
6
CONTINUOUS
10
75.08
20
-103.99
11
74.78
21
-104.29
0
LINE
8
BLACK
6
CONTINUOUS
10
75.288
20
-98.91
11
75.588
21
-99.21
0
LINE
8
BLACK
6
CONTINUOUS
10
75.588
20
-98.91
11
75.288
21
-99.21
0
LINE
8
BLACK
6
CONTINUOUS
10
75.796
20
-20.17
11
76.096
21
-20.47
0
LINE
8
BLACK
6
CONTINUOUS
10
76.096
20
-20.17
11
75.796
21
-20.47
0
LINE
8
BLACK
6
CONTINUOUS
10
75.796
20
-56.238
11
76.096
21
-56.538
0
LINE
8
BLACK
6
CONTINUOUS
10
76.096
20
-56.238
11
75.796
21
-56.538
0
LINE
8
BLACK
6
CONTINUOUS
10
75.796
20
-85.194
11
76.096
21
-85.494
0
LINE
8
BLACK
6
CONTINUOUS
10
76.096
20
-85.194
11
75.796
21
-85.494
0
LINE
8
BLACK
6
CONTINUOUS
10
76.304
20
-112.118
11
76.604
21
-112.418
0
LINE
8
BLACK
6
CONTINUOUS
10
76.604
20
-112.118
11
76.304
21
-112.418
0
LINE
8
BLACK
6
CONTINUOUS
10
76.812
20
-38.458
11
77.112
21
-38.758
0
LINE
8
BLACK
6
CONTINUOUS
10
77.112
20
-38.458
11
76.812
21
-38.758
0
LINE
8
BLACK
6
CONTINUOUS
10
76.812
20
-91.29
11
77.112
21
-91.59
0
LINE
8
BLACK
6
CONTINUOUS
10
77.112
20
-91.29
11
76.812
21
-91.59
0
LINE
8
BLACK
6
CONTINUOUS
10
76.812
20
-113.642
11
77.112
21
-113.942
0
LINE
8
BLACK
6
CONTINUOUS
10
77.112
20
-113.642
11
76.812
21
-113.942
0
LINE
8
BLACK
6
CONTINUOUS
10
78.336
20
-84.178
11
78.636
21
-84.478
0
LINE
8
BLACK
6
CONTINUOUS
10
78.636
20
-84.178
11
78.336
21
-84.478
0
LINE
8
BLACK
6
CONTINUOUS
10
79.352
20
-37.442
11
79.652
21
-37.742
0
LINE
8
BLACK
6
CONTINUOUS
10
79.652
20
-37.442
11
79.352
21
-37.742
0
LINE
8
BLACK
6
CONTINUOUS
10
79.352
20
-45.062
11
79.652
21
-45.362
0
LINE
8
BLACK
6
CONTINUOUS
10
79.652
20
-45.062
11
79.352
21
-45.362
0
LINE
8
BLACK
6
CONTINUOUS
10
79.86
20
-81.13
11
80.16
21
-81.43
0
LINE
8
BLACK
6
CONTINUOUS
10
80.16
20
-81.13
11
79.86
21
-81.43
0
LINE
8
BLACK
6
CONTINUOUS
10
80.234
20
-94.791
11
80.534
21
-95.091
0
LINE
8
BLACK
6
CONTINUOUS
10
80.534
20
-94.791
11
80.234
21
-95.091
0
LINE
8
BLACK
6
CONTINUOUS
10
80.368
20
-56.746
11
80.668
21
-57.046
0
LINE
8
BLACK
6
CONTINUOUS
10
80.668
20
-56.746
11
80.368
21
-57.046
0
LINE
8
BLACK
6
CONTINUOUS
10
80.368
20
-72.494
11
80.668
21
-72.794
0
LINE
8
BLACK
6
CONTINUOUS
10
80.668
20
-72.494
11
80.368
21
-72.794
0
LINE
8
BLACK
6
CONTINUOUS
10
80.368
20
-77.574
11
80.668
21
-77.874
0
LINE
8
BLACK
6
CONTINUOUS
10
80.668
20
-77.574
11
80.368
21
-77.874
0
LINE
8
BLACK
6
CONTINUOUS
10
80.488
20
-70.661
11
80.788
21
-70.961
0
LINE
8
BLACK
6
CONTINUOUS
10
80.788
20
-70.661
11
80.488
21
-70.961
0
LINE
8
BLACK
6
CONTINUOUS
10
80.488
20
-102.411
11
80.788
21
-102.711
0
LINE
8
BLACK
6
CONTINUOUS
10
80.788
20
-102.411
11
80.488
21
-102.711
0
LINE
8
BLACK
6
CONTINUOUS
10
80.8253
20
-116.639
11
81.1253
21
-116.939
0
LINE
8
BLACK
6
CONTINUOUS
10
81.1253
20
-116.639
11
80.8253
21
-116.939
0
LINE
8
BLACK
6
CONTINUOUS
10
81.25
20
-48.309
11
81.55
21
-48.609
0
LINE
8
BLACK
6
CONTINUOUS
10
81.55
20
-48.309
11
81.25
21
-48.609
0
LINE
8
BLACK
6
CONTINUOUS
10
81.25
20
-51.103
11
81.55
21
-51.403
0
LINE
8
BLACK
6
CONTINUOUS
10
81.55
20
-51.103
11
81.25
21
-51.403
0
LINE
8
BLACK
6
CONTINUOUS
10
81.384
20
-100.434
11
81.684
21
-100.734
0
LINE
8
BLACK
6
CONTINUOUS
10
81.684
20
-100.434
11
81.384
21
-100.734
0
LINE
8
BLACK
6
CONTINUOUS
10
82.4
20
-30.33
11
82.7
21
-30.63
0
LINE
8
BLACK
6
CONTINUOUS
10
82.7
20
-30.33
11
82.4
21
-30.63
0
LINE
8
BLACK
6
CONTINUOUS
10
82.4
20
-108.054
11
82.7
21
-108.354
0
LINE
8
BLACK
6
CONTINUOUS
10
82.7
20
-108.054
11
82.4
21
-108.354
0
LINE
8
BLACK
6
CONTINUOUS
10
83.416
20
-32.362
11
83.716
21
-32.662
0
LINE
8
BLACK
6
CONTINUOUS
10
83.716
20
-32.362
11
83.416
21
-32.662
0
LINE
8
BLACK
6
CONTINUOUS
10
83.924
20
-57.762
11
84.224
21
-58.062
0
LINE
8
BLACK
6
CONTINUOUS
10
84.224
20
-57.762
11
83.924
21
-58.062
0
LINE
8
BLACK
6
CONTINUOUS
10
83.924
20
-90.274
11
84.224
21
-90.574
0
LINE
8
BLACK
6
CONTINUOUS
10
84.224
20
-90.274
11
83.924
21
-90.574
0
LINE
8
BLACK
6
CONTINUOUS
10
84.94
20
-102.466
11
85.24
21
-102.766
0
LINE
8
BLACK
6
CONTINUOUS
10
85.24
20
-102.466
11
84.94
21
-102.766
0
LINE
8
BLACK
6
CONTINUOUS
10
85.194
20
-98.402
11
85.494
21
-98.702
0
LINE
8
BLACK
6
CONTINUOUS
10
85.494
20
-98.402
11
85.194
21
-98.702
0
LINE
8
BLACK
6
CONTINUOUS
10
85.956
20
-66.906
11
86.256
21
-67.206
0
LINE
8
BLACK
6
CONTINUOUS
10
86.256
20
-66.906
11
85.956
21
-67.206
0
LINE
8
BLACK
6
CONTINUOUS
10
85.956
20
-92.814
11
86.256
21
-93.114
0
LINE
8
BLACK
6
CONTINUOUS
10
86.256
20
-92.814
11
85.956
21
-93.114
0
LINE
8
BLACK
6
CONTINUOUS
10
85.956
20
-111.61
11
86.256
21
-111.91
0
LINE
8
BLACK
6
CONTINUOUS
10
86.256
20
-111.61
11
85.956
21
-111.91
0
LINE
8
BLACK
6
CONTINUOUS
10
86.972
20
-87.734
11
87.272
21
-88.034
0
LINE
8
BLACK
6
CONTINUOUS
10
87.272
20
-87.734
11
86.972
21
-88.034
0
LINE
8
BLACK
6
CONTINUOUS
10
86.972
20
-96.37
11
87.272
21
-96.67
0
LINE
8
BLACK
6
CONTINUOUS
10
87.272
20
-96.37
11
86.972
21
-96.67
0
LINE
8
BLACK
6
CONTINUOUS
10
87.48
20
-84.178
11
87.78
21
-84.478
0
LINE
8
BLACK
6
CONTINUOUS
10
87.78
20
-84.178
11
87.48
21
-84.478
0
LINE
8
BLACK
6
CONTINUOUS
10
87.988
20
-18.646
11
88.288
21
-18.946
0
LINE
8
BLACK
6
CONTINUOUS
10
88.288
20
-18.646
11
87.988
21
-18.946
0
LINE
8
BLACK
6
CONTINUOUS
10
87.988
20
-108.054
11
88.288
21
-108.354
0
LINE
8
BLACK
6
CONTINUOUS
10
88.288
20
-108.054
11
87.988
21
-108.354
0
LINE
8
BLACK
6
CONTINUOUS
10
88.043
20
-97.331
11
88.343
21
-97.631
0
LINE
8
BLACK
6
CONTINUOUS
10
88.343
20
-97.331
11
88.043
21
-97.631
0
LINE
8
BLACK
6
CONTINUOUS
10
89.004
20
-72.494
11
89.304
21
-72.794
0
LINE
8
BLACK
6
CONTINUOUS
10
89.304
20
-72.494
11
89.004
21
-72.794
0
LINE
8
BLACK
6
CONTINUOUS
10
89.004
20
-79.098
11
89.304
21
-79.398
0
LINE
8
BLACK
6
CONTINUOUS
10
89.304
20
-79.098
11
89.004
21
-79.398
0
LINE
8
BLACK
6
CONTINUOUS
10
89.004
20
-92.306
11
89.304
21
-92.606
0
LINE
8
BLACK
6
CONTINUOUS
10
89.304
20
-92.306
11
89.004
21
-92.606
0
LINE
8
BLACK
6
CONTINUOUS
10
89.512
20
-31.854
11
89.812
21
-32.154
0
LINE
8
BLACK
6
CONTINUOUS
10
89.812
20
-31.854
11
89.512
21
-32.154
0
LINE
8
BLACK
6
CONTINUOUS
10
90.528
20
-68.938
11
90.828
21
-69.238
0
LINE
8
BLACK
6
CONTINUOUS
10
90.828
20
-68.938
11
90.528
21
-69.238
0
LINE
8
BLACK
6
CONTINUOUS
10
91.036
20
-78.082
11
91.336
21
-78.382
0
LINE
8
BLACK
6
CONTINUOUS
10
91.336
20
-78.082
11
91.036
21
-78.382
0
LINE
8
BLACK
6
CONTINUOUS
10
91.544
20
-91.29
11
91.844
21
-91.59
0
LINE
8
BLACK
6
CONTINUOUS
10
91.844
20
-91.29
11
91.544
21
-91.59
0
LINE
8
BLACK
6
CONTINUOUS
10
92.052
20
-30.33
11
92.352
21
-30.63
0
LINE
8
BLACK
6
CONTINUOUS
10
92.352
20
-30.33
11
92.052
21
-30.63
0
LINE
8
BLACK
6
CONTINUOUS
10
92.56
20
-11.534
11
92.86
21
-11.834
0
LINE
8
BLACK
6
CONTINUOUS
10
92.86
20
-11.534
11
92.56
21
-11.834
0
LINE
8
BLACK
6
CONTINUOUS
10
92.56
20
-69.065
11
92.86
21
-69.365
0
LINE
8
BLACK
6
CONTINUOUS
10
92.86
20
-69.065
11
92.56
21
-69.365
0
LINE
8
BLACK
6
CONTINUOUS
10
92.56
20
-94.338
11
92.86
21
-94.638
0
LINE
8
BLACK
6
CONTINUOUS
10
92.86
20
-94.338
11
92.56
21
-94.638
0
LINE
8
BLACK
6
CONTINUOUS
10
92.56
20
-100.434
11
92.86
21
-100.734
0
LINE
8
BLACK
6
CONTINUOUS
10
92.86
20
-100.434
11
92.56
21
-100.734
0
LINE
8
BLACK
6
CONTINUOUS
10
93.576
20
-121.516
11
93.876
21
-121.816
0
LINE
8
BLACK
6
CONTINUOUS
10
93.876
20
-121.516
11
93.576
21
-121.816
0
LINE
8
BLACK
6
CONTINUOUS
10
94.592
20
-93.83
11
94.892
21
-94.13
0
LINE
8
BLACK
6
CONTINUOUS
10
94.892
20
-93.83
11
94.592
21
-94.13
0
LINE
8
BLACK
6
CONTINUOUS
10
94.592
20
-98.402
11
94.892
21
-98.702
0
LINE
8
BLACK
6
CONTINUOUS
10
94.892
20
-98.402
11
94.592
21
-98.702
0
LINE
8
BLACK
6
CONTINUOUS
10
95.608
20
-80.114
11
95.908
21
-80.414
0
LINE
8
BLACK
6
CONTINUOUS
10
95.908
20
-80.114
11
95.608
21
-80.414
0
LINE
8
BLACK
6
CONTINUOUS
10
95.608
20
-91.29
11
95.908
21
-91.59
0
LINE
8
BLACK
6
CONTINUOUS
10
95.908
20
-91.29
11
95.608
21
-91.59
0
LINE
8
BLACK
6
CONTINUOUS
10
95.608
20
-94.338
11
95.908
21
-94.638
0
LINE
8
BLACK
6
CONTINUOUS
10
95.908
20
-94.338
11
95.608
21
-94.638
0
LINE
8
BLACK
6
CONTINUOUS
10
95.608
20
-99.418
11
95.908
21
-99.718
0
LINE
8
BLACK
6
CONTINUOUS
10
95.908
20
-99.418
11
95.608
21
-99.718
0
LINE
8
BLACK
6
CONTINUOUS
10
96.624
20
-87.734
11
96.924
21
-88.034
0
LINE
8
BLACK
6
CONTINUOUS
10
96.924
20
-87.734
11
96.624
21
-88.034
0
LINE
8
BLACK
6
CONTINUOUS
10
96.624
20
-94.846
11
96.924
21
-95.146
0
LINE
8
BLACK
6
CONTINUOUS
10
96.924
20
-94.846
11
96.624
21
-95.146
0
LINE
8
BLACK
6
CONTINUOUS
10
96.624
20
-98.402
11
96.924
21
-98.702
0
LINE
8
BLACK
6
CONTINUOUS
10
96.924
20
-98.402
11
96.624
21
-98.702
0
LINE
8
BLACK
6
CONTINUOUS
10
97.132
20
-116.69
11
97.432
21
-116.99
0
LINE
8
BLACK
6
CONTINUOUS
10
97.432
20
-116.69
11
97.132
21
-116.99
0
LINE
8
BLACK
6
CONTINUOUS
10
97.132
20
-121.77
11
97.432
21
-122.07
0
LINE
8
BLACK
6
CONTINUOUS
10
97.432
20
-121.77
11
97.132
21
-122.07
0
LINE
8
BLACK
6
CONTINUOUS
10
97.136
20
-14.074
11
97.436
21
-14.374
0
LINE
8
BLACK
6
CONTINUOUS
10
97.436
20
-14.074
11
97.136
21
-14.374
0
LINE
8
BLACK
6
CONTINUOUS
10
97.136
20
-19.154
11
97.436
21
-19.454
0
LINE
8
BLACK
6
CONTINUOUS
10
97.436
20
-19.154
11
97.136
21
-19.454
0
LINE
8
BLACK
6
CONTINUOUS
10
98.144
20
-116.69
11
98.444
21
-116.99
0
LINE
8
BLACK
6
CONTINUOUS
10
98.444
20
-116.69
11
98.144
21
-116.99
0
LINE
8
BLACK
6
CONTINUOUS
10
98.144
20
-121.77
11
98.444
21
-122.07
0
LINE
8
BLACK
6
CONTINUOUS
10
98.444
20
-121.77
11
98.144
21
-122.07
0
LINE
8
BLACK
6
CONTINUOUS
10
98.148
20
-14.074
11
98.448
21
-14.374
0
LINE
8
BLACK
6
CONTINUOUS
10
98.448
20
-14.074
11
98.148
21
-14.374
0
LINE
8
BLACK
6
CONTINUOUS
10
98.148
20
-19.154
11
98.448
21
-19.454
0
LINE
8
BLACK
6
CONTINUOUS
10
98.448
20
-19.154
11
98.148
21
-19.454
0
LINE
8
BLACK
6
CONTINUOUS
10
98.148
20
-84.686
11
98.448
21
-84.986
0
LINE
8
BLACK
6
CONTINUOUS
10
98.448
20
-84.686
11
98.148
21
-84.986
0
LINE
8
BLACK
6
CONTINUOUS
10
98.148
20
-88.75
11
98.448
21
-89.05
0
LINE
8
BLACK
6
CONTINUOUS
10
98.448
20
-88.75
11
98.148
21
-89.05
0
LINE
8
BLACK
6
CONTINUOUS
10
98.148
20
-94.338
11
98.448
21
-94.638
0
LINE
8
BLACK
6
CONTINUOUS
10
98.448
20
-94.338
11
98.148
21
-94.638
0
LINE
8
BLACK
6
CONTINUOUS
10
98.148
20
-99.418
11
98.448
21
-99.718
0
LINE
8
BLACK
6
CONTINUOUS
10
98.448
20
-99.418
11
98.148
21
-99.718
0
LINE
8
BLACK
6
CONTINUOUS
10
102.212
20
-116.69
11
102.512
21
-116.99
0
LINE
8
BLACK
6
CONTINUOUS
10
102.512
20
-116.69
11
102.212
21
-116.99
0
LINE
8
BLACK
6
CONTINUOUS
10
102.212
20
-121.77
11
102.512
21
-122.07
0
LINE
8
BLACK
6
CONTINUOUS
10
102.512
20
-121.77
11
102.212
21
-122.07
0
LINE
8
BLACK
6
CONTINUOUS
10
102.216
20
-14.074
11
102.516
21
-14.374
0
LINE
8
BLACK
6
CONTINUOUS
10
102.516
20
-14.074
11
102.216
21
-14.374
0
LINE
8
BLACK
6
CONTINUOUS
10
102.216
20
-19.154
11
102.516
21
-19.454
0
LINE
8
BLACK
6
CONTINUOUS
10
102.516
20
-19.154
11
102.216
21
-19.454
0
LINE
8
BLACK
6
CONTINUOUS
10
102.72
20
-78.5888
11
103.02
21
-78.8888
0
LINE
8
BLACK
6
CONTINUOUS
10
103.02
20
-78.5888
11
102.72
21
-78.8888
0
LINE
8
BLACK
6
CONTINUOUS
10
102.72
20
-27.79
11
103.02
21
-28.09
0
LINE
8
BLACK
6
CONTINUOUS
10
103.02
20
-27.79
11
102.72
21
-28.09
0
LINE
8
BLACK
6
CONTINUOUS
10
102.72
20
-32.87
11
103.02
21
-33.17
0
LINE
8
BLACK
6
CONTINUOUS
10
103.02
20
-32.87
11
102.72
21
-33.17
0
LINE
8
BLACK
6
CONTINUOUS
10
102.72
20
-37.442
11
103.02
21
-37.742
0
LINE
8
BLACK
6
CONTINUOUS
10
103.02
20
-37.442
11
102.72
21
-37.742
0
LINE
8
BLACK
6
CONTINUOUS
10
102.72
20
-43.03
11
103.02
21
-43.33
0
LINE
8
BLACK
6
CONTINUOUS
10
103.02
20
-43.03
11
102.72
21
-43.33
0
LINE
8
BLACK
6
CONTINUOUS
10
102.72
20
-48.11
11
103.02
21
-48.41
0
LINE
8
BLACK
6
CONTINUOUS
10
103.02
20
-48.11
11
102.72
21
-48.41
0
LINE
8
BLACK
6
CONTINUOUS
10
102.72
20
-52.174
11
103.02
21
-52.474
0
LINE
8
BLACK
6
CONTINUOUS
10
103.02
20
-52.174
11
102.72
21
-52.474
0
LINE
8
BLACK
6
CONTINUOUS
10
102.72
20
-58.27
11
103.02
21
-58.57
0
LINE
8
BLACK
6
CONTINUOUS
10
103.02
20
-58.27
11
102.72
21
-58.57
0
LINE
8
BLACK
6
CONTINUOUS
10
102.72
20
-62.842
11
103.02
21
-63.142
0
LINE
8
BLACK
6
CONTINUOUS
10
103.02
20
-62.842
11
102.72
21
-63.142
0
LINE
8
BLACK
6
CONTINUOUS
10
102.72
20
-68.43
11
103.02
21
-68.73
0
LINE
8
BLACK
6
CONTINUOUS
10
103.02
20
-68.43
11
102.72
21
-68.73
0
LINE
8
BLACK
6
CONTINUOUS
10
102.72
20
-73.002
11
103.02
21
-73.302
0
LINE
8
BLACK
6
CONTINUOUS
10
103.02
20
-73.002
11
102.72
21
-73.302
0
LINE
8
BLACK
6
CONTINUOUS
10
102.72
20
-83.162
11
103.02
21
-83.462
0
LINE
8
BLACK
6
CONTINUOUS
10
103.02
20
-83.162
11
102.72
21
-83.462
0
LINE
8
BLACK
6
CONTINUOUS
10
102.72
20
-88.75
11
103.02
21
-89.05
0
LINE
8
BLACK
6
CONTINUOUS
10
103.02
20
-88.75
11
102.72
21
-89.05
0
LINE
8
BLACK
6
CONTINUOUS
10
102.72
20
-93.322
11
103.02
21
-93.622
0
LINE
8
BLACK
6
CONTINUOUS
10
103.02
20
-93.322
11
102.72
21
-93.622
0
LINE
8
BLACK
6
CONTINUOUS
10
102.72
20
-98.91
11
103.02
21
-99.21
0
LINE
8
BLACK
6
CONTINUOUS
10
103.02
20
-98.91
11
102.72
21
-99.21
0
LINE
8
BLACK
6
CONTINUOUS
10
102.877
20
-103.325
11
103.177
21
-103.625
0
LINE
8
BLACK
6
CONTINUOUS
10
103.177
20
-103.325
11
102.877
21
-103.625
0
LINE
8
BLACK
6
CONTINUOUS
10
103.224
20
-116.69
11
103.524
21
-116.99
0
LINE
8
BLACK
6
CONTINUOUS
10
103.524
20
-116.69
11
103.224
21
-116.99
0
LINE
8
BLACK
6
CONTINUOUS
10
103.224
20
-121.77
11
103.524
21
-122.07
0
LINE
8
BLACK
6
CONTINUOUS
10
103.524
20
-121.77
11
103.224
21
-122.07
0
LINE
8
BLACK
6
CONTINUOUS
10
103.228
20
-14.074
11
103.528
21
-14.374
0
LINE
8
BLACK
6
CONTINUOUS
10
103.528
20
-14.074
11
103.228
21
-14.374
0
LINE
8
BLACK
6
CONTINUOUS
10
103.228
20
-19.154
11
103.528
21
-19.454
0
LINE
8
BLACK
6
CONTINUOUS
10
103.528
20
-19.154
11
103.228
21
-19.454
0
LINE
8
BLACK
6
CONTINUOUS
10
107.292
20
-116.69
11
107.592
21
-116.99
0
LINE
8
BLACK
6
CONTINUOUS
10
107.592
20
-116.69
11
107.292
21
-116.99
0
LINE
8
BLACK
6
CONTINUOUS
10
107.292
20
-121.77
11
107.592
21
-122.07
0
LINE
8
BLACK
6
CONTINUOUS
10
107.592
20
-121.77
11
107.292
21
-122.07
0
LINE
8
BLACK
6
CONTINUOUS
10
107.296
20
-14.074
11
107.596
21
-14.374
0
LINE
8
BLACK
6
CONTINUOUS
10
107.596
20
-14.074
11
107.296
21
-14.374
0
LINE
8
BLACK
6
CONTINUOUS
10
107.296
20
-19.154
11
107.596
21
-19.454
0
LINE
8
BLACK
6
CONTINUOUS
10
107.596
20
-19.154
11
107.296
21
-19.454
0
LINE
8
BLACK
6
CONTINUOUS
10
108.304
20
-116.69
11
108.604
21
-116.99
0
LINE
8
BLACK
6
CONTINUOUS
10
108.604
20
-116.69
11
108.304
21
-116.99
0
LINE
8
BLACK
6
CONTINUOUS
10
108.304
20
-121.77
11
108.604
21
-122.07
0
LINE
8
BLACK
6
CONTINUOUS
10
108.604
20
-121.77
11
108.304
21
-122.07
0
LINE
8
BLACK
6
CONTINUOUS
10
108.308
20
-14.074
11
108.608
21
-14.374
0
LINE
8
BLACK
6
CONTINUOUS
10
108.608
20
-14.074
11
108.308
21
-14.374
0
LINE
8
BLACK
6
CONTINUOUS
10
108.308
20
-19.154
11
108.608
21
-19.454
0
LINE
8
BLACK
6
CONTINUOUS
10
108.608
20
-19.154
11
108.308
21
-19.454
0
LINE
8
BLACK
6
CONTINUOUS
10
112.372
20
-116.69
11
112.672
21
-116.99
0
LINE
8
BLACK
6
CONTINUOUS
10
112.672
20
-116.69
11
112.372
21
-116.99
0
LINE
8
BLACK
6
CONTINUOUS
10
112.372
20
-121.77
11
112.672
21
-122.07
0
LINE
8
BLACK
6
CONTINUOUS
10
112.672
20
-121.77
11
112.372
21
-122.07
0
LINE
8
BLACK
6
CONTINUOUS
10
112.376
20
-14.074
11
112.676
21
-14.374
0
LINE
8
BLACK
6
CONTINUOUS
10
112.676
20
-14.074
11
112.376
21
-14.374
0
LINE
8
BLACK
6
CONTINUOUS
10
112.376
20
-19.154
11
112.676
21
-19.454
0
LINE
8
BLACK
6
CONTINUOUS
10
112.676
20
-19.154
11
112.376
21
-19.454
0
LINE
8
BLACK
6
CONTINUOUS
10
113.384
20
-116.69
11
113.684
21
-116.99
0
LINE
8
BLACK
6
CONTINUOUS
10
113.684
20
-116.69
11
113.384
21
-116.99
0
LINE
8
BLACK
6
CONTINUOUS
10
113.384
20
-121.77
11
113.684
21
-122.07
0
LINE
8
BLACK
6
CONTINUOUS
10
113.684
20
-121.77
11
113.384
21
-122.07
0
LINE
8
BLACK
6
CONTINUOUS
10
113.388
20
-14.074
11
113.688
21
-14.374
0
LINE
8
BLACK
6
CONTINUOUS
10
113.688
20
-14.074
11
113.388
21
-14.374
0
LINE
8
BLACK
6
CONTINUOUS
10
113.388
20
-19.154
11
113.688
21
-19.454
0
LINE
8
BLACK
6
CONTINUOUS
10
113.688
20
-19.154
11
113.388
21
-19.454
0
LINE
8
BLACK
6
CONTINUOUS
10
114.404
20
-92.814
11
114.704
21
-93.114
0
LINE
8
BLACK
6
CONTINUOUS
10
114.704
20
-92.814
11
114.404
21
-93.114
0
LINE
8
BLACK
6
CONTINUOUS
10
114.404
20
-102.974
11
114.704
21
-103.274
0
LINE
8
BLACK
6
CONTINUOUS
10
114.704
20
-102.974
11
114.404
21
-103.274
0
LINE
8
BLACK
6
CONTINUOUS
10
114.912
20
-34.394
11
115.212
21
-34.694
0
LINE
8
BLACK
6
CONTINUOUS
10
115.212
20
-34.394
11
114.912
21
-34.694
0
LINE
8
BLACK
6
CONTINUOUS
10
115.42
20
-59.286
11
115.72
21
-59.586
0
LINE
8
BLACK
6
CONTINUOUS
10
115.72
20
-59.286
11
115.42
21
-59.586
0
LINE
8
BLACK
6
CONTINUOUS
10
115.42
20
-72.494
11
115.72
21
-72.794
0
LINE
8
BLACK
6
CONTINUOUS
10
115.72
20
-72.494
11
115.42
21
-72.794
0
LINE
8
BLACK
6
CONTINUOUS
10
115.42
20
-82.654
11
115.72
21
-82.954
0
LINE
8
BLACK
6
CONTINUOUS
10
115.72
20
-82.654
11
115.42
21
-82.954
0
LINE
8
BLACK
6
CONTINUOUS
10
116.624
20
-116.878
11
116.924
21
-117.178
0
LINE
8
BLACK
6
CONTINUOUS
10
116.924
20
-116.878
11
116.624
21
-117.178
0
LINE
8
BLACK
6
CONTINUOUS
10
116.944
20
-49.126
11
117.244
21
-49.426
0
LINE
8
BLACK
6
CONTINUOUS
10
117.244
20
-49.126
11
116.944
21
-49.426
0
LINE
8
BLACK
6
CONTINUOUS
10
117.452
20
-9.1105
11
117.752
21
-9.4105
0
LINE
8
BLACK
6
CONTINUOUS
10
117.752
20
-9.1105
11
117.452
21
-9.4105
0
LINE
8
BLACK
6
CONTINUOUS
10
117.452
20
-116.69
11
117.752
21
-116.99
0
LINE
8
BLACK
6
CONTINUOUS
10
117.752
20
-116.69
11
117.452
21
-116.99
0
LINE
8
BLACK
6
CONTINUOUS
10
117.452
20
-121.77
11
117.752
21
-122.07
0
LINE
8
BLACK
6
CONTINUOUS
10
117.752
20
-121.77
11
117.452
21
-122.07
0
LINE
8
BLACK
6
CONTINUOUS
10
117.456
20
-14.074
11
117.756
21
-14.374
0
LINE
8
BLACK
6
CONTINUOUS
10
117.756
20
-14.074
11
117.456
21
-14.374
0
LINE
8
BLACK
6
CONTINUOUS
10
117.456
20
-19.154
11
117.756
21
-19.454
0
LINE
8
BLACK
6
CONTINUOUS
10
117.756
20
-19.154
11
117.456
21
-19.454
0
LINE
8
BLACK
6
CONTINUOUS
10
118.464
20
-116.69
11
118.764
21
-116.99
0
LINE
8
BLACK
6
CONTINUOUS
10
118.764
20
-116.69
11
118.464
21
-116.99
0
LINE
8
BLACK
6
CONTINUOUS
10
118.464
20
-121.77
11
118.764
21
-122.07
0
LINE
8
BLACK
6
CONTINUOUS
10
118.764
20
-121.77
11
118.464
21
-122.07
0
LINE
8
BLACK
6
CONTINUOUS
10
118.468
20
-14.074
11
118.768
21
-14.374
0
LINE
8
BLACK
6
CONTINUOUS
10
118.768
20
-14.074
11
118.468
21
-14.374
0
LINE
8
BLACK
6
CONTINUOUS
10
118.468
20
-19.154
11
118.768
21
-19.454
0
LINE
8
BLACK
6
CONTINUOUS
10
118.768
20
-19.154
11
118.468
21
-19.454
0
LINE
8
BLACK
6
CONTINUOUS
10
119.484
20
-34.394
11
119.784
21
-34.694
0
LINE
8
BLACK
6
CONTINUOUS
10
119.784
20
-34.394
11
119.484
21
-34.694
0
LINE
8
BLACK
6
CONTINUOUS
10
119.484
20
-92.814
11
119.784
21
-93.114
0
LINE
8
BLACK
6
CONTINUOUS
10
119.784
20
-92.814
11
119.484
21
-93.114
0
LINE
8
BLACK
6
CONTINUOUS
10
119.484
20
-102.974
11
119.784
21
-103.274
0
LINE
8
BLACK
6
CONTINUOUS
10
119.784
20
-102.974
11
119.484
21
-103.274
0
LINE
8
BLACK
6
CONTINUOUS
10
120.5
20
-49.126
11
120.8
21
-49.426
0
LINE
8
BLACK
6
CONTINUOUS
10
120.8
20
-49.126
11
120.5
21
-49.426
0
LINE
8
BLACK
6
CONTINUOUS
10
120.5
20
-59.286
11
120.8
21
-59.586
0
LINE
8
BLACK
6
CONTINUOUS
10
120.8
20
-59.286
11
120.5
21
-59.586
0
LINE
8
BLACK
6
CONTINUOUS
10
120.5
20
-72.494
11
120.8
21
-72.794
0
LINE
8
BLACK
6
CONTINUOUS
10
120.8
20
-72.494
11
120.5
21
-72.794
0
LINE
8
BLACK
6
CONTINUOUS
10
120.5
20
-82.654
11
120.8
21
-82.954
0
LINE
8
BLACK
6
CONTINUOUS
10
120.8
20
-82.654
11
120.5
21
-82.954
0
LINE
8
BLACK
6
CONTINUOUS
10
121.516
20
-8.994
11
121.816
21
-9.294
0
LINE
8
BLACK
6
CONTINUOUS
10
121.816
20
-8.994
11
121.516
21
-9.294
0
LINE
8
BLACK
6
CONTINUOUS
10
121.516
20
-116.944
11
121.816
21
-117.244
0
LINE
8
BLACK
6
CONTINUOUS
10
121.816
20
-116.944
11
121.516
21
-117.244
0
LINE
8
BLACK
6
CONTINUOUS
10
122.024
20
-111.727
11
122.324
21
-112.026
0
LINE
8
BLACK
6
CONTINUOUS
10
122.324
20
-111.727
11
122.024
21
-112.026
0
LINE
8
BLACK
6
CONTINUOUS
10
122.536
20
-14.074
11
122.836
21
-14.374
0
LINE
8
BLACK
6
CONTINUOUS
10
122.836
20
-14.074
11
122.536
21
-14.374
0
LINE
8
BLACK
6
CONTINUOUS
10
122.536
20
-116.69
11
122.836
21
-116.99
0
LINE
8
BLACK
6
CONTINUOUS
10
122.836
20
-116.69
11
122.536
21
-116.99
0
LINE
8
BLACK
6
CONTINUOUS
10
122.536
20
-121.77
11
122.836
21
-122.07
0
LINE
8
BLACK
6
CONTINUOUS
10
122.836
20
-121.77
11
122.536
21
-122.07
0
LINE
8
BLACK
6
CONTINUOUS
10
123.548
20
-14.074
11
123.848
21
-14.374
0
LINE
8
BLACK
6
CONTINUOUS
10
123.848
20
-14.074
11
123.548
21
-14.374
0
LINE
8
BLACK
6
CONTINUOUS
10
123.548
20
-110.086
11
123.848
21
-110.386
0
LINE
8
BLACK
6
CONTINUOUS
10
123.848
20
-110.086
11
123.548
21
-110.386
0
LINE
8
BLACK
6
CONTINUOUS
10
123.548
20
-116.69
11
123.848
21
-116.99
0
LINE
8
BLACK
6
CONTINUOUS
10
123.848
20
-116.69
11
123.548
21
-116.99
0
LINE
8
BLACK
6
CONTINUOUS
10
123.548
20
-121.77
11
123.848
21
-122.07
0
LINE
8
BLACK
6
CONTINUOUS
10
123.848
20
-121.77
11
123.548
21
-122.07
0
LINE
8
BLACK
6
CONTINUOUS
10
124.564
20
-102.974
11
124.864
21
-103.274
0
LINE
8
BLACK
6
CONTINUOUS
10
124.864
20
-102.974
11
124.564
21
-103.274
0
LINE
8
BLACK
6
CONTINUOUS
10
125.072
20
-34.394
11
125.372
21
-34.694
0
LINE
8
BLACK
6
CONTINUOUS
10
125.372
20
-34.394
11
125.072
21
-34.694
0
LINE
8
BLACK
6
CONTINUOUS
10
125.072
20
-92.814
11
125.372
21
-93.114
0
LINE
8
BLACK
6
CONTINUOUS
10
125.372
20
-92.814
11
125.072
21
-93.114
0
LINE
8
BLACK
6
CONTINUOUS
10
125.58
20
-49.126
11
125.88
21
-49.426
0
LINE
8
BLACK
6
CONTINUOUS
10
125.88
20
-49.126
11
125.58
21
-49.426
0
LINE
8
BLACK
6
CONTINUOUS
10
125.58
20
-59.286
11
125.88
21
-59.586
0
LINE
8
BLACK
6
CONTINUOUS
10
125.88
20
-59.286
11
125.58
21
-59.586
0
LINE
8
BLACK
6
CONTINUOUS
10
125.58
20
-72.494
11
125.88
21
-72.794
0
LINE
8
BLACK
6
CONTINUOUS
10
125.88
20
-72.494
11
125.58
21
-72.794
0
LINE
8
BLACK
6
CONTINUOUS
10
125.58
20
-82.654
11
125.88
21
-82.954
0
LINE
8
BLACK
6
CONTINUOUS
10
125.88
20
-82.654
11
125.58
21
-82.954
0
LINE
8
BLACK
6
CONTINUOUS
10
127.616
20
-14.074
11
127.916
21
-14.374
0
LINE
8
BLACK
6
CONTINUOUS
10
127.916
20
-14.074
11
127.616
21
-14.374
0
LINE
8
BLACK
6
CONTINUOUS
10
127.616
20
-116.69
11
127.916
21
-116.99
0
LINE
8
BLACK
6
CONTINUOUS
10
127.916
20
-116.69
11
127.616
21
-116.99
0
LINE
8
BLACK
6
CONTINUOUS
10
127.616
20
-121.77
11
127.916
21
-122.07
0
LINE
8
BLACK
6
CONTINUOUS
10
127.916
20
-121.77
11
127.616
21
-122.07
0
LINE
8
BLACK
6
CONTINUOUS
10
128.628
20
-14.074
11
128.928
21
-14.374
0
LINE
8
BLACK
6
CONTINUOUS
10
128.928
20
-14.074
11
128.628
21
-14.374
0
LINE
8
BLACK
6
CONTINUOUS
10
128.628
20
-116.69
11
128.928
21
-116.99
0
LINE
8
BLACK
6
CONTINUOUS
10
128.928
20
-116.69
11
128.628
21
-116.99
0
LINE
8
BLACK
6
CONTINUOUS
10
128.628
20
-121.77
11
128.928
21
-122.07
0
LINE
8
BLACK
6
CONTINUOUS
10
128.928
20
-121.77
11
128.628
21
-122.07
0
LINE
8
BLACK
6
CONTINUOUS
10
129.525
20
-24.6232
11
129.825
21
-24.9232
0
LINE
8
BLACK
6
CONTINUOUS
10
129.825
20
-24.6232
11
129.525
21
-24.9232
0
LINE
8
BLACK
6
CONTINUOUS
10
129.644
20
-92.814
11
129.944
21
-93.114
0
LINE
8
BLACK
6
CONTINUOUS
10
129.944
20
-92.814
11
129.644
21
-93.114
0
LINE
8
BLACK
6
CONTINUOUS
10
129.644
20
-102.974
11
129.944
21
-103.274
0
LINE
8
BLACK
6
CONTINUOUS
10
129.944
20
-102.974
11
129.644
21
-103.274
0
LINE
8
BLACK
6
CONTINUOUS
10
130.152
20
-34.394
11
130.452
21
-34.694
0
LINE
8
BLACK
6
CONTINUOUS
10
130.452
20
-34.394
11
130.152
21
-34.694
0
LINE
8
BLACK
6
CONTINUOUS
10
130.66
20
-49.126
11
130.96
21
-49.426
0
LINE
8
BLACK
6
CONTINUOUS
10
130.96
20
-49.126
11
130.66
21
-49.426
0
LINE
8
BLACK
6
CONTINUOUS
10
130.66
20
-59.286
11
130.96
21
-59.586
0
LINE
8
BLACK
6
CONTINUOUS
10
130.96
20
-59.286
11
130.66
21
-59.586
0
LINE
8
BLACK
6
CONTINUOUS
10
130.66
20
-72.494
11
130.96
21
-72.794
0
LINE
8
BLACK
6
CONTINUOUS
10
130.96
20
-72.494
11
130.66
21
-72.794
0
LINE
8
BLACK
6
CONTINUOUS
10
130.66
20
-82.654
11
130.96
21
-82.954
0
LINE
8
BLACK
6
CONTINUOUS
10
130.96
20
-82.654
11
130.66
21
-82.954
0
LINE
8
BLACK
6
CONTINUOUS
10
130.66
20
-108.054
11
130.96
21
-108.354
0
LINE
8
BLACK
6
CONTINUOUS
10
130.96
20
-108.054
11
130.66
21
-108.354
0
LINE
8
BLACK
6
CONTINUOUS
10
132.696
20
-14.074
11
132.996
21
-14.374
0
LINE
8
BLACK
6
CONTINUOUS
10
132.996
20
-14.074
11
132.696
21
-14.374
0
LINE
8
BLACK
6
CONTINUOUS
10
132.696
20
-116.69
11
132.996
21
-116.99
0
LINE
8
BLACK
6
CONTINUOUS
10
132.996
20
-116.69
11
132.696
21
-116.99
0
LINE
8
BLACK
6
CONTINUOUS
10
132.696
20
-121.77
11
132.996
21
-122.07
0
LINE
8
BLACK
6
CONTINUOUS
10
132.996
20
-121.77
11
132.696
21
-122.07
0
LINE
8
BLACK
6
CONTINUOUS
10
133.708
20
-14.074
11
134.008
21
-14.374
0
LINE
8
BLACK
6
CONTINUOUS
10
134.008
20
-14.074
11
133.708
21
-14.374
0
LINE
8
BLACK
6
CONTINUOUS
10
133.708
20
-116.69
11
134.008
21
-116.99
0
LINE
8
BLACK
6
CONTINUOUS
10
134.008
20
-116.69
11
133.708
21
-116.99
0
LINE
8
BLACK
6
CONTINUOUS
10
133.708
20
-121.77
11
134.008
21
-122.07
0
LINE
8
BLACK
6
CONTINUOUS
10
134.008
20
-121.77
11
133.708
21
-122.07
0
LINE
8
BLACK
6
CONTINUOUS
10
134.216
20
-102.974
11
134.516
21
-103.274
0
LINE
8
BLACK
6
CONTINUOUS
10
134.516
20
-102.974
11
134.216
21
-103.274
0
LINE
8
BLACK
6
CONTINUOUS
10
134.724
20
-92.814
11
135.024
21
-93.114
0
LINE
8
BLACK
6
CONTINUOUS
10
135.024
20
-92.814
11
134.724
21
-93.114
0
LINE
8
BLACK
6
CONTINUOUS
10
135.232
20
-34.394
11
135.532
21
-34.694
0
LINE
8
BLACK
6
CONTINUOUS
10
135.532
20
-34.394
11
135.232
21
-34.694
0
LINE
8
BLACK
6
CONTINUOUS
10
135.74
20
-49.126
11
136.04
21
-49.426
0
LINE
8
BLACK
6
CONTINUOUS
10
136.04
20
-49.126
11
135.74
21
-49.426
0
LINE
8
BLACK
6
CONTINUOUS
10
135.74
20
-59.286
11
136.04
21
-59.586
0
LINE
8
BLACK
6
CONTINUOUS
10
136.04
20
-59.286
11
135.74
21
-59.586
0
LINE
8
BLACK
6
CONTINUOUS
10
135.74
20
-72.494
11
136.04
21
-72.794
0
LINE
8
BLACK
6
CONTINUOUS
10
136.04
20
-72.494
11
135.74
21
-72.794
0
LINE
8
BLACK
6
CONTINUOUS
10
135.74
20
-82.146
11
136.04
21
-82.446
0
LINE
8
BLACK
6
CONTINUOUS
10
136.04
20
-82.146
11
135.74
21
-82.446
0
LINE
8
BLACK
6
CONTINUOUS
10
136.756
20
-24.742
11
137.056
21
-25.042
0
LINE
8
BLACK
6
CONTINUOUS
10
137.056
20
-24.742
11
136.756
21
-25.042
0
LINE
8
BLACK
6
CONTINUOUS
10
137.776
20
-14.074
11
138.076
21
-14.374
0
LINE
8
BLACK
6
CONTINUOUS
10
138.076
20
-14.074
11
137.776
21
-14.374
0
LINE
8
BLACK
6
CONTINUOUS
10
137.776
20
-116.69
11
138.076
21
-116.99
0
LINE
8
BLACK
6
CONTINUOUS
10
138.076
20
-116.69
11
137.776
21
-116.99
0
LINE
8
BLACK
6
CONTINUOUS
10
137.776
20
-121.77
11
138.076
21
-122.07
0
LINE
8
BLACK
6
CONTINUOUS
10
138.076
20
-121.77
11
137.776
21
-122.07
0
LINE
8
BLACK
6
CONTINUOUS
10
138.788
20
-14.074
11
139.088
21
-14.374
0
LINE
8
BLACK
6
CONTINUOUS
10
139.088
20
-14.074
11
138.788
21
-14.374
0
LINE
8
BLACK
6
CONTINUOUS
10
138.788
20
-116.69
11
139.088
21
-116.99
0
LINE
8
BLACK
6
CONTINUOUS
10
139.088
20
-116.69
11
138.788
21
-116.99
0
LINE
8
BLACK
6
CONTINUOUS
10
138.788
20
-121.77
11
139.088
21
-122.07
0
LINE
8
BLACK
6
CONTINUOUS
10
139.088
20
-121.77
11
138.788
21
-122.07
0
LINE
8
BLACK
6
CONTINUOUS
10
140.82
20
-15.598
11
141.12
21
-15.898
0
LINE
8
BLACK
6
CONTINUOUS
10
141.12
20
-15.598
11
140.82
21
-15.898
0
LINE
8
BLACK
6
CONTINUOUS
10
141.328
20
-108.054
11
141.628
21
-108.354
0
LINE
8
BLACK
6
CONTINUOUS
10
141.628
20
-108.054
11
141.328
21
-108.354
0
LINE
8
BLACK
6
CONTINUOUS
10
141.836
20
-116.944
11
142.136
21
-117.244
0
LINE
8
BLACK
6
CONTINUOUS
10
142.136
20
-116.944
11
141.836
21
-117.244
0
LINE
8
BLACK
6
CONTINUOUS
10
142.598
20
-24.742
11
142.898
21
-25.042
0
LINE
8
BLACK
6
CONTINUOUS
10
142.898
20
-24.742
11
142.598
21
-25.042
0
LINE
8
BLACK
6
CONTINUOUS
10
142.852
20
-9.502
11
143.152
21
-9.802
0
LINE
8
BLACK
6
CONTINUOUS
10
143.152
20
-9.502
11
142.852
21
-9.802
0
LINE
8
BLACK
6
CONTINUOUS
10
142.852
20
-17.63
11
143.152
21
-17.93
0
LINE
8
BLACK
6
CONTINUOUS
10
143.152
20
-17.63
11
142.852
21
-17.93
0
LINE
8
BLACK
6
CONTINUOUS
10
142.856
20
-14.074
11
143.156
21
-14.374
0
LINE
8
BLACK
6
CONTINUOUS
10
143.156
20
-14.074
11
142.856
21
-14.374
0
LINE
8
BLACK
6
CONTINUOUS
10
142.856
20
-116.69
11
143.156
21
-116.99
0
LINE
8
BLACK
6
CONTINUOUS
10
143.156
20
-116.69
11
142.856
21
-116.99
0
LINE
8
BLACK
6
CONTINUOUS
10
142.856
20
-121.77
11
143.156
21
-122.07
0
LINE
8
BLACK
6
CONTINUOUS
10
143.156
20
-121.77
11
142.856
21
-122.07
0
LINE
8
BLACK
6
CONTINUOUS
10
143.868
20
-14.074
11
144.168
21
-14.374
0
LINE
8
BLACK
6
CONTINUOUS
10
144.168
20
-14.074
11
143.868
21
-14.374
0
LINE
8
BLACK
6
CONTINUOUS
10
143.868
20
-116.69
11
144.168
21
-116.99
0
LINE
8
BLACK
6
CONTINUOUS
10
144.168
20
-116.69
11
143.868
21
-116.99
0
LINE
8
BLACK
6
CONTINUOUS
10
143.868
20
-121.77
11
144.168
21
-122.07
0
LINE
8
BLACK
6
CONTINUOUS
10
144.168
20
-121.77
11
143.868
21
-122.07
0
LINE
8
BLACK
6
CONTINUOUS
10
144.884
20
-15.598
11
145.184
21
-15.898
0
LINE
8
BLACK
6
CONTINUOUS
10
145.184
20
-15.598
11
144.884
21
-15.898
0
LINE
8
BLACK
6
CONTINUOUS
10
145.392
20
-108.054
11
145.692
21
-108.354
0
LINE
8
BLACK
6
CONTINUOUS
10
145.692
20
-108.054
11
145.392
21
-108.354
0
LINE
8
BLACK
6
CONTINUOUS
10
145.646
20
-111.864
11
145.946
21
-112.164
0
LINE
8
BLACK
6
CONTINUOUS
10
145.946
20
-111.864
11
145.646
21
-112.164
0
LINE
8
BLACK
6
CONTINUOUS
10
145.9
20
-8.486
11
146.2
21
-8.786
0
LINE
8
BLACK
6
CONTINUOUS
10
146.2
20
-8.486
11
145.9
21
-8.786
0
LINE
8
BLACK
6
CONTINUOUS
10
146.408
20
-24.742
11
146.708
21
-25.042
0
LINE
8
BLACK
6
CONTINUOUS
10
146.708
20
-24.742
11
146.408
21
-25.042
0
LINE
8
BLACK
6
CONTINUOUS
10
146.916
20
-108.054
11
147.216
21
-108.354
0
LINE
8
BLACK
6
CONTINUOUS
10
147.216
20
-108.054
11
146.916
21
-108.354
0
LINE
8
BLACK
6
CONTINUOUS
10
146.916
20
-111.61
11
147.216
21
-111.91
0
LINE
8
BLACK
6
CONTINUOUS
10
147.216
20
-111.61
11
146.916
21
-111.91
0
LINE
8
BLACK
6
CONTINUOUS
10
146.916
20
-116.944
11
147.216
21
-117.244
0
LINE
8
BLACK
6
CONTINUOUS
10
147.216
20
-116.944
11
146.916
21
-117.244
0
LINE
8
BLACK
6
CONTINUOUS
10
147.932
20
-110.594
11
148.232
21
-110.894
0
LINE
8
BLACK
6
CONTINUOUS
10
148.232
20
-110.594
11
147.932
21
-110.894
0
LINE
8
BLACK
6
CONTINUOUS
10
147.936
20
-14.074
11
148.236
21
-14.374
0
LINE
8
BLACK
6
CONTINUOUS
10
148.236
20
-14.074
11
147.936
21
-14.374
0
LINE
8
BLACK
6
CONTINUOUS
10
147.936
20
-19.154
11
148.236
21
-19.454
0
LINE
8
BLACK
6
CONTINUOUS
10
148.236
20
-19.154
11
147.936
21
-19.454
0
LINE
8
BLACK
6
CONTINUOUS
10
147.936
20
-116.69
11
148.236
21
-116.99
0
LINE
8
BLACK
6
CONTINUOUS
10
148.236
20
-116.69
11
147.936
21
-116.99
0
LINE
8
BLACK
6
CONTINUOUS
10
147.936
20
-121.77
11
148.236
21
-122.07
0
LINE
8
BLACK
6
CONTINUOUS
10
148.236
20
-121.77
11
147.936
21
-122.07
0
LINE
8
BLACK
6
CONTINUOUS
10
148.948
20
-14.074
11
149.248
21
-14.374
0
LINE
8
BLACK
6
CONTINUOUS
10
149.248
20
-14.074
11
148.948
21
-14.374
0
LINE
8
BLACK
6
CONTINUOUS
10
148.948
20
-19.154
11
149.248
21
-19.454
0
LINE
8
BLACK
6
CONTINUOUS
10
149.248
20
-19.154
11
148.948
21
-19.454
0
LINE
8
BLACK
6
CONTINUOUS
10
148.948
20
-116.69
11
149.248
21
-116.99
0
LINE
8
BLACK
6
CONTINUOUS
10
149.248
20
-116.69
11
148.948
21
-116.99
0
LINE
8
BLACK
6
CONTINUOUS
10
148.948
20
-121.77
11
149.248
21
-122.07
0
LINE
8
BLACK
6
CONTINUOUS
10
149.248
20
-121.77
11
148.948
21
-122.07
0
LINE
8
BLACK
6
CONTINUOUS
10
150.472
20
-107.8
11
150.772
21
-108.1
0
LINE
8
BLACK
6
CONTINUOUS
10
150.772
20
-107.8
11
150.472
21
-108.1
0
LINE
8
BLACK
6
CONTINUOUS
10
151.488
20
-24.742
11
151.788
21
-25.042
0
LINE
8
BLACK
6
CONTINUOUS
10
151.788
20
-24.742
11
151.488
21
-25.042
0
LINE
8
BLACK
6
CONTINUOUS
10
153.016
20
-14.074
11
153.316
21
-14.374
0
LINE
8
BLACK
6
CONTINUOUS
10
153.316
20
-14.074
11
153.016
21
-14.374
0
LINE
8
BLACK
6
CONTINUOUS
10
153.016
20
-19.154
11
153.316
21
-19.454
0
LINE
8
BLACK
6
CONTINUOUS
10
153.316
20
-19.154
11
153.016
21
-19.454
0
LINE
8
BLACK
6
CONTINUOUS
10
153.016
20
-116.69
11
153.316
21
-116.99
0
LINE
8
BLACK
6
CONTINUOUS
10
153.316
20
-116.69
11
153.016
21
-116.99
0
LINE
8
BLACK
6
CONTINUOUS
10
153.016
20
-121.77
11
153.316
21
-122.07
0
LINE
8
BLACK
6
CONTINUOUS
10
153.316
20
-121.77
11
153.016
21
-122.07
0
LINE
8
BLACK
6
CONTINUOUS
10
154.028
20
-14.074
11
154.328
21
-14.374
0
LINE
8
BLACK
6
CONTINUOUS
10
154.328
20
-14.074
11
154.028
21
-14.374
0
LINE
8
BLACK
6
CONTINUOUS
10
154.028
20
-19.154
11
154.328
21
-19.454
0
LINE
8
BLACK
6
CONTINUOUS
10
154.328
20
-19.154
11
154.028
21
-19.454
0
LINE
8
BLACK
6
CONTINUOUS
10
154.028
20
-116.69
11
154.328
21
-116.99
0
LINE
8
BLACK
6
CONTINUOUS
10
154.328
20
-116.69
11
154.028
21
-116.99
0
LINE
8
BLACK
6
CONTINUOUS
10
154.028
20
-121.77
11
154.328
21
-122.07
0
LINE
8
BLACK
6
CONTINUOUS
10
154.328
20
-121.77
11
154.028
21
-122.07
0
LINE
8
BLACK
6
CONTINUOUS
10
156.06
20
-107.8
11
156.36
21
-108.1
0
LINE
8
BLACK
6
CONTINUOUS
10
156.36
20
-107.8
11
156.06
21
-108.1
0
LINE
8
BLACK
6
CONTINUOUS
10
158.096
20
-14.074
11
158.396
21
-14.374
0
LINE
8
BLACK
6
CONTINUOUS
10
158.396
20
-14.074
11
158.096
21
-14.374
0
LINE
8
BLACK
6
CONTINUOUS
10
158.096
20
-19.154
11
158.396
21
-19.454
0
LINE
8
BLACK
6
CONTINUOUS
10
158.396
20
-19.154
11
158.096
21
-19.454
0
LINE
8
BLACK
6
CONTINUOUS
10
158.096
20
-116.69
11
158.396
21
-116.99
0
LINE
8
BLACK
6
CONTINUOUS
10
158.396
20
-116.69
11
158.096
21
-116.99
0
LINE
8
BLACK
6
CONTINUOUS
10
158.096
20
-121.77
11
158.396
21
-122.07
0
LINE
8
BLACK
6
CONTINUOUS
10
158.396
20
-121.77
11
158.096
21
-122.07
0
LINE
8
BLACK
6
CONTINUOUS
10
159.108
20
-14.074
11
159.408
21
-14.374
0
LINE
8
BLACK
6
CONTINUOUS
10
159.408
20
-14.074
11
159.108
21
-14.374
0
LINE
8
BLACK
6
CONTINUOUS
10
159.108
20
-19.154
11
159.408
21
-19.454
0
LINE
8
BLACK
6
CONTINUOUS
10
159.408
20
-19.154
11
159.108
21
-19.454
0
LINE
8
BLACK
6
CONTINUOUS
10
159.108
20
-116.69
11
159.408
21
-116.99
0
LINE
8
BLACK
6
CONTINUOUS
10
159.408
20
-116.69
11
159.108
21
-116.99
0
LINE
8
BLACK
6
CONTINUOUS
10
159.108
20
-121.77
11
159.408
21
-122.07
0
LINE
8
BLACK
6
CONTINUOUS
10
159.408
20
-121.77
11
159.108
21
-122.07
0
LINE
8
BLACK
6
CONTINUOUS
10
159.616
20
-24.742
11
159.916
21
-25.042
0
LINE
8
BLACK
6
CONTINUOUS
10
159.916
20
-24.742
11
159.616
21
-25.042
0
LINE
8
BLACK
6
CONTINUOUS
10
163.176
20
-14.074
11
163.476
21
-14.374
0
LINE
8
BLACK
6
CONTINUOUS
10
163.476
20
-14.074
11
163.176
21
-14.374
0
LINE
8
BLACK
6
CONTINUOUS
10
163.176
20
-19.154
11
163.476
21
-19.454
0
LINE
8
BLACK
6
CONTINUOUS
10
163.476
20
-19.154
11
163.176
21
-19.454
0
LINE
8
BLACK
6
CONTINUOUS
10
163.176
20
-116.69
11
163.476
21
-116.99
0
LINE
8
BLACK
6
CONTINUOUS
10
163.476
20
-116.69
11
163.176
21
-116.99
0
LINE
8
BLACK
6
CONTINUOUS
10
163.176
20
-121.77
11
163.476
21
-122.07
0
LINE
8
BLACK
6
CONTINUOUS
10
163.476
20
-121.77
11
163.176
21
-122.07
0
LINE
8
BLACK
6
CONTINUOUS
10
164.188
20
-14.074
11
164.488
21
-14.374
0
LINE
8
BLACK
6
CONTINUOUS
10
164.488
20
-14.074
11
164.188
21
-14.374
0
LINE
8
BLACK
6
CONTINUOUS
10
164.188
20
-19.154
11
164.488
21
-19.454
0
LINE
8
BLACK
6
CONTINUOUS
10
164.488
20
-19.154
11
164.188
21
-19.454
0
LINE
8
BLACK
6
CONTINUOUS
10
164.188
20
-33.886
11
164.488
21
-34.186
0
LINE
8
BLACK
6
CONTINUOUS
10
164.488
20
-33.886
11
164.188
21
-34.186
0
LINE
8
BLACK
6
CONTINUOUS
10
164.188
20
-54.206
11
164.488
21
-54.506
0
LINE
8
BLACK
6
CONTINUOUS
10
164.488
20
-54.206
11
164.188
21
-54.506
0
LINE
8
BLACK
6
CONTINUOUS
10
164.188
20
-97.894
11
164.488
21
-98.194
0
LINE
8
BLACK
6
CONTINUOUS
10
164.488
20
-97.894
11
164.188
21
-98.194
0
LINE
8
BLACK
6
CONTINUOUS
10
164.188
20
-116.69
11
164.488
21
-116.99
0
LINE
8
BLACK
6
CONTINUOUS
10
164.488
20
-116.69
11
164.188
21
-116.99
0
LINE
8
BLACK
6
CONTINUOUS
10
164.188
20
-121.77
11
164.488
21
-122.07
0
LINE
8
BLACK
6
CONTINUOUS
10
164.488
20
-121.77
11
164.188
21
-122.07
0
LINE
8
BLACK
6
CONTINUOUS
10
164.442
20
-24.742
11
164.742
21
-25.042
0
LINE
8
BLACK
6
CONTINUOUS
10
164.742
20
-24.742
11
164.442
21
-25.042
0
LINE
8
BLACK
6
CONTINUOUS
10
165.204
20
-77.574
11
165.504
21
-77.874
0
LINE
8
BLACK
6
CONTINUOUS
10
165.504
20
-77.574
11
165.204
21
-77.874
0
LINE
8
BLACK
6
CONTINUOUS
10
165.204
20
-107.8
11
165.504
21
-108.1
0
LINE
8
BLACK
6
CONTINUOUS
10
165.504
20
-107.8
11
165.204
21
-108.1
0
LINE
8
BLACK
6
CONTINUOUS
10
166.982
20
-24.742
11
167.282
21
-25.042
0
LINE
8
BLACK
6
CONTINUOUS
10
167.282
20
-24.742
11
166.982
21
-25.042
0
LINE
8
BLACK
6
CONTINUOUS
10
168.256
20
-14.074
11
168.556
21
-14.374
0
LINE
8
BLACK
6
CONTINUOUS
10
168.556
20
-14.074
11
168.256
21
-14.374
0
LINE
8
BLACK
6
CONTINUOUS
10
168.256
20
-19.154
11
168.556
21
-19.454
0
LINE
8
BLACK
6
CONTINUOUS
10
168.556
20
-19.154
11
168.256
21
-19.454
0
LINE
8
BLACK
6
CONTINUOUS
10
168.256
20
-116.69
11
168.556
21
-116.99
0
LINE
8
BLACK
6
CONTINUOUS
10
168.556
20
-116.69
11
168.256
21
-116.99
0
LINE
8
BLACK
6
CONTINUOUS
10
168.256
20
-121.77
11
168.556
21
-122.07
0
LINE
8
BLACK
6
CONTINUOUS
10
168.556
20
-121.77
11
168.256
21
-122.07
0
LINE
8
BLACK
6
CONTINUOUS
10
169.268
20
-14.074
11
169.568
21
-14.374
0
LINE
8
BLACK
6
CONTINUOUS
10
169.568
20
-14.074
11
169.268
21
-14.374
0
LINE
8
BLACK
6
CONTINUOUS
10
169.268
20
-19.154
11
169.568
21
-19.454
0
LINE
8
BLACK
6
CONTINUOUS
10
169.568
20
-19.154
11
169.268
21
-19.454
0
LINE
8
BLACK
6
CONTINUOUS
10
169.268
20
-33.886
11
169.568
21
-34.186
0
LINE
8
BLACK
6
CONTINUOUS
10
169.568
20
-33.886
11
169.268
21
-34.186
0
LINE
8
BLACK
6
CONTINUOUS
10
169.268
20
-54.206
11
169.568
21
-54.506
0
LINE
8
BLACK
6
CONTINUOUS
10
169.568
20
-54.206
11
169.268
21
-54.506
0
LINE
8
BLACK
6
CONTINUOUS
10
169.268
20
-77.574
11
169.568
21
-77.874
0
LINE
8
BLACK
6
CONTINUOUS
10
169.568
20
-77.574
11
169.268
21
-77.874
0
LINE
8
BLACK
6
CONTINUOUS
10
169.268
20
-116.69
11
169.568
21
-116.99
0
LINE
8
BLACK
6
CONTINUOUS
10
169.568
20
-116.69
11
169.268
21
-116.99
0
LINE
8
BLACK
6
CONTINUOUS
10
169.268
20
-121.77
11
169.568
21
-122.07
0
LINE
8
BLACK
6
CONTINUOUS
10
169.568
20
-121.77
11
169.268
21
-122.07
0
LINE
8
BLACK
6
CONTINUOUS
10
169.522
20
-24.742
11
169.822
21
-25.042
0
LINE
8
BLACK
6
CONTINUOUS
10
169.822
20
-24.742
11
169.522
21
-25.042
0
LINE
8
BLACK
6
CONTINUOUS
10
169.776
20
-97.894
11
170.076
21
-98.194
0
LINE
8
BLACK
6
CONTINUOUS
10
170.076
20
-97.894
11
169.776
21
-98.194
0
LINE
8
BLACK
6
CONTINUOUS
10
172.062
20
-24.742
11
172.362
21
-25.042
0
LINE
8
BLACK
6
CONTINUOUS
10
172.362
20
-24.742
11
172.062
21
-25.042
0
LINE
8
BLACK
6
CONTINUOUS
10
172.316
20
-116.69
11
172.616
21
-116.99
0
LINE
8
BLACK
6
CONTINUOUS
10
172.616
20
-116.69
11
172.316
21
-116.99
0
LINE
8
BLACK
6
CONTINUOUS
10
172.316
20
-122.278
11
172.616
21
-122.578
0
LINE
8
BLACK
6
CONTINUOUS
10
172.616
20
-122.278
11
172.316
21
-122.578
0
LINE
8
BLACK
6
CONTINUOUS
10
172.824
20
-107.8
11
173.124
21
-108.1
0
LINE
8
BLACK
6
CONTINUOUS
10
173.124
20
-107.8
11
172.824
21
-108.1
0
LINE
8
BLACK
6
CONTINUOUS
10
173.336
20
-14.074
11
173.636
21
-14.374
0
LINE
8
BLACK
6
CONTINUOUS
10
173.636
20
-14.074
11
173.336
21
-14.374
0
LINE
8
BLACK
6
CONTINUOUS
10
173.336
20
-121.77
11
173.636
21
-122.07
0
LINE
8
BLACK
6
CONTINUOUS
10
173.636
20
-121.77
11
173.336
21
-122.07
0
LINE
8
BLACK
6
CONTINUOUS
10
174.348
20
-14.074
11
174.648
21
-14.374
0
LINE
8
BLACK
6
CONTINUOUS
10
174.648
20
-14.074
11
174.348
21
-14.374
0
LINE
8
BLACK
6
CONTINUOUS
10
174.348
20
-121.77
11
174.648
21
-122.07
0
LINE
8
BLACK
6
CONTINUOUS
10
174.648
20
-121.77
11
174.348
21
-122.07
0
LINE
8
BLACK
6
CONTINUOUS
10
175.364
20
-24.742
11
175.664
21
-25.042
0
LINE
8
BLACK
6
CONTINUOUS
10
175.664
20
-24.742
11
175.364
21
-25.042
0
LINE
8
BLACK
6
CONTINUOUS
10
175.872
20
-56.238
11
176.172
21
-56.538
0
LINE
8
BLACK
6
CONTINUOUS
10
176.172
20
-56.238
11
175.872
21
-56.538
0
LINE
8
BLACK
6
CONTINUOUS
10
175.872
20
-76.05
11
176.172
21
-76.35
0
LINE
8
BLACK
6
CONTINUOUS
10
176.172
20
-76.05
11
175.872
21
-76.35
0
LINE
8
BLACK
6
CONTINUOUS
10
176.38
20
-35.41
11
176.68
21
-35.71
0
LINE
8
BLACK
6
CONTINUOUS
10
176.68
20
-35.41
11
176.38
21
-35.71
0
LINE
8
BLACK
6
CONTINUOUS
10
176.38
20
-96.37
11
176.68
21
-96.67
0
LINE
8
BLACK
6
CONTINUOUS
10
176.68
20
-96.37
11
176.38
21
-96.67
0
LINE
8
BLACK
6
CONTINUOUS
10
179.682
20
-24.742
11
179.982
21
-25.042
0
LINE
8
BLACK
6
CONTINUOUS
10
179.982
20
-24.742
11
179.682
21
-25.042
0
LINE
8
BLACK
6
CONTINUOUS
10
180.952
20
-40.49
11
181.252
21
-40.79
0
LINE
8
BLACK
6
CONTINUOUS
10
181.252
20
-40.49
11
180.952
21
-40.79
0
LINE
8
BLACK
6
CONTINUOUS
10
180.952
20
-91.29
11
181.252
21
-91.59
0
LINE
8
BLACK
6
CONTINUOUS
10
181.252
20
-91.29
11
180.952
21
-91.59
0
LINE
8
BLACK
6
CONTINUOUS
10
181.46
20
-59.286
11
181.76
21
-59.586
0
LINE
8
BLACK
6
CONTINUOUS
10
181.76
20
-59.286
11
181.46
21
-59.586
0
LINE
8
BLACK
6
CONTINUOUS
10
181.46
20
-72.494
11
181.76
21
-72.794
0
LINE
8
BLACK
6
CONTINUOUS
10
181.76
20
-72.494
11
181.46
21
-72.794
0
LINE
8
BLACK
6
CONTINUOUS
10
182.476
20
-85.194
11
182.776
21
-85.494
0
LINE
8
BLACK
6
CONTINUOUS
10
182.776
20
-85.194
11
182.476
21
-85.494
0
LINE
8
BLACK
6
CONTINUOUS
10
182.984
20
-45.57
11
183.284
21
-45.87
0
LINE
8
BLACK
6
CONTINUOUS
10
183.284
20
-45.57
11
182.984
21
-45.87
0
LINE
8
BLACK
6
CONTINUOUS
10
183.945
20
-22.6275
11
184.245
21
-22.9275
0
LINE
8
BLACK
6
CONTINUOUS
10
184.245
20
-22.6275
11
183.945
21
-22.9275
0
LINE
8
BLACK
6
CONTINUOUS
10
184
20
-12.55
11
184.3
21
-12.85
0
LINE
8
BLACK
6
CONTINUOUS
10
184.3
20
-12.55
11
184
21
-12.85
0
LINE
8
BLACK
6
CONTINUOUS
10
184
20
-17.63
11
184.3
21
-17.93
0
LINE
8
BLACK
6
CONTINUOUS
10
184.3
20
-17.63
11
184
21
-17.93
0
LINE
8
BLACK
6
CONTINUOUS
10
184
20
-119.23
11
184.3
21
-119.53
0
LINE
8
BLACK
6
CONTINUOUS
10
184.3
20
-119.23
11
184
21
-119.53
0
LINE
8
BLACK
6
CONTINUOUS
10
184.055
20
-109.153
11
184.355
21
-109.453
0
LINE
8
BLACK
6
CONTINUOUS
10
184.355
20
-109.153
11
184.055
21
-109.453
0
LINE
8
BLACK
6
CONTINUOUS
10
184.055
20
-114.233
11
184.355
21
-114.533
0
LINE
8
BLACK
6
CONTINUOUS
10
184.355
20
-114.233
11
184.055
21
-114.533
0
LINE
8
BLACK
6
CONTINUOUS
10
187.048
20
-72.494
11
187.348
21
-72.794
0
LINE
8
BLACK
6
CONTINUOUS
10
187.348
20
-72.494
11
187.048
21
-72.794
0
LINE
8
BLACK
6
CONTINUOUS
10
187.556
20
-49.126
11
187.856
21
-49.426
0
LINE
8
BLACK
6
CONTINUOUS
10
187.856
20
-49.126
11
187.556
21
-49.426
0
LINE
8
BLACK
6
CONTINUOUS
10
187.556
20
-59.286
11
187.856
21
-59.586
0
LINE
8
BLACK
6
CONTINUOUS
10
187.856
20
-59.286
11
187.556
21
-59.586
0
LINE
8
BLACK
6
CONTINUOUS
10
187.556
20
-82.654
11
187.856
21
-82.954
0
LINE
8
BLACK
6
CONTINUOUS
10
187.856
20
-82.654
11
187.556
21
-82.954
0
LINE
8
BLACK
6
CONTINUOUS
10
189.025
20
-22.6275
11
189.325
21
-22.9275
0
LINE
8
BLACK
6
CONTINUOUS
10
189.325
20
-22.6275
11
189.025
21
-22.9275
0
LINE
8
BLACK
6
CONTINUOUS
10
189.08
20
-12.55
11
189.38
21
-12.85
0
LINE
8
BLACK
6
CONTINUOUS
10
189.38
20
-12.55
11
189.08
21
-12.85
0
LINE
8
BLACK
6
CONTINUOUS
10
189.08
20
-17.63
11
189.38
21
-17.93
0
LINE
8
BLACK
6
CONTINUOUS
10
189.38
20
-17.63
11
189.08
21
-17.93
0
LINE
8
BLACK
6
CONTINUOUS
10
189.08
20
-119.23
11
189.38
21
-119.53
0
LINE
8
BLACK
6
CONTINUOUS
10
189.38
20
-119.23
11
189.08
21
-119.53
0
LINE
8
BLACK
6
CONTINUOUS
10
189.135
20
-109.153
11
189.435
21
-109.453
0
LINE
8
BLACK
6
CONTINUOUS
10
189.435
20
-109.153
11
189.135
21
-109.453
0
LINE
8
BLACK
6
CONTINUOUS
10
189.135
20
-114.233
11
189.435
21
-114.533
0
LINE
8
BLACK
6
CONTINUOUS
10
189.435
20
-114.233
11
189.135
21
-114.533
0
LINE
8
BLACK
6
CONTINUOUS
10
194.105
20
-22.6275
11
194.405
21
-22.9275
0
LINE
8
BLACK
6
CONTINUOUS
10
194.405
20
-22.6275
11
194.105
21
-22.9275
0
LINE
8
BLACK
6
CONTINUOUS
10
194.16
20
-12.55
11
194.46
21
-12.85
0
LINE
8
BLACK
6
CONTINUOUS
10
194.46
20
-12.55
11
194.16
21
-12.85
0
LINE
8
BLACK
6
CONTINUOUS
10
194.16
20
-17.63
11
194.46
21
-17.93
0
LINE
8
BLACK
6
CONTINUOUS
10
194.46
20
-17.63
11
194.16
21
-17.93
0
LINE
8
BLACK
6
CONTINUOUS
10
194.16
20
-119.23
11
194.46
21
-119.53
0
LINE
8
BLACK
6
CONTINUOUS
10
194.46
20
-119.23
11
194.16
21
-119.53
0
LINE
8
BLACK
6
CONTINUOUS
10
194.215
20
-109.153
11
194.515
21
-109.453
0
LINE
8
BLACK
6
CONTINUOUS
10
194.515
20
-109.153
11
194.215
21
-109.453
0
LINE
8
BLACK
6
CONTINUOUS
10
194.215
20
-114.233
11
194.515
21
-114.533
0
LINE
8
BLACK
6
CONTINUOUS
10
194.515
20
-114.233
11
194.215
21
-114.533
0
LINE
8
BLACK
6
CONTINUOUS
10
199.185
20
-22.6275
11
199.485
21
-22.9275
0
LINE
8
BLACK
6
CONTINUOUS
10
199.485
20
-22.6275
11
199.185
21
-22.9275
0
LINE
8
BLACK
6
CONTINUOUS
10
199.24
20
-12.55
11
199.54
21
-12.85
0
LINE
8
BLACK
6
CONTINUOUS
10
199.54
20
-12.55
11
199.24
21
-12.85
0
LINE
8
BLACK
6
CONTINUOUS
10
199.24
20
-17.63
11
199.54
21
-17.93
0
LINE
8
BLACK
6
CONTINUOUS
10
199.54
20
-17.63
11
199.24
21
-17.93
0
LINE
8
BLACK
6
CONTINUOUS
10
199.24
20
-119.23
11
199.54
21
-119.53
0
LINE
8
BLACK
6
CONTINUOUS
10
199.54
20
-119.23
11
199.24
21
-119.53
0
LINE
8
BLACK
6
CONTINUOUS
10
199.295
20
-109.153
11
199.595
21
-109.453
0
LINE
8
BLACK
6
CONTINUOUS
10
199.595
20
-109.153
11
199.295
21
-109.453
0
LINE
8
BLACK
6
CONTINUOUS
10
199.295
20
-114.233
11
199.595
21
-114.533
0
LINE
8
BLACK
6
CONTINUOUS
10
199.595
20
-114.233
11
199.295
21
-114.533
0
LINE
8
BLACK
6
CONTINUOUS
10
204.265
20
-22.6275
11
204.565
21
-22.9275
0
LINE
8
BLACK
6
CONTINUOUS
10
204.565
20
-22.6275
11
204.265
21
-22.9275
0
LINE
8
BLACK
6
CONTINUOUS
10
204.32
20
-12.55
11
204.62
21
-12.85
0
LINE
8
BLACK
6
CONTINUOUS
10
204.62
20
-12.55
11
204.32
21
-12.85
0
LINE
8
BLACK
6
CONTINUOUS
10
204.32
20
-17.63
11
204.62
21
-17.93
0
LINE
8
BLACK
6
CONTINUOUS
10
204.62
20
-17.63
11
204.32
21
-17.93
0
LINE
8
BLACK
6
CONTINUOUS
10
204.32
20
-119.23
11
204.62
21
-119.53
0
LINE
8
BLACK
6
CONTINUOUS
10
204.62
20
-119.23
11
204.32
21
-119.53
0
LINE
8
BLACK
6
CONTINUOUS
10
204.375
20
-109.153
11
204.675
21
-109.453
0
LINE
8
BLACK
6
CONTINUOUS
10
204.675
20
-109.153
11
204.375
21
-109.453
0
LINE
8
BLACK
6
CONTINUOUS
10
204.375
20
-114.233
11
204.675
21
-114.533
0
LINE
8
BLACK
6
CONTINUOUS
10
204.675
20
-114.233
11
204.375
21
-114.533
0
LINE
8
BLACK
6
CONTINUOUS
10
209.345
20
-22.6275
11
209.645
21
-22.9275
0
LINE
8
BLACK
6
CONTINUOUS
10
209.645
20
-22.6275
11
209.345
21
-22.9275
0
LINE
8
BLACK
6
CONTINUOUS
10
209.4
20
-12.55
11
209.7
21
-12.85
0
LINE
8
BLACK
6
CONTINUOUS
10
209.7
20
-12.55
11
209.4
21
-12.85
0
LINE
8
BLACK
6
CONTINUOUS
10
209.4
20
-17.63
11
209.7
21
-17.93
0
LINE
8
BLACK
6
CONTINUOUS
10
209.7
20
-17.63
11
209.4
21
-17.93
0
LINE
8
BLACK
6
CONTINUOUS
10
209.4
20
-119.23
11
209.7
21
-119.53
0
LINE
8
BLACK
6
CONTINUOUS
10
209.7
20
-119.23
11
209.4
21
-119.53
0
LINE
8
BLACK
6
CONTINUOUS
10
209.455
20
-109.153
11
209.755
21
-109.453
0
LINE
8
BLACK
6
CONTINUOUS
10
209.755
20
-109.153
11
209.455
21
-109.453
0
LINE
8
BLACK
6
CONTINUOUS
10
209.455
20
-114.233
11
209.755
21
-114.533
0
LINE
8
BLACK
6
CONTINUOUS
10
209.755
20
-114.233
11
209.455
21
-114.533
0
LINE
8
BLACK
6
CONTINUOUS
10
214.425
20
-22.6275
11
214.725
21
-22.9275
0
LINE
8
BLACK
6
CONTINUOUS
10
214.725
20
-22.6275
11
214.425
21
-22.9275
0
LINE
8
BLACK
6
CONTINUOUS
10
214.48
20
-12.55
11
214.78
21
-12.85
0
LINE
8
BLACK
6
CONTINUOUS
10
214.78
20
-12.55
11
214.48
21
-12.85
0
LINE
8
BLACK
6
CONTINUOUS
10
214.48
20
-17.63
11
214.78
21
-17.93
0
LINE
8
BLACK
6
CONTINUOUS
10
214.78
20
-17.63
11
214.48
21
-17.93
0
LINE
8
BLACK
6
CONTINUOUS
10
214.48
20
-119.23
11
214.78
21
-119.53
0
LINE
8
BLACK
6
CONTINUOUS
10
214.78
20
-119.23
11
214.48
21
-119.53
0
LINE
8
BLACK
6
CONTINUOUS
10
214.535
20
-109.153
11
214.835
21
-109.453
0
LINE
8
BLACK
6
CONTINUOUS
10
214.835
20
-109.153
11
214.535
21
-109.453
0
LINE
8
BLACK
6
CONTINUOUS
10
214.535
20
-114.233
11
214.835
21
-114.533
0
LINE
8
BLACK
6
CONTINUOUS
10
214.835
20
-114.233
11
214.535
21
-114.533
0
LINE
8
BLACK
6
CONTINUOUS
10
219.505
20
-22.6275
11
219.805
21
-22.9275
0
LINE
8
BLACK
6
CONTINUOUS
10
219.805
20
-22.6275
11
219.505
21
-22.9275
0
LINE
8
BLACK
6
CONTINUOUS
10
219.56
20
-12.55
11
219.86
21
-12.85
0
LINE
8
BLACK
6
CONTINUOUS
10
219.86
20
-12.55
11
219.56
21
-12.85
0
LINE
8
BLACK
6
CONTINUOUS
10
219.56
20
-17.63
11
219.86
21
-17.93
0
LINE
8
BLACK
6
CONTINUOUS
10
219.86
20
-17.63
11
219.56
21
-17.93
0
LINE
8
BLACK
6
CONTINUOUS
10
219.615
20
-109.153
11
219.915
21
-109.453
0
LINE
8
BLACK
6
CONTINUOUS
10
219.915
20
-109.153
11
219.615
21
-109.453
0
LINE
8
BLACK
6
CONTINUOUS
10
219.615
20
-114.233
11
219.915
21
-114.533
0
LINE
8
BLACK
6
CONTINUOUS
10
219.915
20
-114.233
11
219.615
21
-114.533
0
LINE
8
BLACK
6
CONTINUOUS
10
220.58
20
-121.77
11
220.88
21
-122.07
0
LINE
8
BLACK
6
CONTINUOUS
10
220.88
20
-121.77
11
220.58
21
-122.07
0
LINE
8
BLACK
6
CONTINUOUS
10
221.592
20
-121.77
11
221.892
21
-122.07
0
LINE
8
BLACK
6
CONTINUOUS
10
221.892
20
-121.77
11
221.592
21
-122.07
0
LINE
8
BLACK
6
CONTINUOUS
10
224.585
20
-22.6275
11
224.885
21
-22.9275
0
LINE
8
BLACK
6
CONTINUOUS
10
224.885
20
-22.6275
11
224.585
21
-22.9275
0
LINE
8
BLACK
6
CONTINUOUS
10
224.64
20
-12.55
11
224.94
21
-12.85
0
LINE
8
BLACK
6
CONTINUOUS
10
224.94
20
-12.55
11
224.64
21
-12.85
0
LINE
8
BLACK
6
CONTINUOUS
10
224.64
20
-17.63
11
224.94
21
-17.93
0
LINE
8
BLACK
6
CONTINUOUS
10
224.94
20
-17.63
11
224.64
21
-17.93
0
LINE
8
BLACK
6
CONTINUOUS
10
224.695
20
-109.153
11
224.995
21
-109.453
0
LINE
8
BLACK
6
CONTINUOUS
10
224.995
20
-109.153
11
224.695
21
-109.453
0
LINE
8
BLACK
6
CONTINUOUS
10
224.695
20
-114.233
11
224.995
21
-114.533
0
LINE
8
BLACK
6
CONTINUOUS
10
224.995
20
-114.233
11
224.695
21
-114.533
0
LINE
8
BLACK
6
CONTINUOUS
10
225.66
20
-121.77
11
225.96
21
-122.07
0
LINE
8
BLACK
6
CONTINUOUS
10
225.96
20
-121.77
11
225.66
21
-122.07
0
LINE
8
BLACK
6
CONTINUOUS
10
226.672
20
-121.77
11
226.972
21
-122.07
0
LINE
8
BLACK
6
CONTINUOUS
10
226.972
20
-121.77
11
226.672
21
-122.07
0
LINE
8
BLACK
6
CONTINUOUS
10
229.665
20
-22.6275
11
229.965
21
-22.9275
0
LINE
8
BLACK
6
CONTINUOUS
10
229.965
20
-22.6275
11
229.665
21
-22.9275
0
LINE
8
BLACK
6
CONTINUOUS
10
229.72
20
-12.55
11
230.02
21
-12.85
0
LINE
8
BLACK
6
CONTINUOUS
10
230.02
20
-12.55
11
229.72
21
-12.85
0
LINE
8
BLACK
6
CONTINUOUS
10
229.72
20
-17.63
11
230.02
21
-17.93
0
LINE
8
BLACK
6
CONTINUOUS
10
230.02
20
-17.63
11
229.72
21
-17.93
0
LINE
8
BLACK
6
CONTINUOUS
10
229.775
20
-109.153
11
230.075
21
-109.453
0
LINE
8
BLACK
6
CONTINUOUS
10
230.075
20
-109.153
11
229.775
21
-109.453
0
LINE
8
BLACK
6
CONTINUOUS
10
229.775
20
-114.233
11
230.075
21
-114.533
0
LINE
8
BLACK
6
CONTINUOUS
10
230.075
20
-114.233
11
229.775
21
-114.533
0
LINE
8
BLACK
6
CONTINUOUS
10
230.74
20
-121.77
11
231.04
21
-122.07
0
LINE
8
BLACK
6
CONTINUOUS
10
231.04
20
-121.77
11
230.74
21
-122.07
0
LINE
8
BLACK
6
CONTINUOUS
10
231.752
20
-121.77
11
232.052
21
-122.07
0
LINE
8
BLACK
6
CONTINUOUS
10
232.052
20
-121.77
11
231.752
21
-122.07
0
LINE
8
BLACK
6
CONTINUOUS
10
234.745
20
-22.6275
11
235.045
21
-22.9275
0
LINE
8
BLACK
6
CONTINUOUS
10
235.045
20
-22.6275
11
234.745
21
-22.9275
0
LINE
8
BLACK
6
CONTINUOUS
10
234.8
20
-12.55
11
235.1
21
-12.85
0
LINE
8
BLACK
6
CONTINUOUS
10
235.1
20
-12.55
11
234.8
21
-12.85
0
LINE
8
BLACK
6
CONTINUOUS
10
234.8
20
-17.63
11
235.1
21
-17.93
0
LINE
8
BLACK
6
CONTINUOUS
10
235.1
20
-17.63
11
234.8
21
-17.93
0
LINE
8
BLACK
6
CONTINUOUS
10
234.855
20
-109.153
11
235.155
21
-109.453
0
LINE
8
BLACK
6
CONTINUOUS
10
235.155
20
-109.153
11
234.855
21
-109.453
0
LINE
8
BLACK
6
CONTINUOUS
10
234.855
20
-114.233
11
235.155
21
-114.533
0
LINE
8
BLACK
6
CONTINUOUS
10
235.155
20
-114.233
11
234.855
21
-114.533
0
LINE
8
BLACK
6
CONTINUOUS
10
235.82
20
-121.77
11
236.12
21
-122.07
0
LINE
8
BLACK
6
CONTINUOUS
10
236.12
20
-121.77
11
235.82
21
-122.07
0
LINE
8
BLACK
6
CONTINUOUS
10
236.832
20
-121.77
11
237.132
21
-122.07
0
LINE
8
BLACK
6
CONTINUOUS
10
237.132
20
-121.77
11
236.832
21
-122.07
0
LINE
8
BLACK
6
CONTINUOUS
10
239.825
20
-22.6275
11
240.125
21
-22.9275
0
LINE
8
BLACK
6
CONTINUOUS
10
240.125
20
-22.6275
11
239.825
21
-22.9275
0
LINE
8
BLACK
6
CONTINUOUS
10
239.88
20
-12.55
11
240.18
21
-12.85
0
LINE
8
BLACK
6
CONTINUOUS
10
240.18
20
-12.55
11
239.88
21
-12.85
0
LINE
8
BLACK
6
CONTINUOUS
10
239.88
20
-17.63
11
240.18
21
-17.93
0
LINE
8
BLACK
6
CONTINUOUS
10
240.18
20
-17.63
11
239.88
21
-17.93
0
LINE
8
BLACK
6
CONTINUOUS
10
239.935
20
-109.153
11
240.235
21
-109.453
0
LINE
8
BLACK
6
CONTINUOUS
10
240.235
20
-109.153
11
239.935
21
-109.453
0
LINE
8
BLACK
6
CONTINUOUS
10
239.935
20
-114.233
11
240.235
21
-114.533
0
LINE
8
BLACK
6
CONTINUOUS
10
240.235
20
-114.233
11
239.935
21
-114.533
0
LINE
8
BLACK
6
CONTINUOUS
10
240.388
20
-67.414
11
240.688
21
-67.714
0
LINE
8
BLACK
6
CONTINUOUS
10
240.688
20
-67.414
11
240.388
21
-67.714
0
LINE
8
BLACK
6
CONTINUOUS
10
240.9
20
-121.77
11
241.2
21
-122.07
0
LINE
8
BLACK
6
CONTINUOUS
10
241.2
20
-121.77
11
240.9
21
-122.07
0
LINE
8
BLACK
6
CONTINUOUS
10
241.912
20
-121.77
11
242.212
21
-122.07
0
LINE
8
BLACK
6
CONTINUOUS
10
242.212
20
-121.77
11
241.912
21
-122.07
0
LINE
8
BLACK
6
CONTINUOUS
10
244.452
20
-67.414
11
244.752
21
-67.714
0
LINE
8
BLACK
6
CONTINUOUS
10
244.752
20
-67.414
11
244.452
21
-67.714
0
LINE
8
BLACK
6
CONTINUOUS
10
244.905
20
-22.6275
11
245.205
21
-22.9275
0
LINE
8
BLACK
6
CONTINUOUS
10
245.205
20
-22.6275
11
244.905
21
-22.9275
0
LINE
8
BLACK
6
CONTINUOUS
10
244.96
20
-12.55
11
245.26
21
-12.85
0
LINE
8
BLACK
6
CONTINUOUS
10
245.26
20
-12.55
11
244.96
21
-12.85
0
LINE
8
BLACK
6
CONTINUOUS
10
244.96
20
-17.63
11
245.26
21
-17.93
0
LINE
8
BLACK
6
CONTINUOUS
10
245.26
20
-17.63
11
244.96
21
-17.93
0
LINE
8
BLACK
6
CONTINUOUS
10
245.015
20
-109.153
11
245.315
21
-109.453
0
LINE
8
BLACK
6
CONTINUOUS
10
245.315
20
-109.153
11
245.015
21
-109.453
0
LINE
8
BLACK
6
CONTINUOUS
10
245.015
20
-114.233
11
245.315
21
-114.533
0
LINE
8
BLACK
6
CONTINUOUS
10
245.315
20
-114.233
11
245.015
21
-114.533
0
LINE
8
BLACK
6
CONTINUOUS
10
249.532
20
-67.414
11
249.832
21
-67.714
0
LINE
8
BLACK
6
CONTINUOUS
10
249.832
20
-67.414
11
249.532
21
-67.714
0
LINE
8
BLACK
6
CONTINUOUS
10
249.985
20
-22.6275
11
250.285
21
-22.9275
0
LINE
8
BLACK
6
CONTINUOUS
10
250.285
20
-22.6275
11
249.985
21
-22.9275
0
LINE
8
BLACK
6
CONTINUOUS
10
250.04
20
-12.55
11
250.34
21
-12.85
0
LINE
8
BLACK
6
CONTINUOUS
10
250.34
20
-12.55
11
250.04
21
-12.85
0
LINE
8
BLACK
6
CONTINUOUS
10
250.04
20
-17.63
11
250.34
21
-17.93
0
LINE
8
BLACK
6
CONTINUOUS
10
250.34
20
-17.63
11
250.04
21
-17.93
0
LINE
8
BLACK
6
CONTINUOUS
10
250.04
20
-119.23
11
250.34
21
-119.53
0
LINE
8
BLACK
6
CONTINUOUS
10
250.34
20
-119.23
11
250.04
21
-119.53
0
LINE
8
BLACK
6
CONTINUOUS
10
250.095
20
-109.153
11
250.395
21
-109.453
0
LINE
8
BLACK
6
CONTINUOUS
10
250.395
20
-109.153
11
250.095
21
-109.453
0
LINE
8
BLACK
6
CONTINUOUS
10
250.095
20
-114.233
11
250.395
21
-114.533
0
LINE
8
BLACK
6
CONTINUOUS
10
250.395
20
-114.233
11
250.095
21
-114.533
0
LINE
8
BLACK
6
CONTINUOUS
10
254.612
20
-67.414
11
254.912
21
-67.714
0
LINE
8
BLACK
6
CONTINUOUS
10
254.912
20
-67.414
11
254.612
21
-67.714
0
LINE
8
BLACK
6
CONTINUOUS
10
255.065
20
-22.6275
11
255.365
21
-22.9275
0
LINE
8
BLACK
6
CONTINUOUS
10
255.365
20
-22.6275
11
255.065
21
-22.9275
0
LINE
8
BLACK
6
CONTINUOUS
10
255.12
20
-12.55
11
255.42
21
-12.85
0
LINE
8
BLACK
6
CONTINUOUS
10
255.42
20
-12.55
11
255.12
21
-12.85
0
LINE
8
BLACK
6
CONTINUOUS
10
255.12
20
-119.23
11
255.42
21
-119.53
0
LINE
8
BLACK
6
CONTINUOUS
10
255.42
20
-119.23
11
255.12
21
-119.53
0
LINE
8
BLACK
6
CONTINUOUS
10
255.175
20
-109.153
11
255.475
21
-109.453
0
LINE
8
BLACK
6
CONTINUOUS
10
255.475
20
-109.153
11
255.175
21
-109.453
0
LINE
8
BLACK
6
CONTINUOUS
10
259.692
20
-67.414
11
259.992
21
-67.714
0
LINE
8
BLACK
6
CONTINUOUS
10
259.992
20
-67.414
11
259.692
21
-67.714
0
LINE
8
BLACK
6
CONTINUOUS
10
260.145
20
-22.6275
11
260.445
21
-22.9275
0
LINE
8
BLACK
6
CONTINUOUS
10
260.445
20
-22.6275
11
260.145
21
-22.9275
0
LINE
8
BLACK
6
CONTINUOUS
10
260.2
20
-12.55
11
260.5
21
-12.85
0
LINE
8
BLACK
6
CONTINUOUS
10
260.5
20
-12.55
11
260.2
21
-12.85
0
LINE
8
BLACK
6
CONTINUOUS
10
260.2
20
-17.63
11
260.5
21
-17.93
0
LINE
8
BLACK
6
CONTINUOUS
10
260.5
20
-17.63
11
260.2
21
-17.93
0
LINE
8
BLACK
6
CONTINUOUS
10
260.2
20
-27.79
11
260.5
21
-28.09
0
LINE
8
BLACK
6
CONTINUOUS
10
260.5
20
-27.79
11
260.2
21
-28.09
0
LINE
8
BLACK
6
CONTINUOUS
10
260.2
20
-32.87
11
260.5
21
-33.17
0
LINE
8
BLACK
6
CONTINUOUS
10
260.5
20
-32.87
11
260.2
21
-33.17
0
LINE
8
BLACK
6
CONTINUOUS
10
260.2
20
-37.95
11
260.5
21
-38.25
0
LINE
8
BLACK
6
CONTINUOUS
10
260.5
20
-37.95
11
260.2
21
-38.25
0
LINE
8
BLACK
6
CONTINUOUS
10
260.2
20
-43.03
11
260.5
21
-43.33
0
LINE
8
BLACK
6
CONTINUOUS
10
260.5
20
-43.03
11
260.2
21
-43.33
0
LINE
8
BLACK
6
CONTINUOUS
10
260.2
20
-48.11
11
260.5
21
-48.41
0
LINE
8
BLACK
6
CONTINUOUS
10
260.5
20
-48.11
11
260.2
21
-48.41
0
LINE
8
BLACK
6
CONTINUOUS
10
260.2
20
-53.19
11
260.5
21
-53.49
0
LINE
8
BLACK
6
CONTINUOUS
10
260.5
20
-53.19
11
260.2
21
-53.49
0
LINE
8
BLACK
6
CONTINUOUS
10
260.2
20
-58.27
11
260.5
21
-58.57
0
LINE
8
BLACK
6
CONTINUOUS
10
260.5
20
-58.27
11
260.2
21
-58.57
0
LINE
8
BLACK
6
CONTINUOUS
10
260.2
20
-63.35
11
260.5
21
-63.65
0
LINE
8
BLACK
6
CONTINUOUS
10
260.5
20
-63.35
11
260.2
21
-63.65
0
LINE
8
BLACK
6
CONTINUOUS
10
260.2
20
-68.43
11
260.5
21
-68.73
0
LINE
8
BLACK
6
CONTINUOUS
10
260.5
20
-68.43
11
260.2
21
-68.73
0
LINE
8
BLACK
6
CONTINUOUS
10
260.2
20
-73.51
11
260.5
21
-73.81
0
LINE
8
BLACK
6
CONTINUOUS
10
260.5
20
-73.51
11
260.2
21
-73.81
0
LINE
8
BLACK
6
CONTINUOUS
10
260.2
20
-78.59
11
260.5
21
-78.89
0
LINE
8
BLACK
6
CONTINUOUS
10
260.5
20
-78.59
11
260.2
21
-78.89
0
LINE
8
BLACK
6
CONTINUOUS
10
260.2
20
-83.67
11
260.5
21
-83.97
0
LINE
8
BLACK
6
CONTINUOUS
10
260.5
20
-83.67
11
260.2
21
-83.97
0
LINE
8
BLACK
6
CONTINUOUS
10
260.2
20
-88.75
11
260.5
21
-89.05
0
LINE
8
BLACK
6
CONTINUOUS
10
260.5
20
-88.75
11
260.2
21
-89.05
0
LINE
8
BLACK
6
CONTINUOUS
10
260.2
20
-93.83
11
260.5
21
-94.13
0
LINE
8
BLACK
6
CONTINUOUS
10
260.5
20
-93.83
11
260.2
21
-94.13
0
LINE
8
BLACK
6
CONTINUOUS
10
260.2
20
-98.91
11
260.5
21
-99.21
0
LINE
8
BLACK
6
CONTINUOUS
10
260.5
20
-98.91
11
260.2
21
-99.21
0
LINE
8
BLACK
6
CONTINUOUS
10
260.2
20
-103.99
11
260.5
21
-104.29
0
LINE
8
BLACK
6
CONTINUOUS
10
260.5
20
-103.99
11
260.2
21
-104.29
0
LINE
8
BLACK
6
CONTINUOUS
10
260.2
20
-114.15
11
260.5
21
-114.45
0
LINE
8
BLACK
6
CONTINUOUS
10
260.5
20
-114.15
11
260.2
21
-114.45
0
LINE
8
BLACK
6
CONTINUOUS
10
260.2
20
-119.23
11
260.5
21
-119.53
0
LINE
8
BLACK
6
CONTINUOUS
10
260.5
20
-119.23
11
260.2
21
-119.53
0
LINE
8
BLACK
6
CONTINUOUS
10
260.255
20
-109.153
11
260.555
21
-109.453
0
LINE
8
BLACK
6
CONTINUOUS
10
260.555
20
-109.153
11
260.255
21
-109.453
0
CIRCLE
8
BLACK
10
43.445
20
-61.72
40
0.3
0
LINE
8
BLACK
6
CONTINUOUS
10
43.745
20
-61.42
11
43.145
21
-61.42
0
LINE
8
BLACK
6
CONTINUOUS
10
43.745
20
-62.02
11
43.145
21
-62.02
0
ARC
8
BLACK
10
43.145
20
-61.72
40
0.3
50
450
51
630
0
ARC
8
BLACK
10
43.745
20
-61.72
40
0.3
50
270
51
450
0
CIRCLE
8
BLACK
10
43.445
20
-70.36
40
0.3
0
LINE
8
BLACK
6
CONTINUOUS
10
43.745
20
-70.06
11
43.145
21
-70.06
0
LINE
8
BLACK
6
CONTINUOUS
10
43.745
20
-70.66
11
43.145
21
-70.66
0
ARC
8
BLACK
10
43.145
20
-70.36
40
0.3
50
450
51
630
0
ARC
8
BLACK
10
43.745
20
-70.36
40
0.3
50
270
51
450
0
CIRCLE
8
BLACK
10
47.625
20
-61.72
40
0.3
0
LINE
8
BLACK
6
CONTINUOUS
10
48.175
20
-61.42
11
47.075
21
-61.42
0
LINE
8
BLACK
6
CONTINUOUS
10
48.175
20
-62.02
11
47.075
21
-62.02
0
ARC
8
BLACK
10
47.075
20
-61.72
40
0.3
50
450
51
630
0
ARC
8
BLACK
10
48.175
20
-61.72
40
0.3
50
270
51
450
0
CIRCLE
8
BLACK
10
47.625
20
-70.36
40
0.3
0
LINE
8
BLACK
6
CONTINUOUS
10
48.175
20
-70.06
11
47.075
21
-70.06
0
LINE
8
BLACK
6
CONTINUOUS
10
48.175
20
-70.66
11
47.075
21
-70.66
0
ARC
8
BLACK
10
47.075
20
-70.36
40
0.3
50
450
51
630
0
ARC
8
BLACK
10
48.175
20
-70.36
40
0.3
50
270
51
450
0
LINE
8
BLACK
6
CONTINUOUS
10
44.4362
20
-127.615
11
44.4362
21
-125.615
0
LINE
8
BLACK
6
CONTINUOUS
10
44.4362
20
-125.615
11
44.9124
21
-125.615
0
LINE
8
BLACK
6
CONTINUOUS
10
44.9124
20
-125.615
11
45.1981
21
-125.71
0
LINE
8
BLACK
6
CONTINUOUS
10
45.1981
20
-125.71
11
45.3886
21
-125.9
0
LINE
8
BLACK
6
CONTINUOUS
10
45.3886
20
-125.9
11
45.4838
21
-126.091
0
LINE
8
BLACK
6
CONTINUOUS
10
45.4838
20
-126.091
11
45.579
21
-126.472
0
LINE
8
BLACK
6
CONTINUOUS
10
45.579
20
-126.472
11
45.579
21
-126.758
0
LINE
8
BLACK
6
CONTINUOUS
10
45.579
20
-126.758
11
45.4838
21
-127.139
0
LINE
8
BLACK
6
CONTINUOUS
10
45.4838
20
-127.139
11
45.3886
21
-127.329
0
LINE
8
BLACK
6
CONTINUOUS
10
45.3886
20
-127.329
11
45.1981
21
-127.52
0
LINE
8
BLACK
6
CONTINUOUS
10
45.1981
20
-127.52
11
44.9124
21
-127.615
0
LINE
8
BLACK
6
CONTINUOUS
10
44.9124
20
-127.615
11
44.4362
21
-127.615
0
LINE
8
BLACK
6
CONTINUOUS
10
46.4362
20
-127.615
11
46.4362
21
-126.281
0
LINE
8
BLACK
6
CONTINUOUS
10
46.4362
20
-126.662
11
46.5314
21
-126.472
0
LINE
8
BLACK
6
CONTINUOUS
10
46.5314
20
-126.472
11
46.6267
21
-126.377
0
LINE
8
BLACK
6
CONTINUOUS
10
46.6267
20
-126.377
11
46.8171
21
-126.281
0
LINE
8
BLACK
6
CONTINUOUS
10
46.8171
20
-126.281
11
47.0076
21
-126.281
0
LINE
8
BLACK
6
CONTINUOUS
10
47.6743
20
-127.615
11
47.6743
21
-126.281
0
LINE
8
BLACK
6
CONTINUOUS
10
47.6743
20
-125.615
11
47.579
21
-125.71
0
LINE
8
BLACK
6
CONTINUOUS
10
47.579
20
-125.71
11
47.6743
21
-125.805
0
LINE
8
BLACK
6
CONTINUOUS
10
47.6743
20
-125.805
11
47.7695
21
-125.71
0
LINE
8
BLACK
6
CONTINUOUS
10
47.7695
20
-125.71
11
47.6743
21
-125.615
0
LINE
8
BLACK
6
CONTINUOUS
10
47.6743
20
-125.615
11
47.6743
21
-125.805
0
LINE
8
BLACK
6
CONTINUOUS
10
48.9124
20
-127.615
11
48.7219
21
-127.52
0
LINE
8
BLACK
6
CONTINUOUS
10
48.7219
20
-127.52
11
48.6267
21
-127.329
0
LINE
8
BLACK
6
CONTINUOUS
10
48.6267
20
-127.329
11
48.6267
21
-125.615
0
LINE
8
BLACK
6
CONTINUOUS
10
49.96
20
-127.615
11
49.7695
21
-127.52
0
LINE
8
BLACK
6
CONTINUOUS
10
49.7695
20
-127.52
11
49.6743
21
-127.329
0
LINE
8
BLACK
6
CONTINUOUS
10
49.6743
20
-127.329
11
49.6743
21
-125.615
0
LINE
8
BLACK
6
CONTINUOUS
10
52.2457
20
-127.615
11
52.2457
21
-125.615
0
LINE
8
BLACK
6
CONTINUOUS
10
52.2457
20
-125.615
11
52.9124
21
-127.043
0
LINE
8
BLACK
6
CONTINUOUS
10
52.9124
20
-127.043
11
53.579
21
-125.615
0
LINE
8
BLACK
6
CONTINUOUS
10
53.579
20
-125.615
11
53.579
21
-127.615
0
LINE
8
BLACK
6
CONTINUOUS
10
55.3886
20
-127.615
11
55.3886
21
-126.567
0
LINE
8
BLACK
6
CONTINUOUS
10
55.3886
20
-126.567
11
55.2933
21
-126.377
0
LINE
8
BLACK
6
CONTINUOUS
10
55.2933
20
-126.377
11
55.1029
21
-126.281
0
LINE
8
BLACK
6
CONTINUOUS
10
55.1029
20
-126.281
11
54.7219
21
-126.281
0
LINE
8
BLACK
6
CONTINUOUS
10
54.7219
20
-126.281
11
54.5314
21
-126.377
0
LINE
8
BLACK
6
CONTINUOUS
10
55.3886
20
-127.52
11
55.1981
21
-127.615
0
LINE
8
BLACK
6
CONTINUOUS
10
55.1981
20
-127.615
11
54.7219
21
-127.615
0
LINE
8
BLACK
6
CONTINUOUS
10
54.7219
20
-127.615
11
54.5314
21
-127.52
0
LINE
8
BLACK
6
CONTINUOUS
10
54.5314
20
-127.52
11
54.4362
21
-127.329
0
LINE
8
BLACK
6
CONTINUOUS
10
54.4362
20
-127.329
11
54.4362
21
-127.139
0
LINE
8
BLACK
6
CONTINUOUS
10
54.4362
20
-127.139
11
54.5314
21
-126.948
0
LINE
8
BLACK
6
CONTINUOUS
10
54.5314
20
-126.948
11
54.7219
21
-126.853
0
LINE
8
BLACK
6
CONTINUOUS
10
54.7219
20
-126.853
11
55.1981
21
-126.853
0
LINE
8
BLACK
6
CONTINUOUS
10
55.1981
20
-126.853
11
55.3886
21
-126.758
0
LINE
8
BLACK
6
CONTINUOUS
10
56.341
20
-126.281
11
56.341
21
-128.281
0
LINE
8
BLACK
6
CONTINUOUS
10
56.341
20
-126.377
11
56.5314
21
-126.281
0
LINE
8
BLACK
6
CONTINUOUS
10
56.5314
20
-126.281
11
56.9124
21
-126.281
0
LINE
8
BLACK
6
CONTINUOUS
10
56.9124
20
-126.281
11
57.1029
21
-126.377
0
LINE
8
BLACK
6
CONTINUOUS
10
57.1029
20
-126.377
11
57.1981
21
-126.472
0
LINE
8
BLACK
6
CONTINUOUS
10
57.1981
20
-126.472
11
57.2933
21
-126.662
0
LINE
8
BLACK
6
CONTINUOUS
10
57.2933
20
-126.662
11
57.2933
21
-127.234
0
LINE
8
BLACK
6
CONTINUOUS
10
57.2933
20
-127.234
11
57.1981
21
-127.424
0
LINE
8
BLACK
6
CONTINUOUS
10
57.1981
20
-127.424
11
57.1029
21
-127.52
0
LINE
8
BLACK
6
CONTINUOUS
10
57.1029
20
-127.52
11
56.9124
21
-127.615
0
LINE
8
BLACK
6
CONTINUOUS
10
56.9124
20
-127.615
11
56.5314
21
-127.615
0
LINE
8
BLACK
6
CONTINUOUS
10
56.5314
20
-127.615
11
56.341
21
-127.52
0
LINE
8
BLACK
6
CONTINUOUS
10
58.1505
20
-127.424
11
58.2457
21
-127.52
0
LINE
8
BLACK
6
CONTINUOUS
10
58.2457
20
-127.52
11
58.1505
21
-127.615
0
LINE
8
BLACK
6
CONTINUOUS
10
58.1505
20
-127.615
11
58.0552
21
-127.52
0
LINE
8
BLACK
6
CONTINUOUS
10
58.0552
20
-127.52
11
58.1505
21
-127.424
0
LINE
8
BLACK
6
CONTINUOUS
10
58.1505
20
-127.424
11
58.1505
21
-127.615
0
LINE
8
BLACK
6
CONTINUOUS
10
58.1505
20
-126.377
11
58.2457
21
-126.472
0
LINE
8
BLACK
6
CONTINUOUS
10
58.2457
20
-126.472
11
58.1505
21
-126.567
0
LINE
8
BLACK
6
CONTINUOUS
10
58.1505
20
-126.567
11
58.0552
21
-126.472
0
LINE
8
BLACK
6
CONTINUOUS
10
58.0552
20
-126.472
11
58.1505
21
-126.377
0
LINE
8
BLACK
6
CONTINUOUS
10
58.1505
20
-126.377
11
58.1505
21
-126.567
0
LINE
8
BLACK
6
CONTINUOUS
10
41.56
20
-130.76
11
41.86
21
-131.06
0
LINE
8
BLACK
6
CONTINUOUS
10
41.86
20
-130.76
11
41.56
21
-131.06
0
LINE
8
BLACK
6
CONTINUOUS
10
44.8171
20
-129.815
11
45.0076
21
-129.815
0
LINE
8
BLACK
6
CONTINUOUS
10
45.0076
20
-129.815
11
45.1981
21
-129.91
0
LINE
8
BLACK
6
CONTINUOUS
10
45.1981
20
-129.91
11
45.2933
21
-130.005
0
LINE
8
BLACK
6
CONTINUOUS
10
45.2933
20
-130.005
11
45.3886
21
-130.196
0
LINE
8
BLACK
6
CONTINUOUS
10
45.3886
20
-130.196
11
45.4838
21
-130.577
0
LINE
8
BLACK
6
CONTINUOUS
10
45.4838
20
-130.577
11
45.4838
21
-131.053
0
LINE
8
BLACK
6
CONTINUOUS
10
45.4838
20
-131.053
11
45.3886
21
-131.434
0
LINE
8
BLACK
6
CONTINUOUS
10
45.3886
20
-131.434
11
45.2933
21
-131.624
0
LINE
8
BLACK
6
CONTINUOUS
10
45.2933
20
-131.624
11
45.1981
21
-131.72
0
LINE
8
BLACK
6
CONTINUOUS
10
45.1981
20
-131.72
11
45.0076
21
-131.815
0
LINE
8
BLACK
6
CONTINUOUS
10
45.0076
20
-131.815
11
44.8171
21
-131.815
0
LINE
8
BLACK
6
CONTINUOUS
10
44.8171
20
-131.815
11
44.6267
21
-131.72
0
LINE
8
BLACK
6
CONTINUOUS
10
44.6267
20
-131.72
11
44.5314
21
-131.624
0
LINE
8
BLACK
6
CONTINUOUS
10
44.5314
20
-131.624
11
44.4362
21
-131.434
0
LINE
8
BLACK
6
CONTINUOUS
10
44.4362
20
-131.434
11
44.341
21
-131.053
0
LINE
8
BLACK
6
CONTINUOUS
10
44.341
20
-131.053
11
44.341
21
-130.577
0
LINE
8
BLACK
6
CONTINUOUS
10
44.341
20
-130.577
11
44.4362
21
-130.196
0
LINE
8
BLACK
6
CONTINUOUS
10
44.4362
20
-130.196
11
44.5314
21
-130.005
0
LINE
8
BLACK
6
CONTINUOUS
10
44.5314
20
-130.005
11
44.6267
21
-129.91
0
LINE
8
BLACK
6
CONTINUOUS
10
44.6267
20
-129.91
11
44.8171
21
-129.815
0
LINE
8
BLACK
6
CONTINUOUS
10
46.341
20
-131.624
11
46.4362
21
-131.72
0
LINE
8
BLACK
6
CONTINUOUS
10
46.4362
20
-131.72
11
46.341
21
-131.815
0
LINE
8
BLACK
6
CONTINUOUS
10
46.341
20
-131.815
11
46.2457
21
-131.72
0
LINE
8
BLACK
6
CONTINUOUS
10
46.2457
20
-131.72
11
46.341
21
-131.624
0
LINE
8
BLACK
6
CONTINUOUS
10
46.341
20
-131.624
11
46.341
21
-131.815
0
LINE
8
BLACK
6
CONTINUOUS
10
47.1029
20
-129.815
11
48.341
21
-129.815
0
LINE
8
BLACK
6
CONTINUOUS
10
48.341
20
-129.815
11
47.6743
21
-130.577
0
LINE
8
BLACK
6
CONTINUOUS
10
47.6743
20
-130.577
11
47.96
21
-130.577
0
LINE
8
BLACK
6
CONTINUOUS
10
47.96
20
-130.577
11
48.1505
21
-130.672
0
LINE
8
BLACK
6
CONTINUOUS
10
48.1505
20
-130.672
11
48.2457
21
-130.767
0
LINE
8
BLACK
6
CONTINUOUS
10
48.2457
20
-130.767
11
48.341
21
-130.958
0
LINE
8
BLACK
6
CONTINUOUS
10
48.341
20
-130.958
11
48.341
21
-131.434
0
LINE
8
BLACK
6
CONTINUOUS
10
48.341
20
-131.434
11
48.2457
21
-131.624
0
LINE
8
BLACK
6
CONTINUOUS
10
48.2457
20
-131.624
11
48.1505
21
-131.72
0
LINE
8
BLACK
6
CONTINUOUS
10
48.1505
20
-131.72
11
47.96
21
-131.815
0
LINE
8
BLACK
6
CONTINUOUS
10
47.96
20
-131.815
11
47.3886
21
-131.815
0
LINE
8
BLACK
6
CONTINUOUS
10
47.3886
20
-131.815
11
47.1981
21
-131.72
0
LINE
8
BLACK
6
CONTINUOUS
10
47.1981
20
-131.72
11
47.1029
21
-131.624
0
LINE
8
BLACK
6
CONTINUOUS
10
49.579
20
-129.815
11
49.7695
21
-129.815
0
LINE
8
BLACK
6
CONTINUOUS
10
49.7695
20
-129.815
11
49.96
21
-129.91
0
LINE
8
BLACK
6
CONTINUOUS
10
49.96
20
-129.91
11
50.0552
21
-130.005
0
LINE
8
BLACK
6
CONTINUOUS
10
50.0552
20
-130.005
11
50.1505
21
-130.196
0
LINE
8
BLACK
6
CONTINUOUS
10
50.1505
20
-130.196
11
50.2457
21
-130.577
0
LINE
8
BLACK
6
CONTINUOUS
10
50.2457
20
-130.577
11
50.2457
21
-131.053
0
LINE
8
BLACK
6
CONTINUOUS
10
50.2457
20
-131.053
11
50.1505
21
-131.434
0
LINE
8
BLACK
6
CONTINUOUS
10
50.1505
20
-131.434
11
50.0552
21
-131.624
0
LINE
8
BLACK
6
CONTINUOUS
10
50.0552
20
-131.624
11
49.96
21
-131.72
0
LINE
8
BLACK
6
CONTINUOUS
10
49.96
20
-131.72
11
49.7695
21
-131.815
0
LINE
8
BLACK
6
CONTINUOUS
10
49.7695
20
-131.815
11
49.579
21
-131.815
0
LINE
8
BLACK
6
CONTINUOUS
10
49.579
20
-131.815
11
49.3886
21
-131.72
0
LINE
8
BLACK
6
CONTINUOUS
10
49.3886
20
-131.72
11
49.2933
21
-131.624
0
LINE
8
BLACK
6
CONTINUOUS
10
49.2933
20
-131.624
11
49.1981
21
-131.434
0
LINE
8
BLACK
6
CONTINUOUS
10
49.1981
20
-131.434
11
49.1029
21
-131.053
0
LINE
8
BLACK
6
CONTINUOUS
10
49.1029
20
-131.053
11
49.1029
21
-130.577
0
LINE
8
BLACK
6
CONTINUOUS
10
49.1029
20
-130.577
11
49.1981
21
-130.196
0
LINE
8
BLACK
6
CONTINUOUS
10
49.1981
20
-130.196
11
49.2933
21
-130.005
0
LINE
8
BLACK
6
CONTINUOUS
10
49.2933
20
-130.005
11
49.3886
21
-129.91
0
LINE
8
BLACK
6
CONTINUOUS
10
49.3886
20
-129.91
11
49.579
21
-129.815
0
LINE
8
BLACK
6
CONTINUOUS
10
51.4838
20
-129.815
11
51.6743
21
-129.815
0
LINE
8
BLACK
6
CONTINUOUS
10
51.6743
20
-129.815
11
51.8648
21
-129.91
0
LINE
8
BLACK
6
CONTINUOUS
10
51.8648
20
-129.91
11
51.96
21
-130.005
0
LINE
8
BLACK
6
CONTINUOUS
10
51.96
20
-130.005
11
52.0552
21
-130.196
0
LINE
8
BLACK
6
CONTINUOUS
10
52.0552
20
-130.196
11
52.1505
21
-130.577
0
LINE
8
BLACK
6
CONTINUOUS
10
52.1505
20
-130.577
11
52.1505
21
-131.053
0
LINE
8
BLACK
6
CONTINUOUS
10
52.1505
20
-131.053
11
52.0552
21
-131.434
0
LINE
8
BLACK
6
CONTINUOUS
10
52.0552
20
-131.434
11
51.96
21
-131.624
0
LINE
8
BLACK
6
CONTINUOUS
10
51.96
20
-131.624
11
51.8648
21
-131.72
0
LINE
8
BLACK
6
CONTINUOUS
10
51.8648
20
-131.72
11
51.6743
21
-131.815
0
LINE
8
BLACK
6
CONTINUOUS
10
51.6743
20
-131.815
11
51.4838
21
-131.815
0
LINE
8
BLACK
6
CONTINUOUS
10
51.4838
20
-131.815
11
51.2933
21
-131.72
0
LINE
8
BLACK
6
CONTINUOUS
10
51.2933
20
-131.72
11
51.1981
21
-131.624
0
LINE
8
BLACK
6
CONTINUOUS
10
51.1981
20
-131.624
11
51.1029
21
-131.434
0
LINE
8
BLACK
6
CONTINUOUS
10
51.1029
20
-131.434
11
51.0076
21
-131.053
0
LINE
8
BLACK
6
CONTINUOUS
10
51.0076
20
-131.053
11
51.0076
21
-130.577
0
LINE
8
BLACK
6
CONTINUOUS
10
51.0076
20
-130.577
11
51.1029
21
-130.196
0
LINE
8
BLACK
6
CONTINUOUS
10
51.1029
20
-130.196
11
51.1981
21
-130.005
0
LINE
8
BLACK
6
CONTINUOUS
10
51.1981
20
-130.005
11
51.2933
21
-129.91
0
LINE
8
BLACK
6
CONTINUOUS
10
51.2933
20
-129.91
11
51.4838
21
-129.815
0
LINE
8
BLACK
6
CONTINUOUS
10
53.0076
20
-131.815
11
53.0076
21
-130.481
0
LINE
8
BLACK
6
CONTINUOUS
10
53.0076
20
-130.672
11
53.1029
21
-130.577
0
LINE
8
BLACK
6
CONTINUOUS
10
53.1029
20
-130.577
11
53.2933
21
-130.481
0
LINE
8
BLACK
6
CONTINUOUS
10
53.2933
20
-130.481
11
53.579
21
-130.481
0
LINE
8
BLACK
6
CONTINUOUS
10
53.579
20
-130.481
11
53.7695
21
-130.577
0
LINE
8
BLACK
6
CONTINUOUS
10
53.7695
20
-130.577
11
53.8648
21
-130.767
0
LINE
8
BLACK
6
CONTINUOUS
10
53.8648
20
-130.767
11
53.8648
21
-131.815
0
LINE
8
BLACK
6
CONTINUOUS
10
53.8648
20
-130.767
11
53.96
21
-130.577
0
LINE
8
BLACK
6
CONTINUOUS
10
53.96
20
-130.577
11
54.1505
21
-130.481
0
LINE
8
BLACK
6
CONTINUOUS
10
54.1505
20
-130.481
11
54.4362
21
-130.481
0
LINE
8
BLACK
6
CONTINUOUS
10
54.4362
20
-130.481
11
54.6267
21
-130.577
0
LINE
8
BLACK
6
CONTINUOUS
10
54.6267
20
-130.577
11
54.7219
21
-130.767
0
LINE
8
BLACK
6
CONTINUOUS
10
54.7219
20
-130.767
11
54.7219
21
-131.815
0
LINE
8
BLACK
6
CONTINUOUS
10
55.6743
20
-131.815
11
55.6743
21
-130.481
0
LINE
8
BLACK
6
CONTINUOUS
10
55.6743
20
-130.672
11
55.7695
21
-130.577
0
LINE
8
BLACK
6
CONTINUOUS
10
55.7695
20
-130.577
11
55.96
21
-130.481
0
LINE
8
BLACK
6
CONTINUOUS
10
55.96
20
-130.481
11
56.2457
21
-130.481
0
LINE
8
BLACK
6
CONTINUOUS
10
56.2457
20
-130.481
11
56.4362
21
-130.577
0
LINE
8
BLACK
6
CONTINUOUS
10
56.4362
20
-130.577
11
56.5314
21
-130.767
0
LINE
8
BLACK
6
CONTINUOUS
10
56.5314
20
-130.767
11
56.5314
21
-131.815
0
LINE
8
BLACK
6
CONTINUOUS
10
56.5314
20
-130.767
11
56.6267
21
-130.577
0
LINE
8
BLACK
6
CONTINUOUS
10
56.6267
20
-130.577
11
56.8171
21
-130.481
0
LINE
8
BLACK
6
CONTINUOUS
10
56.8171
20
-130.481
11
57.1029
21
-130.481
0
LINE
8
BLACK
6
CONTINUOUS
10
57.1029
20
-130.481
11
57.2933
21
-130.577
0
LINE
8
BLACK
6
CONTINUOUS
10
57.2933
20
-130.577
11
57.3886
21
-130.767
0
LINE
8
BLACK
6
CONTINUOUS
10
57.3886
20
-130.767
11
57.3886
21
-131.815
0
LINE
8
BLACK
6
CONTINUOUS
10
61.2933
20
-129.72
11
59.579
21
-132.291
0
LINE
8
BLACK
6
CONTINUOUS
10
63.8648
20
-129.815
11
64.0552
21
-129.815
0
LINE
8
BLACK
6
CONTINUOUS
10
64.0552
20
-129.815
11
64.2457
21
-129.91
0
LINE
8
BLACK
6
CONTINUOUS
10
64.2457
20
-129.91
11
64.341
21
-130.005
0
LINE
8
BLACK
6
CONTINUOUS
10
64.341
20
-130.005
11
64.4362
21
-130.196
0
LINE
8
BLACK
6
CONTINUOUS
10
64.4362
20
-130.196
11
64.5314
21
-130.577
0
LINE
8
BLACK
6
CONTINUOUS
10
64.5314
20
-130.577
11
64.5314
21
-131.053
0
LINE
8
BLACK
6
CONTINUOUS
10
64.5314
20
-131.053
11
64.4362
21
-131.434
0
LINE
8
BLACK
6
CONTINUOUS
10
64.4362
20
-131.434
11
64.341
21
-131.624
0
LINE
8
BLACK
6
CONTINUOUS
10
64.341
20
-131.624
11
64.2457
21
-131.72
0
LINE
8
BLACK
6
CONTINUOUS
10
64.2457
20
-131.72
11
64.0552
21
-131.815
0
LINE
8
BLACK
6
CONTINUOUS
10
64.0552
20
-131.815
11
63.8648
21
-131.815
0
LINE
8
BLACK
6
CONTINUOUS
10
63.8648
20
-131.815
11
63.6743
21
-131.72
0
LINE
8
BLACK
6
CONTINUOUS
10
63.6743
20
-131.72
11
63.579
21
-131.624
0
LINE
8
BLACK
6
CONTINUOUS
10
63.579
20
-131.624
11
63.4838
21
-131.434
0
LINE
8
BLACK
6
CONTINUOUS
10
63.4838
20
-131.434
11
63.3886
21
-131.053
0
LINE
8
BLACK
6
CONTINUOUS
10
63.3886
20
-131.053
11
63.3886
21
-130.577
0
LINE
8
BLACK
6
CONTINUOUS
10
63.3886
20
-130.577
11
63.4838
21
-130.196
0
LINE
8
BLACK
6
CONTINUOUS
10
63.4838
20
-130.196
11
63.579
21
-130.005
0
LINE
8
BLACK
6
CONTINUOUS
10
63.579
20
-130.005
11
63.6743
21
-129.91
0
LINE
8
BLACK
6
CONTINUOUS
10
63.6743
20
-129.91
11
63.8648
21
-129.815
0
LINE
8
BLACK
6
CONTINUOUS
10
65.3886
20
-131.624
11
65.4838
21
-131.72
0
LINE
8
BLACK
6
CONTINUOUS
10
65.4838
20
-131.72
11
65.3886
21
-131.815
0
LINE
8
BLACK
6
CONTINUOUS
10
65.3886
20
-131.815
11
65.2933
21
-131.72
0
LINE
8
BLACK
6
CONTINUOUS
10
65.2933
20
-131.72
11
65.3886
21
-131.624
0
LINE
8
BLACK
6
CONTINUOUS
10
65.3886
20
-131.624
11
65.3886
21
-131.815
0
LINE
8
BLACK
6
CONTINUOUS
10
66.7219
20
-129.815
11
66.9124
21
-129.815
0
LINE
8
BLACK
6
CONTINUOUS
10
66.9124
20
-129.815
11
67.1029
21
-129.91
0
LINE
8
BLACK
6
CONTINUOUS
10
67.1029
20
-129.91
11
67.1981
21
-130.005
0
LINE
8
BLACK
6
CONTINUOUS
10
67.1981
20
-130.005
11
67.2933
21
-130.196
0
LINE
8
BLACK
6
CONTINUOUS
10
67.2933
20
-130.196
11
67.3886
21
-130.577
0
LINE
8
BLACK
6
CONTINUOUS
10
67.3886
20
-130.577
11
67.3886
21
-131.053
0
LINE
8
BLACK
6
CONTINUOUS
10
67.3886
20
-131.053
11
67.2933
21
-131.434
0
LINE
8
BLACK
6
CONTINUOUS
10
67.2933
20
-131.434
11
67.1981
21
-131.624
0
LINE
8
BLACK
6
CONTINUOUS
10
67.1981
20
-131.624
11
67.1029
21
-131.72
0
LINE
8
BLACK
6
CONTINUOUS
10
67.1029
20
-131.72
11
66.9124
21
-131.815
0
LINE
8
BLACK
6
CONTINUOUS
10
66.9124
20
-131.815
11
66.7219
21
-131.815
0
LINE
8
BLACK
6
CONTINUOUS
10
66.7219
20
-131.815
11
66.5314
21
-131.72
0
LINE
8
BLACK
6
CONTINUOUS
10
66.5314
20
-131.72
11
66.4362
21
-131.624
0
LINE
8
BLACK
6
CONTINUOUS
10
66.4362
20
-131.624
11
66.341
21
-131.434
0
LINE
8
BLACK
6
CONTINUOUS
10
66.341
20
-131.434
11
66.2457
21
-131.053
0
LINE
8
BLACK
6
CONTINUOUS
10
66.2457
20
-131.053
11
66.2457
21
-130.577
0
LINE
8
BLACK
6
CONTINUOUS
10
66.2457
20
-130.577
11
66.341
21
-130.196
0
LINE
8
BLACK
6
CONTINUOUS
10
66.341
20
-130.196
11
66.4362
21
-130.005
0
LINE
8
BLACK
6
CONTINUOUS
10
66.4362
20
-130.005
11
66.5314
21
-129.91
0
LINE
8
BLACK
6
CONTINUOUS
10
66.5314
20
-129.91
11
66.7219
21
-129.815
0
LINE
8
BLACK
6
CONTINUOUS
10
69.2933
20
-131.815
11
68.1505
21
-131.815
0
LINE
8
BLACK
6
CONTINUOUS
10
68.7219
20
-131.815
11
68.7219
21
-129.815
0
LINE
8
BLACK
6
CONTINUOUS
10
68.7219
20
-129.815
11
68.5314
21
-130.1
0
LINE
8
BLACK
6
CONTINUOUS
10
68.5314
20
-130.1
11
68.341
21
-130.291
0
LINE
8
BLACK
6
CONTINUOUS
10
68.341
20
-130.291
11
68.1505
21
-130.386
0
LINE
8
BLACK
6
CONTINUOUS
10
71.1981
20
-131.815
11
70.0552
21
-131.815
0
LINE
8
BLACK
6
CONTINUOUS
10
70.6267
20
-131.815
11
70.6267
21
-129.815
0
LINE
8
BLACK
6
CONTINUOUS
10
70.6267
20
-129.815
11
70.4362
21
-130.1
0
LINE
8
BLACK
6
CONTINUOUS
10
70.4362
20
-130.1
11
70.2457
21
-130.291
0
LINE
8
BLACK
6
CONTINUOUS
10
70.2457
20
-130.291
11
70.0552
21
-130.386
0
LINE
8
BLACK
6
CONTINUOUS
10
72.341
20
-130.672
11
72.1505
21
-130.577
0
LINE
8
BLACK
6
CONTINUOUS
10
72.1505
20
-130.577
11
72.0552
21
-130.481
0
LINE
8
BLACK
6
CONTINUOUS
10
72.0552
20
-130.481
11
71.96
21
-130.291
0
LINE
8
BLACK
6
CONTINUOUS
10
71.96
20
-130.291
11
71.96
21
-130.196
0
LINE
8
BLACK
6
CONTINUOUS
10
71.96
20
-130.196
11
72.0552
21
-130.005
0
LINE
8
BLACK
6
CONTINUOUS
10
72.0552
20
-130.005
11
72.1505
21
-129.91
0
LINE
8
BLACK
6
CONTINUOUS
10
72.1505
20
-129.91
11
72.341
21
-129.815
0
LINE
8
BLACK
6
CONTINUOUS
10
72.341
20
-129.815
11
72.7219
21
-129.815
0
LINE
8
BLACK
6
CONTINUOUS
10
72.7219
20
-129.815
11
72.9124
21
-129.91
0
LINE
8
BLACK
6
CONTINUOUS
10
72.9124
20
-129.91
11
73.0076
21
-130.005
0
LINE
8
BLACK
6
CONTINUOUS
10
73.0076
20
-130.005
11
73.1029
21
-130.196
0
LINE
8
BLACK
6
CONTINUOUS
10
73.1029
20
-130.196
11
73.1029
21
-130.291
0
LINE
8
BLACK
6
CONTINUOUS
10
73.1029
20
-130.291
11
73.0076
21
-130.481
0
LINE
8
BLACK
6
CONTINUOUS
10
73.0076
20
-130.481
11
72.9124
21
-130.577
0
LINE
8
BLACK
6
CONTINUOUS
10
72.9124
20
-130.577
11
72.7219
21
-130.672
0
LINE
8
BLACK
6
CONTINUOUS
10
72.7219
20
-130.672
11
72.341
21
-130.672
0
LINE
8
BLACK
6
CONTINUOUS
10
72.341
20
-130.672
11
72.1505
21
-130.767
0
LINE
8
BLACK
6
CONTINUOUS
10
72.1505
20
-130.767
11
72.0552
21
-130.862
0
LINE
8
BLACK
6
CONTINUOUS
10
72.0552
20
-130.862
11
71.96
21
-131.053
0
LINE
8
BLACK
6
CONTINUOUS
10
71.96
20
-131.053
11
71.96
21
-131.434
0
LINE
8
BLACK
6
CONTINUOUS
10
71.96
20
-131.434
11
72.0552
21
-131.624
0
LINE
8
BLACK
6
CONTINUOUS
10
72.0552
20
-131.624
11
72.1505
21
-131.72
0
LINE
8
BLACK
6
CONTINUOUS
10
72.1505
20
-131.72
11
72.341
21
-131.815
0
LINE
8
BLACK
6
CONTINUOUS
10
72.341
20
-131.815
11
72.7219
21
-131.815
0
LINE
8
BLACK
6
CONTINUOUS
10
72.7219
20
-131.815
11
72.9124
21
-131.72
0
LINE
8
BLACK
6
CONTINUOUS
10
72.9124
20
-131.72
11
73.0076
21
-131.624
0
LINE
8
BLACK
6
CONTINUOUS
10
73.0076
20
-131.624
11
73.1029
21
-131.434
0
LINE
8
BLACK
6
CONTINUOUS
10
73.1029
20
-131.434
11
73.1029
21
-131.053
0
LINE
8
BLACK
6
CONTINUOUS
10
73.1029
20
-131.053
11
73.0076
21
-130.862
0
LINE
8
BLACK
6
CONTINUOUS
10
73.0076
20
-130.862
11
72.9124
21
-130.767
0
LINE
8
BLACK
6
CONTINUOUS
10
72.9124
20
-130.767
11
72.7219
21
-130.672
0
LINE
8
BLACK
6
CONTINUOUS
10
73.8648
20
-129.815
11
73.8648
21
-130.196
0
LINE
8
BLACK
6
CONTINUOUS
10
74.6267
20
-129.815
11
74.6267
21
-130.196
0
LINE
8
BLACK
6
CONTINUOUS
10
77.579
20
-132.577
11
77.4838
21
-132.481
0
LINE
8
BLACK
6
CONTINUOUS
10
77.4838
20
-132.481
11
77.2933
21
-132.196
0
LINE
8
BLACK
6
CONTINUOUS
10
77.2933
20
-132.196
11
77.1981
21
-132.005
0
LINE
8
BLACK
6
CONTINUOUS
10
77.1981
20
-132.005
11
77.1029
21
-131.72
0
LINE
8
BLACK
6
CONTINUOUS
10
77.1029
20
-131.72
11
77.0076
21
-131.243
0
LINE
8
BLACK
6
CONTINUOUS
10
77.0076
20
-131.243
11
77.0076
21
-130.862
0
LINE
8
BLACK
6
CONTINUOUS
10
77.0076
20
-130.862
11
77.1029
21
-130.386
0
LINE
8
BLACK
6
CONTINUOUS
10
77.1029
20
-130.386
11
77.1981
21
-130.1
0
LINE
8
BLACK
6
CONTINUOUS
10
77.1981
20
-130.1
11
77.2933
21
-129.91
0
LINE
8
BLACK
6
CONTINUOUS
10
77.2933
20
-129.91
11
77.4838
21
-129.624
0
LINE
8
BLACK
6
CONTINUOUS
10
77.4838
20
-129.624
11
77.579
21
-129.529
0
LINE
8
BLACK
6
CONTINUOUS
10
79.2933
20
-129.815
11
78.341
21
-129.815
0
LINE
8
BLACK
6
CONTINUOUS
10
78.341
20
-129.815
11
78.2457
21
-130.767
0
LINE
8
BLACK
6
CONTINUOUS
10
78.2457
20
-130.767
11
78.341
21
-130.672
0
LINE
8
BLACK
6
CONTINUOUS
10
78.341
20
-130.672
11
78.5314
21
-130.577
0
LINE
8
BLACK
6
CONTINUOUS
10
78.5314
20
-130.577
11
79.0076
21
-130.577
0
LINE
8
BLACK
6
CONTINUOUS
10
79.0076
20
-130.577
11
79.1981
21
-130.672
0
LINE
8
BLACK
6
CONTINUOUS
10
79.1981
20
-130.672
11
79.2933
21
-130.767
0
LINE
8
BLACK
6
CONTINUOUS
10
79.2933
20
-130.767
11
79.3886
21
-130.958
0
LINE
8
BLACK
6
CONTINUOUS
10
79.3886
20
-130.958
11
79.3886
21
-131.434
0
LINE
8
BLACK
6
CONTINUOUS
10
79.3886
20
-131.434
11
79.2933
21
-131.624
0
LINE
8
BLACK
6
CONTINUOUS
10
79.2933
20
-131.624
11
79.1981
21
-131.72
0
LINE
8
BLACK
6
CONTINUOUS
10
79.1981
20
-131.72
11
79.0076
21
-131.815
0
LINE
8
BLACK
6
CONTINUOUS
10
79.0076
20
-131.815
11
78.5314
21
-131.815
0
LINE
8
BLACK
6
CONTINUOUS
10
78.5314
20
-131.815
11
78.341
21
-131.72
0
LINE
8
BLACK
6
CONTINUOUS
10
78.341
20
-131.72
11
78.2457
21
-131.624
0
LINE
8
BLACK
6
CONTINUOUS
10
81.2933
20
-131.815
11
80.1505
21
-131.815
0
LINE
8
BLACK
6
CONTINUOUS
10
80.7219
20
-131.815
11
80.7219
21
-129.815
0
LINE
8
BLACK
6
CONTINUOUS
10
80.7219
20
-129.815
11
80.5314
21
-130.1
0
LINE
8
BLACK
6
CONTINUOUS
10
80.5314
20
-130.1
11
80.341
21
-130.291
0
LINE
8
BLACK
6
CONTINUOUS
10
80.341
20
-130.291
11
80.1505
21
-130.386
0
LINE
8
BLACK
6
CONTINUOUS
10
83.0076
20
-129.815
11
82.6267
21
-129.815
0
LINE
8
BLACK
6
CONTINUOUS
10
82.6267
20
-129.815
11
82.4362
21
-129.91
0
LINE
8
BLACK
6
CONTINUOUS
10
82.4362
20
-129.91
11
82.341
21
-130.005
0
LINE
8
BLACK
6
CONTINUOUS
10
82.341
20
-130.005
11
82.1505
21
-130.291
0
LINE
8
BLACK
6
CONTINUOUS
10
82.1505
20
-130.291
11
82.0552
21
-130.672
0
LINE
8
BLACK
6
CONTINUOUS
10
82.0552
20
-130.672
11
82.0552
21
-131.434
0
LINE
8
BLACK
6
CONTINUOUS
10
82.0552
20
-131.434
11
82.1505
21
-131.624
0
LINE
8
BLACK
6
CONTINUOUS
10
82.1505
20
-131.624
11
82.2457
21
-131.72
0
LINE
8
BLACK
6
CONTINUOUS
10
82.2457
20
-131.72
11
82.4362
21
-131.815
0
LINE
8
BLACK
6
CONTINUOUS
10
82.4362
20
-131.815
11
82.8171
21
-131.815
0
LINE
8
BLACK
6
CONTINUOUS
10
82.8171
20
-131.815
11
83.0076
21
-131.72
0
LINE
8
BLACK
6
CONTINUOUS
10
83.0076
20
-131.72
11
83.1029
21
-131.624
0
LINE
8
BLACK
6
CONTINUOUS
10
83.1029
20
-131.624
11
83.1981
21
-131.434
0
LINE
8
BLACK
6
CONTINUOUS
10
83.1981
20
-131.434
11
83.1981
21
-130.958
0
LINE
8
BLACK
6
CONTINUOUS
10
83.1981
20
-130.958
11
83.1029
21
-130.767
0
LINE
8
BLACK
6
CONTINUOUS
10
83.1029
20
-130.767
11
83.0076
21
-130.672
0
LINE
8
BLACK
6
CONTINUOUS
10
83.0076
20
-130.672
11
82.8171
21
-130.577
0
LINE
8
BLACK
6
CONTINUOUS
10
82.8171
20
-130.577
11
82.4362
21
-130.577
0
LINE
8
BLACK
6
CONTINUOUS
10
82.4362
20
-130.577
11
82.2457
21
-130.672
0
LINE
8
BLACK
6
CONTINUOUS
10
82.2457
20
-130.672
11
82.1505
21
-130.767
0
LINE
8
BLACK
6
CONTINUOUS
10
82.1505
20
-130.767
11
82.0552
21
-130.958
0
LINE
8
BLACK
6
CONTINUOUS
10
85.579
20
-131.815
11
85.579
21
-129.815
0
LINE
8
BLACK
6
CONTINUOUS
10
86.4362
20
-131.815
11
86.4362
21
-130.767
0
LINE
8
BLACK
6
CONTINUOUS
10
86.4362
20
-130.767
11
86.341
21
-130.577
0
LINE
8
BLACK
6
CONTINUOUS
10
86.341
20
-130.577
11
86.1505
21
-130.481
0
LINE
8
BLACK
6
CONTINUOUS
10
86.1505
20
-130.481
11
85.8648
21
-130.481
0
LINE
8
BLACK
6
CONTINUOUS
10
85.8648
20
-130.481
11
85.6743
21
-130.577
0
LINE
8
BLACK
6
CONTINUOUS
10
85.6743
20
-130.577
11
85.579
21
-130.672
0
LINE
8
BLACK
6
CONTINUOUS
10
87.6743
20
-131.815
11
87.4838
21
-131.72
0
LINE
8
BLACK
6
CONTINUOUS
10
87.4838
20
-131.72
11
87.3886
21
-131.624
0
LINE
8
BLACK
6
CONTINUOUS
10
87.3886
20
-131.624
11
87.2933
21
-131.434
0
LINE
8
BLACK
6
CONTINUOUS
10
87.2933
20
-131.434
11
87.2933
21
-130.862
0
LINE
8
BLACK
6
CONTINUOUS
10
87.2933
20
-130.862
11
87.3886
21
-130.672
0
LINE
8
BLACK
6
CONTINUOUS
10
87.3886
20
-130.672
11
87.4838
21
-130.577
0
LINE
8
BLACK
6
CONTINUOUS
10
87.4838
20
-130.577
11
87.6743
21
-130.481
0
LINE
8
BLACK
6
CONTINUOUS
10
87.6743
20
-130.481
11
87.96
21
-130.481
0
LINE
8
BLACK
6
CONTINUOUS
10
87.96
20
-130.481
11
88.1505
21
-130.577
0
LINE
8
BLACK
6
CONTINUOUS
10
88.1505
20
-130.577
11
88.2457
21
-130.672
0
LINE
8
BLACK
6
CONTINUOUS
10
88.2457
20
-130.672
11
88.341
21
-130.862
0
LINE
8
BLACK
6
CONTINUOUS
10
88.341
20
-130.862
11
88.341
21
-131.434
0
LINE
8
BLACK
6
CONTINUOUS
10
88.341
20
-131.434
11
88.2457
21
-131.624
0
LINE
8
BLACK
6
CONTINUOUS
10
88.2457
20
-131.624
11
88.1505
21
-131.72
0
LINE
8
BLACK
6
CONTINUOUS
10
88.1505
20
-131.72
11
87.96
21
-131.815
0
LINE
8
BLACK
6
CONTINUOUS
10
87.96
20
-131.815
11
87.6743
21
-131.815
0
LINE
8
BLACK
6
CONTINUOUS
10
89.4838
20
-131.815
11
89.2933
21
-131.72
0
LINE
8
BLACK
6
CONTINUOUS
10
89.2933
20
-131.72
11
89.1981
21
-131.529
0
LINE
8
BLACK
6
CONTINUOUS
10
89.1981
20
-131.529
11
89.1981
21
-129.815
0
LINE
8
BLACK
6
CONTINUOUS
10
91.0076
20
-131.72
11
90.8171
21
-131.815
0
LINE
8
BLACK
6
CONTINUOUS
10
90.8171
20
-131.815
11
90.4362
21
-131.815
0
LINE
8
BLACK
6
CONTINUOUS
10
90.4362
20
-131.815
11
90.2457
21
-131.72
0
LINE
8
BLACK
6
CONTINUOUS
10
90.2457
20
-131.72
11
90.1505
21
-131.529
0
LINE
8
BLACK
6
CONTINUOUS
10
90.1505
20
-131.529
11
90.1505
21
-130.767
0
LINE
8
BLACK
6
CONTINUOUS
10
90.1505
20
-130.767
11
90.2457
21
-130.577
0
LINE
8
BLACK
6
CONTINUOUS
10
90.2457
20
-130.577
11
90.4362
21
-130.481
0
LINE
8
BLACK
6
CONTINUOUS
10
90.4362
20
-130.481
11
90.8171
21
-130.481
0
LINE
8
BLACK
6
CONTINUOUS
10
90.8171
20
-130.481
11
91.0076
21
-130.577
0
LINE
8
BLACK
6
CONTINUOUS
10
91.0076
20
-130.577
11
91.1029
21
-130.767
0
LINE
8
BLACK
6
CONTINUOUS
10
91.1029
20
-130.767
11
91.1029
21
-130.958
0
LINE
8
BLACK
6
CONTINUOUS
10
91.1029
20
-130.958
11
90.1505
21
-131.148
0
LINE
8
BLACK
6
CONTINUOUS
10
91.8648
20
-131.72
11
92.0552
21
-131.815
0
LINE
8
BLACK
6
CONTINUOUS
10
92.0552
20
-131.815
11
92.4362
21
-131.815
0
LINE
8
BLACK
6
CONTINUOUS
10
92.4362
20
-131.815
11
92.6267
21
-131.72
0
LINE
8
BLACK
6
CONTINUOUS
10
92.6267
20
-131.72
11
92.7219
21
-131.529
0
LINE
8
BLACK
6
CONTINUOUS
10
92.7219
20
-131.529
11
92.7219
21
-131.434
0
LINE
8
BLACK
6
CONTINUOUS
10
92.7219
20
-131.434
11
92.6267
21
-131.243
0
LINE
8
BLACK
6
CONTINUOUS
10
92.6267
20
-131.243
11
92.4362
21
-131.148
0
LINE
8
BLACK
6
CONTINUOUS
10
92.4362
20
-131.148
11
92.1505
21
-131.148
0
LINE
8
BLACK
6
CONTINUOUS
10
92.1505
20
-131.148
11
91.96
21
-131.053
0
LINE
8
BLACK
6
CONTINUOUS
10
91.96
20
-131.053
11
91.8648
21
-130.862
0
LINE
8
BLACK
6
CONTINUOUS
10
91.8648
20
-130.862
11
91.8648
21
-130.767
0
LINE
8
BLACK
6
CONTINUOUS
10
91.8648
20
-130.767
11
91.96
21
-130.577
0
LINE
8
BLACK
6
CONTINUOUS
10
91.96
20
-130.577
11
92.1505
21
-130.481
0
LINE
8
BLACK
6
CONTINUOUS
10
92.1505
20
-130.481
11
92.4362
21
-130.481
0
LINE
8
BLACK
6
CONTINUOUS
10
92.4362
20
-130.481
11
92.6267
21
-130.577
0
LINE
8
BLACK
6
CONTINUOUS
10
93.3886
20
-132.577
11
93.4838
21
-132.481
0
LINE
8
BLACK
6
CONTINUOUS
10
93.4838
20
-132.481
11
93.6743
21
-132.196
0
LINE
8
BLACK
6
CONTINUOUS
10
93.6743
20
-132.196
11
93.7695
21
-132.005
0
LINE
8
BLACK
6
CONTINUOUS
10
93.7695
20
-132.005
11
93.8648
21
-131.72
0
LINE
8
BLACK
6
CONTINUOUS
10
93.8648
20
-131.72
11
93.96
21
-131.243
0
LINE
8
BLACK
6
CONTINUOUS
10
93.96
20
-131.243
11
93.96
21
-130.862
0
LINE
8
BLACK
6
CONTINUOUS
10
93.96
20
-130.862
11
93.8648
21
-130.386
0
LINE
8
BLACK
6
CONTINUOUS
10
93.8648
20
-130.386
11
93.7695
21
-130.1
0
LINE
8
BLACK
6
CONTINUOUS
10
93.7695
20
-130.1
11
93.6743
21
-129.91
0
LINE
8
BLACK
6
CONTINUOUS
10
93.6743
20
-129.91
11
93.4838
21
-129.624
0
LINE
8
BLACK
6
CONTINUOUS
10
93.4838
20
-129.624
11
93.3886
21
-129.529
0
CIRCLE
8
BLACK
10
41.56
20
-133.55
40
0.3
0
LINE
8
BLACK
6
CONTINUOUS
10
44.8171
20
-132.455
11
45.0076
21
-132.455
0
LINE
8
BLACK
6
CONTINUOUS
10
45.0076
20
-132.455
11
45.1981
21
-132.55
0
LINE
8
BLACK
6
CONTINUOUS
10
45.1981
20
-132.55
11
45.2933
21
-132.645
0
LINE
8
BLACK
6
CONTINUOUS
10
45.2933
20
-132.645
11
45.3886
21
-132.836
0
LINE
8
BLACK
6
CONTINUOUS
10
45.3886
20
-132.836
11
45.4838
21
-133.217
0
LINE
8
BLACK
6
CONTINUOUS
10
45.4838
20
-133.217
11
45.4838
21
-133.693
0
LINE
8
BLACK
6
CONTINUOUS
10
45.4838
20
-133.693
11
45.3886
21
-134.074
0
LINE
8
BLACK
6
CONTINUOUS
10
45.3886
20
-134.074
11
45.2933
21
-134.264
0
LINE
8
BLACK
6
CONTINUOUS
10
45.2933
20
-134.264
11
45.1981
21
-134.36
0
LINE
8
BLACK
6
CONTINUOUS
10
45.1981
20
-134.36
11
45.0076
21
-134.455
0
LINE
8
BLACK
6
CONTINUOUS
10
45.0076
20
-134.455
11
44.8171
21
-134.455
0
LINE
8
BLACK
6
CONTINUOUS
10
44.8171
20
-134.455
11
44.6267
21
-134.36
0
LINE
8
BLACK
6
CONTINUOUS
10
44.6267
20
-134.36
11
44.5314
21
-134.264
0
LINE
8
BLACK
6
CONTINUOUS
10
44.5314
20
-134.264
11
44.4362
21
-134.074
0
LINE
8
BLACK
6
CONTINUOUS
10
44.4362
20
-134.074
11
44.341
21
-133.693
0
LINE
8
BLACK
6
CONTINUOUS
10
44.341
20
-133.693
11
44.341
21
-133.217
0
LINE
8
BLACK
6
CONTINUOUS
10
44.341
20
-133.217
11
44.4362
21
-132.836
0
LINE
8
BLACK
6
CONTINUOUS
10
44.4362
20
-132.836
11
44.5314
21
-132.645
0
LINE
8
BLACK
6
CONTINUOUS
10
44.5314
20
-132.645
11
44.6267
21
-132.55
0
LINE
8
BLACK
6
CONTINUOUS
10
44.6267
20
-132.55
11
44.8171
21
-132.455
0
LINE
8
BLACK
6
CONTINUOUS
10
46.341
20
-134.264
11
46.4362
21
-134.36
0
LINE
8
BLACK
6
CONTINUOUS
10
46.4362
20
-134.36
11
46.341
21
-134.455
0
LINE
8
BLACK
6
CONTINUOUS
10
46.341
20
-134.455
11
46.2457
21
-134.36
0
LINE
8
BLACK
6
CONTINUOUS
10
46.2457
20
-134.36
11
46.341
21
-134.264
0
LINE
8
BLACK
6
CONTINUOUS
10
46.341
20
-134.264
11
46.341
21
-134.455
0
LINE
8
BLACK
6
CONTINUOUS
10
48.1505
20
-132.455
11
47.7695
21
-132.455
0
LINE
8
BLACK
6
CONTINUOUS
10
47.7695
20
-132.455
11
47.579
21
-132.55
0
LINE
8
BLACK
6
CONTINUOUS
10
47.579
20
-132.55
11
47.4838
21
-132.645
0
LINE
8
BLACK
6
CONTINUOUS
10
47.4838
20
-132.645
11
47.2933
21
-132.931
0
LINE
8
BLACK
6
CONTINUOUS
10
47.2933
20
-132.931
11
47.1981
21
-133.312
0
LINE
8
BLACK
6
CONTINUOUS
10
47.1981
20
-133.312
11
47.1981
21
-134.074
0
LINE
8
BLACK
6
CONTINUOUS
10
47.1981
20
-134.074
11
47.2933
21
-134.264
0
LINE
8
BLACK
6
CONTINUOUS
10
47.2933
20
-134.264
11
47.3886
21
-134.36
0
LINE
8
BLACK
6
CONTINUOUS
10
47.3886
20
-134.36
11
47.579
21
-134.455
0
LINE
8
BLACK
6
CONTINUOUS
10
47.579
20
-134.455
11
47.96
21
-134.455
0
LINE
8
BLACK
6
CONTINUOUS
10
47.96
20
-134.455
11
48.1505
21
-134.36
0
LINE
8
BLACK
6
CONTINUOUS
10
48.1505
20
-134.36
11
48.2457
21
-134.264
0
LINE
8
BLACK
6
CONTINUOUS
10
48.2457
20
-134.264
11
48.341
21
-134.074
0
LINE
8
BLACK
6
CONTINUOUS
10
48.341
20
-134.074
11
48.341
21
-133.598
0
LINE
8
BLACK
6
CONTINUOUS
10
48.341
20
-133.598
11
48.2457
21
-133.407
0
LINE
8
BLACK
6
CONTINUOUS
10
48.2457
20
-133.407
11
48.1505
21
-133.312
0
LINE
8
BLACK
6
CONTINUOUS
10
48.1505
20
-133.312
11
47.96
21
-133.217
0
LINE
8
BLACK
6
CONTINUOUS
10
47.96
20
-133.217
11
47.579
21
-133.217
0
LINE
8
BLACK
6
CONTINUOUS
10
47.579
20
-133.217
11
47.3886
21
-133.312
0
LINE
8
BLACK
6
CONTINUOUS
10
47.3886
20
-133.312
11
47.2933
21
-133.407
0
LINE
8
BLACK
6
CONTINUOUS
10
47.2933
20
-133.407
11
47.1981
21
-133.598
0
LINE
8
BLACK
6
CONTINUOUS
10
49.579
20
-132.455
11
49.7695
21
-132.455
0
LINE
8
BLACK
6
CONTINUOUS
10
49.7695
20
-132.455
11
49.96
21
-132.55
0
LINE
8
BLACK
6
CONTINUOUS
10
49.96
20
-132.55
11
50.0552
21
-132.645
0
LINE
8
BLACK
6
CONTINUOUS
10
50.0552
20
-132.645
11
50.1505
21
-132.836
0
LINE
8
BLACK
6
CONTINUOUS
10
50.1505
20
-132.836
11
50.2457
21
-133.217
0
LINE
8
BLACK
6
CONTINUOUS
10
50.2457
20
-133.217
11
50.2457
21
-133.693
0
LINE
8
BLACK
6
CONTINUOUS
10
50.2457
20
-133.693
11
50.1505
21
-134.074
0
LINE
8
BLACK
6
CONTINUOUS
10
50.1505
20
-134.074
11
50.0552
21
-134.264
0
LINE
8
BLACK
6
CONTINUOUS
10
50.0552
20
-134.264
11
49.96
21
-134.36
0
LINE
8
BLACK
6
CONTINUOUS
10
49.96
20
-134.36
11
49.7695
21
-134.455
0
LINE
8
BLACK
6
CONTINUOUS
10
49.7695
20
-134.455
11
49.579
21
-134.455
0
LINE
8
BLACK
6
CONTINUOUS
10
49.579
20
-134.455
11
49.3886
21
-134.36
0
LINE
8
BLACK
6
CONTINUOUS
10
49.3886
20
-134.36
11
49.2933
21
-134.264
0
LINE
8
BLACK
6
CONTINUOUS
10
49.2933
20
-134.264
11
49.1981
21
-134.074
0
LINE
8
BLACK
6
CONTINUOUS
10
49.1981
20
-134.074
11
49.1029
21
-133.693
0
LINE
8
BLACK
6
CONTINUOUS
10
49.1029
20
-133.693
11
49.1029
21
-133.217
0
LINE
8
BLACK
6
CONTINUOUS
10
49.1029
20
-133.217
11
49.1981
21
-132.836
0
LINE
8
BLACK
6
CONTINUOUS
10
49.1981
20
-132.836
11
49.2933
21
-132.645
0
LINE
8
BLACK
6
CONTINUOUS
10
49.2933
20
-132.645
11
49.3886
21
-132.55
0
LINE
8
BLACK
6
CONTINUOUS
10
49.3886
20
-132.55
11
49.579
21
-132.455
0
LINE
8
BLACK
6
CONTINUOUS
10
51.4838
20
-132.455
11
51.6743
21
-132.455
0
LINE
8
BLACK
6
CONTINUOUS
10
51.6743
20
-132.455
11
51.8648
21
-132.55
0
LINE
8
BLACK
6
CONTINUOUS
10
51.8648
20
-132.55
11
51.96
21
-132.645
0
LINE
8
BLACK
6
CONTINUOUS
10
51.96
20
-132.645
11
52.0552
21
-132.836
0
LINE
8
BLACK
6
CONTINUOUS
10
52.0552
20
-132.836
11
52.1505
21
-133.217
0
LINE
8
BLACK
6
CONTINUOUS
10
52.1505
20
-133.217
11
52.1505
21
-133.693
0
LINE
8
BLACK
6
CONTINUOUS
10
52.1505
20
-133.693
11
52.0552
21
-134.074
0
LINE
8
BLACK
6
CONTINUOUS
10
52.0552
20
-134.074
11
51.96
21
-134.264
0
LINE
8
BLACK
6
CONTINUOUS
10
51.96
20
-134.264
11
51.8648
21
-134.36
0
LINE
8
BLACK
6
CONTINUOUS
10
51.8648
20
-134.36
11
51.6743
21
-134.455
0
LINE
8
BLACK
6
CONTINUOUS
10
51.6743
20
-134.455
11
51.4838
21
-134.455
0
LINE
8
BLACK
6
CONTINUOUS
10
51.4838
20
-134.455
11
51.2933
21
-134.36
0
LINE
8
BLACK
6
CONTINUOUS
10
51.2933
20
-134.36
11
51.1981
21
-134.264
0
LINE
8
BLACK
6
CONTINUOUS
10
51.1981
20
-134.264
11
51.1029
21
-134.074
0
LINE
8
BLACK
6
CONTINUOUS
10
51.1029
20
-134.074
11
51.0076
21
-133.693
0
LINE
8
BLACK
6
CONTINUOUS
10
51.0076
20
-133.693
11
51.0076
21
-133.217
0
LINE
8
BLACK
6
CONTINUOUS
10
51.0076
20
-133.217
11
51.1029
21
-132.836
0
LINE
8
BLACK
6
CONTINUOUS
10
51.1029
20
-132.836
11
51.1981
21
-132.645
0
LINE
8
BLACK
6
CONTINUOUS
10
51.1981
20
-132.645
11
51.2933
21
-132.55
0
LINE
8
BLACK
6
CONTINUOUS
10
51.2933
20
-132.55
11
51.4838
21
-132.455
0
LINE
8
BLACK
6
CONTINUOUS
10
53.0076
20
-134.455
11
53.0076
21
-133.121
0
LINE
8
BLACK
6
CONTINUOUS
10
53.0076
20
-133.312
11
53.1029
21
-133.217
0
LINE
8
BLACK
6
CONTINUOUS
10
53.1029
20
-133.217
11
53.2933
21
-133.121
0
LINE
8
BLACK
6
CONTINUOUS
10
53.2933
20
-133.121
11
53.579
21
-133.121
0
LINE
8
BLACK
6
CONTINUOUS
10
53.579
20
-133.121
11
53.7695
21
-133.217
0
LINE
8
BLACK
6
CONTINUOUS
10
53.7695
20
-133.217
11
53.8648
21
-133.407
0
LINE
8
BLACK
6
CONTINUOUS
10
53.8648
20
-133.407
11
53.8648
21
-134.455
0
LINE
8
BLACK
6
CONTINUOUS
10
53.8648
20
-133.407
11
53.96
21
-133.217
0
LINE
8
BLACK
6
CONTINUOUS
10
53.96
20
-133.217
11
54.1505
21
-133.121
0
LINE
8
BLACK
6
CONTINUOUS
10
54.1505
20
-133.121
11
54.4362
21
-133.121
0
LINE
8
BLACK
6
CONTINUOUS
10
54.4362
20
-133.121
11
54.6267
21
-133.217
0
LINE
8
BLACK
6
CONTINUOUS
10
54.6267
20
-133.217
11
54.7219
21
-133.407
0
LINE
8
BLACK
6
CONTINUOUS
10
54.7219
20
-133.407
11
54.7219
21
-134.455
0
LINE
8
BLACK
6
CONTINUOUS
10
55.6743
20
-134.455
11
55.6743
21
-133.121
0
LINE
8
BLACK
6
CONTINUOUS
10
55.6743
20
-133.312
11
55.7695
21
-133.217
0
LINE
8
BLACK
6
CONTINUOUS
10
55.7695
20
-133.217
11
55.96
21
-133.121
0
LINE
8
BLACK
6
CONTINUOUS
10
55.96
20
-133.121
11
56.2457
21
-133.121
0
LINE
8
BLACK
6
CONTINUOUS
10
56.2457
20
-133.121
11
56.4362
21
-133.217
0
LINE
8
BLACK
6
CONTINUOUS
10
56.4362
20
-133.217
11
56.5314
21
-133.407
0
LINE
8
BLACK
6
CONTINUOUS
10
56.5314
20
-133.407
11
56.5314
21
-134.455
0
LINE
8
BLACK
6
CONTINUOUS
10
56.5314
20
-133.407
11
56.6267
21
-133.217
0
LINE
8
BLACK
6
CONTINUOUS
10
56.6267
20
-133.217
11
56.8171
21
-133.121
0
LINE
8
BLACK
6
CONTINUOUS
10
56.8171
20
-133.121
11
57.1029
21
-133.121
0
LINE
8
BLACK
6
CONTINUOUS
10
57.1029
20
-133.121
11
57.2933
21
-133.217
0
LINE
8
BLACK
6
CONTINUOUS
10
57.2933
20
-133.217
11
57.3886
21
-133.407
0
LINE
8
BLACK
6
CONTINUOUS
10
57.3886
20
-133.407
11
57.3886
21
-134.455
0
LINE
8
BLACK
6
CONTINUOUS
10
61.2933
20
-132.36
11
59.579
21
-134.931
0
LINE
8
BLACK
6
CONTINUOUS
10
63.8648
20
-132.455
11
64.0552
21
-132.455
0
LINE
8
BLACK
6
CONTINUOUS
10
64.0552
20
-132.455
11
64.2457
21
-132.55
0
LINE
8
BLACK
6
CONTINUOUS
10
64.2457
20
-132.55
11
64.341
21
-132.645
0
LINE
8
BLACK
6
CONTINUOUS
10
64.341
20
-132.645
11
64.4362
21
-132.836
0
LINE
8
BLACK
6
CONTINUOUS
10
64.4362
20
-132.836
11
64.5314
21
-133.217
0
LINE
8
BLACK
6
CONTINUOUS
10
64.5314
20
-133.217
11
64.5314
21
-133.693
0
LINE
8
BLACK
6
CONTINUOUS
10
64.5314
20
-133.693
11
64.4362
21
-134.074
0
LINE
8
BLACK
6
CONTINUOUS
10
64.4362
20
-134.074
11
64.341
21
-134.264
0
LINE
8
BLACK
6
CONTINUOUS
10
64.341
20
-134.264
11
64.2457
21
-134.36
0
LINE
8
BLACK
6
CONTINUOUS
10
64.2457
20
-134.36
11
64.0552
21
-134.455
0
LINE
8
BLACK
6
CONTINUOUS
10
64.0552
20
-134.455
11
63.8648
21
-134.455
0
LINE
8
BLACK
6
CONTINUOUS
10
63.8648
20
-134.455
11
63.6743
21
-134.36
0
LINE
8
BLACK
6
CONTINUOUS
10
63.6743
20
-134.36
11
63.579
21
-134.264
0
LINE
8
BLACK
6
CONTINUOUS
10
63.579
20
-134.264
11
63.4838
21
-134.074
0
LINE
8
BLACK
6
CONTINUOUS
10
63.4838
20
-134.074
11
63.3886
21
-133.693
0
LINE
8
BLACK
6
CONTINUOUS
10
63.3886
20
-133.693
11
63.3886
21
-133.217
0
LINE
8
BLACK
6
CONTINUOUS
10
63.3886
20
-133.217
11
63.4838
21
-132.836
0
LINE
8
BLACK
6
CONTINUOUS
10
63.4838
20
-132.836
11
63.579
21
-132.645
0
LINE
8
BLACK
6
CONTINUOUS
10
63.579
20
-132.645
11
63.6743
21
-132.55
0
LINE
8
BLACK
6
CONTINUOUS
10
63.6743
20
-132.55
11
63.8648
21
-132.455
0
LINE
8
BLACK
6
CONTINUOUS
10
65.3886
20
-134.264
11
65.4838
21
-134.36
0
LINE
8
BLACK
6
CONTINUOUS
10
65.4838
20
-134.36
11
65.3886
21
-134.455
0
LINE
8
BLACK
6
CONTINUOUS
10
65.3886
20
-134.455
11
65.2933
21
-134.36
0
LINE
8
BLACK
6
CONTINUOUS
10
65.2933
20
-134.36
11
65.3886
21
-134.264
0
LINE
8
BLACK
6
CONTINUOUS
10
65.3886
20
-134.264
11
65.3886
21
-134.455
0
LINE
8
BLACK
6
CONTINUOUS
10
66.7219
20
-132.455
11
66.9124
21
-132.455
0
LINE
8
BLACK
6
CONTINUOUS
10
66.9124
20
-132.455
11
67.1029
21
-132.55
0
LINE
8
BLACK
6
CONTINUOUS
10
67.1029
20
-132.55
11
67.1981
21
-132.645
0
LINE
8
BLACK
6
CONTINUOUS
10
67.1981
20
-132.645
11
67.2933
21
-132.836
0
LINE
8
BLACK
6
CONTINUOUS
10
67.2933
20
-132.836
11
67.3886
21
-133.217
0
LINE
8
BLACK
6
CONTINUOUS
10
67.3886
20
-133.217
11
67.3886
21
-133.693
0
LINE
8
BLACK
6
CONTINUOUS
10
67.3886
20
-133.693
11
67.2933
21
-134.074
0
LINE
8
BLACK
6
CONTINUOUS
10
67.2933
20
-134.074
11
67.1981
21
-134.264
0
LINE
8
BLACK
6
CONTINUOUS
10
67.1981
20
-134.264
11
67.1029
21
-134.36
0
LINE
8
BLACK
6
CONTINUOUS
10
67.1029
20
-134.36
11
66.9124
21
-134.455
0
LINE
8
BLACK
6
CONTINUOUS
10
66.9124
20
-134.455
11
66.7219
21
-134.455
0
LINE
8
BLACK
6
CONTINUOUS
10
66.7219
20
-134.455
11
66.5314
21
-134.36
0
LINE
8
BLACK
6
CONTINUOUS
10
66.5314
20
-134.36
11
66.4362
21
-134.264
0
LINE
8
BLACK
6
CONTINUOUS
10
66.4362
20
-134.264
11
66.341
21
-134.074
0
LINE
8
BLACK
6
CONTINUOUS
10
66.341
20
-134.074
11
66.2457
21
-133.693
0
LINE
8
BLACK
6
CONTINUOUS
10
66.2457
20
-133.693
11
66.2457
21
-133.217
0
LINE
8
BLACK
6
CONTINUOUS
10
66.2457
20
-133.217
11
66.341
21
-132.836
0
LINE
8
BLACK
6
CONTINUOUS
10
66.341
20
-132.836
11
66.4362
21
-132.645
0
LINE
8
BLACK
6
CONTINUOUS
10
66.4362
20
-132.645
11
66.5314
21
-132.55
0
LINE
8
BLACK
6
CONTINUOUS
10
66.5314
20
-132.55
11
66.7219
21
-132.455
0
LINE
8
BLACK
6
CONTINUOUS
10
68.1505
20
-132.645
11
68.2457
21
-132.55
0
LINE
8
BLACK
6
CONTINUOUS
10
68.2457
20
-132.55
11
68.4362
21
-132.455
0
LINE
8
BLACK
6
CONTINUOUS
10
68.4362
20
-132.455
11
68.9124
21
-132.455
0
LINE
8
BLACK
6
CONTINUOUS
10
68.9124
20
-132.455
11
69.1029
21
-132.55
0
LINE
8
BLACK
6
CONTINUOUS
10
69.1029
20
-132.55
11
69.1981
21
-132.645
0
LINE
8
BLACK
6
CONTINUOUS
10
69.1981
20
-132.645
11
69.2933
21
-132.836
0
LINE
8
BLACK
6
CONTINUOUS
10
69.2933
20
-132.836
11
69.2933
21
-133.026
0
LINE
8
BLACK
6
CONTINUOUS
10
69.2933
20
-133.026
11
69.1981
21
-133.312
0
LINE
8
BLACK
6
CONTINUOUS
10
69.1981
20
-133.312
11
68.0552
21
-134.455
0
LINE
8
BLACK
6
CONTINUOUS
10
68.0552
20
-134.455
11
69.2933
21
-134.455
0
LINE
8
BLACK
6
CONTINUOUS
10
69.96
20
-132.455
11
71.1981
21
-132.455
0
LINE
8
BLACK
6
CONTINUOUS
10
71.1981
20
-132.455
11
70.5314
21
-133.217
0
LINE
8
BLACK
6
CONTINUOUS
10
70.5314
20
-133.217
11
70.8171
21
-133.217
0
LINE
8
BLACK
6
CONTINUOUS
10
70.8171
20
-133.217
11
71.0076
21
-133.312
0
LINE
8
BLACK
6
CONTINUOUS
10
71.0076
20
-133.312
11
71.1029
21
-133.407
0
LINE
8
BLACK
6
CONTINUOUS
10
71.1029
20
-133.407
11
71.1981
21
-133.598
0
LINE
8
BLACK
6
CONTINUOUS
10
71.1981
20
-133.598
11
71.1981
21
-134.074
0
LINE
8
BLACK
6
CONTINUOUS
10
71.1981
20
-134.074
11
71.1029
21
-134.264
0
LINE
8
BLACK
6
CONTINUOUS
10
71.1029
20
-134.264
11
71.0076
21
-134.36
0
LINE
8
BLACK
6
CONTINUOUS
10
71.0076
20
-134.36
11
70.8171
21
-134.455
0
LINE
8
BLACK
6
CONTINUOUS
10
70.8171
20
-134.455
11
70.2457
21
-134.455
0
LINE
8
BLACK
6
CONTINUOUS
10
70.2457
20
-134.455
11
70.0552
21
-134.36
0
LINE
8
BLACK
6
CONTINUOUS
10
70.0552
20
-134.36
11
69.96
21
-134.264
0
LINE
8
BLACK
6
CONTINUOUS
10
72.9124
20
-132.455
11
72.5314
21
-132.455
0
LINE
8
BLACK
6
CONTINUOUS
10
72.5314
20
-132.455
11
72.341
21
-132.55
0
LINE
8
BLACK
6
CONTINUOUS
10
72.341
20
-132.55
11
72.2457
21
-132.645
0
LINE
8
BLACK
6
CONTINUOUS
10
72.2457
20
-132.645
11
72.0552
21
-132.931
0
LINE
8
BLACK
6
CONTINUOUS
10
72.0552
20
-132.931
11
71.96
21
-133.312
0
LINE
8
BLACK
6
CONTINUOUS
10
71.96
20
-133.312
11
71.96
21
-134.074
0
LINE
8
BLACK
6
CONTINUOUS
10
71.96
20
-134.074
11
72.0552
21
-134.264
0
LINE
8
BLACK
6
CONTINUOUS
10
72.0552
20
-134.264
11
72.1505
21
-134.36
0
LINE
8
BLACK
6
CONTINUOUS
10
72.1505
20
-134.36
11
72.341
21
-134.455
0
LINE
8
BLACK
6
CONTINUOUS
10
72.341
20
-134.455
11
72.7219
21
-134.455
0
LINE
8
BLACK
6
CONTINUOUS
10
72.7219
20
-134.455
11
72.9124
21
-134.36
0
LINE
8
BLACK
6
CONTINUOUS
10
72.9124
20
-134.36
11
73.0076
21
-134.264
0
LINE
8
BLACK
6
CONTINUOUS
10
73.0076
20
-134.264
11
73.1029
21
-134.074
0
LINE
8
BLACK
6
CONTINUOUS
10
73.1029
20
-134.074
11
73.1029
21
-133.598
0
LINE
8
BLACK
6
CONTINUOUS
10
73.1029
20
-133.598
11
73.0076
21
-133.407
0
LINE
8
BLACK
6
CONTINUOUS
10
73.0076
20
-133.407
11
72.9124
21
-133.312
0
LINE
8
BLACK
6
CONTINUOUS
10
72.9124
20
-133.312
11
72.7219
21
-133.217
0
LINE
8
BLACK
6
CONTINUOUS
10
72.7219
20
-133.217
11
72.341
21
-133.217
0
LINE
8
BLACK
6
CONTINUOUS
10
72.341
20
-133.217
11
72.1505
21
-133.312
0
LINE
8
BLACK
6
CONTINUOUS
10
72.1505
20
-133.312
11
72.0552
21
-133.407
0
LINE
8
BLACK
6
CONTINUOUS
10
72.0552
20
-133.407
11
71.96
21
-133.598
0
LINE
8
BLACK
6
CONTINUOUS
10
73.8648
20
-132.455
11
73.8648
21
-132.836
0
LINE
8
BLACK
6
CONTINUOUS
10
74.6267
20
-132.455
11
74.6267
21
-132.836
0
LINE
8
BLACK
6
CONTINUOUS
10
77.579
20
-135.217
11
77.4838
21
-135.121
0
LINE
8
BLACK
6
CONTINUOUS
10
77.4838
20
-135.121
11
77.2933
21
-134.836
0
LINE
8
BLACK
6
CONTINUOUS
10
77.2933
20
-134.836
11
77.1981
21
-134.645
0
LINE
8
BLACK
6
CONTINUOUS
10
77.1981
20
-134.645
11
77.1029
21
-134.36
0
LINE
8
BLACK
6
CONTINUOUS
10
77.1029
20
-134.36
11
77.0076
21
-133.883
0
LINE
8
BLACK
6
CONTINUOUS
10
77.0076
20
-133.883
11
77.0076
21
-133.502
0
LINE
8
BLACK
6
CONTINUOUS
10
77.0076
20
-133.502
11
77.1029
21
-133.026
0
LINE
8
BLACK
6
CONTINUOUS
10
77.1029
20
-133.026
11
77.1981
21
-132.74
0
LINE
8
BLACK
6
CONTINUOUS
10
77.1981
20
-132.74
11
77.2933
21
-132.55
0
LINE
8
BLACK
6
CONTINUOUS
10
77.2933
20
-132.55
11
77.4838
21
-132.264
0
LINE
8
BLACK
6
CONTINUOUS
10
77.4838
20
-132.264
11
77.579
21
-132.169
0
LINE
8
BLACK
6
CONTINUOUS
10
78.7219
20
-132.455
11
78.9124
21
-132.455
0
LINE
8
BLACK
6
CONTINUOUS
10
78.9124
20
-132.455
11
79.1029
21
-132.55
0
LINE
8
BLACK
6
CONTINUOUS
10
79.1029
20
-132.55
11
79.1981
21
-132.645
0
LINE
8
BLACK
6
CONTINUOUS
10
79.1981
20
-132.645
11
79.2933
21
-132.836
0
LINE
8
BLACK
6
CONTINUOUS
10
79.2933
20
-132.836
11
79.3886
21
-133.217
0
LINE
8
BLACK
6
CONTINUOUS
10
79.3886
20
-133.217
11
79.3886
21
-133.693
0
LINE
8
BLACK
6
CONTINUOUS
10
79.3886
20
-133.693
11
79.2933
21
-134.074
0
LINE
8
BLACK
6
CONTINUOUS
10
79.2933
20
-134.074
11
79.1981
21
-134.264
0
LINE
8
BLACK
6
CONTINUOUS
10
79.1981
20
-134.264
11
79.1029
21
-134.36
0
LINE
8
BLACK
6
CONTINUOUS
10
79.1029
20
-134.36
11
78.9124
21
-134.455
0
LINE
8
BLACK
6
CONTINUOUS
10
78.9124
20
-134.455
11
78.7219
21
-134.455
0
LINE
8
BLACK
6
CONTINUOUS
10
78.7219
20
-134.455
11
78.5314
21
-134.36
0
LINE
8
BLACK
6
CONTINUOUS
10
78.5314
20
-134.36
11
78.4362
21
-134.264
0
LINE
8
BLACK
6
CONTINUOUS
10
78.4362
20
-134.264
11
78.341
21
-134.074
0
LINE
8
BLACK
6
CONTINUOUS
10
78.341
20
-134.074
11
78.2457
21
-133.693
0
LINE
8
BLACK
6
CONTINUOUS
10
78.2457
20
-133.693
11
78.2457
21
-133.217
0
LINE
8
BLACK
6
CONTINUOUS
10
78.2457
20
-133.217
11
78.341
21
-132.836
0
LINE
8
BLACK
6
CONTINUOUS
10
78.341
20
-132.836
11
78.4362
21
-132.645
0
LINE
8
BLACK
6
CONTINUOUS
10
78.4362
20
-132.645
11
78.5314
21
-132.55
0
LINE
8
BLACK
6
CONTINUOUS
10
78.5314
20
-132.55
11
78.7219
21
-132.455
0
LINE
8
BLACK
6
CONTINUOUS
10
81.7695
20
-134.455
11
81.7695
21
-132.455
0
LINE
8
BLACK
6
CONTINUOUS
10
82.6267
20
-134.455
11
82.6267
21
-133.407
0
LINE
8
BLACK
6
CONTINUOUS
10
82.6267
20
-133.407
11
82.5314
21
-133.217
0
LINE
8
BLACK
6
CONTINUOUS
10
82.5314
20
-133.217
11
82.341
21
-133.121
0
LINE
8
BLACK
6
CONTINUOUS
10
82.341
20
-133.121
11
82.0552
21
-133.121
0
LINE
8
BLACK
6
CONTINUOUS
10
82.0552
20
-133.121
11
81.8648
21
-133.217
0
LINE
8
BLACK
6
CONTINUOUS
10
81.8648
20
-133.217
11
81.7695
21
-133.312
0
LINE
8
BLACK
6
CONTINUOUS
10
83.8648
20
-134.455
11
83.6743
21
-134.36
0
LINE
8
BLACK
6
CONTINUOUS
10
83.6743
20
-134.36
11
83.579
21
-134.264
0
LINE
8
BLACK
6
CONTINUOUS
10
83.579
20
-134.264
11
83.4838
21
-134.074
0
LINE
8
BLACK
6
CONTINUOUS
10
83.4838
20
-134.074
11
83.4838
21
-133.502
0
LINE
8
BLACK
6
CONTINUOUS
10
83.4838
20
-133.502
11
83.579
21
-133.312
0
LINE
8
BLACK
6
CONTINUOUS
10
83.579
20
-133.312
11
83.6743
21
-133.217
0
LINE
8
BLACK
6
CONTINUOUS
10
83.6743
20
-133.217
11
83.8648
21
-133.121
0
LINE
8
BLACK
6
CONTINUOUS
10
83.8648
20
-133.121
11
84.1505
21
-133.121
0
LINE
8
BLACK
6
CONTINUOUS
10
84.1505
20
-133.121
11
84.341
21
-133.217
0
LINE
8
BLACK
6
CONTINUOUS
10
84.341
20
-133.217
11
84.4362
21
-133.312
0
LINE
8
BLACK
6
CONTINUOUS
10
84.4362
20
-133.312
11
84.5314
21
-133.502
0
LINE
8
BLACK
6
CONTINUOUS
10
84.5314
20
-133.502
11
84.5314
21
-134.074
0
LINE
8
BLACK
6
CONTINUOUS
10
84.5314
20
-134.074
11
84.4362
21
-134.264
0
LINE
8
BLACK
6
CONTINUOUS
10
84.4362
20
-134.264
11
84.341
21
-134.36
0
LINE
8
BLACK
6
CONTINUOUS
10
84.341
20
-134.36
11
84.1505
21
-134.455
0
LINE
8
BLACK
6
CONTINUOUS
10
84.1505
20
-134.455
11
83.8648
21
-134.455
0
LINE
8
BLACK
6
CONTINUOUS
10
85.6743
20
-134.455
11
85.4838
21
-134.36
0
LINE
8
BLACK
6
CONTINUOUS
10
85.4838
20
-134.36
11
85.3886
21
-134.169
0
LINE
8
BLACK
6
CONTINUOUS
10
85.3886
20
-134.169
11
85.3886
21
-132.455
0
LINE
8
BLACK
6
CONTINUOUS
10
87.1981
20
-134.36
11
87.0076
21
-134.455
0
LINE
8
BLACK
6
CONTINUOUS
10
87.0076
20
-134.455
11
86.6267
21
-134.455
0
LINE
8
BLACK
6
CONTINUOUS
10
86.6267
20
-134.455
11
86.4362
21
-134.36
0
LINE
8
BLACK
6
CONTINUOUS
10
86.4362
20
-134.36
11
86.341
21
-134.169
0
LINE
8
BLACK
6
CONTINUOUS
10
86.341
20
-134.169
11
86.341
21
-133.407
0
LINE
8
BLACK
6
CONTINUOUS
10
86.341
20
-133.407
11
86.4362
21
-133.217
0
LINE
8
BLACK
6
CONTINUOUS
10
86.4362
20
-133.217
11
86.6267
21
-133.121
0
LINE
8
BLACK
6
CONTINUOUS
10
86.6267
20
-133.121
11
87.0076
21
-133.121
0
LINE
8
BLACK
6
CONTINUOUS
10
87.0076
20
-133.121
11
87.1981
21
-133.217
0
LINE
8
BLACK
6
CONTINUOUS
10
87.1981
20
-133.217
11
87.2933
21
-133.407
0
LINE
8
BLACK
6
CONTINUOUS
10
87.2933
20
-133.407
11
87.2933
21
-133.598
0
LINE
8
BLACK
6
CONTINUOUS
10
87.2933
20
-133.598
11
86.341
21
-133.788
0
LINE
8
BLACK
6
CONTINUOUS
10
88.0552
20
-134.36
11
88.2457
21
-134.455
0
LINE
8
BLACK
6
CONTINUOUS
10
88.2457
20
-134.455
11
88.6267
21
-134.455
0
LINE
8
BLACK
6
CONTINUOUS
10
88.6267
20
-134.455
11
88.8171
21
-134.36
0
LINE
8
BLACK
6
CONTINUOUS
10
88.8171
20
-134.36
11
88.9124
21
-134.169
0
LINE
8
BLACK
6
CONTINUOUS
10
88.9124
20
-134.169
11
88.9124
21
-134.074
0
LINE
8
BLACK
6
CONTINUOUS
10
88.9124
20
-134.074
11
88.8171
21
-133.883
0
LINE
8
BLACK
6
CONTINUOUS
10
88.8171
20
-133.883
11
88.6267
21
-133.788
0
LINE
8
BLACK
6
CONTINUOUS
10
88.6267
20
-133.788
11
88.341
21
-133.788
0
LINE
8
BLACK
6
CONTINUOUS
10
88.341
20
-133.788
11
88.1505
21
-133.693
0
LINE
8
BLACK
6
CONTINUOUS
10
88.1505
20
-133.693
11
88.0552
21
-133.502
0
LINE
8
BLACK
6
CONTINUOUS
10
88.0552
20
-133.502
11
88.0552
21
-133.407
0
LINE
8
BLACK
6
CONTINUOUS
10
88.0552
20
-133.407
11
88.1505
21
-133.217
0
LINE
8
BLACK
6
CONTINUOUS
10
88.1505
20
-133.217
11
88.341
21
-133.121
0
LINE
8
BLACK
6
CONTINUOUS
10
88.341
20
-133.121
11
88.6267
21
-133.121
0
LINE
8
BLACK
6
CONTINUOUS
10
88.6267
20
-133.121
11
88.8171
21
-133.217
0
LINE
8
BLACK
6
CONTINUOUS
10
91.2933
20
-133.693
11
92.8171
21
-133.693
0
LINE
8
BLACK
6
CONTINUOUS
10
92.0552
20
-134.455
11
92.0552
21
-132.931
0
LINE
8
BLACK
6
CONTINUOUS
10
96.1505
20
-133.121
11
96.1505
21
-134.455
0
LINE
8
BLACK
6
CONTINUOUS
10
95.6743
20
-132.36
11
95.1981
21
-133.788
0
LINE
8
BLACK
6
CONTINUOUS
10
95.1981
20
-133.788
11
96.4362
21
-133.788
0
LINE
8
BLACK
6
CONTINUOUS
10
98.6267
20
-134.36
11
98.8171
21
-134.455
0
LINE
8
BLACK
6
CONTINUOUS
10
98.8171
20
-134.455
11
99.1981
21
-134.455
0
LINE
8
BLACK
6
CONTINUOUS
10
99.1981
20
-134.455
11
99.3886
21
-134.36
0
LINE
8
BLACK
6
CONTINUOUS
10
99.3886
20
-134.36
11
99.4838
21
-134.169
0
LINE
8
BLACK
6
CONTINUOUS
10
99.4838
20
-134.169
11
99.4838
21
-134.074
0
LINE
8
BLACK
6
CONTINUOUS
10
99.4838
20
-134.074
11
99.3886
21
-133.883
0
LINE
8
BLACK
6
CONTINUOUS
10
99.3886
20
-133.883
11
99.1981
21
-133.788
0
LINE
8
BLACK
6
CONTINUOUS
10
99.1981
20
-133.788
11
98.9124
21
-133.788
0
LINE
8
BLACK
6
CONTINUOUS
10
98.9124
20
-133.788
11
98.7219
21
-133.693
0
LINE
8
BLACK
6
CONTINUOUS
10
98.7219
20
-133.693
11
98.6267
21
-133.502
0
LINE
8
BLACK
6
CONTINUOUS
10
98.6267
20
-133.502
11
98.6267
21
-133.407
0
LINE
8
BLACK
6
CONTINUOUS
10
98.6267
20
-133.407
11
98.7219
21
-133.217
0
LINE
8
BLACK
6
CONTINUOUS
10
98.7219
20
-133.217
11
98.9124
21
-133.121
0
LINE
8
BLACK
6
CONTINUOUS
10
98.9124
20
-133.121
11
99.1981
21
-133.121
0
LINE
8
BLACK
6
CONTINUOUS
10
99.1981
20
-133.121
11
99.3886
21
-133.217
0
LINE
8
BLACK
6
CONTINUOUS
10
100.627
20
-134.455
11
100.436
21
-134.36
0
LINE
8
BLACK
6
CONTINUOUS
10
100.436
20
-134.36
11
100.341
21
-134.169
0
LINE
8
BLACK
6
CONTINUOUS
10
100.341
20
-134.169
11
100.341
21
-132.455
0
LINE
8
BLACK
6
CONTINUOUS
10
101.674
20
-134.455
11
101.484
21
-134.36
0
LINE
8
BLACK
6
CONTINUOUS
10
101.484
20
-134.36
11
101.389
21
-134.264
0
LINE
8
BLACK
6
CONTINUOUS
10
101.389
20
-134.264
11
101.293
21
-134.074
0
LINE
8
BLACK
6
CONTINUOUS
10
101.293
20
-134.074
11
101.293
21
-133.502
0
LINE
8
BLACK
6
CONTINUOUS
10
101.293
20
-133.502
11
101.389
21
-133.312
0
LINE
8
BLACK
6
CONTINUOUS
10
101.389
20
-133.312
11
101.484
21
-133.217
0
LINE
8
BLACK
6
CONTINUOUS
10
101.484
20
-133.217
11
101.674
21
-133.121
0
LINE
8
BLACK
6
CONTINUOUS
10
101.674
20
-133.121
11
101.96
21
-133.121
0
LINE
8
BLACK
6
CONTINUOUS
10
101.96
20
-133.121
11
102.15
21
-133.217
0
LINE
8
BLACK
6
CONTINUOUS
10
102.15
20
-133.217
11
102.246
21
-133.312
0
LINE
8
BLACK
6
CONTINUOUS
10
102.246
20
-133.312
11
102.341
21
-133.502
0
LINE
8
BLACK
6
CONTINUOUS
10
102.341
20
-133.502
11
102.341
21
-134.074
0
LINE
8
BLACK
6
CONTINUOUS
10
102.341
20
-134.074
11
102.246
21
-134.264
0
LINE
8
BLACK
6
CONTINUOUS
10
102.246
20
-134.264
11
102.15
21
-134.36
0
LINE
8
BLACK
6
CONTINUOUS
10
102.15
20
-134.36
11
101.96
21
-134.455
0
LINE
8
BLACK
6
CONTINUOUS
10
101.96
20
-134.455
11
101.674
21
-134.455
0
LINE
8
BLACK
6
CONTINUOUS
10
102.912
20
-133.121
11
103.674
21
-133.121
0
LINE
8
BLACK
6
CONTINUOUS
10
103.198
20
-132.455
11
103.198
21
-134.169
0
LINE
8
BLACK
6
CONTINUOUS
10
103.198
20
-134.169
11
103.293
21
-134.36
0
LINE
8
BLACK
6
CONTINUOUS
10
103.293
20
-134.36
11
103.484
21
-134.455
0
LINE
8
BLACK
6
CONTINUOUS
10
103.484
20
-134.455
11
103.674
21
-134.455
0
LINE
8
BLACK
6
CONTINUOUS
10
104.246
20
-134.36
11
104.436
21
-134.455
0
LINE
8
BLACK
6
CONTINUOUS
10
104.436
20
-134.455
11
104.817
21
-134.455
0
LINE
8
BLACK
6
CONTINUOUS
10
104.817
20
-134.455
11
105.008
21
-134.36
0
LINE
8
BLACK
6
CONTINUOUS
10
105.008
20
-134.36
11
105.103
21
-134.169
0
LINE
8
BLACK
6
CONTINUOUS
10
105.103
20
-134.169
11
105.103
21
-134.074
0
LINE
8
BLACK
6
CONTINUOUS
10
105.103
20
-134.074
11
105.008
21
-133.883
0
LINE
8
BLACK
6
CONTINUOUS
10
105.008
20
-133.883
11
104.817
21
-133.788
0
LINE
8
BLACK
6
CONTINUOUS
10
104.817
20
-133.788
11
104.531
21
-133.788
0
LINE
8
BLACK
6
CONTINUOUS
10
104.531
20
-133.788
11
104.341
21
-133.693
0
LINE
8
BLACK
6
CONTINUOUS
10
104.341
20
-133.693
11
104.246
21
-133.502
0
LINE
8
BLACK
6
CONTINUOUS
10
104.246
20
-133.502
11
104.246
21
-133.407
0
LINE
8
BLACK
6
CONTINUOUS
10
104.246
20
-133.407
11
104.341
21
-133.217
0
LINE
8
BLACK
6
CONTINUOUS
10
104.341
20
-133.217
11
104.531
21
-133.121
0
LINE
8
BLACK
6
CONTINUOUS
10
104.531
20
-133.121
11
104.817
21
-133.121
0
LINE
8
BLACK
6
CONTINUOUS
10
104.817
20
-133.121
11
105.008
21
-133.217
0
LINE
8
BLACK
6
CONTINUOUS
10
105.77
20
-135.217
11
105.865
21
-135.121
0
LINE
8
BLACK
6
CONTINUOUS
10
105.865
20
-135.121
11
106.055
21
-134.836
0
LINE
8
BLACK
6
CONTINUOUS
10
106.055
20
-134.836
11
106.15
21
-134.645
0
LINE
8
BLACK
6
CONTINUOUS
10
106.15
20
-134.645
11
106.246
21
-134.36
0
LINE
8
BLACK
6
CONTINUOUS
10
106.246
20
-134.36
11
106.341
21
-133.883
0
LINE
8
BLACK
6
CONTINUOUS
10
106.341
20
-133.883
11
106.341
21
-133.502
0
LINE
8
BLACK
6
CONTINUOUS
10
106.341
20
-133.502
11
106.246
21
-133.026
0
LINE
8
BLACK
6
CONTINUOUS
10
106.246
20
-133.026
11
106.15
21
-132.74
0
LINE
8
BLACK
6
CONTINUOUS
10
106.15
20
-132.74
11
106.055
21
-132.55
0
LINE
8
BLACK
6
CONTINUOUS
10
106.055
20
-132.55
11
105.865
21
-132.264
0
LINE
8
BLACK
6
CONTINUOUS
10
105.865
20
-132.264
11
105.77
21
-132.169
  0
ENDSEC
  0
EOF
