  0
SECTION
  2
HEADER
  9
$ANGBASE
  50
0.0
  9
$ANGDIR
  70
1
  9
$MEASUREMENT
  70
1
  0
ENDSEC
  0
SECTION
  2
TABLES
  0
TABLE
  2
LTYPE
  70
4
  0
LTYPE
  5
40F
  2
CONTINUOUS
  70
0
  3
Solid line
  72
65
  73
0
  40
0.0
  0
LTYPE
  5
410
  2
DASHDOT
 70
0
  3
Dash Dot ____ _ ____ _
 72
65
 73
4
 40
2.0
 49
1.25
 49
-0.25
 49
0.25
 49
-0.25
  0
LTYPE
  5
411
  2
DASHED
 70
0
  3
Dashed __ __ __ __ __
 72
65
 73
2
 40
0.75
 49
0.5
 49
-0.25
  0
LTYPE
  5
43B
  2
DOTTED
 70
0
  3
Dotted .  .  .  .
 72
65
 73
2
 40
0.2
 49
0.0
 49
-0.2
  0
ENDTAB
  0
TABLE
  2
STYLE
  70
4
  0
STYLE
  2
KICAD
  70
0
  40
0
  41
1
  42
1
  50
0
  71
0
  3
isocp.shx
  0
STYLE
  2
KICADB
  70
0
  40
0
  41
1
  42
1
  50
0
  71
0
  3
isocp.shx
  0
STYLE
  2
KICADI
  70
0
  40
0
  41
1
  42
1
  50
15
  71
0
  3
isocp.shx
  0
STYLE
  2
KICADBI
  70
0
  40
0
  41
1
  42
1
  50
15
  71
0
  3
isocp.shx
  0
ENDTAB
  0
TABLE
  2
LAYER
  70
1
  0
LAYER
  2
BLACK
  70
0
  62
7
  6
CONTINUOUS
  0
ENDTAB
  0
ENDSEC
  0
SECTION
  2
ENTITIES
0
LINE
8
BLACK
6
CONTINUOUS
10
43.18
20
-17.78
11
43.18
21
-114.3
0
LINE
8
BLACK
6
CONTINUOUS
10
256.54
20
-7.62
11
53.34
21
-7.62
0
LINE
8
BLACK
6
CONTINUOUS
10
266.7
20
-114.3
11
266.7
21
-17.78
0
LINE
8
BLACK
6
CONTINUOUS
10
53.34
20
-124.46
11
256.54
21
-124.46
0
ARC
8
BLACK
10
53.34
20
-17.78
40
10.16
50
90
51
180
0
ARC
8
BLACK
10
53.34
20
-114.3
40
10.16
50
-180
51
-90
0
ARC
8
BLACK
10
256.54
20
-114.3
40
10.16
50
-90
51
-0
0
ARC
8
BLACK
10
256.54
20
-17.78
40
10.16
50
-0
51
90
0
LINE
8
BLACK
6
CONTINUOUS
10
48.04
20
-62.825
11
48.69
21
-63.475
0
LINE
8
BLACK
6
CONTINUOUS
10
48.69
20
-62.825
11
48.04
21
-63.475
0
LINE
8
BLACK
6
CONTINUOUS
10
48.04
20
-68.605
11
48.69
21
-69.255
0
LINE
8
BLACK
6
CONTINUOUS
10
48.69
20
-68.605
11
48.04
21
-69.255
0
CIRCLE
8
BLACK
10
48.26
20
-20.32
40
0.576
0
CIRCLE
8
BLACK
10
48.26
20
-111.76
40
0.576
0
CIRCLE
8
BLACK
10
256.54
20
-17.78
40
0.576
0
CIRCLE
8
BLACK
10
256.54
20
-114.3
40
0.576
0
LINE
8
BLACK
6
CONTINUOUS
10
50.8
20
-14.14
11
50.8
21
-16.34
0
LINE
8
BLACK
6
CONTINUOUS
10
49.7
20
-15.24
11
51.9
21
-15.24
0
LINE
8
BLACK
6
CONTINUOUS
10
50.8
20
-115.74
11
50.8
21
-117.94
0
LINE
8
BLACK
6
CONTINUOUS
10
49.7
20
-116.84
11
51.9
21
-116.84
0
LINE
8
BLACK
6
CONTINUOUS
10
91.44
20
-14.14
11
91.44
21
-16.34
0
LINE
8
BLACK
6
CONTINUOUS
10
90.34
20
-15.24
11
92.54
21
-15.24
0
LINE
8
BLACK
6
CONTINUOUS
10
91.44
20
-115.74
11
91.44
21
-117.94
0
LINE
8
BLACK
6
CONTINUOUS
10
90.34
20
-116.84
11
92.54
21
-116.84
0
LINE
8
BLACK
6
CONTINUOUS
10
45.7062
20
-127.615
11
45.7062
21
-125.615
0
LINE
8
BLACK
6
CONTINUOUS
10
45.7062
20
-125.615
11
46.1824
21
-125.615
0
LINE
8
BLACK
6
CONTINUOUS
10
46.1824
20
-125.615
11
46.4681
21
-125.71
0
LINE
8
BLACK
6
CONTINUOUS
10
46.4681
20
-125.71
11
46.6586
21
-125.9
0
LINE
8
BLACK
6
CONTINUOUS
10
46.6586
20
-125.9
11
46.7538
21
-126.091
0
LINE
8
BLACK
6
CONTINUOUS
10
46.7538
20
-126.091
11
46.849
21
-126.472
0
LINE
8
BLACK
6
CONTINUOUS
10
46.849
20
-126.472
11
46.849
21
-126.758
0
LINE
8
BLACK
6
CONTINUOUS
10
46.849
20
-126.758
11
46.7538
21
-127.139
0
LINE
8
BLACK
6
CONTINUOUS
10
46.7538
20
-127.139
11
46.6586
21
-127.329
0
LINE
8
BLACK
6
CONTINUOUS
10
46.6586
20
-127.329
11
46.4681
21
-127.52
0
LINE
8
BLACK
6
CONTINUOUS
10
46.4681
20
-127.52
11
46.1824
21
-127.615
0
LINE
8
BLACK
6
CONTINUOUS
10
46.1824
20
-127.615
11
45.7062
21
-127.615
0
LINE
8
BLACK
6
CONTINUOUS
10
47.7062
20
-127.615
11
47.7062
21
-126.281
0
LINE
8
BLACK
6
CONTINUOUS
10
47.7062
20
-126.662
11
47.8014
21
-126.472
0
LINE
8
BLACK
6
CONTINUOUS
10
47.8014
20
-126.472
11
47.8967
21
-126.377
0
LINE
8
BLACK
6
CONTINUOUS
10
47.8967
20
-126.377
11
48.0871
21
-126.281
0
LINE
8
BLACK
6
CONTINUOUS
10
48.0871
20
-126.281
11
48.2776
21
-126.281
0
LINE
8
BLACK
6
CONTINUOUS
10
48.9443
20
-127.615
11
48.9443
21
-126.281
0
LINE
8
BLACK
6
CONTINUOUS
10
48.9443
20
-125.615
11
48.849
21
-125.71
0
LINE
8
BLACK
6
CONTINUOUS
10
48.849
20
-125.71
11
48.9443
21
-125.805
0
LINE
8
BLACK
6
CONTINUOUS
10
48.9443
20
-125.805
11
49.0395
21
-125.71
0
LINE
8
BLACK
6
CONTINUOUS
10
49.0395
20
-125.71
11
48.9443
21
-125.615
0
LINE
8
BLACK
6
CONTINUOUS
10
48.9443
20
-125.615
11
48.9443
21
-125.805
0
LINE
8
BLACK
6
CONTINUOUS
10
50.1824
20
-127.615
11
49.9919
21
-127.52
0
LINE
8
BLACK
6
CONTINUOUS
10
49.9919
20
-127.52
11
49.8967
21
-127.329
0
LINE
8
BLACK
6
CONTINUOUS
10
49.8967
20
-127.329
11
49.8967
21
-125.615
0
LINE
8
BLACK
6
CONTINUOUS
10
51.23
20
-127.615
11
51.0395
21
-127.52
0
LINE
8
BLACK
6
CONTINUOUS
10
51.0395
20
-127.52
11
50.9443
21
-127.329
0
LINE
8
BLACK
6
CONTINUOUS
10
50.9443
20
-127.329
11
50.9443
21
-125.615
0
LINE
8
BLACK
6
CONTINUOUS
10
53.5157
20
-127.615
11
53.5157
21
-125.615
0
LINE
8
BLACK
6
CONTINUOUS
10
53.5157
20
-125.615
11
54.1824
21
-127.043
0
LINE
8
BLACK
6
CONTINUOUS
10
54.1824
20
-127.043
11
54.849
21
-125.615
0
LINE
8
BLACK
6
CONTINUOUS
10
54.849
20
-125.615
11
54.849
21
-127.615
0
LINE
8
BLACK
6
CONTINUOUS
10
56.6586
20
-127.615
11
56.6586
21
-126.567
0
LINE
8
BLACK
6
CONTINUOUS
10
56.6586
20
-126.567
11
56.5633
21
-126.377
0
LINE
8
BLACK
6
CONTINUOUS
10
56.5633
20
-126.377
11
56.3729
21
-126.281
0
LINE
8
BLACK
6
CONTINUOUS
10
56.3729
20
-126.281
11
55.9919
21
-126.281
0
LINE
8
BLACK
6
CONTINUOUS
10
55.9919
20
-126.281
11
55.8014
21
-126.377
0
LINE
8
BLACK
6
CONTINUOUS
10
56.6586
20
-127.52
11
56.4681
21
-127.615
0
LINE
8
BLACK
6
CONTINUOUS
10
56.4681
20
-127.615
11
55.9919
21
-127.615
0
LINE
8
BLACK
6
CONTINUOUS
10
55.9919
20
-127.615
11
55.8014
21
-127.52
0
LINE
8
BLACK
6
CONTINUOUS
10
55.8014
20
-127.52
11
55.7062
21
-127.329
0
LINE
8
BLACK
6
CONTINUOUS
10
55.7062
20
-127.329
11
55.7062
21
-127.139
0
LINE
8
BLACK
6
CONTINUOUS
10
55.7062
20
-127.139
11
55.8014
21
-126.948
0
LINE
8
BLACK
6
CONTINUOUS
10
55.8014
20
-126.948
11
55.9919
21
-126.853
0
LINE
8
BLACK
6
CONTINUOUS
10
55.9919
20
-126.853
11
56.4681
21
-126.853
0
LINE
8
BLACK
6
CONTINUOUS
10
56.4681
20
-126.853
11
56.6586
21
-126.758
0
LINE
8
BLACK
6
CONTINUOUS
10
57.611
20
-126.281
11
57.611
21
-128.281
0
LINE
8
BLACK
6
CONTINUOUS
10
57.611
20
-126.377
11
57.8014
21
-126.281
0
LINE
8
BLACK
6
CONTINUOUS
10
57.8014
20
-126.281
11
58.1824
21
-126.281
0
LINE
8
BLACK
6
CONTINUOUS
10
58.1824
20
-126.281
11
58.3729
21
-126.377
0
LINE
8
BLACK
6
CONTINUOUS
10
58.3729
20
-126.377
11
58.4681
21
-126.472
0
LINE
8
BLACK
6
CONTINUOUS
10
58.4681
20
-126.472
11
58.5633
21
-126.662
0
LINE
8
BLACK
6
CONTINUOUS
10
58.5633
20
-126.662
11
58.5633
21
-127.234
0
LINE
8
BLACK
6
CONTINUOUS
10
58.5633
20
-127.234
11
58.4681
21
-127.424
0
LINE
8
BLACK
6
CONTINUOUS
10
58.4681
20
-127.424
11
58.3729
21
-127.52
0
LINE
8
BLACK
6
CONTINUOUS
10
58.3729
20
-127.52
11
58.1824
21
-127.615
0
LINE
8
BLACK
6
CONTINUOUS
10
58.1824
20
-127.615
11
57.8014
21
-127.615
0
LINE
8
BLACK
6
CONTINUOUS
10
57.8014
20
-127.615
11
57.611
21
-127.52
0
LINE
8
BLACK
6
CONTINUOUS
10
59.4205
20
-127.424
11
59.5157
21
-127.52
0
LINE
8
BLACK
6
CONTINUOUS
10
59.5157
20
-127.52
11
59.4205
21
-127.615
0
LINE
8
BLACK
6
CONTINUOUS
10
59.4205
20
-127.615
11
59.3252
21
-127.52
0
LINE
8
BLACK
6
CONTINUOUS
10
59.3252
20
-127.52
11
59.4205
21
-127.424
0
LINE
8
BLACK
6
CONTINUOUS
10
59.4205
20
-127.424
11
59.4205
21
-127.615
0
LINE
8
BLACK
6
CONTINUOUS
10
59.4205
20
-126.377
11
59.5157
21
-126.472
0
LINE
8
BLACK
6
CONTINUOUS
10
59.5157
20
-126.472
11
59.4205
21
-126.567
0
LINE
8
BLACK
6
CONTINUOUS
10
59.4205
20
-126.567
11
59.3252
21
-126.472
0
LINE
8
BLACK
6
CONTINUOUS
10
59.3252
20
-126.472
11
59.4205
21
-126.377
0
LINE
8
BLACK
6
CONTINUOUS
10
59.4205
20
-126.377
11
59.4205
21
-126.567
0
LINE
8
BLACK
6
CONTINUOUS
10
42.48
20
-130.585
11
43.13
21
-131.235
0
LINE
8
BLACK
6
CONTINUOUS
10
43.13
20
-130.585
11
42.48
21
-131.235
0
LINE
8
BLACK
6
CONTINUOUS
10
46.0871
20
-129.815
11
46.2776
21
-129.815
0
LINE
8
BLACK
6
CONTINUOUS
10
46.2776
20
-129.815
11
46.4681
21
-129.91
0
LINE
8
BLACK
6
CONTINUOUS
10
46.4681
20
-129.91
11
46.5633
21
-130.005
0
LINE
8
BLACK
6
CONTINUOUS
10
46.5633
20
-130.005
11
46.6586
21
-130.196
0
LINE
8
BLACK
6
CONTINUOUS
10
46.6586
20
-130.196
11
46.7538
21
-130.577
0
LINE
8
BLACK
6
CONTINUOUS
10
46.7538
20
-130.577
11
46.7538
21
-131.053
0
LINE
8
BLACK
6
CONTINUOUS
10
46.7538
20
-131.053
11
46.6586
21
-131.434
0
LINE
8
BLACK
6
CONTINUOUS
10
46.6586
20
-131.434
11
46.5633
21
-131.624
0
LINE
8
BLACK
6
CONTINUOUS
10
46.5633
20
-131.624
11
46.4681
21
-131.72
0
LINE
8
BLACK
6
CONTINUOUS
10
46.4681
20
-131.72
11
46.2776
21
-131.815
0
LINE
8
BLACK
6
CONTINUOUS
10
46.2776
20
-131.815
11
46.0871
21
-131.815
0
LINE
8
BLACK
6
CONTINUOUS
10
46.0871
20
-131.815
11
45.8967
21
-131.72
0
LINE
8
BLACK
6
CONTINUOUS
10
45.8967
20
-131.72
11
45.8014
21
-131.624
0
LINE
8
BLACK
6
CONTINUOUS
10
45.8014
20
-131.624
11
45.7062
21
-131.434
0
LINE
8
BLACK
6
CONTINUOUS
10
45.7062
20
-131.434
11
45.611
21
-131.053
0
LINE
8
BLACK
6
CONTINUOUS
10
45.611
20
-131.053
11
45.611
21
-130.577
0
LINE
8
BLACK
6
CONTINUOUS
10
45.611
20
-130.577
11
45.7062
21
-130.196
0
LINE
8
BLACK
6
CONTINUOUS
10
45.7062
20
-130.196
11
45.8014
21
-130.005
0
LINE
8
BLACK
6
CONTINUOUS
10
45.8014
20
-130.005
11
45.8967
21
-129.91
0
LINE
8
BLACK
6
CONTINUOUS
10
45.8967
20
-129.91
11
46.0871
21
-129.815
0
LINE
8
BLACK
6
CONTINUOUS
10
47.611
20
-131.624
11
47.7062
21
-131.72
0
LINE
8
BLACK
6
CONTINUOUS
10
47.7062
20
-131.72
11
47.611
21
-131.815
0
LINE
8
BLACK
6
CONTINUOUS
10
47.611
20
-131.815
11
47.5157
21
-131.72
0
LINE
8
BLACK
6
CONTINUOUS
10
47.5157
20
-131.72
11
47.611
21
-131.624
0
LINE
8
BLACK
6
CONTINUOUS
10
47.611
20
-131.624
11
47.611
21
-131.815
0
LINE
8
BLACK
6
CONTINUOUS
10
49.4205
20
-129.815
11
49.0395
21
-129.815
0
LINE
8
BLACK
6
CONTINUOUS
10
49.0395
20
-129.815
11
48.849
21
-129.91
0
LINE
8
BLACK
6
CONTINUOUS
10
48.849
20
-129.91
11
48.7538
21
-130.005
0
LINE
8
BLACK
6
CONTINUOUS
10
48.7538
20
-130.005
11
48.5633
21
-130.291
0
LINE
8
BLACK
6
CONTINUOUS
10
48.5633
20
-130.291
11
48.4681
21
-130.672
0
LINE
8
BLACK
6
CONTINUOUS
10
48.4681
20
-130.672
11
48.4681
21
-131.434
0
LINE
8
BLACK
6
CONTINUOUS
10
48.4681
20
-131.434
11
48.5633
21
-131.624
0
LINE
8
BLACK
6
CONTINUOUS
10
48.5633
20
-131.624
11
48.6586
21
-131.72
0
LINE
8
BLACK
6
CONTINUOUS
10
48.6586
20
-131.72
11
48.849
21
-131.815
0
LINE
8
BLACK
6
CONTINUOUS
10
48.849
20
-131.815
11
49.23
21
-131.815
0
LINE
8
BLACK
6
CONTINUOUS
10
49.23
20
-131.815
11
49.4205
21
-131.72
0
LINE
8
BLACK
6
CONTINUOUS
10
49.4205
20
-131.72
11
49.5157
21
-131.624
0
LINE
8
BLACK
6
CONTINUOUS
10
49.5157
20
-131.624
11
49.611
21
-131.434
0
LINE
8
BLACK
6
CONTINUOUS
10
49.611
20
-131.434
11
49.611
21
-130.958
0
LINE
8
BLACK
6
CONTINUOUS
10
49.611
20
-130.958
11
49.5157
21
-130.767
0
LINE
8
BLACK
6
CONTINUOUS
10
49.5157
20
-130.767
11
49.4205
21
-130.672
0
LINE
8
BLACK
6
CONTINUOUS
10
49.4205
20
-130.672
11
49.23
21
-130.577
0
LINE
8
BLACK
6
CONTINUOUS
10
49.23
20
-130.577
11
48.849
21
-130.577
0
LINE
8
BLACK
6
CONTINUOUS
10
48.849
20
-130.577
11
48.6586
21
-130.672
0
LINE
8
BLACK
6
CONTINUOUS
10
48.6586
20
-130.672
11
48.5633
21
-130.767
0
LINE
8
BLACK
6
CONTINUOUS
10
48.5633
20
-130.767
11
48.4681
21
-130.958
0
LINE
8
BLACK
6
CONTINUOUS
10
51.4205
20
-129.815
11
50.4681
21
-129.815
0
LINE
8
BLACK
6
CONTINUOUS
10
50.4681
20
-129.815
11
50.3729
21
-130.767
0
LINE
8
BLACK
6
CONTINUOUS
10
50.3729
20
-130.767
11
50.4681
21
-130.672
0
LINE
8
BLACK
6
CONTINUOUS
10
50.4681
20
-130.672
11
50.6586
21
-130.577
0
LINE
8
BLACK
6
CONTINUOUS
10
50.6586
20
-130.577
11
51.1348
21
-130.577
0
LINE
8
BLACK
6
CONTINUOUS
10
51.1348
20
-130.577
11
51.3252
21
-130.672
0
LINE
8
BLACK
6
CONTINUOUS
10
51.3252
20
-130.672
11
51.4205
21
-130.767
0
LINE
8
BLACK
6
CONTINUOUS
10
51.4205
20
-130.767
11
51.5157
21
-130.958
0
LINE
8
BLACK
6
CONTINUOUS
10
51.5157
20
-130.958
11
51.5157
21
-131.434
0
LINE
8
BLACK
6
CONTINUOUS
10
51.5157
20
-131.434
11
51.4205
21
-131.624
0
LINE
8
BLACK
6
CONTINUOUS
10
51.4205
20
-131.624
11
51.3252
21
-131.72
0
LINE
8
BLACK
6
CONTINUOUS
10
51.3252
20
-131.72
11
51.1348
21
-131.815
0
LINE
8
BLACK
6
CONTINUOUS
10
51.1348
20
-131.815
11
50.6586
21
-131.815
0
LINE
8
BLACK
6
CONTINUOUS
10
50.6586
20
-131.815
11
50.4681
21
-131.72
0
LINE
8
BLACK
6
CONTINUOUS
10
50.4681
20
-131.72
11
50.3729
21
-131.624
0
LINE
8
BLACK
6
CONTINUOUS
10
52.7538
20
-129.815
11
52.9443
21
-129.815
0
LINE
8
BLACK
6
CONTINUOUS
10
52.9443
20
-129.815
11
53.1348
21
-129.91
0
LINE
8
BLACK
6
CONTINUOUS
10
53.1348
20
-129.91
11
53.23
21
-130.005
0
LINE
8
BLACK
6
CONTINUOUS
10
53.23
20
-130.005
11
53.3252
21
-130.196
0
LINE
8
BLACK
6
CONTINUOUS
10
53.3252
20
-130.196
11
53.4205
21
-130.577
0
LINE
8
BLACK
6
CONTINUOUS
10
53.4205
20
-130.577
11
53.4205
21
-131.053
0
LINE
8
BLACK
6
CONTINUOUS
10
53.4205
20
-131.053
11
53.3252
21
-131.434
0
LINE
8
BLACK
6
CONTINUOUS
10
53.3252
20
-131.434
11
53.23
21
-131.624
0
LINE
8
BLACK
6
CONTINUOUS
10
53.23
20
-131.624
11
53.1348
21
-131.72
0
LINE
8
BLACK
6
CONTINUOUS
10
53.1348
20
-131.72
11
52.9443
21
-131.815
0
LINE
8
BLACK
6
CONTINUOUS
10
52.9443
20
-131.815
11
52.7538
21
-131.815
0
LINE
8
BLACK
6
CONTINUOUS
10
52.7538
20
-131.815
11
52.5633
21
-131.72
0
LINE
8
BLACK
6
CONTINUOUS
10
52.5633
20
-131.72
11
52.4681
21
-131.624
0
LINE
8
BLACK
6
CONTINUOUS
10
52.4681
20
-131.624
11
52.3729
21
-131.434
0
LINE
8
BLACK
6
CONTINUOUS
10
52.3729
20
-131.434
11
52.2776
21
-131.053
0
LINE
8
BLACK
6
CONTINUOUS
10
52.2776
20
-131.053
11
52.2776
21
-130.577
0
LINE
8
BLACK
6
CONTINUOUS
10
52.2776
20
-130.577
11
52.3729
21
-130.196
0
LINE
8
BLACK
6
CONTINUOUS
10
52.3729
20
-130.196
11
52.4681
21
-130.005
0
LINE
8
BLACK
6
CONTINUOUS
10
52.4681
20
-130.005
11
52.5633
21
-129.91
0
LINE
8
BLACK
6
CONTINUOUS
10
52.5633
20
-129.91
11
52.7538
21
-129.815
0
LINE
8
BLACK
6
CONTINUOUS
10
54.2776
20
-131.815
11
54.2776
21
-130.481
0
LINE
8
BLACK
6
CONTINUOUS
10
54.2776
20
-130.672
11
54.3729
21
-130.577
0
LINE
8
BLACK
6
CONTINUOUS
10
54.3729
20
-130.577
11
54.5633
21
-130.481
0
LINE
8
BLACK
6
CONTINUOUS
10
54.5633
20
-130.481
11
54.849
21
-130.481
0
LINE
8
BLACK
6
CONTINUOUS
10
54.849
20
-130.481
11
55.0395
21
-130.577
0
LINE
8
BLACK
6
CONTINUOUS
10
55.0395
20
-130.577
11
55.1348
21
-130.767
0
LINE
8
BLACK
6
CONTINUOUS
10
55.1348
20
-130.767
11
55.1348
21
-131.815
0
LINE
8
BLACK
6
CONTINUOUS
10
55.1348
20
-130.767
11
55.23
21
-130.577
0
LINE
8
BLACK
6
CONTINUOUS
10
55.23
20
-130.577
11
55.4205
21
-130.481
0
LINE
8
BLACK
6
CONTINUOUS
10
55.4205
20
-130.481
11
55.7062
21
-130.481
0
LINE
8
BLACK
6
CONTINUOUS
10
55.7062
20
-130.481
11
55.8967
21
-130.577
0
LINE
8
BLACK
6
CONTINUOUS
10
55.8967
20
-130.577
11
55.9919
21
-130.767
0
LINE
8
BLACK
6
CONTINUOUS
10
55.9919
20
-130.767
11
55.9919
21
-131.815
0
LINE
8
BLACK
6
CONTINUOUS
10
56.9443
20
-131.815
11
56.9443
21
-130.481
0
LINE
8
BLACK
6
CONTINUOUS
10
56.9443
20
-130.672
11
57.0395
21
-130.577
0
LINE
8
BLACK
6
CONTINUOUS
10
57.0395
20
-130.577
11
57.23
21
-130.481
0
LINE
8
BLACK
6
CONTINUOUS
10
57.23
20
-130.481
11
57.5157
21
-130.481
0
LINE
8
BLACK
6
CONTINUOUS
10
57.5157
20
-130.481
11
57.7062
21
-130.577
0
LINE
8
BLACK
6
CONTINUOUS
10
57.7062
20
-130.577
11
57.8014
21
-130.767
0
LINE
8
BLACK
6
CONTINUOUS
10
57.8014
20
-130.767
11
57.8014
21
-131.815
0
LINE
8
BLACK
6
CONTINUOUS
10
57.8014
20
-130.767
11
57.8967
21
-130.577
0
LINE
8
BLACK
6
CONTINUOUS
10
57.8967
20
-130.577
11
58.0871
21
-130.481
0
LINE
8
BLACK
6
CONTINUOUS
10
58.0871
20
-130.481
11
58.3729
21
-130.481
0
LINE
8
BLACK
6
CONTINUOUS
10
58.3729
20
-130.481
11
58.5633
21
-130.577
0
LINE
8
BLACK
6
CONTINUOUS
10
58.5633
20
-130.577
11
58.6586
21
-130.767
0
LINE
8
BLACK
6
CONTINUOUS
10
58.6586
20
-130.767
11
58.6586
21
-131.815
0
LINE
8
BLACK
6
CONTINUOUS
10
62.5633
20
-129.72
11
60.849
21
-132.291
0
LINE
8
BLACK
6
CONTINUOUS
10
65.1348
20
-129.815
11
65.3252
21
-129.815
0
LINE
8
BLACK
6
CONTINUOUS
10
65.3252
20
-129.815
11
65.5157
21
-129.91
0
LINE
8
BLACK
6
CONTINUOUS
10
65.5157
20
-129.91
11
65.611
21
-130.005
0
LINE
8
BLACK
6
CONTINUOUS
10
65.611
20
-130.005
11
65.7062
21
-130.196
0
LINE
8
BLACK
6
CONTINUOUS
10
65.7062
20
-130.196
11
65.8014
21
-130.577
0
LINE
8
BLACK
6
CONTINUOUS
10
65.8014
20
-130.577
11
65.8014
21
-131.053
0
LINE
8
BLACK
6
CONTINUOUS
10
65.8014
20
-131.053
11
65.7062
21
-131.434
0
LINE
8
BLACK
6
CONTINUOUS
10
65.7062
20
-131.434
11
65.611
21
-131.624
0
LINE
8
BLACK
6
CONTINUOUS
10
65.611
20
-131.624
11
65.5157
21
-131.72
0
LINE
8
BLACK
6
CONTINUOUS
10
65.5157
20
-131.72
11
65.3252
21
-131.815
0
LINE
8
BLACK
6
CONTINUOUS
10
65.3252
20
-131.815
11
65.1348
21
-131.815
0
LINE
8
BLACK
6
CONTINUOUS
10
65.1348
20
-131.815
11
64.9443
21
-131.72
0
LINE
8
BLACK
6
CONTINUOUS
10
64.9443
20
-131.72
11
64.849
21
-131.624
0
LINE
8
BLACK
6
CONTINUOUS
10
64.849
20
-131.624
11
64.7538
21
-131.434
0
LINE
8
BLACK
6
CONTINUOUS
10
64.7538
20
-131.434
11
64.6586
21
-131.053
0
LINE
8
BLACK
6
CONTINUOUS
10
64.6586
20
-131.053
11
64.6586
21
-130.577
0
LINE
8
BLACK
6
CONTINUOUS
10
64.6586
20
-130.577
11
64.7538
21
-130.196
0
LINE
8
BLACK
6
CONTINUOUS
10
64.7538
20
-130.196
11
64.849
21
-130.005
0
LINE
8
BLACK
6
CONTINUOUS
10
64.849
20
-130.005
11
64.9443
21
-129.91
0
LINE
8
BLACK
6
CONTINUOUS
10
64.9443
20
-129.91
11
65.1348
21
-129.815
0
LINE
8
BLACK
6
CONTINUOUS
10
66.6586
20
-131.624
11
66.7538
21
-131.72
0
LINE
8
BLACK
6
CONTINUOUS
10
66.7538
20
-131.72
11
66.6586
21
-131.815
0
LINE
8
BLACK
6
CONTINUOUS
10
66.6586
20
-131.815
11
66.5633
21
-131.72
0
LINE
8
BLACK
6
CONTINUOUS
10
66.5633
20
-131.72
11
66.6586
21
-131.624
0
LINE
8
BLACK
6
CONTINUOUS
10
66.6586
20
-131.624
11
66.6586
21
-131.815
0
LINE
8
BLACK
6
CONTINUOUS
10
67.9919
20
-129.815
11
68.1824
21
-129.815
0
LINE
8
BLACK
6
CONTINUOUS
10
68.1824
20
-129.815
11
68.3729
21
-129.91
0
LINE
8
BLACK
6
CONTINUOUS
10
68.3729
20
-129.91
11
68.4681
21
-130.005
0
LINE
8
BLACK
6
CONTINUOUS
10
68.4681
20
-130.005
11
68.5633
21
-130.196
0
LINE
8
BLACK
6
CONTINUOUS
10
68.5633
20
-130.196
11
68.6586
21
-130.577
0
LINE
8
BLACK
6
CONTINUOUS
10
68.6586
20
-130.577
11
68.6586
21
-131.053
0
LINE
8
BLACK
6
CONTINUOUS
10
68.6586
20
-131.053
11
68.5633
21
-131.434
0
LINE
8
BLACK
6
CONTINUOUS
10
68.5633
20
-131.434
11
68.4681
21
-131.624
0
LINE
8
BLACK
6
CONTINUOUS
10
68.4681
20
-131.624
11
68.3729
21
-131.72
0
LINE
8
BLACK
6
CONTINUOUS
10
68.3729
20
-131.72
11
68.1824
21
-131.815
0
LINE
8
BLACK
6
CONTINUOUS
10
68.1824
20
-131.815
11
67.9919
21
-131.815
0
LINE
8
BLACK
6
CONTINUOUS
10
67.9919
20
-131.815
11
67.8014
21
-131.72
0
LINE
8
BLACK
6
CONTINUOUS
10
67.8014
20
-131.72
11
67.7062
21
-131.624
0
LINE
8
BLACK
6
CONTINUOUS
10
67.7062
20
-131.624
11
67.611
21
-131.434
0
LINE
8
BLACK
6
CONTINUOUS
10
67.611
20
-131.434
11
67.5157
21
-131.053
0
LINE
8
BLACK
6
CONTINUOUS
10
67.5157
20
-131.053
11
67.5157
21
-130.577
0
LINE
8
BLACK
6
CONTINUOUS
10
67.5157
20
-130.577
11
67.611
21
-130.196
0
LINE
8
BLACK
6
CONTINUOUS
10
67.611
20
-130.196
11
67.7062
21
-130.005
0
LINE
8
BLACK
6
CONTINUOUS
10
67.7062
20
-130.005
11
67.8014
21
-129.91
0
LINE
8
BLACK
6
CONTINUOUS
10
67.8014
20
-129.91
11
67.9919
21
-129.815
0
LINE
8
BLACK
6
CONTINUOUS
10
69.4205
20
-130.005
11
69.5157
21
-129.91
0
LINE
8
BLACK
6
CONTINUOUS
10
69.5157
20
-129.91
11
69.7062
21
-129.815
0
LINE
8
BLACK
6
CONTINUOUS
10
69.7062
20
-129.815
11
70.1824
21
-129.815
0
LINE
8
BLACK
6
CONTINUOUS
10
70.1824
20
-129.815
11
70.3729
21
-129.91
0
LINE
8
BLACK
6
CONTINUOUS
10
70.3729
20
-129.91
11
70.4681
21
-130.005
0
LINE
8
BLACK
6
CONTINUOUS
10
70.4681
20
-130.005
11
70.5633
21
-130.196
0
LINE
8
BLACK
6
CONTINUOUS
10
70.5633
20
-130.196
11
70.5633
21
-130.386
0
LINE
8
BLACK
6
CONTINUOUS
10
70.5633
20
-130.386
11
70.4681
21
-130.672
0
LINE
8
BLACK
6
CONTINUOUS
10
70.4681
20
-130.672
11
69.3252
21
-131.815
0
LINE
8
BLACK
6
CONTINUOUS
10
69.3252
20
-131.815
11
70.5633
21
-131.815
0
LINE
8
BLACK
6
CONTINUOUS
10
72.3729
20
-129.815
11
71.4205
21
-129.815
0
LINE
8
BLACK
6
CONTINUOUS
10
71.4205
20
-129.815
11
71.3252
21
-130.767
0
LINE
8
BLACK
6
CONTINUOUS
10
71.3252
20
-130.767
11
71.4205
21
-130.672
0
LINE
8
BLACK
6
CONTINUOUS
10
71.4205
20
-130.672
11
71.611
21
-130.577
0
LINE
8
BLACK
6
CONTINUOUS
10
71.611
20
-130.577
11
72.0871
21
-130.577
0
LINE
8
BLACK
6
CONTINUOUS
10
72.0871
20
-130.577
11
72.2776
21
-130.672
0
LINE
8
BLACK
6
CONTINUOUS
10
72.2776
20
-130.672
11
72.3729
21
-130.767
0
LINE
8
BLACK
6
CONTINUOUS
10
72.3729
20
-130.767
11
72.4681
21
-130.958
0
LINE
8
BLACK
6
CONTINUOUS
10
72.4681
20
-130.958
11
72.4681
21
-131.434
0
LINE
8
BLACK
6
CONTINUOUS
10
72.4681
20
-131.434
11
72.3729
21
-131.624
0
LINE
8
BLACK
6
CONTINUOUS
10
72.3729
20
-131.624
11
72.2776
21
-131.72
0
LINE
8
BLACK
6
CONTINUOUS
10
72.2776
20
-131.72
11
72.0871
21
-131.815
0
LINE
8
BLACK
6
CONTINUOUS
10
72.0871
20
-131.815
11
71.611
21
-131.815
0
LINE
8
BLACK
6
CONTINUOUS
10
71.611
20
-131.815
11
71.4205
21
-131.72
0
LINE
8
BLACK
6
CONTINUOUS
10
71.4205
20
-131.72
11
71.3252
21
-131.624
0
LINE
8
BLACK
6
CONTINUOUS
10
74.1824
20
-129.815
11
73.8014
21
-129.815
0
LINE
8
BLACK
6
CONTINUOUS
10
73.8014
20
-129.815
11
73.611
21
-129.91
0
LINE
8
BLACK
6
CONTINUOUS
10
73.611
20
-129.91
11
73.5157
21
-130.005
0
LINE
8
BLACK
6
CONTINUOUS
10
73.5157
20
-130.005
11
73.3252
21
-130.291
0
LINE
8
BLACK
6
CONTINUOUS
10
73.3252
20
-130.291
11
73.23
21
-130.672
0
LINE
8
BLACK
6
CONTINUOUS
10
73.23
20
-130.672
11
73.23
21
-131.434
0
LINE
8
BLACK
6
CONTINUOUS
10
73.23
20
-131.434
11
73.3252
21
-131.624
0
LINE
8
BLACK
6
CONTINUOUS
10
73.3252
20
-131.624
11
73.4205
21
-131.72
0
LINE
8
BLACK
6
CONTINUOUS
10
73.4205
20
-131.72
11
73.611
21
-131.815
0
LINE
8
BLACK
6
CONTINUOUS
10
73.611
20
-131.815
11
73.9919
21
-131.815
0
LINE
8
BLACK
6
CONTINUOUS
10
73.9919
20
-131.815
11
74.1824
21
-131.72
0
LINE
8
BLACK
6
CONTINUOUS
10
74.1824
20
-131.72
11
74.2776
21
-131.624
0
LINE
8
BLACK
6
CONTINUOUS
10
74.2776
20
-131.624
11
74.3729
21
-131.434
0
LINE
8
BLACK
6
CONTINUOUS
10
74.3729
20
-131.434
11
74.3729
21
-130.958
0
LINE
8
BLACK
6
CONTINUOUS
10
74.3729
20
-130.958
11
74.2776
21
-130.767
0
LINE
8
BLACK
6
CONTINUOUS
10
74.2776
20
-130.767
11
74.1824
21
-130.672
0
LINE
8
BLACK
6
CONTINUOUS
10
74.1824
20
-130.672
11
73.9919
21
-130.577
0
LINE
8
BLACK
6
CONTINUOUS
10
73.9919
20
-130.577
11
73.611
21
-130.577
0
LINE
8
BLACK
6
CONTINUOUS
10
73.611
20
-130.577
11
73.4205
21
-130.672
0
LINE
8
BLACK
6
CONTINUOUS
10
73.4205
20
-130.672
11
73.3252
21
-130.767
0
LINE
8
BLACK
6
CONTINUOUS
10
73.3252
20
-130.767
11
73.23
21
-130.958
0
LINE
8
BLACK
6
CONTINUOUS
10
75.1348
20
-129.815
11
75.1348
21
-130.196
0
LINE
8
BLACK
6
CONTINUOUS
10
75.8967
20
-129.815
11
75.8967
21
-130.196
0
LINE
8
BLACK
6
CONTINUOUS
10
78.849
20
-132.577
11
78.7538
21
-132.481
0
LINE
8
BLACK
6
CONTINUOUS
10
78.7538
20
-132.481
11
78.5633
21
-132.196
0
LINE
8
BLACK
6
CONTINUOUS
10
78.5633
20
-132.196
11
78.4681
21
-132.005
0
LINE
8
BLACK
6
CONTINUOUS
10
78.4681
20
-132.005
11
78.3729
21
-131.72
0
LINE
8
BLACK
6
CONTINUOUS
10
78.3729
20
-131.72
11
78.2776
21
-131.243
0
LINE
8
BLACK
6
CONTINUOUS
10
78.2776
20
-131.243
11
78.2776
21
-130.862
0
LINE
8
BLACK
6
CONTINUOUS
10
78.2776
20
-130.862
11
78.3729
21
-130.386
0
LINE
8
BLACK
6
CONTINUOUS
10
78.3729
20
-130.386
11
78.4681
21
-130.1
0
LINE
8
BLACK
6
CONTINUOUS
10
78.4681
20
-130.1
11
78.5633
21
-129.91
0
LINE
8
BLACK
6
CONTINUOUS
10
78.5633
20
-129.91
11
78.7538
21
-129.624
0
LINE
8
BLACK
6
CONTINUOUS
10
78.7538
20
-129.624
11
78.849
21
-129.529
0
LINE
8
BLACK
6
CONTINUOUS
10
79.5157
20
-130.005
11
79.611
21
-129.91
0
LINE
8
BLACK
6
CONTINUOUS
10
79.611
20
-129.91
11
79.8014
21
-129.815
0
LINE
8
BLACK
6
CONTINUOUS
10
79.8014
20
-129.815
11
80.2776
21
-129.815
0
LINE
8
BLACK
6
CONTINUOUS
10
80.2776
20
-129.815
11
80.4681
21
-129.91
0
LINE
8
BLACK
6
CONTINUOUS
10
80.4681
20
-129.91
11
80.5633
21
-130.005
0
LINE
8
BLACK
6
CONTINUOUS
10
80.5633
20
-130.005
11
80.6586
21
-130.196
0
LINE
8
BLACK
6
CONTINUOUS
10
80.6586
20
-130.196
11
80.6586
21
-130.386
0
LINE
8
BLACK
6
CONTINUOUS
10
80.6586
20
-130.386
11
80.5633
21
-130.672
0
LINE
8
BLACK
6
CONTINUOUS
10
80.5633
20
-130.672
11
79.4205
21
-131.815
0
LINE
8
BLACK
6
CONTINUOUS
10
79.4205
20
-131.815
11
80.6586
21
-131.815
0
LINE
8
BLACK
6
CONTINUOUS
10
83.0395
20
-131.815
11
83.0395
21
-129.815
0
LINE
8
BLACK
6
CONTINUOUS
10
83.8967
20
-131.815
11
83.8967
21
-130.767
0
LINE
8
BLACK
6
CONTINUOUS
10
83.8967
20
-130.767
11
83.8014
21
-130.577
0
LINE
8
BLACK
6
CONTINUOUS
10
83.8014
20
-130.577
11
83.611
21
-130.481
0
LINE
8
BLACK
6
CONTINUOUS
10
83.611
20
-130.481
11
83.3252
21
-130.481
0
LINE
8
BLACK
6
CONTINUOUS
10
83.3252
20
-130.481
11
83.1348
21
-130.577
0
LINE
8
BLACK
6
CONTINUOUS
10
83.1348
20
-130.577
11
83.0395
21
-130.672
0
LINE
8
BLACK
6
CONTINUOUS
10
85.1348
20
-131.815
11
84.9443
21
-131.72
0
LINE
8
BLACK
6
CONTINUOUS
10
84.9443
20
-131.72
11
84.849
21
-131.624
0
LINE
8
BLACK
6
CONTINUOUS
10
84.849
20
-131.624
11
84.7538
21
-131.434
0
LINE
8
BLACK
6
CONTINUOUS
10
84.7538
20
-131.434
11
84.7538
21
-130.862
0
LINE
8
BLACK
6
CONTINUOUS
10
84.7538
20
-130.862
11
84.849
21
-130.672
0
LINE
8
BLACK
6
CONTINUOUS
10
84.849
20
-130.672
11
84.9443
21
-130.577
0
LINE
8
BLACK
6
CONTINUOUS
10
84.9443
20
-130.577
11
85.1348
21
-130.481
0
LINE
8
BLACK
6
CONTINUOUS
10
85.1348
20
-130.481
11
85.4205
21
-130.481
0
LINE
8
BLACK
6
CONTINUOUS
10
85.4205
20
-130.481
11
85.611
21
-130.577
0
LINE
8
BLACK
6
CONTINUOUS
10
85.611
20
-130.577
11
85.7062
21
-130.672
0
LINE
8
BLACK
6
CONTINUOUS
10
85.7062
20
-130.672
11
85.8014
21
-130.862
0
LINE
8
BLACK
6
CONTINUOUS
10
85.8014
20
-130.862
11
85.8014
21
-131.434
0
LINE
8
BLACK
6
CONTINUOUS
10
85.8014
20
-131.434
11
85.7062
21
-131.624
0
LINE
8
BLACK
6
CONTINUOUS
10
85.7062
20
-131.624
11
85.611
21
-131.72
0
LINE
8
BLACK
6
CONTINUOUS
10
85.611
20
-131.72
11
85.4205
21
-131.815
0
LINE
8
BLACK
6
CONTINUOUS
10
85.4205
20
-131.815
11
85.1348
21
-131.815
0
LINE
8
BLACK
6
CONTINUOUS
10
86.9443
20
-131.815
11
86.7538
21
-131.72
0
LINE
8
BLACK
6
CONTINUOUS
10
86.7538
20
-131.72
11
86.6586
21
-131.529
0
LINE
8
BLACK
6
CONTINUOUS
10
86.6586
20
-131.529
11
86.6586
21
-129.815
0
LINE
8
BLACK
6
CONTINUOUS
10
88.4681
20
-131.72
11
88.2776
21
-131.815
0
LINE
8
BLACK
6
CONTINUOUS
10
88.2776
20
-131.815
11
87.8967
21
-131.815
0
LINE
8
BLACK
6
CONTINUOUS
10
87.8967
20
-131.815
11
87.7062
21
-131.72
0
LINE
8
BLACK
6
CONTINUOUS
10
87.7062
20
-131.72
11
87.611
21
-131.529
0
LINE
8
BLACK
6
CONTINUOUS
10
87.611
20
-131.529
11
87.611
21
-130.767
0
LINE
8
BLACK
6
CONTINUOUS
10
87.611
20
-130.767
11
87.7062
21
-130.577
0
LINE
8
BLACK
6
CONTINUOUS
10
87.7062
20
-130.577
11
87.8967
21
-130.481
0
LINE
8
BLACK
6
CONTINUOUS
10
87.8967
20
-130.481
11
88.2776
21
-130.481
0
LINE
8
BLACK
6
CONTINUOUS
10
88.2776
20
-130.481
11
88.4681
21
-130.577
0
LINE
8
BLACK
6
CONTINUOUS
10
88.4681
20
-130.577
11
88.5633
21
-130.767
0
LINE
8
BLACK
6
CONTINUOUS
10
88.5633
20
-130.767
11
88.5633
21
-130.958
0
LINE
8
BLACK
6
CONTINUOUS
10
88.5633
20
-130.958
11
87.611
21
-131.148
0
LINE
8
BLACK
6
CONTINUOUS
10
89.3252
20
-131.72
11
89.5157
21
-131.815
0
LINE
8
BLACK
6
CONTINUOUS
10
89.5157
20
-131.815
11
89.8967
21
-131.815
0
LINE
8
BLACK
6
CONTINUOUS
10
89.8967
20
-131.815
11
90.0871
21
-131.72
0
LINE
8
BLACK
6
CONTINUOUS
10
90.0871
20
-131.72
11
90.1824
21
-131.529
0
LINE
8
BLACK
6
CONTINUOUS
10
90.1824
20
-131.529
11
90.1824
21
-131.434
0
LINE
8
BLACK
6
CONTINUOUS
10
90.1824
20
-131.434
11
90.0871
21
-131.243
0
LINE
8
BLACK
6
CONTINUOUS
10
90.0871
20
-131.243
11
89.8967
21
-131.148
0
LINE
8
BLACK
6
CONTINUOUS
10
89.8967
20
-131.148
11
89.611
21
-131.148
0
LINE
8
BLACK
6
CONTINUOUS
10
89.611
20
-131.148
11
89.4205
21
-131.053
0
LINE
8
BLACK
6
CONTINUOUS
10
89.4205
20
-131.053
11
89.3252
21
-130.862
0
LINE
8
BLACK
6
CONTINUOUS
10
89.3252
20
-130.862
11
89.3252
21
-130.767
0
LINE
8
BLACK
6
CONTINUOUS
10
89.3252
20
-130.767
11
89.4205
21
-130.577
0
LINE
8
BLACK
6
CONTINUOUS
10
89.4205
20
-130.577
11
89.611
21
-130.481
0
LINE
8
BLACK
6
CONTINUOUS
10
89.611
20
-130.481
11
89.8967
21
-130.481
0
LINE
8
BLACK
6
CONTINUOUS
10
89.8967
20
-130.481
11
90.0871
21
-130.577
0
LINE
8
BLACK
6
CONTINUOUS
10
90.849
20
-132.577
11
90.9443
21
-132.481
0
LINE
8
BLACK
6
CONTINUOUS
10
90.9443
20
-132.481
11
91.1348
21
-132.196
0
LINE
8
BLACK
6
CONTINUOUS
10
91.1348
20
-132.196
11
91.23
21
-132.005
0
LINE
8
BLACK
6
CONTINUOUS
10
91.23
20
-132.005
11
91.3252
21
-131.72
0
LINE
8
BLACK
6
CONTINUOUS
10
91.3252
20
-131.72
11
91.4205
21
-131.243
0
LINE
8
BLACK
6
CONTINUOUS
10
91.4205
20
-131.243
11
91.4205
21
-130.862
0
LINE
8
BLACK
6
CONTINUOUS
10
91.4205
20
-130.862
11
91.3252
21
-130.386
0
LINE
8
BLACK
6
CONTINUOUS
10
91.3252
20
-130.386
11
91.23
21
-130.1
0
LINE
8
BLACK
6
CONTINUOUS
10
91.23
20
-130.1
11
91.1348
21
-129.91
0
LINE
8
BLACK
6
CONTINUOUS
10
91.1348
20
-129.91
11
90.9443
21
-129.624
0
LINE
8
BLACK
6
CONTINUOUS
10
90.9443
20
-129.624
11
90.849
21
-129.529
0
LINE
8
BLACK
6
CONTINUOUS
10
94.4681
20
-132.577
11
94.3729
21
-132.481
0
LINE
8
BLACK
6
CONTINUOUS
10
94.3729
20
-132.481
11
94.1824
21
-132.196
0
LINE
8
BLACK
6
CONTINUOUS
10
94.1824
20
-132.196
11
94.0871
21
-132.005
0
LINE
8
BLACK
6
CONTINUOUS
10
94.0871
20
-132.005
11
93.9919
21
-131.72
0
LINE
8
BLACK
6
CONTINUOUS
10
93.9919
20
-131.72
11
93.8967
21
-131.243
0
LINE
8
BLACK
6
CONTINUOUS
10
93.8967
20
-131.243
11
93.8967
21
-130.862
0
LINE
8
BLACK
6
CONTINUOUS
10
93.8967
20
-130.862
11
93.9919
21
-130.386
0
LINE
8
BLACK
6
CONTINUOUS
10
93.9919
20
-130.386
11
94.0871
21
-130.1
0
LINE
8
BLACK
6
CONTINUOUS
10
94.0871
20
-130.1
11
94.1824
21
-129.91
0
LINE
8
BLACK
6
CONTINUOUS
10
94.1824
20
-129.91
11
94.3729
21
-129.624
0
LINE
8
BLACK
6
CONTINUOUS
10
94.3729
20
-129.624
11
94.4681
21
-129.529
0
LINE
8
BLACK
6
CONTINUOUS
10
95.23
20
-130.481
11
95.23
21
-131.815
0
LINE
8
BLACK
6
CONTINUOUS
10
95.23
20
-130.672
11
95.3252
21
-130.577
0
LINE
8
BLACK
6
CONTINUOUS
10
95.3252
20
-130.577
11
95.5157
21
-130.481
0
LINE
8
BLACK
6
CONTINUOUS
10
95.5157
20
-130.481
11
95.8014
21
-130.481
0
LINE
8
BLACK
6
CONTINUOUS
10
95.8014
20
-130.481
11
95.9919
21
-130.577
0
LINE
8
BLACK
6
CONTINUOUS
10
95.9919
20
-130.577
11
96.0871
21
-130.767
0
LINE
8
BLACK
6
CONTINUOUS
10
96.0871
20
-130.767
11
96.0871
21
-131.815
0
LINE
8
BLACK
6
CONTINUOUS
10
97.3252
20
-131.815
11
97.1348
21
-131.72
0
LINE
8
BLACK
6
CONTINUOUS
10
97.1348
20
-131.72
11
97.0395
21
-131.624
0
LINE
8
BLACK
6
CONTINUOUS
10
97.0395
20
-131.624
11
96.9443
21
-131.434
0
LINE
8
BLACK
6
CONTINUOUS
10
96.9443
20
-131.434
11
96.9443
21
-130.862
0
LINE
8
BLACK
6
CONTINUOUS
10
96.9443
20
-130.862
11
97.0395
21
-130.672
0
LINE
8
BLACK
6
CONTINUOUS
10
97.0395
20
-130.672
11
97.1348
21
-130.577
0
LINE
8
BLACK
6
CONTINUOUS
10
97.1348
20
-130.577
11
97.3252
21
-130.481
0
LINE
8
BLACK
6
CONTINUOUS
10
97.3252
20
-130.481
11
97.611
21
-130.481
0
LINE
8
BLACK
6
CONTINUOUS
10
97.611
20
-130.481
11
97.8014
21
-130.577
0
LINE
8
BLACK
6
CONTINUOUS
10
97.8014
20
-130.577
11
97.8967
21
-130.672
0
LINE
8
BLACK
6
CONTINUOUS
10
97.8967
20
-130.672
11
97.9919
21
-130.862
0
LINE
8
BLACK
6
CONTINUOUS
10
97.9919
20
-130.862
11
97.9919
21
-131.434
0
LINE
8
BLACK
6
CONTINUOUS
10
97.9919
20
-131.434
11
97.8967
21
-131.624
0
LINE
8
BLACK
6
CONTINUOUS
10
97.8967
20
-131.624
11
97.8014
21
-131.72
0
LINE
8
BLACK
6
CONTINUOUS
10
97.8014
20
-131.72
11
97.611
21
-131.815
0
LINE
8
BLACK
6
CONTINUOUS
10
97.611
20
-131.815
11
97.3252
21
-131.815
0
LINE
8
BLACK
6
CONTINUOUS
10
98.5633
20
-130.481
11
99.3252
21
-130.481
0
LINE
8
BLACK
6
CONTINUOUS
10
98.849
20
-129.815
11
98.849
21
-131.529
0
LINE
8
BLACK
6
CONTINUOUS
10
98.849
20
-131.529
11
98.9443
21
-131.72
0
LINE
8
BLACK
6
CONTINUOUS
10
98.9443
20
-131.72
11
99.1348
21
-131.815
0
LINE
8
BLACK
6
CONTINUOUS
10
99.1348
20
-131.815
11
99.3252
21
-131.815
0
LINE
8
BLACK
6
CONTINUOUS
10
101.516
20
-130.481
11
101.516
21
-132.481
0
LINE
8
BLACK
6
CONTINUOUS
10
101.516
20
-130.577
11
101.706
21
-130.481
0
LINE
8
BLACK
6
CONTINUOUS
10
101.706
20
-130.481
11
102.087
21
-130.481
0
LINE
8
BLACK
6
CONTINUOUS
10
102.087
20
-130.481
11
102.278
21
-130.577
0
LINE
8
BLACK
6
CONTINUOUS
10
102.278
20
-130.577
11
102.373
21
-130.672
0
LINE
8
BLACK
6
CONTINUOUS
10
102.373
20
-130.672
11
102.468
21
-130.862
0
LINE
8
BLACK
6
CONTINUOUS
10
102.468
20
-130.862
11
102.468
21
-131.434
0
LINE
8
BLACK
6
CONTINUOUS
10
102.468
20
-131.434
11
102.373
21
-131.624
0
LINE
8
BLACK
6
CONTINUOUS
10
102.373
20
-131.624
11
102.278
21
-131.72
0
LINE
8
BLACK
6
CONTINUOUS
10
102.278
20
-131.72
11
102.087
21
-131.815
0
LINE
8
BLACK
6
CONTINUOUS
10
102.087
20
-131.815
11
101.706
21
-131.815
0
LINE
8
BLACK
6
CONTINUOUS
10
101.706
20
-131.815
11
101.516
21
-131.72
0
LINE
8
BLACK
6
CONTINUOUS
10
103.611
20
-131.815
11
103.42
21
-131.72
0
LINE
8
BLACK
6
CONTINUOUS
10
103.42
20
-131.72
11
103.325
21
-131.529
0
LINE
8
BLACK
6
CONTINUOUS
10
103.325
20
-131.529
11
103.325
21
-129.815
0
LINE
8
BLACK
6
CONTINUOUS
10
105.23
20
-131.815
11
105.23
21
-130.767
0
LINE
8
BLACK
6
CONTINUOUS
10
105.23
20
-130.767
11
105.135
21
-130.577
0
LINE
8
BLACK
6
CONTINUOUS
10
105.135
20
-130.577
11
104.944
21
-130.481
0
LINE
8
BLACK
6
CONTINUOUS
10
104.944
20
-130.481
11
104.563
21
-130.481
0
LINE
8
BLACK
6
CONTINUOUS
10
104.563
20
-130.481
11
104.373
21
-130.577
0
LINE
8
BLACK
6
CONTINUOUS
10
105.23
20
-131.72
11
105.04
21
-131.815
0
LINE
8
BLACK
6
CONTINUOUS
10
105.04
20
-131.815
11
104.563
21
-131.815
0
LINE
8
BLACK
6
CONTINUOUS
10
104.563
20
-131.815
11
104.373
21
-131.72
0
LINE
8
BLACK
6
CONTINUOUS
10
104.373
20
-131.72
11
104.278
21
-131.529
0
LINE
8
BLACK
6
CONTINUOUS
10
104.278
20
-131.529
11
104.278
21
-131.339
0
LINE
8
BLACK
6
CONTINUOUS
10
104.278
20
-131.339
11
104.373
21
-131.148
0
LINE
8
BLACK
6
CONTINUOUS
10
104.373
20
-131.148
11
104.563
21
-131.053
0
LINE
8
BLACK
6
CONTINUOUS
10
104.563
20
-131.053
11
105.04
21
-131.053
0
LINE
8
BLACK
6
CONTINUOUS
10
105.04
20
-131.053
11
105.23
21
-130.958
0
LINE
8
BLACK
6
CONTINUOUS
10
105.897
20
-130.481
11
106.659
21
-130.481
0
LINE
8
BLACK
6
CONTINUOUS
10
106.182
20
-129.815
11
106.182
21
-131.529
0
LINE
8
BLACK
6
CONTINUOUS
10
106.182
20
-131.529
11
106.278
21
-131.72
0
LINE
8
BLACK
6
CONTINUOUS
10
106.278
20
-131.72
11
106.468
21
-131.815
0
LINE
8
BLACK
6
CONTINUOUS
10
106.468
20
-131.815
11
106.659
21
-131.815
0
LINE
8
BLACK
6
CONTINUOUS
10
108.087
20
-131.72
11
107.897
21
-131.815
0
LINE
8
BLACK
6
CONTINUOUS
10
107.897
20
-131.815
11
107.516
21
-131.815
0
LINE
8
BLACK
6
CONTINUOUS
10
107.516
20
-131.815
11
107.325
21
-131.72
0
LINE
8
BLACK
6
CONTINUOUS
10
107.325
20
-131.72
11
107.23
21
-131.529
0
LINE
8
BLACK
6
CONTINUOUS
10
107.23
20
-131.529
11
107.23
21
-130.767
0
LINE
8
BLACK
6
CONTINUOUS
10
107.23
20
-130.767
11
107.325
21
-130.577
0
LINE
8
BLACK
6
CONTINUOUS
10
107.325
20
-130.577
11
107.516
21
-130.481
0
LINE
8
BLACK
6
CONTINUOUS
10
107.516
20
-130.481
11
107.897
21
-130.481
0
LINE
8
BLACK
6
CONTINUOUS
10
107.897
20
-130.481
11
108.087
21
-130.577
0
LINE
8
BLACK
6
CONTINUOUS
10
108.087
20
-130.577
11
108.182
21
-130.767
0
LINE
8
BLACK
6
CONTINUOUS
10
108.182
20
-130.767
11
108.182
21
-130.958
0
LINE
8
BLACK
6
CONTINUOUS
10
108.182
20
-130.958
11
107.23
21
-131.148
0
LINE
8
BLACK
6
CONTINUOUS
10
109.897
20
-131.815
11
109.897
21
-129.815
0
LINE
8
BLACK
6
CONTINUOUS
10
109.897
20
-131.72
11
109.706
21
-131.815
0
LINE
8
BLACK
6
CONTINUOUS
10
109.706
20
-131.815
11
109.325
21
-131.815
0
LINE
8
BLACK
6
CONTINUOUS
10
109.325
20
-131.815
11
109.135
21
-131.72
0
LINE
8
BLACK
6
CONTINUOUS
10
109.135
20
-131.72
11
109.04
21
-131.624
0
LINE
8
BLACK
6
CONTINUOUS
10
109.04
20
-131.624
11
108.944
21
-131.434
0
LINE
8
BLACK
6
CONTINUOUS
10
108.944
20
-131.434
11
108.944
21
-130.862
0
LINE
8
BLACK
6
CONTINUOUS
10
108.944
20
-130.862
11
109.04
21
-130.672
0
LINE
8
BLACK
6
CONTINUOUS
10
109.04
20
-130.672
11
109.135
21
-130.577
0
LINE
8
BLACK
6
CONTINUOUS
10
109.135
20
-130.577
11
109.325
21
-130.481
0
LINE
8
BLACK
6
CONTINUOUS
10
109.325
20
-130.481
11
109.706
21
-130.481
0
LINE
8
BLACK
6
CONTINUOUS
10
109.706
20
-130.481
11
109.897
21
-130.577
0
LINE
8
BLACK
6
CONTINUOUS
10
110.659
20
-132.577
11
110.754
21
-132.481
0
LINE
8
BLACK
6
CONTINUOUS
10
110.754
20
-132.481
11
110.944
21
-132.196
0
LINE
8
BLACK
6
CONTINUOUS
10
110.944
20
-132.196
11
111.04
21
-132.005
0
LINE
8
BLACK
6
CONTINUOUS
10
111.04
20
-132.005
11
111.135
21
-131.72
0
LINE
8
BLACK
6
CONTINUOUS
10
111.135
20
-131.72
11
111.23
21
-131.243
0
LINE
8
BLACK
6
CONTINUOUS
10
111.23
20
-131.243
11
111.23
21
-130.862
0
LINE
8
BLACK
6
CONTINUOUS
10
111.23
20
-130.862
11
111.135
21
-130.386
0
LINE
8
BLACK
6
CONTINUOUS
10
111.135
20
-130.386
11
111.04
21
-130.1
0
LINE
8
BLACK
6
CONTINUOUS
10
111.04
20
-130.1
11
110.944
21
-129.91
0
LINE
8
BLACK
6
CONTINUOUS
10
110.944
20
-129.91
11
110.754
21
-129.624
0
LINE
8
BLACK
6
CONTINUOUS
10
110.754
20
-129.624
11
110.659
21
-129.529
0
CIRCLE
8
BLACK
10
42.554
20
-133.55
40
0.576
0
LINE
8
BLACK
6
CONTINUOUS
10
46.7538
20
-134.455
11
45.611
21
-134.455
0
LINE
8
BLACK
6
CONTINUOUS
10
46.1824
20
-134.455
11
46.1824
21
-132.455
0
LINE
8
BLACK
6
CONTINUOUS
10
46.1824
20
-132.455
11
45.9919
21
-132.74
0
LINE
8
BLACK
6
CONTINUOUS
10
45.9919
20
-132.74
11
45.8014
21
-132.931
0
LINE
8
BLACK
6
CONTINUOUS
10
45.8014
20
-132.931
11
45.611
21
-133.026
0
LINE
8
BLACK
6
CONTINUOUS
10
47.611
20
-134.264
11
47.7062
21
-134.36
0
LINE
8
BLACK
6
CONTINUOUS
10
47.7062
20
-134.36
11
47.611
21
-134.455
0
LINE
8
BLACK
6
CONTINUOUS
10
47.611
20
-134.455
11
47.5157
21
-134.36
0
LINE
8
BLACK
6
CONTINUOUS
10
47.5157
20
-134.36
11
47.611
21
-134.264
0
LINE
8
BLACK
6
CONTINUOUS
10
47.611
20
-134.264
11
47.611
21
-134.455
0
LINE
8
BLACK
6
CONTINUOUS
10
49.611
20
-134.455
11
48.4681
21
-134.455
0
LINE
8
BLACK
6
CONTINUOUS
10
49.0395
20
-134.455
11
49.0395
21
-132.455
0
LINE
8
BLACK
6
CONTINUOUS
10
49.0395
20
-132.455
11
48.849
21
-132.74
0
LINE
8
BLACK
6
CONTINUOUS
10
48.849
20
-132.74
11
48.6586
21
-132.931
0
LINE
8
BLACK
6
CONTINUOUS
10
48.6586
20
-132.931
11
48.4681
21
-133.026
0
LINE
8
BLACK
6
CONTINUOUS
10
51.4205
20
-132.455
11
50.4681
21
-132.455
0
LINE
8
BLACK
6
CONTINUOUS
10
50.4681
20
-132.455
11
50.3729
21
-133.407
0
LINE
8
BLACK
6
CONTINUOUS
10
50.3729
20
-133.407
11
50.4681
21
-133.312
0
LINE
8
BLACK
6
CONTINUOUS
10
50.4681
20
-133.312
11
50.6586
21
-133.217
0
LINE
8
BLACK
6
CONTINUOUS
10
50.6586
20
-133.217
11
51.1348
21
-133.217
0
LINE
8
BLACK
6
CONTINUOUS
10
51.1348
20
-133.217
11
51.3252
21
-133.312
0
LINE
8
BLACK
6
CONTINUOUS
10
51.3252
20
-133.312
11
51.4205
21
-133.407
0
LINE
8
BLACK
6
CONTINUOUS
10
51.4205
20
-133.407
11
51.5157
21
-133.598
0
LINE
8
BLACK
6
CONTINUOUS
10
51.5157
20
-133.598
11
51.5157
21
-134.074
0
LINE
8
BLACK
6
CONTINUOUS
10
51.5157
20
-134.074
11
51.4205
21
-134.264
0
LINE
8
BLACK
6
CONTINUOUS
10
51.4205
20
-134.264
11
51.3252
21
-134.36
0
LINE
8
BLACK
6
CONTINUOUS
10
51.3252
20
-134.36
11
51.1348
21
-134.455
0
LINE
8
BLACK
6
CONTINUOUS
10
51.1348
20
-134.455
11
50.6586
21
-134.455
0
LINE
8
BLACK
6
CONTINUOUS
10
50.6586
20
-134.455
11
50.4681
21
-134.36
0
LINE
8
BLACK
6
CONTINUOUS
10
50.4681
20
-134.36
11
50.3729
21
-134.264
0
LINE
8
BLACK
6
CONTINUOUS
10
52.2776
20
-132.645
11
52.3729
21
-132.55
0
LINE
8
BLACK
6
CONTINUOUS
10
52.3729
20
-132.55
11
52.5633
21
-132.455
0
LINE
8
BLACK
6
CONTINUOUS
10
52.5633
20
-132.455
11
53.0395
21
-132.455
0
LINE
8
BLACK
6
CONTINUOUS
10
53.0395
20
-132.455
11
53.23
21
-132.55
0
LINE
8
BLACK
6
CONTINUOUS
10
53.23
20
-132.55
11
53.3252
21
-132.645
0
LINE
8
BLACK
6
CONTINUOUS
10
53.3252
20
-132.645
11
53.4205
21
-132.836
0
LINE
8
BLACK
6
CONTINUOUS
10
53.4205
20
-132.836
11
53.4205
21
-133.026
0
LINE
8
BLACK
6
CONTINUOUS
10
53.4205
20
-133.026
11
53.3252
21
-133.312
0
LINE
8
BLACK
6
CONTINUOUS
10
53.3252
20
-133.312
11
52.1824
21
-134.455
0
LINE
8
BLACK
6
CONTINUOUS
10
52.1824
20
-134.455
11
53.4205
21
-134.455
0
LINE
8
BLACK
6
CONTINUOUS
10
54.2776
20
-134.455
11
54.2776
21
-133.121
0
LINE
8
BLACK
6
CONTINUOUS
10
54.2776
20
-133.312
11
54.3729
21
-133.217
0
LINE
8
BLACK
6
CONTINUOUS
10
54.3729
20
-133.217
11
54.5633
21
-133.121
0
LINE
8
BLACK
6
CONTINUOUS
10
54.5633
20
-133.121
11
54.849
21
-133.121
0
LINE
8
BLACK
6
CONTINUOUS
10
54.849
20
-133.121
11
55.0395
21
-133.217
0
LINE
8
BLACK
6
CONTINUOUS
10
55.0395
20
-133.217
11
55.1348
21
-133.407
0
LINE
8
BLACK
6
CONTINUOUS
10
55.1348
20
-133.407
11
55.1348
21
-134.455
0
LINE
8
BLACK
6
CONTINUOUS
10
55.1348
20
-133.407
11
55.23
21
-133.217
0
LINE
8
BLACK
6
CONTINUOUS
10
55.23
20
-133.217
11
55.4205
21
-133.121
0
LINE
8
BLACK
6
CONTINUOUS
10
55.4205
20
-133.121
11
55.7062
21
-133.121
0
LINE
8
BLACK
6
CONTINUOUS
10
55.7062
20
-133.121
11
55.8967
21
-133.217
0
LINE
8
BLACK
6
CONTINUOUS
10
55.8967
20
-133.217
11
55.9919
21
-133.407
0
LINE
8
BLACK
6
CONTINUOUS
10
55.9919
20
-133.407
11
55.9919
21
-134.455
0
LINE
8
BLACK
6
CONTINUOUS
10
56.9443
20
-134.455
11
56.9443
21
-133.121
0
LINE
8
BLACK
6
CONTINUOUS
10
56.9443
20
-133.312
11
57.0395
21
-133.217
0
LINE
8
BLACK
6
CONTINUOUS
10
57.0395
20
-133.217
11
57.23
21
-133.121
0
LINE
8
BLACK
6
CONTINUOUS
10
57.23
20
-133.121
11
57.5157
21
-133.121
0
LINE
8
BLACK
6
CONTINUOUS
10
57.5157
20
-133.121
11
57.7062
21
-133.217
0
LINE
8
BLACK
6
CONTINUOUS
10
57.7062
20
-133.217
11
57.8014
21
-133.407
0
LINE
8
BLACK
6
CONTINUOUS
10
57.8014
20
-133.407
11
57.8014
21
-134.455
0
LINE
8
BLACK
6
CONTINUOUS
10
57.8014
20
-133.407
11
57.8967
21
-133.217
0
LINE
8
BLACK
6
CONTINUOUS
10
57.8967
20
-133.217
11
58.0871
21
-133.121
0
LINE
8
BLACK
6
CONTINUOUS
10
58.0871
20
-133.121
11
58.3729
21
-133.121
0
LINE
8
BLACK
6
CONTINUOUS
10
58.3729
20
-133.121
11
58.5633
21
-133.217
0
LINE
8
BLACK
6
CONTINUOUS
10
58.5633
20
-133.217
11
58.6586
21
-133.407
0
LINE
8
BLACK
6
CONTINUOUS
10
58.6586
20
-133.407
11
58.6586
21
-134.455
0
LINE
8
BLACK
6
CONTINUOUS
10
62.5633
20
-132.36
11
60.849
21
-134.931
0
LINE
8
BLACK
6
CONTINUOUS
10
65.1348
20
-132.455
11
65.3252
21
-132.455
0
LINE
8
BLACK
6
CONTINUOUS
10
65.3252
20
-132.455
11
65.5157
21
-132.55
0
LINE
8
BLACK
6
CONTINUOUS
10
65.5157
20
-132.55
11
65.611
21
-132.645
0
LINE
8
BLACK
6
CONTINUOUS
10
65.611
20
-132.645
11
65.7062
21
-132.836
0
LINE
8
BLACK
6
CONTINUOUS
10
65.7062
20
-132.836
11
65.8014
21
-133.217
0
LINE
8
BLACK
6
CONTINUOUS
10
65.8014
20
-133.217
11
65.8014
21
-133.693
0
LINE
8
BLACK
6
CONTINUOUS
10
65.8014
20
-133.693
11
65.7062
21
-134.074
0
LINE
8
BLACK
6
CONTINUOUS
10
65.7062
20
-134.074
11
65.611
21
-134.264
0
LINE
8
BLACK
6
CONTINUOUS
10
65.611
20
-134.264
11
65.5157
21
-134.36
0
LINE
8
BLACK
6
CONTINUOUS
10
65.5157
20
-134.36
11
65.3252
21
-134.455
0
LINE
8
BLACK
6
CONTINUOUS
10
65.3252
20
-134.455
11
65.1348
21
-134.455
0
LINE
8
BLACK
6
CONTINUOUS
10
65.1348
20
-134.455
11
64.9443
21
-134.36
0
LINE
8
BLACK
6
CONTINUOUS
10
64.9443
20
-134.36
11
64.849
21
-134.264
0
LINE
8
BLACK
6
CONTINUOUS
10
64.849
20
-134.264
11
64.7538
21
-134.074
0
LINE
8
BLACK
6
CONTINUOUS
10
64.7538
20
-134.074
11
64.6586
21
-133.693
0
LINE
8
BLACK
6
CONTINUOUS
10
64.6586
20
-133.693
11
64.6586
21
-133.217
0
LINE
8
BLACK
6
CONTINUOUS
10
64.6586
20
-133.217
11
64.7538
21
-132.836
0
LINE
8
BLACK
6
CONTINUOUS
10
64.7538
20
-132.836
11
64.849
21
-132.645
0
LINE
8
BLACK
6
CONTINUOUS
10
64.849
20
-132.645
11
64.9443
21
-132.55
0
LINE
8
BLACK
6
CONTINUOUS
10
64.9443
20
-132.55
11
65.1348
21
-132.455
0
LINE
8
BLACK
6
CONTINUOUS
10
66.6586
20
-134.264
11
66.7538
21
-134.36
0
LINE
8
BLACK
6
CONTINUOUS
10
66.7538
20
-134.36
11
66.6586
21
-134.455
0
LINE
8
BLACK
6
CONTINUOUS
10
66.6586
20
-134.455
11
66.5633
21
-134.36
0
LINE
8
BLACK
6
CONTINUOUS
10
66.5633
20
-134.36
11
66.6586
21
-134.264
0
LINE
8
BLACK
6
CONTINUOUS
10
66.6586
20
-134.264
11
66.6586
21
-134.455
0
LINE
8
BLACK
6
CONTINUOUS
10
67.9919
20
-132.455
11
68.1824
21
-132.455
0
LINE
8
BLACK
6
CONTINUOUS
10
68.1824
20
-132.455
11
68.3729
21
-132.55
0
LINE
8
BLACK
6
CONTINUOUS
10
68.3729
20
-132.55
11
68.4681
21
-132.645
0
LINE
8
BLACK
6
CONTINUOUS
10
68.4681
20
-132.645
11
68.5633
21
-132.836
0
LINE
8
BLACK
6
CONTINUOUS
10
68.5633
20
-132.836
11
68.6586
21
-133.217
0
LINE
8
BLACK
6
CONTINUOUS
10
68.6586
20
-133.217
11
68.6586
21
-133.693
0
LINE
8
BLACK
6
CONTINUOUS
10
68.6586
20
-133.693
11
68.5633
21
-134.074
0
LINE
8
BLACK
6
CONTINUOUS
10
68.5633
20
-134.074
11
68.4681
21
-134.264
0
LINE
8
BLACK
6
CONTINUOUS
10
68.4681
20
-134.264
11
68.3729
21
-134.36
0
LINE
8
BLACK
6
CONTINUOUS
10
68.3729
20
-134.36
11
68.1824
21
-134.455
0
LINE
8
BLACK
6
CONTINUOUS
10
68.1824
20
-134.455
11
67.9919
21
-134.455
0
LINE
8
BLACK
6
CONTINUOUS
10
67.9919
20
-134.455
11
67.8014
21
-134.36
0
LINE
8
BLACK
6
CONTINUOUS
10
67.8014
20
-134.36
11
67.7062
21
-134.264
0
LINE
8
BLACK
6
CONTINUOUS
10
67.7062
20
-134.264
11
67.611
21
-134.074
0
LINE
8
BLACK
6
CONTINUOUS
10
67.611
20
-134.074
11
67.5157
21
-133.693
0
LINE
8
BLACK
6
CONTINUOUS
10
67.5157
20
-133.693
11
67.5157
21
-133.217
0
LINE
8
BLACK
6
CONTINUOUS
10
67.5157
20
-133.217
11
67.611
21
-132.836
0
LINE
8
BLACK
6
CONTINUOUS
10
67.611
20
-132.836
11
67.7062
21
-132.645
0
LINE
8
BLACK
6
CONTINUOUS
10
67.7062
20
-132.645
11
67.8014
21
-132.55
0
LINE
8
BLACK
6
CONTINUOUS
10
67.8014
20
-132.55
11
67.9919
21
-132.455
0
LINE
8
BLACK
6
CONTINUOUS
10
70.3729
20
-133.121
11
70.3729
21
-134.455
0
LINE
8
BLACK
6
CONTINUOUS
10
69.8967
20
-132.36
11
69.4205
21
-133.788
0
LINE
8
BLACK
6
CONTINUOUS
10
69.4205
20
-133.788
11
70.6586
21
-133.788
0
LINE
8
BLACK
6
CONTINUOUS
10
72.3729
20
-132.455
11
71.4205
21
-132.455
0
LINE
8
BLACK
6
CONTINUOUS
10
71.4205
20
-132.455
11
71.3252
21
-133.407
0
LINE
8
BLACK
6
CONTINUOUS
10
71.3252
20
-133.407
11
71.4205
21
-133.312
0
LINE
8
BLACK
6
CONTINUOUS
10
71.4205
20
-133.312
11
71.611
21
-133.217
0
LINE
8
BLACK
6
CONTINUOUS
10
71.611
20
-133.217
11
72.0871
21
-133.217
0
LINE
8
BLACK
6
CONTINUOUS
10
72.0871
20
-133.217
11
72.2776
21
-133.312
0
LINE
8
BLACK
6
CONTINUOUS
10
72.2776
20
-133.312
11
72.3729
21
-133.407
0
LINE
8
BLACK
6
CONTINUOUS
10
72.3729
20
-133.407
11
72.4681
21
-133.598
0
LINE
8
BLACK
6
CONTINUOUS
10
72.4681
20
-133.598
11
72.4681
21
-134.074
0
LINE
8
BLACK
6
CONTINUOUS
10
72.4681
20
-134.074
11
72.3729
21
-134.264
0
LINE
8
BLACK
6
CONTINUOUS
10
72.3729
20
-134.264
11
72.2776
21
-134.36
0
LINE
8
BLACK
6
CONTINUOUS
10
72.2776
20
-134.36
11
72.0871
21
-134.455
0
LINE
8
BLACK
6
CONTINUOUS
10
72.0871
20
-134.455
11
71.611
21
-134.455
0
LINE
8
BLACK
6
CONTINUOUS
10
71.611
20
-134.455
11
71.4205
21
-134.36
0
LINE
8
BLACK
6
CONTINUOUS
10
71.4205
20
-134.36
11
71.3252
21
-134.264
0
LINE
8
BLACK
6
CONTINUOUS
10
74.1824
20
-133.121
11
74.1824
21
-134.455
0
LINE
8
BLACK
6
CONTINUOUS
10
73.7062
20
-132.36
11
73.23
21
-133.788
0
LINE
8
BLACK
6
CONTINUOUS
10
73.23
20
-133.788
11
74.4681
21
-133.788
0
LINE
8
BLACK
6
CONTINUOUS
10
75.1348
20
-132.455
11
75.1348
21
-132.836
0
LINE
8
BLACK
6
CONTINUOUS
10
75.8967
20
-132.455
11
75.8967
21
-132.836
0
LINE
8
BLACK
6
CONTINUOUS
10
78.849
20
-135.217
11
78.7538
21
-135.121
0
LINE
8
BLACK
6
CONTINUOUS
10
78.7538
20
-135.121
11
78.5633
21
-134.836
0
LINE
8
BLACK
6
CONTINUOUS
10
78.5633
20
-134.836
11
78.4681
21
-134.645
0
LINE
8
BLACK
6
CONTINUOUS
10
78.4681
20
-134.645
11
78.3729
21
-134.36
0
LINE
8
BLACK
6
CONTINUOUS
10
78.3729
20
-134.36
11
78.2776
21
-133.883
0
LINE
8
BLACK
6
CONTINUOUS
10
78.2776
20
-133.883
11
78.2776
21
-133.502
0
LINE
8
BLACK
6
CONTINUOUS
10
78.2776
20
-133.502
11
78.3729
21
-133.026
0
LINE
8
BLACK
6
CONTINUOUS
10
78.3729
20
-133.026
11
78.4681
21
-132.74
0
LINE
8
BLACK
6
CONTINUOUS
10
78.4681
20
-132.74
11
78.5633
21
-132.55
0
LINE
8
BLACK
6
CONTINUOUS
10
78.5633
20
-132.55
11
78.7538
21
-132.264
0
LINE
8
BLACK
6
CONTINUOUS
10
78.7538
20
-132.264
11
78.849
21
-132.169
0
LINE
8
BLACK
6
CONTINUOUS
10
80.4681
20
-133.121
11
80.4681
21
-134.455
0
LINE
8
BLACK
6
CONTINUOUS
10
79.9919
20
-132.36
11
79.5157
21
-133.788
0
LINE
8
BLACK
6
CONTINUOUS
10
79.5157
20
-133.788
11
80.7538
21
-133.788
0
LINE
8
BLACK
6
CONTINUOUS
10
83.0395
20
-134.455
11
83.0395
21
-132.455
0
LINE
8
BLACK
6
CONTINUOUS
10
83.8967
20
-134.455
11
83.8967
21
-133.407
0
LINE
8
BLACK
6
CONTINUOUS
10
83.8967
20
-133.407
11
83.8014
21
-133.217
0
LINE
8
BLACK
6
CONTINUOUS
10
83.8014
20
-133.217
11
83.611
21
-133.121
0
LINE
8
BLACK
6
CONTINUOUS
10
83.611
20
-133.121
11
83.3252
21
-133.121
0
LINE
8
BLACK
6
CONTINUOUS
10
83.3252
20
-133.121
11
83.1348
21
-133.217
0
LINE
8
BLACK
6
CONTINUOUS
10
83.1348
20
-133.217
11
83.0395
21
-133.312
0
LINE
8
BLACK
6
CONTINUOUS
10
85.1348
20
-134.455
11
84.9443
21
-134.36
0
LINE
8
BLACK
6
CONTINUOUS
10
84.9443
20
-134.36
11
84.849
21
-134.264
0
LINE
8
BLACK
6
CONTINUOUS
10
84.849
20
-134.264
11
84.7538
21
-134.074
0
LINE
8
BLACK
6
CONTINUOUS
10
84.7538
20
-134.074
11
84.7538
21
-133.502
0
LINE
8
BLACK
6
CONTINUOUS
10
84.7538
20
-133.502
11
84.849
21
-133.312
0
LINE
8
BLACK
6
CONTINUOUS
10
84.849
20
-133.312
11
84.9443
21
-133.217
0
LINE
8
BLACK
6
CONTINUOUS
10
84.9443
20
-133.217
11
85.1348
21
-133.121
0
LINE
8
BLACK
6
CONTINUOUS
10
85.1348
20
-133.121
11
85.4205
21
-133.121
0
LINE
8
BLACK
6
CONTINUOUS
10
85.4205
20
-133.121
11
85.611
21
-133.217
0
LINE
8
BLACK
6
CONTINUOUS
10
85.611
20
-133.217
11
85.7062
21
-133.312
0
LINE
8
BLACK
6
CONTINUOUS
10
85.7062
20
-133.312
11
85.8014
21
-133.502
0
LINE
8
BLACK
6
CONTINUOUS
10
85.8014
20
-133.502
11
85.8014
21
-134.074
0
LINE
8
BLACK
6
CONTINUOUS
10
85.8014
20
-134.074
11
85.7062
21
-134.264
0
LINE
8
BLACK
6
CONTINUOUS
10
85.7062
20
-134.264
11
85.611
21
-134.36
0
LINE
8
BLACK
6
CONTINUOUS
10
85.611
20
-134.36
11
85.4205
21
-134.455
0
LINE
8
BLACK
6
CONTINUOUS
10
85.4205
20
-134.455
11
85.1348
21
-134.455
0
LINE
8
BLACK
6
CONTINUOUS
10
86.9443
20
-134.455
11
86.7538
21
-134.36
0
LINE
8
BLACK
6
CONTINUOUS
10
86.7538
20
-134.36
11
86.6586
21
-134.169
0
LINE
8
BLACK
6
CONTINUOUS
10
86.6586
20
-134.169
11
86.6586
21
-132.455
0
LINE
8
BLACK
6
CONTINUOUS
10
88.4681
20
-134.36
11
88.2776
21
-134.455
0
LINE
8
BLACK
6
CONTINUOUS
10
88.2776
20
-134.455
11
87.8967
21
-134.455
0
LINE
8
BLACK
6
CONTINUOUS
10
87.8967
20
-134.455
11
87.7062
21
-134.36
0
LINE
8
BLACK
6
CONTINUOUS
10
87.7062
20
-134.36
11
87.611
21
-134.169
0
LINE
8
BLACK
6
CONTINUOUS
10
87.611
20
-134.169
11
87.611
21
-133.407
0
LINE
8
BLACK
6
CONTINUOUS
10
87.611
20
-133.407
11
87.7062
21
-133.217
0
LINE
8
BLACK
6
CONTINUOUS
10
87.7062
20
-133.217
11
87.8967
21
-133.121
0
LINE
8
BLACK
6
CONTINUOUS
10
87.8967
20
-133.121
11
88.2776
21
-133.121
0
LINE
8
BLACK
6
CONTINUOUS
10
88.2776
20
-133.121
11
88.4681
21
-133.217
0
LINE
8
BLACK
6
CONTINUOUS
10
88.4681
20
-133.217
11
88.5633
21
-133.407
0
LINE
8
BLACK
6
CONTINUOUS
10
88.5633
20
-133.407
11
88.5633
21
-133.598
0
LINE
8
BLACK
6
CONTINUOUS
10
88.5633
20
-133.598
11
87.611
21
-133.788
0
LINE
8
BLACK
6
CONTINUOUS
10
89.3252
20
-134.36
11
89.5157
21
-134.455
0
LINE
8
BLACK
6
CONTINUOUS
10
89.5157
20
-134.455
11
89.8967
21
-134.455
0
LINE
8
BLACK
6
CONTINUOUS
10
89.8967
20
-134.455
11
90.0871
21
-134.36
0
LINE
8
BLACK
6
CONTINUOUS
10
90.0871
20
-134.36
11
90.1824
21
-134.169
0
LINE
8
BLACK
6
CONTINUOUS
10
90.1824
20
-134.169
11
90.1824
21
-134.074
0
LINE
8
BLACK
6
CONTINUOUS
10
90.1824
20
-134.074
11
90.0871
21
-133.883
0
LINE
8
BLACK
6
CONTINUOUS
10
90.0871
20
-133.883
11
89.8967
21
-133.788
0
LINE
8
BLACK
6
CONTINUOUS
10
89.8967
20
-133.788
11
89.611
21
-133.788
0
LINE
8
BLACK
6
CONTINUOUS
10
89.611
20
-133.788
11
89.4205
21
-133.693
0
LINE
8
BLACK
6
CONTINUOUS
10
89.4205
20
-133.693
11
89.3252
21
-133.502
0
LINE
8
BLACK
6
CONTINUOUS
10
89.3252
20
-133.502
11
89.3252
21
-133.407
0
LINE
8
BLACK
6
CONTINUOUS
10
89.3252
20
-133.407
11
89.4205
21
-133.217
0
LINE
8
BLACK
6
CONTINUOUS
10
89.4205
20
-133.217
11
89.611
21
-133.121
0
LINE
8
BLACK
6
CONTINUOUS
10
89.611
20
-133.121
11
89.8967
21
-133.121
0
LINE
8
BLACK
6
CONTINUOUS
10
89.8967
20
-133.121
11
90.0871
21
-133.217
0
LINE
8
BLACK
6
CONTINUOUS
10
90.849
20
-135.217
11
90.9443
21
-135.121
0
LINE
8
BLACK
6
CONTINUOUS
10
90.9443
20
-135.121
11
91.1348
21
-134.836
0
LINE
8
BLACK
6
CONTINUOUS
10
91.1348
20
-134.836
11
91.23
21
-134.645
0
LINE
8
BLACK
6
CONTINUOUS
10
91.23
20
-134.645
11
91.3252
21
-134.36
0
LINE
8
BLACK
6
CONTINUOUS
10
91.3252
20
-134.36
11
91.4205
21
-133.883
0
LINE
8
BLACK
6
CONTINUOUS
10
91.4205
20
-133.883
11
91.4205
21
-133.502
0
LINE
8
BLACK
6
CONTINUOUS
10
91.4205
20
-133.502
11
91.3252
21
-133.026
0
LINE
8
BLACK
6
CONTINUOUS
10
91.3252
20
-133.026
11
91.23
21
-132.74
0
LINE
8
BLACK
6
CONTINUOUS
10
91.23
20
-132.74
11
91.1348
21
-132.55
0
LINE
8
BLACK
6
CONTINUOUS
10
91.1348
20
-132.55
11
90.9443
21
-132.264
0
LINE
8
BLACK
6
CONTINUOUS
10
90.9443
20
-132.264
11
90.849
21
-132.169
0
LINE
8
BLACK
6
CONTINUOUS
10
94.4681
20
-135.217
11
94.3729
21
-135.121
0
LINE
8
BLACK
6
CONTINUOUS
10
94.3729
20
-135.121
11
94.1824
21
-134.836
0
LINE
8
BLACK
6
CONTINUOUS
10
94.1824
20
-134.836
11
94.0871
21
-134.645
0
LINE
8
BLACK
6
CONTINUOUS
10
94.0871
20
-134.645
11
93.9919
21
-134.36
0
LINE
8
BLACK
6
CONTINUOUS
10
93.9919
20
-134.36
11
93.8967
21
-133.883
0
LINE
8
BLACK
6
CONTINUOUS
10
93.8967
20
-133.883
11
93.8967
21
-133.502
0
LINE
8
BLACK
6
CONTINUOUS
10
93.8967
20
-133.502
11
93.9919
21
-133.026
0
LINE
8
BLACK
6
CONTINUOUS
10
93.9919
20
-133.026
11
94.0871
21
-132.74
0
LINE
8
BLACK
6
CONTINUOUS
10
94.0871
20
-132.74
11
94.1824
21
-132.55
0
LINE
8
BLACK
6
CONTINUOUS
10
94.1824
20
-132.55
11
94.3729
21
-132.264
0
LINE
8
BLACK
6
CONTINUOUS
10
94.3729
20
-132.264
11
94.4681
21
-132.169
0
LINE
8
BLACK
6
CONTINUOUS
10
95.23
20
-133.121
11
95.23
21
-134.455
0
LINE
8
BLACK
6
CONTINUOUS
10
95.23
20
-133.312
11
95.3252
21
-133.217
0
LINE
8
BLACK
6
CONTINUOUS
10
95.3252
20
-133.217
11
95.5157
21
-133.121
0
LINE
8
BLACK
6
CONTINUOUS
10
95.5157
20
-133.121
11
95.8014
21
-133.121
0
LINE
8
BLACK
6
CONTINUOUS
10
95.8014
20
-133.121
11
95.9919
21
-133.217
0
LINE
8
BLACK
6
CONTINUOUS
10
95.9919
20
-133.217
11
96.0871
21
-133.407
0
LINE
8
BLACK
6
CONTINUOUS
10
96.0871
20
-133.407
11
96.0871
21
-134.455
0
LINE
8
BLACK
6
CONTINUOUS
10
97.3252
20
-134.455
11
97.1348
21
-134.36
0
LINE
8
BLACK
6
CONTINUOUS
10
97.1348
20
-134.36
11
97.0395
21
-134.264
0
LINE
8
BLACK
6
CONTINUOUS
10
97.0395
20
-134.264
11
96.9443
21
-134.074
0
LINE
8
BLACK
6
CONTINUOUS
10
96.9443
20
-134.074
11
96.9443
21
-133.502
0
LINE
8
BLACK
6
CONTINUOUS
10
96.9443
20
-133.502
11
97.0395
21
-133.312
0
LINE
8
BLACK
6
CONTINUOUS
10
97.0395
20
-133.312
11
97.1348
21
-133.217
0
LINE
8
BLACK
6
CONTINUOUS
10
97.1348
20
-133.217
11
97.3252
21
-133.121
0
LINE
8
BLACK
6
CONTINUOUS
10
97.3252
20
-133.121
11
97.611
21
-133.121
0
LINE
8
BLACK
6
CONTINUOUS
10
97.611
20
-133.121
11
97.8014
21
-133.217
0
LINE
8
BLACK
6
CONTINUOUS
10
97.8014
20
-133.217
11
97.8967
21
-133.312
0
LINE
8
BLACK
6
CONTINUOUS
10
97.8967
20
-133.312
11
97.9919
21
-133.502
0
LINE
8
BLACK
6
CONTINUOUS
10
97.9919
20
-133.502
11
97.9919
21
-134.074
0
LINE
8
BLACK
6
CONTINUOUS
10
97.9919
20
-134.074
11
97.8967
21
-134.264
0
LINE
8
BLACK
6
CONTINUOUS
10
97.8967
20
-134.264
11
97.8014
21
-134.36
0
LINE
8
BLACK
6
CONTINUOUS
10
97.8014
20
-134.36
11
97.611
21
-134.455
0
LINE
8
BLACK
6
CONTINUOUS
10
97.611
20
-134.455
11
97.3252
21
-134.455
0
LINE
8
BLACK
6
CONTINUOUS
10
98.5633
20
-133.121
11
99.3252
21
-133.121
0
LINE
8
BLACK
6
CONTINUOUS
10
98.849
20
-132.455
11
98.849
21
-134.169
0
LINE
8
BLACK
6
CONTINUOUS
10
98.849
20
-134.169
11
98.9443
21
-134.36
0
LINE
8
BLACK
6
CONTINUOUS
10
98.9443
20
-134.36
11
99.1348
21
-134.455
0
LINE
8
BLACK
6
CONTINUOUS
10
99.1348
20
-134.455
11
99.3252
21
-134.455
0
LINE
8
BLACK
6
CONTINUOUS
10
101.516
20
-133.121
11
101.516
21
-135.121
0
LINE
8
BLACK
6
CONTINUOUS
10
101.516
20
-133.217
11
101.706
21
-133.121
0
LINE
8
BLACK
6
CONTINUOUS
10
101.706
20
-133.121
11
102.087
21
-133.121
0
LINE
8
BLACK
6
CONTINUOUS
10
102.087
20
-133.121
11
102.278
21
-133.217
0
LINE
8
BLACK
6
CONTINUOUS
10
102.278
20
-133.217
11
102.373
21
-133.312
0
LINE
8
BLACK
6
CONTINUOUS
10
102.373
20
-133.312
11
102.468
21
-133.502
0
LINE
8
BLACK
6
CONTINUOUS
10
102.468
20
-133.502
11
102.468
21
-134.074
0
LINE
8
BLACK
6
CONTINUOUS
10
102.468
20
-134.074
11
102.373
21
-134.264
0
LINE
8
BLACK
6
CONTINUOUS
10
102.373
20
-134.264
11
102.278
21
-134.36
0
LINE
8
BLACK
6
CONTINUOUS
10
102.278
20
-134.36
11
102.087
21
-134.455
0
LINE
8
BLACK
6
CONTINUOUS
10
102.087
20
-134.455
11
101.706
21
-134.455
0
LINE
8
BLACK
6
CONTINUOUS
10
101.706
20
-134.455
11
101.516
21
-134.36
0
LINE
8
BLACK
6
CONTINUOUS
10
103.611
20
-134.455
11
103.42
21
-134.36
0
LINE
8
BLACK
6
CONTINUOUS
10
103.42
20
-134.36
11
103.325
21
-134.169
0
LINE
8
BLACK
6
CONTINUOUS
10
103.325
20
-134.169
11
103.325
21
-132.455
0
LINE
8
BLACK
6
CONTINUOUS
10
105.23
20
-134.455
11
105.23
21
-133.407
0
LINE
8
BLACK
6
CONTINUOUS
10
105.23
20
-133.407
11
105.135
21
-133.217
0
LINE
8
BLACK
6
CONTINUOUS
10
105.135
20
-133.217
11
104.944
21
-133.121
0
LINE
8
BLACK
6
CONTINUOUS
10
104.944
20
-133.121
11
104.563
21
-133.121
0
LINE
8
BLACK
6
CONTINUOUS
10
104.563
20
-133.121
11
104.373
21
-133.217
0
LINE
8
BLACK
6
CONTINUOUS
10
105.23
20
-134.36
11
105.04
21
-134.455
0
LINE
8
BLACK
6
CONTINUOUS
10
105.04
20
-134.455
11
104.563
21
-134.455
0
LINE
8
BLACK
6
CONTINUOUS
10
104.563
20
-134.455
11
104.373
21
-134.36
0
LINE
8
BLACK
6
CONTINUOUS
10
104.373
20
-134.36
11
104.278
21
-134.169
0
LINE
8
BLACK
6
CONTINUOUS
10
104.278
20
-134.169
11
104.278
21
-133.979
0
LINE
8
BLACK
6
CONTINUOUS
10
104.278
20
-133.979
11
104.373
21
-133.788
0
LINE
8
BLACK
6
CONTINUOUS
10
104.373
20
-133.788
11
104.563
21
-133.693
0
LINE
8
BLACK
6
CONTINUOUS
10
104.563
20
-133.693
11
105.04
21
-133.693
0
LINE
8
BLACK
6
CONTINUOUS
10
105.04
20
-133.693
11
105.23
21
-133.598
0
LINE
8
BLACK
6
CONTINUOUS
10
105.897
20
-133.121
11
106.659
21
-133.121
0
LINE
8
BLACK
6
CONTINUOUS
10
106.182
20
-132.455
11
106.182
21
-134.169
0
LINE
8
BLACK
6
CONTINUOUS
10
106.182
20
-134.169
11
106.278
21
-134.36
0
LINE
8
BLACK
6
CONTINUOUS
10
106.278
20
-134.36
11
106.468
21
-134.455
0
LINE
8
BLACK
6
CONTINUOUS
10
106.468
20
-134.455
11
106.659
21
-134.455
0
LINE
8
BLACK
6
CONTINUOUS
10
108.087
20
-134.36
11
107.897
21
-134.455
0
LINE
8
BLACK
6
CONTINUOUS
10
107.897
20
-134.455
11
107.516
21
-134.455
0
LINE
8
BLACK
6
CONTINUOUS
10
107.516
20
-134.455
11
107.325
21
-134.36
0
LINE
8
BLACK
6
CONTINUOUS
10
107.325
20
-134.36
11
107.23
21
-134.169
0
LINE
8
BLACK
6
CONTINUOUS
10
107.23
20
-134.169
11
107.23
21
-133.407
0
LINE
8
BLACK
6
CONTINUOUS
10
107.23
20
-133.407
11
107.325
21
-133.217
0
LINE
8
BLACK
6
CONTINUOUS
10
107.325
20
-133.217
11
107.516
21
-133.121
0
LINE
8
BLACK
6
CONTINUOUS
10
107.516
20
-133.121
11
107.897
21
-133.121
0
LINE
8
BLACK
6
CONTINUOUS
10
107.897
20
-133.121
11
108.087
21
-133.217
0
LINE
8
BLACK
6
CONTINUOUS
10
108.087
20
-133.217
11
108.182
21
-133.407
0
LINE
8
BLACK
6
CONTINUOUS
10
108.182
20
-133.407
11
108.182
21
-133.598
0
LINE
8
BLACK
6
CONTINUOUS
10
108.182
20
-133.598
11
107.23
21
-133.788
0
LINE
8
BLACK
6
CONTINUOUS
10
109.897
20
-134.455
11
109.897
21
-132.455
0
LINE
8
BLACK
6
CONTINUOUS
10
109.897
20
-134.36
11
109.706
21
-134.455
0
LINE
8
BLACK
6
CONTINUOUS
10
109.706
20
-134.455
11
109.325
21
-134.455
0
LINE
8
BLACK
6
CONTINUOUS
10
109.325
20
-134.455
11
109.135
21
-134.36
0
LINE
8
BLACK
6
CONTINUOUS
10
109.135
20
-134.36
11
109.04
21
-134.264
0
LINE
8
BLACK
6
CONTINUOUS
10
109.04
20
-134.264
11
108.944
21
-134.074
0
LINE
8
BLACK
6
CONTINUOUS
10
108.944
20
-134.074
11
108.944
21
-133.502
0
LINE
8
BLACK
6
CONTINUOUS
10
108.944
20
-133.502
11
109.04
21
-133.312
0
LINE
8
BLACK
6
CONTINUOUS
10
109.04
20
-133.312
11
109.135
21
-133.217
0
LINE
8
BLACK
6
CONTINUOUS
10
109.135
20
-133.217
11
109.325
21
-133.121
0
LINE
8
BLACK
6
CONTINUOUS
10
109.325
20
-133.121
11
109.706
21
-133.121
0
LINE
8
BLACK
6
CONTINUOUS
10
109.706
20
-133.121
11
109.897
21
-133.217
0
LINE
8
BLACK
6
CONTINUOUS
10
110.659
20
-135.217
11
110.754
21
-135.121
0
LINE
8
BLACK
6
CONTINUOUS
10
110.754
20
-135.121
11
110.944
21
-134.836
0
LINE
8
BLACK
6
CONTINUOUS
10
110.944
20
-134.836
11
111.04
21
-134.645
0
LINE
8
BLACK
6
CONTINUOUS
10
111.04
20
-134.645
11
111.135
21
-134.36
0
LINE
8
BLACK
6
CONTINUOUS
10
111.135
20
-134.36
11
111.23
21
-133.883
0
LINE
8
BLACK
6
CONTINUOUS
10
111.23
20
-133.883
11
111.23
21
-133.502
0
LINE
8
BLACK
6
CONTINUOUS
10
111.23
20
-133.502
11
111.135
21
-133.026
0
LINE
8
BLACK
6
CONTINUOUS
10
111.135
20
-133.026
11
111.04
21
-132.74
0
LINE
8
BLACK
6
CONTINUOUS
10
111.04
20
-132.74
11
110.944
21
-132.55
0
LINE
8
BLACK
6
CONTINUOUS
10
110.944
20
-132.55
11
110.754
21
-132.264
0
LINE
8
BLACK
6
CONTINUOUS
10
110.754
20
-132.264
11
110.659
21
-132.169
0
LINE
8
BLACK
6
CONTINUOUS
10
42.13
20
-135.19
11
42.13
21
-137.19
0
LINE
8
BLACK
6
CONTINUOUS
10
41.13
20
-136.19
11
43.13
21
-136.19
0
LINE
8
BLACK
6
CONTINUOUS
10
45.611
20
-135.285
11
45.7062
21
-135.19
0
LINE
8
BLACK
6
CONTINUOUS
10
45.7062
20
-135.19
11
45.8967
21
-135.095
0
LINE
8
BLACK
6
CONTINUOUS
10
45.8967
20
-135.095
11
46.3729
21
-135.095
0
LINE
8
BLACK
6
CONTINUOUS
10
46.3729
20
-135.095
11
46.5633
21
-135.19
0
LINE
8
BLACK
6
CONTINUOUS
10
46.5633
20
-135.19
11
46.6586
21
-135.285
0
LINE
8
BLACK
6
CONTINUOUS
10
46.6586
20
-135.285
11
46.7538
21
-135.476
0
LINE
8
BLACK
6
CONTINUOUS
10
46.7538
20
-135.476
11
46.7538
21
-135.666
0
LINE
8
BLACK
6
CONTINUOUS
10
46.7538
20
-135.666
11
46.6586
21
-135.952
0
LINE
8
BLACK
6
CONTINUOUS
10
46.6586
20
-135.952
11
45.5157
21
-137.095
0
LINE
8
BLACK
6
CONTINUOUS
10
45.5157
20
-137.095
11
46.7538
21
-137.095
0
LINE
8
BLACK
6
CONTINUOUS
10
47.611
20
-136.904
11
47.7062
21
-137
0
LINE
8
BLACK
6
CONTINUOUS
10
47.7062
20
-137
11
47.611
21
-137.095
0
LINE
8
BLACK
6
CONTINUOUS
10
47.611
20
-137.095
11
47.5157
21
-137
0
LINE
8
BLACK
6
CONTINUOUS
10
47.5157
20
-137
11
47.611
21
-136.904
0
LINE
8
BLACK
6
CONTINUOUS
10
47.611
20
-136.904
11
47.611
21
-137.095
0
LINE
8
BLACK
6
CONTINUOUS
10
48.4681
20
-135.285
11
48.5633
21
-135.19
0
LINE
8
BLACK
6
CONTINUOUS
10
48.5633
20
-135.19
11
48.7538
21
-135.095
0
LINE
8
BLACK
6
CONTINUOUS
10
48.7538
20
-135.095
11
49.23
21
-135.095
0
LINE
8
BLACK
6
CONTINUOUS
10
49.23
20
-135.095
11
49.4205
21
-135.19
0
LINE
8
BLACK
6
CONTINUOUS
10
49.4205
20
-135.19
11
49.5157
21
-135.285
0
LINE
8
BLACK
6
CONTINUOUS
10
49.5157
20
-135.285
11
49.611
21
-135.476
0
LINE
8
BLACK
6
CONTINUOUS
10
49.611
20
-135.476
11
49.611
21
-135.666
0
LINE
8
BLACK
6
CONTINUOUS
10
49.611
20
-135.666
11
49.5157
21
-135.952
0
LINE
8
BLACK
6
CONTINUOUS
10
49.5157
20
-135.952
11
48.3729
21
-137.095
0
LINE
8
BLACK
6
CONTINUOUS
10
48.3729
20
-137.095
11
49.611
21
-137.095
0
LINE
8
BLACK
6
CONTINUOUS
10
50.849
20
-135.095
11
51.0395
21
-135.095
0
LINE
8
BLACK
6
CONTINUOUS
10
51.0395
20
-135.095
11
51.23
21
-135.19
0
LINE
8
BLACK
6
CONTINUOUS
10
51.23
20
-135.19
11
51.3252
21
-135.285
0
LINE
8
BLACK
6
CONTINUOUS
10
51.3252
20
-135.285
11
51.4205
21
-135.476
0
LINE
8
BLACK
6
CONTINUOUS
10
51.4205
20
-135.476
11
51.5157
21
-135.857
0
LINE
8
BLACK
6
CONTINUOUS
10
51.5157
20
-135.857
11
51.5157
21
-136.333
0
LINE
8
BLACK
6
CONTINUOUS
10
51.5157
20
-136.333
11
51.4205
21
-136.714
0
LINE
8
BLACK
6
CONTINUOUS
10
51.4205
20
-136.714
11
51.3252
21
-136.904
0
LINE
8
BLACK
6
CONTINUOUS
10
51.3252
20
-136.904
11
51.23
21
-137
0
LINE
8
BLACK
6
CONTINUOUS
10
51.23
20
-137
11
51.0395
21
-137.095
0
LINE
8
BLACK
6
CONTINUOUS
10
51.0395
20
-137.095
11
50.849
21
-137.095
0
LINE
8
BLACK
6
CONTINUOUS
10
50.849
20
-137.095
11
50.6586
21
-137
0
LINE
8
BLACK
6
CONTINUOUS
10
50.6586
20
-137
11
50.5633
21
-136.904
0
LINE
8
BLACK
6
CONTINUOUS
10
50.5633
20
-136.904
11
50.4681
21
-136.714
0
LINE
8
BLACK
6
CONTINUOUS
10
50.4681
20
-136.714
11
50.3729
21
-136.333
0
LINE
8
BLACK
6
CONTINUOUS
10
50.3729
20
-136.333
11
50.3729
21
-135.857
0
LINE
8
BLACK
6
CONTINUOUS
10
50.3729
20
-135.857
11
50.4681
21
-135.476
0
LINE
8
BLACK
6
CONTINUOUS
10
50.4681
20
-135.476
11
50.5633
21
-135.285
0
LINE
8
BLACK
6
CONTINUOUS
10
50.5633
20
-135.285
11
50.6586
21
-135.19
0
LINE
8
BLACK
6
CONTINUOUS
10
50.6586
20
-135.19
11
50.849
21
-135.095
0
LINE
8
BLACK
6
CONTINUOUS
10
52.7538
20
-135.095
11
52.9443
21
-135.095
0
LINE
8
BLACK
6
CONTINUOUS
10
52.9443
20
-135.095
11
53.1348
21
-135.19
0
LINE
8
BLACK
6
CONTINUOUS
10
53.1348
20
-135.19
11
53.23
21
-135.285
0
LINE
8
BLACK
6
CONTINUOUS
10
53.23
20
-135.285
11
53.3252
21
-135.476
0
LINE
8
BLACK
6
CONTINUOUS
10
53.3252
20
-135.476
11
53.4205
21
-135.857
0
LINE
8
BLACK
6
CONTINUOUS
10
53.4205
20
-135.857
11
53.4205
21
-136.333
0
LINE
8
BLACK
6
CONTINUOUS
10
53.4205
20
-136.333
11
53.3252
21
-136.714
0
LINE
8
BLACK
6
CONTINUOUS
10
53.3252
20
-136.714
11
53.23
21
-136.904
0
LINE
8
BLACK
6
CONTINUOUS
10
53.23
20
-136.904
11
53.1348
21
-137
0
LINE
8
BLACK
6
CONTINUOUS
10
53.1348
20
-137
11
52.9443
21
-137.095
0
LINE
8
BLACK
6
CONTINUOUS
10
52.9443
20
-137.095
11
52.7538
21
-137.095
0
LINE
8
BLACK
6
CONTINUOUS
10
52.7538
20
-137.095
11
52.5633
21
-137
0
LINE
8
BLACK
6
CONTINUOUS
10
52.5633
20
-137
11
52.4681
21
-136.904
0
LINE
8
BLACK
6
CONTINUOUS
10
52.4681
20
-136.904
11
52.3729
21
-136.714
0
LINE
8
BLACK
6
CONTINUOUS
10
52.3729
20
-136.714
11
52.2776
21
-136.333
0
LINE
8
BLACK
6
CONTINUOUS
10
52.2776
20
-136.333
11
52.2776
21
-135.857
0
LINE
8
BLACK
6
CONTINUOUS
10
52.2776
20
-135.857
11
52.3729
21
-135.476
0
LINE
8
BLACK
6
CONTINUOUS
10
52.3729
20
-135.476
11
52.4681
21
-135.285
0
LINE
8
BLACK
6
CONTINUOUS
10
52.4681
20
-135.285
11
52.5633
21
-135.19
0
LINE
8
BLACK
6
CONTINUOUS
10
52.5633
20
-135.19
11
52.7538
21
-135.095
0
LINE
8
BLACK
6
CONTINUOUS
10
54.2776
20
-137.095
11
54.2776
21
-135.761
0
LINE
8
BLACK
6
CONTINUOUS
10
54.2776
20
-135.952
11
54.3729
21
-135.857
0
LINE
8
BLACK
6
CONTINUOUS
10
54.3729
20
-135.857
11
54.5633
21
-135.761
0
LINE
8
BLACK
6
CONTINUOUS
10
54.5633
20
-135.761
11
54.849
21
-135.761
0
LINE
8
BLACK
6
CONTINUOUS
10
54.849
20
-135.761
11
55.0395
21
-135.857
0
LINE
8
BLACK
6
CONTINUOUS
10
55.0395
20
-135.857
11
55.1348
21
-136.047
0
LINE
8
BLACK
6
CONTINUOUS
10
55.1348
20
-136.047
11
55.1348
21
-137.095
0
LINE
8
BLACK
6
CONTINUOUS
10
55.1348
20
-136.047
11
55.23
21
-135.857
0
LINE
8
BLACK
6
CONTINUOUS
10
55.23
20
-135.857
11
55.4205
21
-135.761
0
LINE
8
BLACK
6
CONTINUOUS
10
55.4205
20
-135.761
11
55.7062
21
-135.761
0
LINE
8
BLACK
6
CONTINUOUS
10
55.7062
20
-135.761
11
55.8967
21
-135.857
0
LINE
8
BLACK
6
CONTINUOUS
10
55.8967
20
-135.857
11
55.9919
21
-136.047
0
LINE
8
BLACK
6
CONTINUOUS
10
55.9919
20
-136.047
11
55.9919
21
-137.095
0
LINE
8
BLACK
6
CONTINUOUS
10
56.9443
20
-137.095
11
56.9443
21
-135.761
0
LINE
8
BLACK
6
CONTINUOUS
10
56.9443
20
-135.952
11
57.0395
21
-135.857
0
LINE
8
BLACK
6
CONTINUOUS
10
57.0395
20
-135.857
11
57.23
21
-135.761
0
LINE
8
BLACK
6
CONTINUOUS
10
57.23
20
-135.761
11
57.5157
21
-135.761
0
LINE
8
BLACK
6
CONTINUOUS
10
57.5157
20
-135.761
11
57.7062
21
-135.857
0
LINE
8
BLACK
6
CONTINUOUS
10
57.7062
20
-135.857
11
57.8014
21
-136.047
0
LINE
8
BLACK
6
CONTINUOUS
10
57.8014
20
-136.047
11
57.8014
21
-137.095
0
LINE
8
BLACK
6
CONTINUOUS
10
57.8014
20
-136.047
11
57.8967
21
-135.857
0
LINE
8
BLACK
6
CONTINUOUS
10
57.8967
20
-135.857
11
58.0871
21
-135.761
0
LINE
8
BLACK
6
CONTINUOUS
10
58.0871
20
-135.761
11
58.3729
21
-135.761
0
LINE
8
BLACK
6
CONTINUOUS
10
58.3729
20
-135.761
11
58.5633
21
-135.857
0
LINE
8
BLACK
6
CONTINUOUS
10
58.5633
20
-135.857
11
58.6586
21
-136.047
0
LINE
8
BLACK
6
CONTINUOUS
10
58.6586
20
-136.047
11
58.6586
21
-137.095
0
LINE
8
BLACK
6
CONTINUOUS
10
62.5633
20
-135
11
60.849
21
-137.571
0
LINE
8
BLACK
6
CONTINUOUS
10
65.1348
20
-135.095
11
65.3252
21
-135.095
0
LINE
8
BLACK
6
CONTINUOUS
10
65.3252
20
-135.095
11
65.5157
21
-135.19
0
LINE
8
BLACK
6
CONTINUOUS
10
65.5157
20
-135.19
11
65.611
21
-135.285
0
LINE
8
BLACK
6
CONTINUOUS
10
65.611
20
-135.285
11
65.7062
21
-135.476
0
LINE
8
BLACK
6
CONTINUOUS
10
65.7062
20
-135.476
11
65.8014
21
-135.857
0
LINE
8
BLACK
6
CONTINUOUS
10
65.8014
20
-135.857
11
65.8014
21
-136.333
0
LINE
8
BLACK
6
CONTINUOUS
10
65.8014
20
-136.333
11
65.7062
21
-136.714
0
LINE
8
BLACK
6
CONTINUOUS
10
65.7062
20
-136.714
11
65.611
21
-136.904
0
LINE
8
BLACK
6
CONTINUOUS
10
65.611
20
-136.904
11
65.5157
21
-137
0
LINE
8
BLACK
6
CONTINUOUS
10
65.5157
20
-137
11
65.3252
21
-137.095
0
LINE
8
BLACK
6
CONTINUOUS
10
65.3252
20
-137.095
11
65.1348
21
-137.095
0
LINE
8
BLACK
6
CONTINUOUS
10
65.1348
20
-137.095
11
64.9443
21
-137
0
LINE
8
BLACK
6
CONTINUOUS
10
64.9443
20
-137
11
64.849
21
-136.904
0
LINE
8
BLACK
6
CONTINUOUS
10
64.849
20
-136.904
11
64.7538
21
-136.714
0
LINE
8
BLACK
6
CONTINUOUS
10
64.7538
20
-136.714
11
64.6586
21
-136.333
0
LINE
8
BLACK
6
CONTINUOUS
10
64.6586
20
-136.333
11
64.6586
21
-135.857
0
LINE
8
BLACK
6
CONTINUOUS
10
64.6586
20
-135.857
11
64.7538
21
-135.476
0
LINE
8
BLACK
6
CONTINUOUS
10
64.7538
20
-135.476
11
64.849
21
-135.285
0
LINE
8
BLACK
6
CONTINUOUS
10
64.849
20
-135.285
11
64.9443
21
-135.19
0
LINE
8
BLACK
6
CONTINUOUS
10
64.9443
20
-135.19
11
65.1348
21
-135.095
0
LINE
8
BLACK
6
CONTINUOUS
10
66.6586
20
-136.904
11
66.7538
21
-137
0
LINE
8
BLACK
6
CONTINUOUS
10
66.7538
20
-137
11
66.6586
21
-137.095
0
LINE
8
BLACK
6
CONTINUOUS
10
66.6586
20
-137.095
11
66.5633
21
-137
0
LINE
8
BLACK
6
CONTINUOUS
10
66.5633
20
-137
11
66.6586
21
-136.904
0
LINE
8
BLACK
6
CONTINUOUS
10
66.6586
20
-136.904
11
66.6586
21
-137.095
0
LINE
8
BLACK
6
CONTINUOUS
10
67.9919
20
-135.095
11
68.1824
21
-135.095
0
LINE
8
BLACK
6
CONTINUOUS
10
68.1824
20
-135.095
11
68.3729
21
-135.19
0
LINE
8
BLACK
6
CONTINUOUS
10
68.3729
20
-135.19
11
68.4681
21
-135.285
0
LINE
8
BLACK
6
CONTINUOUS
10
68.4681
20
-135.285
11
68.5633
21
-135.476
0
LINE
8
BLACK
6
CONTINUOUS
10
68.5633
20
-135.476
11
68.6586
21
-135.857
0
LINE
8
BLACK
6
CONTINUOUS
10
68.6586
20
-135.857
11
68.6586
21
-136.333
0
LINE
8
BLACK
6
CONTINUOUS
10
68.6586
20
-136.333
11
68.5633
21
-136.714
0
LINE
8
BLACK
6
CONTINUOUS
10
68.5633
20
-136.714
11
68.4681
21
-136.904
0
LINE
8
BLACK
6
CONTINUOUS
10
68.4681
20
-136.904
11
68.3729
21
-137
0
LINE
8
BLACK
6
CONTINUOUS
10
68.3729
20
-137
11
68.1824
21
-137.095
0
LINE
8
BLACK
6
CONTINUOUS
10
68.1824
20
-137.095
11
67.9919
21
-137.095
0
LINE
8
BLACK
6
CONTINUOUS
10
67.9919
20
-137.095
11
67.8014
21
-137
0
LINE
8
BLACK
6
CONTINUOUS
10
67.8014
20
-137
11
67.7062
21
-136.904
0
LINE
8
BLACK
6
CONTINUOUS
10
67.7062
20
-136.904
11
67.611
21
-136.714
0
LINE
8
BLACK
6
CONTINUOUS
10
67.611
20
-136.714
11
67.5157
21
-136.333
0
LINE
8
BLACK
6
CONTINUOUS
10
67.5157
20
-136.333
11
67.5157
21
-135.857
0
LINE
8
BLACK
6
CONTINUOUS
10
67.5157
20
-135.857
11
67.611
21
-135.476
0
LINE
8
BLACK
6
CONTINUOUS
10
67.611
20
-135.476
11
67.7062
21
-135.285
0
LINE
8
BLACK
6
CONTINUOUS
10
67.7062
20
-135.285
11
67.8014
21
-135.19
0
LINE
8
BLACK
6
CONTINUOUS
10
67.8014
20
-135.19
11
67.9919
21
-135.095
0
LINE
8
BLACK
6
CONTINUOUS
10
69.8014
20
-135.952
11
69.611
21
-135.857
0
LINE
8
BLACK
6
CONTINUOUS
10
69.611
20
-135.857
11
69.5157
21
-135.761
0
LINE
8
BLACK
6
CONTINUOUS
10
69.5157
20
-135.761
11
69.4205
21
-135.571
0
LINE
8
BLACK
6
CONTINUOUS
10
69.4205
20
-135.571
11
69.4205
21
-135.476
0
LINE
8
BLACK
6
CONTINUOUS
10
69.4205
20
-135.476
11
69.5157
21
-135.285
0
LINE
8
BLACK
6
CONTINUOUS
10
69.5157
20
-135.285
11
69.611
21
-135.19
0
LINE
8
BLACK
6
CONTINUOUS
10
69.611
20
-135.19
11
69.8014
21
-135.095
0
LINE
8
BLACK
6
CONTINUOUS
10
69.8014
20
-135.095
11
70.1824
21
-135.095
0
LINE
8
BLACK
6
CONTINUOUS
10
70.1824
20
-135.095
11
70.3729
21
-135.19
0
LINE
8
BLACK
6
CONTINUOUS
10
70.3729
20
-135.19
11
70.4681
21
-135.285
0
LINE
8
BLACK
6
CONTINUOUS
10
70.4681
20
-135.285
11
70.5633
21
-135.476
0
LINE
8
BLACK
6
CONTINUOUS
10
70.5633
20
-135.476
11
70.5633
21
-135.571
0
LINE
8
BLACK
6
CONTINUOUS
10
70.5633
20
-135.571
11
70.4681
21
-135.761
0
LINE
8
BLACK
6
CONTINUOUS
10
70.4681
20
-135.761
11
70.3729
21
-135.857
0
LINE
8
BLACK
6
CONTINUOUS
10
70.3729
20
-135.857
11
70.1824
21
-135.952
0
LINE
8
BLACK
6
CONTINUOUS
10
70.1824
20
-135.952
11
69.8014
21
-135.952
0
LINE
8
BLACK
6
CONTINUOUS
10
69.8014
20
-135.952
11
69.611
21
-136.047
0
LINE
8
BLACK
6
CONTINUOUS
10
69.611
20
-136.047
11
69.5157
21
-136.142
0
LINE
8
BLACK
6
CONTINUOUS
10
69.5157
20
-136.142
11
69.4205
21
-136.333
0
LINE
8
BLACK
6
CONTINUOUS
10
69.4205
20
-136.333
11
69.4205
21
-136.714
0
LINE
8
BLACK
6
CONTINUOUS
10
69.4205
20
-136.714
11
69.5157
21
-136.904
0
LINE
8
BLACK
6
CONTINUOUS
10
69.5157
20
-136.904
11
69.611
21
-137
0
LINE
8
BLACK
6
CONTINUOUS
10
69.611
20
-137
11
69.8014
21
-137.095
0
LINE
8
BLACK
6
CONTINUOUS
10
69.8014
20
-137.095
11
70.1824
21
-137.095
0
LINE
8
BLACK
6
CONTINUOUS
10
70.1824
20
-137.095
11
70.3729
21
-137
0
LINE
8
BLACK
6
CONTINUOUS
10
70.3729
20
-137
11
70.4681
21
-136.904
0
LINE
8
BLACK
6
CONTINUOUS
10
70.4681
20
-136.904
11
70.5633
21
-136.714
0
LINE
8
BLACK
6
CONTINUOUS
10
70.5633
20
-136.714
11
70.5633
21
-136.333
0
LINE
8
BLACK
6
CONTINUOUS
10
70.5633
20
-136.333
11
70.4681
21
-136.142
0
LINE
8
BLACK
6
CONTINUOUS
10
70.4681
20
-136.142
11
70.3729
21
-136.047
0
LINE
8
BLACK
6
CONTINUOUS
10
70.3729
20
-136.047
11
70.1824
21
-135.952
0
LINE
8
BLACK
6
CONTINUOUS
10
72.2776
20
-135.095
11
71.8967
21
-135.095
0
LINE
8
BLACK
6
CONTINUOUS
10
71.8967
20
-135.095
11
71.7062
21
-135.19
0
LINE
8
BLACK
6
CONTINUOUS
10
71.7062
20
-135.19
11
71.611
21
-135.285
0
LINE
8
BLACK
6
CONTINUOUS
10
71.611
20
-135.285
11
71.4205
21
-135.571
0
LINE
8
BLACK
6
CONTINUOUS
10
71.4205
20
-135.571
11
71.3252
21
-135.952
0
LINE
8
BLACK
6
CONTINUOUS
10
71.3252
20
-135.952
11
71.3252
21
-136.714
0
LINE
8
BLACK
6
CONTINUOUS
10
71.3252
20
-136.714
11
71.4205
21
-136.904
0
LINE
8
BLACK
6
CONTINUOUS
10
71.4205
20
-136.904
11
71.5157
21
-137
0
LINE
8
BLACK
6
CONTINUOUS
10
71.5157
20
-137
11
71.7062
21
-137.095
0
LINE
8
BLACK
6
CONTINUOUS
10
71.7062
20
-137.095
11
72.0871
21
-137.095
0
LINE
8
BLACK
6
CONTINUOUS
10
72.0871
20
-137.095
11
72.2776
21
-137
0
LINE
8
BLACK
6
CONTINUOUS
10
72.2776
20
-137
11
72.3729
21
-136.904
0
LINE
8
BLACK
6
CONTINUOUS
10
72.3729
20
-136.904
11
72.4681
21
-136.714
0
LINE
8
BLACK
6
CONTINUOUS
10
72.4681
20
-136.714
11
72.4681
21
-136.238
0
LINE
8
BLACK
6
CONTINUOUS
10
72.4681
20
-136.238
11
72.3729
21
-136.047
0
LINE
8
BLACK
6
CONTINUOUS
10
72.3729
20
-136.047
11
72.2776
21
-135.952
0
LINE
8
BLACK
6
CONTINUOUS
10
72.2776
20
-135.952
11
72.0871
21
-135.857
0
LINE
8
BLACK
6
CONTINUOUS
10
72.0871
20
-135.857
11
71.7062
21
-135.857
0
LINE
8
BLACK
6
CONTINUOUS
10
71.7062
20
-135.857
11
71.5157
21
-135.952
0
LINE
8
BLACK
6
CONTINUOUS
10
71.5157
20
-135.952
11
71.4205
21
-136.047
0
LINE
8
BLACK
6
CONTINUOUS
10
71.4205
20
-136.047
11
71.3252
21
-136.238
0
LINE
8
BLACK
6
CONTINUOUS
10
74.1824
20
-135.095
11
73.8014
21
-135.095
0
LINE
8
BLACK
6
CONTINUOUS
10
73.8014
20
-135.095
11
73.611
21
-135.19
0
LINE
8
BLACK
6
CONTINUOUS
10
73.611
20
-135.19
11
73.5157
21
-135.285
0
LINE
8
BLACK
6
CONTINUOUS
10
73.5157
20
-135.285
11
73.3252
21
-135.571
0
LINE
8
BLACK
6
CONTINUOUS
10
73.3252
20
-135.571
11
73.23
21
-135.952
0
LINE
8
BLACK
6
CONTINUOUS
10
73.23
20
-135.952
11
73.23
21
-136.714
0
LINE
8
BLACK
6
CONTINUOUS
10
73.23
20
-136.714
11
73.3252
21
-136.904
0
LINE
8
BLACK
6
CONTINUOUS
10
73.3252
20
-136.904
11
73.4205
21
-137
0
LINE
8
BLACK
6
CONTINUOUS
10
73.4205
20
-137
11
73.611
21
-137.095
0
LINE
8
BLACK
6
CONTINUOUS
10
73.611
20
-137.095
11
73.9919
21
-137.095
0
LINE
8
BLACK
6
CONTINUOUS
10
73.9919
20
-137.095
11
74.1824
21
-137
0
LINE
8
BLACK
6
CONTINUOUS
10
74.1824
20
-137
11
74.2776
21
-136.904
0
LINE
8
BLACK
6
CONTINUOUS
10
74.2776
20
-136.904
11
74.3729
21
-136.714
0
LINE
8
BLACK
6
CONTINUOUS
10
74.3729
20
-136.714
11
74.3729
21
-136.238
0
LINE
8
BLACK
6
CONTINUOUS
10
74.3729
20
-136.238
11
74.2776
21
-136.047
0
LINE
8
BLACK
6
CONTINUOUS
10
74.2776
20
-136.047
11
74.1824
21
-135.952
0
LINE
8
BLACK
6
CONTINUOUS
10
74.1824
20
-135.952
11
73.9919
21
-135.857
0
LINE
8
BLACK
6
CONTINUOUS
10
73.9919
20
-135.857
11
73.611
21
-135.857
0
LINE
8
BLACK
6
CONTINUOUS
10
73.611
20
-135.857
11
73.4205
21
-135.952
0
LINE
8
BLACK
6
CONTINUOUS
10
73.4205
20
-135.952
11
73.3252
21
-136.047
0
LINE
8
BLACK
6
CONTINUOUS
10
73.3252
20
-136.047
11
73.23
21
-136.238
0
LINE
8
BLACK
6
CONTINUOUS
10
75.1348
20
-135.095
11
75.1348
21
-135.476
0
LINE
8
BLACK
6
CONTINUOUS
10
75.8967
20
-135.095
11
75.8967
21
-135.476
0
LINE
8
BLACK
6
CONTINUOUS
10
78.849
20
-137.857
11
78.7538
21
-137.761
0
LINE
8
BLACK
6
CONTINUOUS
10
78.7538
20
-137.761
11
78.5633
21
-137.476
0
LINE
8
BLACK
6
CONTINUOUS
10
78.5633
20
-137.476
11
78.4681
21
-137.285
0
LINE
8
BLACK
6
CONTINUOUS
10
78.4681
20
-137.285
11
78.3729
21
-137
0
LINE
8
BLACK
6
CONTINUOUS
10
78.3729
20
-137
11
78.2776
21
-136.523
0
LINE
8
BLACK
6
CONTINUOUS
10
78.2776
20
-136.523
11
78.2776
21
-136.142
0
LINE
8
BLACK
6
CONTINUOUS
10
78.2776
20
-136.142
11
78.3729
21
-135.666
0
LINE
8
BLACK
6
CONTINUOUS
10
78.3729
20
-135.666
11
78.4681
21
-135.38
0
LINE
8
BLACK
6
CONTINUOUS
10
78.4681
20
-135.38
11
78.5633
21
-135.19
0
LINE
8
BLACK
6
CONTINUOUS
10
78.5633
20
-135.19
11
78.7538
21
-134.904
0
LINE
8
BLACK
6
CONTINUOUS
10
78.7538
20
-134.904
11
78.849
21
-134.809
0
LINE
8
BLACK
6
CONTINUOUS
10
80.4681
20
-135.761
11
80.4681
21
-137.095
0
LINE
8
BLACK
6
CONTINUOUS
10
79.9919
20
-135
11
79.5157
21
-136.428
0
LINE
8
BLACK
6
CONTINUOUS
10
79.5157
20
-136.428
11
80.7538
21
-136.428
0
LINE
8
BLACK
6
CONTINUOUS
10
83.0395
20
-137.095
11
83.0395
21
-135.095
0
LINE
8
BLACK
6
CONTINUOUS
10
83.8967
20
-137.095
11
83.8967
21
-136.047
0
LINE
8
BLACK
6
CONTINUOUS
10
83.8967
20
-136.047
11
83.8014
21
-135.857
0
LINE
8
BLACK
6
CONTINUOUS
10
83.8014
20
-135.857
11
83.611
21
-135.761
0
LINE
8
BLACK
6
CONTINUOUS
10
83.611
20
-135.761
11
83.3252
21
-135.761
0
LINE
8
BLACK
6
CONTINUOUS
10
83.3252
20
-135.761
11
83.1348
21
-135.857
0
LINE
8
BLACK
6
CONTINUOUS
10
83.1348
20
-135.857
11
83.0395
21
-135.952
0
LINE
8
BLACK
6
CONTINUOUS
10
85.1348
20
-137.095
11
84.9443
21
-137
0
LINE
8
BLACK
6
CONTINUOUS
10
84.9443
20
-137
11
84.849
21
-136.904
0
LINE
8
BLACK
6
CONTINUOUS
10
84.849
20
-136.904
11
84.7538
21
-136.714
0
LINE
8
BLACK
6
CONTINUOUS
10
84.7538
20
-136.714
11
84.7538
21
-136.142
0
LINE
8
BLACK
6
CONTINUOUS
10
84.7538
20
-136.142
11
84.849
21
-135.952
0
LINE
8
BLACK
6
CONTINUOUS
10
84.849
20
-135.952
11
84.9443
21
-135.857
0
LINE
8
BLACK
6
CONTINUOUS
10
84.9443
20
-135.857
11
85.1348
21
-135.761
0
LINE
8
BLACK
6
CONTINUOUS
10
85.1348
20
-135.761
11
85.4205
21
-135.761
0
LINE
8
BLACK
6
CONTINUOUS
10
85.4205
20
-135.761
11
85.611
21
-135.857
0
LINE
8
BLACK
6
CONTINUOUS
10
85.611
20
-135.857
11
85.7062
21
-135.952
0
LINE
8
BLACK
6
CONTINUOUS
10
85.7062
20
-135.952
11
85.8014
21
-136.142
0
LINE
8
BLACK
6
CONTINUOUS
10
85.8014
20
-136.142
11
85.8014
21
-136.714
0
LINE
8
BLACK
6
CONTINUOUS
10
85.8014
20
-136.714
11
85.7062
21
-136.904
0
LINE
8
BLACK
6
CONTINUOUS
10
85.7062
20
-136.904
11
85.611
21
-137
0
LINE
8
BLACK
6
CONTINUOUS
10
85.611
20
-137
11
85.4205
21
-137.095
0
LINE
8
BLACK
6
CONTINUOUS
10
85.4205
20
-137.095
11
85.1348
21
-137.095
0
LINE
8
BLACK
6
CONTINUOUS
10
86.9443
20
-137.095
11
86.7538
21
-137
0
LINE
8
BLACK
6
CONTINUOUS
10
86.7538
20
-137
11
86.6586
21
-136.809
0
LINE
8
BLACK
6
CONTINUOUS
10
86.6586
20
-136.809
11
86.6586
21
-135.095
0
LINE
8
BLACK
6
CONTINUOUS
10
88.4681
20
-137
11
88.2776
21
-137.095
0
LINE
8
BLACK
6
CONTINUOUS
10
88.2776
20
-137.095
11
87.8967
21
-137.095
0
LINE
8
BLACK
6
CONTINUOUS
10
87.8967
20
-137.095
11
87.7062
21
-137
0
LINE
8
BLACK
6
CONTINUOUS
10
87.7062
20
-137
11
87.611
21
-136.809
0
LINE
8
BLACK
6
CONTINUOUS
10
87.611
20
-136.809
11
87.611
21
-136.047
0
LINE
8
BLACK
6
CONTINUOUS
10
87.611
20
-136.047
11
87.7062
21
-135.857
0
LINE
8
BLACK
6
CONTINUOUS
10
87.7062
20
-135.857
11
87.8967
21
-135.761
0
LINE
8
BLACK
6
CONTINUOUS
10
87.8967
20
-135.761
11
88.2776
21
-135.761
0
LINE
8
BLACK
6
CONTINUOUS
10
88.2776
20
-135.761
11
88.4681
21
-135.857
0
LINE
8
BLACK
6
CONTINUOUS
10
88.4681
20
-135.857
11
88.5633
21
-136.047
0
LINE
8
BLACK
6
CONTINUOUS
10
88.5633
20
-136.047
11
88.5633
21
-136.238
0
LINE
8
BLACK
6
CONTINUOUS
10
88.5633
20
-136.238
11
87.611
21
-136.428
0
LINE
8
BLACK
6
CONTINUOUS
10
89.3252
20
-137
11
89.5157
21
-137.095
0
LINE
8
BLACK
6
CONTINUOUS
10
89.5157
20
-137.095
11
89.8967
21
-137.095
0
LINE
8
BLACK
6
CONTINUOUS
10
89.8967
20
-137.095
11
90.0871
21
-137
0
LINE
8
BLACK
6
CONTINUOUS
10
90.0871
20
-137
11
90.1824
21
-136.809
0
LINE
8
BLACK
6
CONTINUOUS
10
90.1824
20
-136.809
11
90.1824
21
-136.714
0
LINE
8
BLACK
6
CONTINUOUS
10
90.1824
20
-136.714
11
90.0871
21
-136.523
0
LINE
8
BLACK
6
CONTINUOUS
10
90.0871
20
-136.523
11
89.8967
21
-136.428
0
LINE
8
BLACK
6
CONTINUOUS
10
89.8967
20
-136.428
11
89.611
21
-136.428
0
LINE
8
BLACK
6
CONTINUOUS
10
89.611
20
-136.428
11
89.4205
21
-136.333
0
LINE
8
BLACK
6
CONTINUOUS
10
89.4205
20
-136.333
11
89.3252
21
-136.142
0
LINE
8
BLACK
6
CONTINUOUS
10
89.3252
20
-136.142
11
89.3252
21
-136.047
0
LINE
8
BLACK
6
CONTINUOUS
10
89.3252
20
-136.047
11
89.4205
21
-135.857
0
LINE
8
BLACK
6
CONTINUOUS
10
89.4205
20
-135.857
11
89.611
21
-135.761
0
LINE
8
BLACK
6
CONTINUOUS
10
89.611
20
-135.761
11
89.8967
21
-135.761
0
LINE
8
BLACK
6
CONTINUOUS
10
89.8967
20
-135.761
11
90.0871
21
-135.857
0
LINE
8
BLACK
6
CONTINUOUS
10
90.849
20
-137.857
11
90.9443
21
-137.761
0
LINE
8
BLACK
6
CONTINUOUS
10
90.9443
20
-137.761
11
91.1348
21
-137.476
0
LINE
8
BLACK
6
CONTINUOUS
10
91.1348
20
-137.476
11
91.23
21
-137.285
0
LINE
8
BLACK
6
CONTINUOUS
10
91.23
20
-137.285
11
91.3252
21
-137
0
LINE
8
BLACK
6
CONTINUOUS
10
91.3252
20
-137
11
91.4205
21
-136.523
0
LINE
8
BLACK
6
CONTINUOUS
10
91.4205
20
-136.523
11
91.4205
21
-136.142
0
LINE
8
BLACK
6
CONTINUOUS
10
91.4205
20
-136.142
11
91.3252
21
-135.666
0
LINE
8
BLACK
6
CONTINUOUS
10
91.3252
20
-135.666
11
91.23
21
-135.38
0
LINE
8
BLACK
6
CONTINUOUS
10
91.23
20
-135.38
11
91.1348
21
-135.19
0
LINE
8
BLACK
6
CONTINUOUS
10
91.1348
20
-135.19
11
90.9443
21
-134.904
0
LINE
8
BLACK
6
CONTINUOUS
10
90.9443
20
-134.904
11
90.849
21
-134.809
0
LINE
8
BLACK
6
CONTINUOUS
10
94.4681
20
-137.857
11
94.3729
21
-137.761
0
LINE
8
BLACK
6
CONTINUOUS
10
94.3729
20
-137.761
11
94.1824
21
-137.476
0
LINE
8
BLACK
6
CONTINUOUS
10
94.1824
20
-137.476
11
94.0871
21
-137.285
0
LINE
8
BLACK
6
CONTINUOUS
10
94.0871
20
-137.285
11
93.9919
21
-137
0
LINE
8
BLACK
6
CONTINUOUS
10
93.9919
20
-137
11
93.8967
21
-136.523
0
LINE
8
BLACK
6
CONTINUOUS
10
93.8967
20
-136.523
11
93.8967
21
-136.142
0
LINE
8
BLACK
6
CONTINUOUS
10
93.8967
20
-136.142
11
93.9919
21
-135.666
0
LINE
8
BLACK
6
CONTINUOUS
10
93.9919
20
-135.666
11
94.0871
21
-135.38
0
LINE
8
BLACK
6
CONTINUOUS
10
94.0871
20
-135.38
11
94.1824
21
-135.19
0
LINE
8
BLACK
6
CONTINUOUS
10
94.1824
20
-135.19
11
94.3729
21
-134.904
0
LINE
8
BLACK
6
CONTINUOUS
10
94.3729
20
-134.904
11
94.4681
21
-134.809
0
LINE
8
BLACK
6
CONTINUOUS
10
95.23
20
-135.761
11
95.23
21
-137.095
0
LINE
8
BLACK
6
CONTINUOUS
10
95.23
20
-135.952
11
95.3252
21
-135.857
0
LINE
8
BLACK
6
CONTINUOUS
10
95.3252
20
-135.857
11
95.5157
21
-135.761
0
LINE
8
BLACK
6
CONTINUOUS
10
95.5157
20
-135.761
11
95.8014
21
-135.761
0
LINE
8
BLACK
6
CONTINUOUS
10
95.8014
20
-135.761
11
95.9919
21
-135.857
0
LINE
8
BLACK
6
CONTINUOUS
10
95.9919
20
-135.857
11
96.0871
21
-136.047
0
LINE
8
BLACK
6
CONTINUOUS
10
96.0871
20
-136.047
11
96.0871
21
-137.095
0
LINE
8
BLACK
6
CONTINUOUS
10
97.3252
20
-137.095
11
97.1348
21
-137
0
LINE
8
BLACK
6
CONTINUOUS
10
97.1348
20
-137
11
97.0395
21
-136.904
0
LINE
8
BLACK
6
CONTINUOUS
10
97.0395
20
-136.904
11
96.9443
21
-136.714
0
LINE
8
BLACK
6
CONTINUOUS
10
96.9443
20
-136.714
11
96.9443
21
-136.142
0
LINE
8
BLACK
6
CONTINUOUS
10
96.9443
20
-136.142
11
97.0395
21
-135.952
0
LINE
8
BLACK
6
CONTINUOUS
10
97.0395
20
-135.952
11
97.1348
21
-135.857
0
LINE
8
BLACK
6
CONTINUOUS
10
97.1348
20
-135.857
11
97.3252
21
-135.761
0
LINE
8
BLACK
6
CONTINUOUS
10
97.3252
20
-135.761
11
97.611
21
-135.761
0
LINE
8
BLACK
6
CONTINUOUS
10
97.611
20
-135.761
11
97.8014
21
-135.857
0
LINE
8
BLACK
6
CONTINUOUS
10
97.8014
20
-135.857
11
97.8967
21
-135.952
0
LINE
8
BLACK
6
CONTINUOUS
10
97.8967
20
-135.952
11
97.9919
21
-136.142
0
LINE
8
BLACK
6
CONTINUOUS
10
97.9919
20
-136.142
11
97.9919
21
-136.714
0
LINE
8
BLACK
6
CONTINUOUS
10
97.9919
20
-136.714
11
97.8967
21
-136.904
0
LINE
8
BLACK
6
CONTINUOUS
10
97.8967
20
-136.904
11
97.8014
21
-137
0
LINE
8
BLACK
6
CONTINUOUS
10
97.8014
20
-137
11
97.611
21
-137.095
0
LINE
8
BLACK
6
CONTINUOUS
10
97.611
20
-137.095
11
97.3252
21
-137.095
0
LINE
8
BLACK
6
CONTINUOUS
10
98.5633
20
-135.761
11
99.3252
21
-135.761
0
LINE
8
BLACK
6
CONTINUOUS
10
98.849
20
-135.095
11
98.849
21
-136.809
0
LINE
8
BLACK
6
CONTINUOUS
10
98.849
20
-136.809
11
98.9443
21
-137
0
LINE
8
BLACK
6
CONTINUOUS
10
98.9443
20
-137
11
99.1348
21
-137.095
0
LINE
8
BLACK
6
CONTINUOUS
10
99.1348
20
-137.095
11
99.3252
21
-137.095
0
LINE
8
BLACK
6
CONTINUOUS
10
101.516
20
-135.761
11
101.516
21
-137.761
0
LINE
8
BLACK
6
CONTINUOUS
10
101.516
20
-135.857
11
101.706
21
-135.761
0
LINE
8
BLACK
6
CONTINUOUS
10
101.706
20
-135.761
11
102.087
21
-135.761
0
LINE
8
BLACK
6
CONTINUOUS
10
102.087
20
-135.761
11
102.278
21
-135.857
0
LINE
8
BLACK
6
CONTINUOUS
10
102.278
20
-135.857
11
102.373
21
-135.952
0
LINE
8
BLACK
6
CONTINUOUS
10
102.373
20
-135.952
11
102.468
21
-136.142
0
LINE
8
BLACK
6
CONTINUOUS
10
102.468
20
-136.142
11
102.468
21
-136.714
0
LINE
8
BLACK
6
CONTINUOUS
10
102.468
20
-136.714
11
102.373
21
-136.904
0
LINE
8
BLACK
6
CONTINUOUS
10
102.373
20
-136.904
11
102.278
21
-137
0
LINE
8
BLACK
6
CONTINUOUS
10
102.278
20
-137
11
102.087
21
-137.095
0
LINE
8
BLACK
6
CONTINUOUS
10
102.087
20
-137.095
11
101.706
21
-137.095
0
LINE
8
BLACK
6
CONTINUOUS
10
101.706
20
-137.095
11
101.516
21
-137
0
LINE
8
BLACK
6
CONTINUOUS
10
103.611
20
-137.095
11
103.42
21
-137
0
LINE
8
BLACK
6
CONTINUOUS
10
103.42
20
-137
11
103.325
21
-136.809
0
LINE
8
BLACK
6
CONTINUOUS
10
103.325
20
-136.809
11
103.325
21
-135.095
0
LINE
8
BLACK
6
CONTINUOUS
10
105.23
20
-137.095
11
105.23
21
-136.047
0
LINE
8
BLACK
6
CONTINUOUS
10
105.23
20
-136.047
11
105.135
21
-135.857
0
LINE
8
BLACK
6
CONTINUOUS
10
105.135
20
-135.857
11
104.944
21
-135.761
0
LINE
8
BLACK
6
CONTINUOUS
10
104.944
20
-135.761
11
104.563
21
-135.761
0
LINE
8
BLACK
6
CONTINUOUS
10
104.563
20
-135.761
11
104.373
21
-135.857
0
LINE
8
BLACK
6
CONTINUOUS
10
105.23
20
-137
11
105.04
21
-137.095
0
LINE
8
BLACK
6
CONTINUOUS
10
105.04
20
-137.095
11
104.563
21
-137.095
0
LINE
8
BLACK
6
CONTINUOUS
10
104.563
20
-137.095
11
104.373
21
-137
0
LINE
8
BLACK
6
CONTINUOUS
10
104.373
20
-137
11
104.278
21
-136.809
0
LINE
8
BLACK
6
CONTINUOUS
10
104.278
20
-136.809
11
104.278
21
-136.619
0
LINE
8
BLACK
6
CONTINUOUS
10
104.278
20
-136.619
11
104.373
21
-136.428
0
LINE
8
BLACK
6
CONTINUOUS
10
104.373
20
-136.428
11
104.563
21
-136.333
0
LINE
8
BLACK
6
CONTINUOUS
10
104.563
20
-136.333
11
105.04
21
-136.333
0
LINE
8
BLACK
6
CONTINUOUS
10
105.04
20
-136.333
11
105.23
21
-136.238
0
LINE
8
BLACK
6
CONTINUOUS
10
105.897
20
-135.761
11
106.659
21
-135.761
0
LINE
8
BLACK
6
CONTINUOUS
10
106.182
20
-135.095
11
106.182
21
-136.809
0
LINE
8
BLACK
6
CONTINUOUS
10
106.182
20
-136.809
11
106.278
21
-137
0
LINE
8
BLACK
6
CONTINUOUS
10
106.278
20
-137
11
106.468
21
-137.095
0
LINE
8
BLACK
6
CONTINUOUS
10
106.468
20
-137.095
11
106.659
21
-137.095
0
LINE
8
BLACK
6
CONTINUOUS
10
108.087
20
-137
11
107.897
21
-137.095
0
LINE
8
BLACK
6
CONTINUOUS
10
107.897
20
-137.095
11
107.516
21
-137.095
0
LINE
8
BLACK
6
CONTINUOUS
10
107.516
20
-137.095
11
107.325
21
-137
0
LINE
8
BLACK
6
CONTINUOUS
10
107.325
20
-137
11
107.23
21
-136.809
0
LINE
8
BLACK
6
CONTINUOUS
10
107.23
20
-136.809
11
107.23
21
-136.047
0
LINE
8
BLACK
6
CONTINUOUS
10
107.23
20
-136.047
11
107.325
21
-135.857
0
LINE
8
BLACK
6
CONTINUOUS
10
107.325
20
-135.857
11
107.516
21
-135.761
0
LINE
8
BLACK
6
CONTINUOUS
10
107.516
20
-135.761
11
107.897
21
-135.761
0
LINE
8
BLACK
6
CONTINUOUS
10
107.897
20
-135.761
11
108.087
21
-135.857
0
LINE
8
BLACK
6
CONTINUOUS
10
108.087
20
-135.857
11
108.182
21
-136.047
0
LINE
8
BLACK
6
CONTINUOUS
10
108.182
20
-136.047
11
108.182
21
-136.238
0
LINE
8
BLACK
6
CONTINUOUS
10
108.182
20
-136.238
11
107.23
21
-136.428
0
LINE
8
BLACK
6
CONTINUOUS
10
109.897
20
-137.095
11
109.897
21
-135.095
0
LINE
8
BLACK
6
CONTINUOUS
10
109.897
20
-137
11
109.706
21
-137.095
0
LINE
8
BLACK
6
CONTINUOUS
10
109.706
20
-137.095
11
109.325
21
-137.095
0
LINE
8
BLACK
6
CONTINUOUS
10
109.325
20
-137.095
11
109.135
21
-137
0
LINE
8
BLACK
6
CONTINUOUS
10
109.135
20
-137
11
109.04
21
-136.904
0
LINE
8
BLACK
6
CONTINUOUS
10
109.04
20
-136.904
11
108.944
21
-136.714
0
LINE
8
BLACK
6
CONTINUOUS
10
108.944
20
-136.714
11
108.944
21
-136.142
0
LINE
8
BLACK
6
CONTINUOUS
10
108.944
20
-136.142
11
109.04
21
-135.952
0
LINE
8
BLACK
6
CONTINUOUS
10
109.04
20
-135.952
11
109.135
21
-135.857
0
LINE
8
BLACK
6
CONTINUOUS
10
109.135
20
-135.857
11
109.325
21
-135.761
0
LINE
8
BLACK
6
CONTINUOUS
10
109.325
20
-135.761
11
109.706
21
-135.761
0
LINE
8
BLACK
6
CONTINUOUS
10
109.706
20
-135.761
11
109.897
21
-135.857
0
LINE
8
BLACK
6
CONTINUOUS
10
110.659
20
-137.857
11
110.754
21
-137.761
0
LINE
8
BLACK
6
CONTINUOUS
10
110.754
20
-137.761
11
110.944
21
-137.476
0
LINE
8
BLACK
6
CONTINUOUS
10
110.944
20
-137.476
11
111.04
21
-137.285
0
LINE
8
BLACK
6
CONTINUOUS
10
111.04
20
-137.285
11
111.135
21
-137
0
LINE
8
BLACK
6
CONTINUOUS
10
111.135
20
-137
11
111.23
21
-136.523
0
LINE
8
BLACK
6
CONTINUOUS
10
111.23
20
-136.523
11
111.23
21
-136.142
0
LINE
8
BLACK
6
CONTINUOUS
10
111.23
20
-136.142
11
111.135
21
-135.666
0
LINE
8
BLACK
6
CONTINUOUS
10
111.135
20
-135.666
11
111.04
21
-135.38
0
LINE
8
BLACK
6
CONTINUOUS
10
111.04
20
-135.38
11
110.944
21
-135.19
0
LINE
8
BLACK
6
CONTINUOUS
10
110.944
20
-135.19
11
110.754
21
-134.904
0
LINE
8
BLACK
6
CONTINUOUS
10
110.754
20
-134.904
11
110.659
21
-134.809
  0
ENDSEC
  0
EOF
