  0
SECTION
  2
HEADER
  9
$ANGBASE
  50
0.0
  9
$ANGDIR
  70
1
  9
$MEASUREMENT
  70
1
  0
ENDSEC
  0
SECTION
  2
TABLES
  0
TABLE
  2
LTYPE
  70
4
  0
LTYPE
  5
40F
  2
CONTINUOUS
  70
0
  3
Solid line
  72
65
  73
0
  40
0.0
  0
LTYPE
  5
410
  2
DASHDOT
 70
0
  3
Dash Dot ____ _ ____ _
 72
65
 73
4
 40
2.0
 49
1.25
 49
-0.25
 49
0.25
 49
-0.25
  0
LTYPE
  5
411
  2
DASHED
 70
0
  3
Dashed __ __ __ __ __
 72
65
 73
2
 40
0.75
 49
0.5
 49
-0.25
  0
LTYPE
  5
43B
  2
DOTTED
 70
0
  3
Dotted .  .  .  .
 72
65
 73
2
 40
0.2
 49
0.0
 49
-0.2
  0
ENDTAB
  0
TABLE
  2
STYLE
  70
4
  0
STYLE
  2
KICAD
  70
0
  40
0
  41
1
  42
1
  50
0
  71
0
  3
isocp.shx
  0
STYLE
  2
KICADB
  70
0
  40
0
  41
1
  42
1
  50
0
  71
0
  3
isocp.shx
  0
STYLE
  2
KICADI
  70
0
  40
0
  41
1
  42
1
  50
15
  71
0
  3
isocp.shx
  0
STYLE
  2
KICADBI
  70
0
  40
0
  41
1
  42
1
  50
15
  71
0
  3
isocp.shx
  0
ENDTAB
  0
TABLE
  2
LAYER
  70
1
  0
LAYER
  2
BLACK
  70
0
  62
7
  6
CONTINUOUS
  0
ENDTAB
  0
ENDSEC
  0
SECTION
  2
ENTITIES
0
ARC
8
BLACK
10
52.07
20
-114.3
40
10.16
50
-180
51
-90
0
ARC
8
BLACK
10
52.07
20
-17.78
40
10.16
50
90
51
180
0
LINE
8
BLACK
6
CONTINUOUS
10
52.07
20
-124.46
11
255.27
21
-124.46
0
LINE
8
BLACK
6
CONTINUOUS
10
265.43
20
-114.3
11
265.43
21
-17.78
0
LINE
8
BLACK
6
CONTINUOUS
10
41.91
20
-17.78
11
41.91
21
-114.3
0
ARC
8
BLACK
10
255.27
20
-17.78
40
10.16
50
-0
51
90
0
ARC
8
BLACK
10
255.27
20
-114.3
40
10.16
50
-90
51
-0
0
LINE
8
BLACK
6
CONTINUOUS
10
255.27
20
-7.62
11
52.07
21
-7.62
0
LINE
8
BLACK
6
CONTINUOUS
10
46.77
20
-62.825
11
47.42
21
-63.475
0
LINE
8
BLACK
6
CONTINUOUS
10
47.42
20
-62.825
11
46.77
21
-63.475
0
LINE
8
BLACK
6
CONTINUOUS
10
46.77
20
-68.605
11
47.42
21
-69.255
0
LINE
8
BLACK
6
CONTINUOUS
10
47.42
20
-68.605
11
46.77
21
-69.255
0
CIRCLE
8
BLACK
10
46.99
20
-20.32
40
0.576
0
CIRCLE
8
BLACK
10
46.99
20
-111.76
40
0.576
0
CIRCLE
8
BLACK
10
255.27
20
-17.78
40
0.576
0
CIRCLE
8
BLACK
10
255.27
20
-114.3
40
0.576
0
LINE
8
BLACK
6
CONTINUOUS
10
49.53
20
-14.14
11
49.53
21
-16.34
0
LINE
8
BLACK
6
CONTINUOUS
10
48.43
20
-15.24
11
50.63
21
-15.24
0
LINE
8
BLACK
6
CONTINUOUS
10
49.53
20
-115.74
11
49.53
21
-117.94
0
LINE
8
BLACK
6
CONTINUOUS
10
48.43
20
-116.84
11
50.63
21
-116.84
0
LINE
8
BLACK
6
CONTINUOUS
10
90.17
20
-14.14
11
90.17
21
-16.34
0
LINE
8
BLACK
6
CONTINUOUS
10
89.07
20
-15.24
11
91.27
21
-15.24
0
LINE
8
BLACK
6
CONTINUOUS
10
90.17
20
-115.74
11
90.17
21
-117.94
0
LINE
8
BLACK
6
CONTINUOUS
10
89.07
20
-116.84
11
91.27
21
-116.84
0
LINE
8
BLACK
6
CONTINUOUS
10
44.4362
20
-127.615
11
44.4362
21
-125.615
0
LINE
8
BLACK
6
CONTINUOUS
10
44.4362
20
-125.615
11
44.9124
21
-125.615
0
LINE
8
BLACK
6
CONTINUOUS
10
44.9124
20
-125.615
11
45.1981
21
-125.71
0
LINE
8
BLACK
6
CONTINUOUS
10
45.1981
20
-125.71
11
45.3886
21
-125.9
0
LINE
8
BLACK
6
CONTINUOUS
10
45.3886
20
-125.9
11
45.4838
21
-126.091
0
LINE
8
BLACK
6
CONTINUOUS
10
45.4838
20
-126.091
11
45.579
21
-126.472
0
LINE
8
BLACK
6
CONTINUOUS
10
45.579
20
-126.472
11
45.579
21
-126.758
0
LINE
8
BLACK
6
CONTINUOUS
10
45.579
20
-126.758
11
45.4838
21
-127.139
0
LINE
8
BLACK
6
CONTINUOUS
10
45.4838
20
-127.139
11
45.3886
21
-127.329
0
LINE
8
BLACK
6
CONTINUOUS
10
45.3886
20
-127.329
11
45.1981
21
-127.52
0
LINE
8
BLACK
6
CONTINUOUS
10
45.1981
20
-127.52
11
44.9124
21
-127.615
0
LINE
8
BLACK
6
CONTINUOUS
10
44.9124
20
-127.615
11
44.4362
21
-127.615
0
LINE
8
BLACK
6
CONTINUOUS
10
46.4362
20
-127.615
11
46.4362
21
-126.281
0
LINE
8
BLACK
6
CONTINUOUS
10
46.4362
20
-126.662
11
46.5314
21
-126.472
0
LINE
8
BLACK
6
CONTINUOUS
10
46.5314
20
-126.472
11
46.6267
21
-126.377
0
LINE
8
BLACK
6
CONTINUOUS
10
46.6267
20
-126.377
11
46.8171
21
-126.281
0
LINE
8
BLACK
6
CONTINUOUS
10
46.8171
20
-126.281
11
47.0076
21
-126.281
0
LINE
8
BLACK
6
CONTINUOUS
10
47.6743
20
-127.615
11
47.6743
21
-126.281
0
LINE
8
BLACK
6
CONTINUOUS
10
47.6743
20
-125.615
11
47.579
21
-125.71
0
LINE
8
BLACK
6
CONTINUOUS
10
47.579
20
-125.71
11
47.6743
21
-125.805
0
LINE
8
BLACK
6
CONTINUOUS
10
47.6743
20
-125.805
11
47.7695
21
-125.71
0
LINE
8
BLACK
6
CONTINUOUS
10
47.7695
20
-125.71
11
47.6743
21
-125.615
0
LINE
8
BLACK
6
CONTINUOUS
10
47.6743
20
-125.615
11
47.6743
21
-125.805
0
LINE
8
BLACK
6
CONTINUOUS
10
48.9124
20
-127.615
11
48.7219
21
-127.52
0
LINE
8
BLACK
6
CONTINUOUS
10
48.7219
20
-127.52
11
48.6267
21
-127.329
0
LINE
8
BLACK
6
CONTINUOUS
10
48.6267
20
-127.329
11
48.6267
21
-125.615
0
LINE
8
BLACK
6
CONTINUOUS
10
49.96
20
-127.615
11
49.7695
21
-127.52
0
LINE
8
BLACK
6
CONTINUOUS
10
49.7695
20
-127.52
11
49.6743
21
-127.329
0
LINE
8
BLACK
6
CONTINUOUS
10
49.6743
20
-127.329
11
49.6743
21
-125.615
0
LINE
8
BLACK
6
CONTINUOUS
10
52.2457
20
-127.615
11
52.2457
21
-125.615
0
LINE
8
BLACK
6
CONTINUOUS
10
52.2457
20
-125.615
11
52.9124
21
-127.043
0
LINE
8
BLACK
6
CONTINUOUS
10
52.9124
20
-127.043
11
53.579
21
-125.615
0
LINE
8
BLACK
6
CONTINUOUS
10
53.579
20
-125.615
11
53.579
21
-127.615
0
LINE
8
BLACK
6
CONTINUOUS
10
55.3886
20
-127.615
11
55.3886
21
-126.567
0
LINE
8
BLACK
6
CONTINUOUS
10
55.3886
20
-126.567
11
55.2933
21
-126.377
0
LINE
8
BLACK
6
CONTINUOUS
10
55.2933
20
-126.377
11
55.1029
21
-126.281
0
LINE
8
BLACK
6
CONTINUOUS
10
55.1029
20
-126.281
11
54.7219
21
-126.281
0
LINE
8
BLACK
6
CONTINUOUS
10
54.7219
20
-126.281
11
54.5314
21
-126.377
0
LINE
8
BLACK
6
CONTINUOUS
10
55.3886
20
-127.52
11
55.1981
21
-127.615
0
LINE
8
BLACK
6
CONTINUOUS
10
55.1981
20
-127.615
11
54.7219
21
-127.615
0
LINE
8
BLACK
6
CONTINUOUS
10
54.7219
20
-127.615
11
54.5314
21
-127.52
0
LINE
8
BLACK
6
CONTINUOUS
10
54.5314
20
-127.52
11
54.4362
21
-127.329
0
LINE
8
BLACK
6
CONTINUOUS
10
54.4362
20
-127.329
11
54.4362
21
-127.139
0
LINE
8
BLACK
6
CONTINUOUS
10
54.4362
20
-127.139
11
54.5314
21
-126.948
0
LINE
8
BLACK
6
CONTINUOUS
10
54.5314
20
-126.948
11
54.7219
21
-126.853
0
LINE
8
BLACK
6
CONTINUOUS
10
54.7219
20
-126.853
11
55.1981
21
-126.853
0
LINE
8
BLACK
6
CONTINUOUS
10
55.1981
20
-126.853
11
55.3886
21
-126.758
0
LINE
8
BLACK
6
CONTINUOUS
10
56.341
20
-126.281
11
56.341
21
-128.281
0
LINE
8
BLACK
6
CONTINUOUS
10
56.341
20
-126.377
11
56.5314
21
-126.281
0
LINE
8
BLACK
6
CONTINUOUS
10
56.5314
20
-126.281
11
56.9124
21
-126.281
0
LINE
8
BLACK
6
CONTINUOUS
10
56.9124
20
-126.281
11
57.1029
21
-126.377
0
LINE
8
BLACK
6
CONTINUOUS
10
57.1029
20
-126.377
11
57.1981
21
-126.472
0
LINE
8
BLACK
6
CONTINUOUS
10
57.1981
20
-126.472
11
57.2933
21
-126.662
0
LINE
8
BLACK
6
CONTINUOUS
10
57.2933
20
-126.662
11
57.2933
21
-127.234
0
LINE
8
BLACK
6
CONTINUOUS
10
57.2933
20
-127.234
11
57.1981
21
-127.424
0
LINE
8
BLACK
6
CONTINUOUS
10
57.1981
20
-127.424
11
57.1029
21
-127.52
0
LINE
8
BLACK
6
CONTINUOUS
10
57.1029
20
-127.52
11
56.9124
21
-127.615
0
LINE
8
BLACK
6
CONTINUOUS
10
56.9124
20
-127.615
11
56.5314
21
-127.615
0
LINE
8
BLACK
6
CONTINUOUS
10
56.5314
20
-127.615
11
56.341
21
-127.52
0
LINE
8
BLACK
6
CONTINUOUS
10
58.1505
20
-127.424
11
58.2457
21
-127.52
0
LINE
8
BLACK
6
CONTINUOUS
10
58.2457
20
-127.52
11
58.1505
21
-127.615
0
LINE
8
BLACK
6
CONTINUOUS
10
58.1505
20
-127.615
11
58.0552
21
-127.52
0
LINE
8
BLACK
6
CONTINUOUS
10
58.0552
20
-127.52
11
58.1505
21
-127.424
0
LINE
8
BLACK
6
CONTINUOUS
10
58.1505
20
-127.424
11
58.1505
21
-127.615
0
LINE
8
BLACK
6
CONTINUOUS
10
58.1505
20
-126.377
11
58.2457
21
-126.472
0
LINE
8
BLACK
6
CONTINUOUS
10
58.2457
20
-126.472
11
58.1505
21
-126.567
0
LINE
8
BLACK
6
CONTINUOUS
10
58.1505
20
-126.567
11
58.0552
21
-126.472
0
LINE
8
BLACK
6
CONTINUOUS
10
58.0552
20
-126.472
11
58.1505
21
-126.377
0
LINE
8
BLACK
6
CONTINUOUS
10
58.1505
20
-126.377
11
58.1505
21
-126.567
0
LINE
8
BLACK
6
CONTINUOUS
10
41.21
20
-130.585
11
41.86
21
-131.235
0
LINE
8
BLACK
6
CONTINUOUS
10
41.86
20
-130.585
11
41.21
21
-131.235
0
LINE
8
BLACK
6
CONTINUOUS
10
44.8171
20
-129.815
11
45.0076
21
-129.815
0
LINE
8
BLACK
6
CONTINUOUS
10
45.0076
20
-129.815
11
45.1981
21
-129.91
0
LINE
8
BLACK
6
CONTINUOUS
10
45.1981
20
-129.91
11
45.2933
21
-130.005
0
LINE
8
BLACK
6
CONTINUOUS
10
45.2933
20
-130.005
11
45.3886
21
-130.196
0
LINE
8
BLACK
6
CONTINUOUS
10
45.3886
20
-130.196
11
45.4838
21
-130.577
0
LINE
8
BLACK
6
CONTINUOUS
10
45.4838
20
-130.577
11
45.4838
21
-131.053
0
LINE
8
BLACK
6
CONTINUOUS
10
45.4838
20
-131.053
11
45.3886
21
-131.434
0
LINE
8
BLACK
6
CONTINUOUS
10
45.3886
20
-131.434
11
45.2933
21
-131.624
0
LINE
8
BLACK
6
CONTINUOUS
10
45.2933
20
-131.624
11
45.1981
21
-131.72
0
LINE
8
BLACK
6
CONTINUOUS
10
45.1981
20
-131.72
11
45.0076
21
-131.815
0
LINE
8
BLACK
6
CONTINUOUS
10
45.0076
20
-131.815
11
44.8171
21
-131.815
0
LINE
8
BLACK
6
CONTINUOUS
10
44.8171
20
-131.815
11
44.6267
21
-131.72
0
LINE
8
BLACK
6
CONTINUOUS
10
44.6267
20
-131.72
11
44.5314
21
-131.624
0
LINE
8
BLACK
6
CONTINUOUS
10
44.5314
20
-131.624
11
44.4362
21
-131.434
0
LINE
8
BLACK
6
CONTINUOUS
10
44.4362
20
-131.434
11
44.341
21
-131.053
0
LINE
8
BLACK
6
CONTINUOUS
10
44.341
20
-131.053
11
44.341
21
-130.577
0
LINE
8
BLACK
6
CONTINUOUS
10
44.341
20
-130.577
11
44.4362
21
-130.196
0
LINE
8
BLACK
6
CONTINUOUS
10
44.4362
20
-130.196
11
44.5314
21
-130.005
0
LINE
8
BLACK
6
CONTINUOUS
10
44.5314
20
-130.005
11
44.6267
21
-129.91
0
LINE
8
BLACK
6
CONTINUOUS
10
44.6267
20
-129.91
11
44.8171
21
-129.815
0
LINE
8
BLACK
6
CONTINUOUS
10
46.341
20
-131.624
11
46.4362
21
-131.72
0
LINE
8
BLACK
6
CONTINUOUS
10
46.4362
20
-131.72
11
46.341
21
-131.815
0
LINE
8
BLACK
6
CONTINUOUS
10
46.341
20
-131.815
11
46.2457
21
-131.72
0
LINE
8
BLACK
6
CONTINUOUS
10
46.2457
20
-131.72
11
46.341
21
-131.624
0
LINE
8
BLACK
6
CONTINUOUS
10
46.341
20
-131.624
11
46.341
21
-131.815
0
LINE
8
BLACK
6
CONTINUOUS
10
48.1505
20
-129.815
11
47.7695
21
-129.815
0
LINE
8
BLACK
6
CONTINUOUS
10
47.7695
20
-129.815
11
47.579
21
-129.91
0
LINE
8
BLACK
6
CONTINUOUS
10
47.579
20
-129.91
11
47.4838
21
-130.005
0
LINE
8
BLACK
6
CONTINUOUS
10
47.4838
20
-130.005
11
47.2933
21
-130.291
0
LINE
8
BLACK
6
CONTINUOUS
10
47.2933
20
-130.291
11
47.1981
21
-130.672
0
LINE
8
BLACK
6
CONTINUOUS
10
47.1981
20
-130.672
11
47.1981
21
-131.434
0
LINE
8
BLACK
6
CONTINUOUS
10
47.1981
20
-131.434
11
47.2933
21
-131.624
0
LINE
8
BLACK
6
CONTINUOUS
10
47.2933
20
-131.624
11
47.3886
21
-131.72
0
LINE
8
BLACK
6
CONTINUOUS
10
47.3886
20
-131.72
11
47.579
21
-131.815
0
LINE
8
BLACK
6
CONTINUOUS
10
47.579
20
-131.815
11
47.96
21
-131.815
0
LINE
8
BLACK
6
CONTINUOUS
10
47.96
20
-131.815
11
48.1505
21
-131.72
0
LINE
8
BLACK
6
CONTINUOUS
10
48.1505
20
-131.72
11
48.2457
21
-131.624
0
LINE
8
BLACK
6
CONTINUOUS
10
48.2457
20
-131.624
11
48.341
21
-131.434
0
LINE
8
BLACK
6
CONTINUOUS
10
48.341
20
-131.434
11
48.341
21
-130.958
0
LINE
8
BLACK
6
CONTINUOUS
10
48.341
20
-130.958
11
48.2457
21
-130.767
0
LINE
8
BLACK
6
CONTINUOUS
10
48.2457
20
-130.767
11
48.1505
21
-130.672
0
LINE
8
BLACK
6
CONTINUOUS
10
48.1505
20
-130.672
11
47.96
21
-130.577
0
LINE
8
BLACK
6
CONTINUOUS
10
47.96
20
-130.577
11
47.579
21
-130.577
0
LINE
8
BLACK
6
CONTINUOUS
10
47.579
20
-130.577
11
47.3886
21
-130.672
0
LINE
8
BLACK
6
CONTINUOUS
10
47.3886
20
-130.672
11
47.2933
21
-130.767
0
LINE
8
BLACK
6
CONTINUOUS
10
47.2933
20
-130.767
11
47.1981
21
-130.958
0
LINE
8
BLACK
6
CONTINUOUS
10
50.1505
20
-129.815
11
49.1981
21
-129.815
0
LINE
8
BLACK
6
CONTINUOUS
10
49.1981
20
-129.815
11
49.1029
21
-130.767
0
LINE
8
BLACK
6
CONTINUOUS
10
49.1029
20
-130.767
11
49.1981
21
-130.672
0
LINE
8
BLACK
6
CONTINUOUS
10
49.1981
20
-130.672
11
49.3886
21
-130.577
0
LINE
8
BLACK
6
CONTINUOUS
10
49.3886
20
-130.577
11
49.8648
21
-130.577
0
LINE
8
BLACK
6
CONTINUOUS
10
49.8648
20
-130.577
11
50.0552
21
-130.672
0
LINE
8
BLACK
6
CONTINUOUS
10
50.0552
20
-130.672
11
50.1505
21
-130.767
0
LINE
8
BLACK
6
CONTINUOUS
10
50.1505
20
-130.767
11
50.2457
21
-130.958
0
LINE
8
BLACK
6
CONTINUOUS
10
50.2457
20
-130.958
11
50.2457
21
-131.434
0
LINE
8
BLACK
6
CONTINUOUS
10
50.2457
20
-131.434
11
50.1505
21
-131.624
0
LINE
8
BLACK
6
CONTINUOUS
10
50.1505
20
-131.624
11
50.0552
21
-131.72
0
LINE
8
BLACK
6
CONTINUOUS
10
50.0552
20
-131.72
11
49.8648
21
-131.815
0
LINE
8
BLACK
6
CONTINUOUS
10
49.8648
20
-131.815
11
49.3886
21
-131.815
0
LINE
8
BLACK
6
CONTINUOUS
10
49.3886
20
-131.815
11
49.1981
21
-131.72
0
LINE
8
BLACK
6
CONTINUOUS
10
49.1981
20
-131.72
11
49.1029
21
-131.624
0
LINE
8
BLACK
6
CONTINUOUS
10
51.4838
20
-129.815
11
51.6743
21
-129.815
0
LINE
8
BLACK
6
CONTINUOUS
10
51.6743
20
-129.815
11
51.8648
21
-129.91
0
LINE
8
BLACK
6
CONTINUOUS
10
51.8648
20
-129.91
11
51.96
21
-130.005
0
LINE
8
BLACK
6
CONTINUOUS
10
51.96
20
-130.005
11
52.0552
21
-130.196
0
LINE
8
BLACK
6
CONTINUOUS
10
52.0552
20
-130.196
11
52.1505
21
-130.577
0
LINE
8
BLACK
6
CONTINUOUS
10
52.1505
20
-130.577
11
52.1505
21
-131.053
0
LINE
8
BLACK
6
CONTINUOUS
10
52.1505
20
-131.053
11
52.0552
21
-131.434
0
LINE
8
BLACK
6
CONTINUOUS
10
52.0552
20
-131.434
11
51.96
21
-131.624
0
LINE
8
BLACK
6
CONTINUOUS
10
51.96
20
-131.624
11
51.8648
21
-131.72
0
LINE
8
BLACK
6
CONTINUOUS
10
51.8648
20
-131.72
11
51.6743
21
-131.815
0
LINE
8
BLACK
6
CONTINUOUS
10
51.6743
20
-131.815
11
51.4838
21
-131.815
0
LINE
8
BLACK
6
CONTINUOUS
10
51.4838
20
-131.815
11
51.2933
21
-131.72
0
LINE
8
BLACK
6
CONTINUOUS
10
51.2933
20
-131.72
11
51.1981
21
-131.624
0
LINE
8
BLACK
6
CONTINUOUS
10
51.1981
20
-131.624
11
51.1029
21
-131.434
0
LINE
8
BLACK
6
CONTINUOUS
10
51.1029
20
-131.434
11
51.0076
21
-131.053
0
LINE
8
BLACK
6
CONTINUOUS
10
51.0076
20
-131.053
11
51.0076
21
-130.577
0
LINE
8
BLACK
6
CONTINUOUS
10
51.0076
20
-130.577
11
51.1029
21
-130.196
0
LINE
8
BLACK
6
CONTINUOUS
10
51.1029
20
-130.196
11
51.1981
21
-130.005
0
LINE
8
BLACK
6
CONTINUOUS
10
51.1981
20
-130.005
11
51.2933
21
-129.91
0
LINE
8
BLACK
6
CONTINUOUS
10
51.2933
20
-129.91
11
51.4838
21
-129.815
0
LINE
8
BLACK
6
CONTINUOUS
10
53.0076
20
-131.815
11
53.0076
21
-130.481
0
LINE
8
BLACK
6
CONTINUOUS
10
53.0076
20
-130.672
11
53.1029
21
-130.577
0
LINE
8
BLACK
6
CONTINUOUS
10
53.1029
20
-130.577
11
53.2933
21
-130.481
0
LINE
8
BLACK
6
CONTINUOUS
10
53.2933
20
-130.481
11
53.579
21
-130.481
0
LINE
8
BLACK
6
CONTINUOUS
10
53.579
20
-130.481
11
53.7695
21
-130.577
0
LINE
8
BLACK
6
CONTINUOUS
10
53.7695
20
-130.577
11
53.8648
21
-130.767
0
LINE
8
BLACK
6
CONTINUOUS
10
53.8648
20
-130.767
11
53.8648
21
-131.815
0
LINE
8
BLACK
6
CONTINUOUS
10
53.8648
20
-130.767
11
53.96
21
-130.577
0
LINE
8
BLACK
6
CONTINUOUS
10
53.96
20
-130.577
11
54.1505
21
-130.481
0
LINE
8
BLACK
6
CONTINUOUS
10
54.1505
20
-130.481
11
54.4362
21
-130.481
0
LINE
8
BLACK
6
CONTINUOUS
10
54.4362
20
-130.481
11
54.6267
21
-130.577
0
LINE
8
BLACK
6
CONTINUOUS
10
54.6267
20
-130.577
11
54.7219
21
-130.767
0
LINE
8
BLACK
6
CONTINUOUS
10
54.7219
20
-130.767
11
54.7219
21
-131.815
0
LINE
8
BLACK
6
CONTINUOUS
10
55.6743
20
-131.815
11
55.6743
21
-130.481
0
LINE
8
BLACK
6
CONTINUOUS
10
55.6743
20
-130.672
11
55.7695
21
-130.577
0
LINE
8
BLACK
6
CONTINUOUS
10
55.7695
20
-130.577
11
55.96
21
-130.481
0
LINE
8
BLACK
6
CONTINUOUS
10
55.96
20
-130.481
11
56.2457
21
-130.481
0
LINE
8
BLACK
6
CONTINUOUS
10
56.2457
20
-130.481
11
56.4362
21
-130.577
0
LINE
8
BLACK
6
CONTINUOUS
10
56.4362
20
-130.577
11
56.5314
21
-130.767
0
LINE
8
BLACK
6
CONTINUOUS
10
56.5314
20
-130.767
11
56.5314
21
-131.815
0
LINE
8
BLACK
6
CONTINUOUS
10
56.5314
20
-130.767
11
56.6267
21
-130.577
0
LINE
8
BLACK
6
CONTINUOUS
10
56.6267
20
-130.577
11
56.8171
21
-130.481
0
LINE
8
BLACK
6
CONTINUOUS
10
56.8171
20
-130.481
11
57.1029
21
-130.481
0
LINE
8
BLACK
6
CONTINUOUS
10
57.1029
20
-130.481
11
57.2933
21
-130.577
0
LINE
8
BLACK
6
CONTINUOUS
10
57.2933
20
-130.577
11
57.3886
21
-130.767
0
LINE
8
BLACK
6
CONTINUOUS
10
57.3886
20
-130.767
11
57.3886
21
-131.815
0
LINE
8
BLACK
6
CONTINUOUS
10
61.2933
20
-129.72
11
59.579
21
-132.291
0
LINE
8
BLACK
6
CONTINUOUS
10
63.8648
20
-129.815
11
64.0552
21
-129.815
0
LINE
8
BLACK
6
CONTINUOUS
10
64.0552
20
-129.815
11
64.2457
21
-129.91
0
LINE
8
BLACK
6
CONTINUOUS
10
64.2457
20
-129.91
11
64.341
21
-130.005
0
LINE
8
BLACK
6
CONTINUOUS
10
64.341
20
-130.005
11
64.4362
21
-130.196
0
LINE
8
BLACK
6
CONTINUOUS
10
64.4362
20
-130.196
11
64.5314
21
-130.577
0
LINE
8
BLACK
6
CONTINUOUS
10
64.5314
20
-130.577
11
64.5314
21
-131.053
0
LINE
8
BLACK
6
CONTINUOUS
10
64.5314
20
-131.053
11
64.4362
21
-131.434
0
LINE
8
BLACK
6
CONTINUOUS
10
64.4362
20
-131.434
11
64.341
21
-131.624
0
LINE
8
BLACK
6
CONTINUOUS
10
64.341
20
-131.624
11
64.2457
21
-131.72
0
LINE
8
BLACK
6
CONTINUOUS
10
64.2457
20
-131.72
11
64.0552
21
-131.815
0
LINE
8
BLACK
6
CONTINUOUS
10
64.0552
20
-131.815
11
63.8648
21
-131.815
0
LINE
8
BLACK
6
CONTINUOUS
10
63.8648
20
-131.815
11
63.6743
21
-131.72
0
LINE
8
BLACK
6
CONTINUOUS
10
63.6743
20
-131.72
11
63.579
21
-131.624
0
LINE
8
BLACK
6
CONTINUOUS
10
63.579
20
-131.624
11
63.4838
21
-131.434
0
LINE
8
BLACK
6
CONTINUOUS
10
63.4838
20
-131.434
11
63.3886
21
-131.053
0
LINE
8
BLACK
6
CONTINUOUS
10
63.3886
20
-131.053
11
63.3886
21
-130.577
0
LINE
8
BLACK
6
CONTINUOUS
10
63.3886
20
-130.577
11
63.4838
21
-130.196
0
LINE
8
BLACK
6
CONTINUOUS
10
63.4838
20
-130.196
11
63.579
21
-130.005
0
LINE
8
BLACK
6
CONTINUOUS
10
63.579
20
-130.005
11
63.6743
21
-129.91
0
LINE
8
BLACK
6
CONTINUOUS
10
63.6743
20
-129.91
11
63.8648
21
-129.815
0
LINE
8
BLACK
6
CONTINUOUS
10
65.3886
20
-131.624
11
65.4838
21
-131.72
0
LINE
8
BLACK
6
CONTINUOUS
10
65.4838
20
-131.72
11
65.3886
21
-131.815
0
LINE
8
BLACK
6
CONTINUOUS
10
65.3886
20
-131.815
11
65.2933
21
-131.72
0
LINE
8
BLACK
6
CONTINUOUS
10
65.2933
20
-131.72
11
65.3886
21
-131.624
0
LINE
8
BLACK
6
CONTINUOUS
10
65.3886
20
-131.624
11
65.3886
21
-131.815
0
LINE
8
BLACK
6
CONTINUOUS
10
66.7219
20
-129.815
11
66.9124
21
-129.815
0
LINE
8
BLACK
6
CONTINUOUS
10
66.9124
20
-129.815
11
67.1029
21
-129.91
0
LINE
8
BLACK
6
CONTINUOUS
10
67.1029
20
-129.91
11
67.1981
21
-130.005
0
LINE
8
BLACK
6
CONTINUOUS
10
67.1981
20
-130.005
11
67.2933
21
-130.196
0
LINE
8
BLACK
6
CONTINUOUS
10
67.2933
20
-130.196
11
67.3886
21
-130.577
0
LINE
8
BLACK
6
CONTINUOUS
10
67.3886
20
-130.577
11
67.3886
21
-131.053
0
LINE
8
BLACK
6
CONTINUOUS
10
67.3886
20
-131.053
11
67.2933
21
-131.434
0
LINE
8
BLACK
6
CONTINUOUS
10
67.2933
20
-131.434
11
67.1981
21
-131.624
0
LINE
8
BLACK
6
CONTINUOUS
10
67.1981
20
-131.624
11
67.1029
21
-131.72
0
LINE
8
BLACK
6
CONTINUOUS
10
67.1029
20
-131.72
11
66.9124
21
-131.815
0
LINE
8
BLACK
6
CONTINUOUS
10
66.9124
20
-131.815
11
66.7219
21
-131.815
0
LINE
8
BLACK
6
CONTINUOUS
10
66.7219
20
-131.815
11
66.5314
21
-131.72
0
LINE
8
BLACK
6
CONTINUOUS
10
66.5314
20
-131.72
11
66.4362
21
-131.624
0
LINE
8
BLACK
6
CONTINUOUS
10
66.4362
20
-131.624
11
66.341
21
-131.434
0
LINE
8
BLACK
6
CONTINUOUS
10
66.341
20
-131.434
11
66.2457
21
-131.053
0
LINE
8
BLACK
6
CONTINUOUS
10
66.2457
20
-131.053
11
66.2457
21
-130.577
0
LINE
8
BLACK
6
CONTINUOUS
10
66.2457
20
-130.577
11
66.341
21
-130.196
0
LINE
8
BLACK
6
CONTINUOUS
10
66.341
20
-130.196
11
66.4362
21
-130.005
0
LINE
8
BLACK
6
CONTINUOUS
10
66.4362
20
-130.005
11
66.5314
21
-129.91
0
LINE
8
BLACK
6
CONTINUOUS
10
66.5314
20
-129.91
11
66.7219
21
-129.815
0
LINE
8
BLACK
6
CONTINUOUS
10
68.1505
20
-130.005
11
68.2457
21
-129.91
0
LINE
8
BLACK
6
CONTINUOUS
10
68.2457
20
-129.91
11
68.4362
21
-129.815
0
LINE
8
BLACK
6
CONTINUOUS
10
68.4362
20
-129.815
11
68.9124
21
-129.815
0
LINE
8
BLACK
6
CONTINUOUS
10
68.9124
20
-129.815
11
69.1029
21
-129.91
0
LINE
8
BLACK
6
CONTINUOUS
10
69.1029
20
-129.91
11
69.1981
21
-130.005
0
LINE
8
BLACK
6
CONTINUOUS
10
69.1981
20
-130.005
11
69.2933
21
-130.196
0
LINE
8
BLACK
6
CONTINUOUS
10
69.2933
20
-130.196
11
69.2933
21
-130.386
0
LINE
8
BLACK
6
CONTINUOUS
10
69.2933
20
-130.386
11
69.1981
21
-130.672
0
LINE
8
BLACK
6
CONTINUOUS
10
69.1981
20
-130.672
11
68.0552
21
-131.815
0
LINE
8
BLACK
6
CONTINUOUS
10
68.0552
20
-131.815
11
69.2933
21
-131.815
0
LINE
8
BLACK
6
CONTINUOUS
10
71.1029
20
-129.815
11
70.1505
21
-129.815
0
LINE
8
BLACK
6
CONTINUOUS
10
70.1505
20
-129.815
11
70.0552
21
-130.767
0
LINE
8
BLACK
6
CONTINUOUS
10
70.0552
20
-130.767
11
70.1505
21
-130.672
0
LINE
8
BLACK
6
CONTINUOUS
10
70.1505
20
-130.672
11
70.341
21
-130.577
0
LINE
8
BLACK
6
CONTINUOUS
10
70.341
20
-130.577
11
70.8171
21
-130.577
0
LINE
8
BLACK
6
CONTINUOUS
10
70.8171
20
-130.577
11
71.0076
21
-130.672
0
LINE
8
BLACK
6
CONTINUOUS
10
71.0076
20
-130.672
11
71.1029
21
-130.767
0
LINE
8
BLACK
6
CONTINUOUS
10
71.1029
20
-130.767
11
71.1981
21
-130.958
0
LINE
8
BLACK
6
CONTINUOUS
10
71.1981
20
-130.958
11
71.1981
21
-131.434
0
LINE
8
BLACK
6
CONTINUOUS
10
71.1981
20
-131.434
11
71.1029
21
-131.624
0
LINE
8
BLACK
6
CONTINUOUS
10
71.1029
20
-131.624
11
71.0076
21
-131.72
0
LINE
8
BLACK
6
CONTINUOUS
10
71.0076
20
-131.72
11
70.8171
21
-131.815
0
LINE
8
BLACK
6
CONTINUOUS
10
70.8171
20
-131.815
11
70.341
21
-131.815
0
LINE
8
BLACK
6
CONTINUOUS
10
70.341
20
-131.815
11
70.1505
21
-131.72
0
LINE
8
BLACK
6
CONTINUOUS
10
70.1505
20
-131.72
11
70.0552
21
-131.624
0
LINE
8
BLACK
6
CONTINUOUS
10
72.9124
20
-129.815
11
72.5314
21
-129.815
0
LINE
8
BLACK
6
CONTINUOUS
10
72.5314
20
-129.815
11
72.341
21
-129.91
0
LINE
8
BLACK
6
CONTINUOUS
10
72.341
20
-129.91
11
72.2457
21
-130.005
0
LINE
8
BLACK
6
CONTINUOUS
10
72.2457
20
-130.005
11
72.0552
21
-130.291
0
LINE
8
BLACK
6
CONTINUOUS
10
72.0552
20
-130.291
11
71.96
21
-130.672
0
LINE
8
BLACK
6
CONTINUOUS
10
71.96
20
-130.672
11
71.96
21
-131.434
0
LINE
8
BLACK
6
CONTINUOUS
10
71.96
20
-131.434
11
72.0552
21
-131.624
0
LINE
8
BLACK
6
CONTINUOUS
10
72.0552
20
-131.624
11
72.1505
21
-131.72
0
LINE
8
BLACK
6
CONTINUOUS
10
72.1505
20
-131.72
11
72.341
21
-131.815
0
LINE
8
BLACK
6
CONTINUOUS
10
72.341
20
-131.815
11
72.7219
21
-131.815
0
LINE
8
BLACK
6
CONTINUOUS
10
72.7219
20
-131.815
11
72.9124
21
-131.72
0
LINE
8
BLACK
6
CONTINUOUS
10
72.9124
20
-131.72
11
73.0076
21
-131.624
0
LINE
8
BLACK
6
CONTINUOUS
10
73.0076
20
-131.624
11
73.1029
21
-131.434
0
LINE
8
BLACK
6
CONTINUOUS
10
73.1029
20
-131.434
11
73.1029
21
-130.958
0
LINE
8
BLACK
6
CONTINUOUS
10
73.1029
20
-130.958
11
73.0076
21
-130.767
0
LINE
8
BLACK
6
CONTINUOUS
10
73.0076
20
-130.767
11
72.9124
21
-130.672
0
LINE
8
BLACK
6
CONTINUOUS
10
72.9124
20
-130.672
11
72.7219
21
-130.577
0
LINE
8
BLACK
6
CONTINUOUS
10
72.7219
20
-130.577
11
72.341
21
-130.577
0
LINE
8
BLACK
6
CONTINUOUS
10
72.341
20
-130.577
11
72.1505
21
-130.672
0
LINE
8
BLACK
6
CONTINUOUS
10
72.1505
20
-130.672
11
72.0552
21
-130.767
0
LINE
8
BLACK
6
CONTINUOUS
10
72.0552
20
-130.767
11
71.96
21
-130.958
0
LINE
8
BLACK
6
CONTINUOUS
10
73.8648
20
-129.815
11
73.8648
21
-130.196
0
LINE
8
BLACK
6
CONTINUOUS
10
74.6267
20
-129.815
11
74.6267
21
-130.196
0
LINE
8
BLACK
6
CONTINUOUS
10
77.579
20
-132.577
11
77.4838
21
-132.481
0
LINE
8
BLACK
6
CONTINUOUS
10
77.4838
20
-132.481
11
77.2933
21
-132.196
0
LINE
8
BLACK
6
CONTINUOUS
10
77.2933
20
-132.196
11
77.1981
21
-132.005
0
LINE
8
BLACK
6
CONTINUOUS
10
77.1981
20
-132.005
11
77.1029
21
-131.72
0
LINE
8
BLACK
6
CONTINUOUS
10
77.1029
20
-131.72
11
77.0076
21
-131.243
0
LINE
8
BLACK
6
CONTINUOUS
10
77.0076
20
-131.243
11
77.0076
21
-130.862
0
LINE
8
BLACK
6
CONTINUOUS
10
77.0076
20
-130.862
11
77.1029
21
-130.386
0
LINE
8
BLACK
6
CONTINUOUS
10
77.1029
20
-130.386
11
77.1981
21
-130.1
0
LINE
8
BLACK
6
CONTINUOUS
10
77.1981
20
-130.1
11
77.2933
21
-129.91
0
LINE
8
BLACK
6
CONTINUOUS
10
77.2933
20
-129.91
11
77.4838
21
-129.624
0
LINE
8
BLACK
6
CONTINUOUS
10
77.4838
20
-129.624
11
77.579
21
-129.529
0
LINE
8
BLACK
6
CONTINUOUS
10
78.2457
20
-130.005
11
78.341
21
-129.91
0
LINE
8
BLACK
6
CONTINUOUS
10
78.341
20
-129.91
11
78.5314
21
-129.815
0
LINE
8
BLACK
6
CONTINUOUS
10
78.5314
20
-129.815
11
79.0076
21
-129.815
0
LINE
8
BLACK
6
CONTINUOUS
10
79.0076
20
-129.815
11
79.1981
21
-129.91
0
LINE
8
BLACK
6
CONTINUOUS
10
79.1981
20
-129.91
11
79.2933
21
-130.005
0
LINE
8
BLACK
6
CONTINUOUS
10
79.2933
20
-130.005
11
79.3886
21
-130.196
0
LINE
8
BLACK
6
CONTINUOUS
10
79.3886
20
-130.196
11
79.3886
21
-130.386
0
LINE
8
BLACK
6
CONTINUOUS
10
79.3886
20
-130.386
11
79.2933
21
-130.672
0
LINE
8
BLACK
6
CONTINUOUS
10
79.2933
20
-130.672
11
78.1505
21
-131.815
0
LINE
8
BLACK
6
CONTINUOUS
10
78.1505
20
-131.815
11
79.3886
21
-131.815
0
LINE
8
BLACK
6
CONTINUOUS
10
81.7695
20
-131.815
11
81.7695
21
-129.815
0
LINE
8
BLACK
6
CONTINUOUS
10
82.6267
20
-131.815
11
82.6267
21
-130.767
0
LINE
8
BLACK
6
CONTINUOUS
10
82.6267
20
-130.767
11
82.5314
21
-130.577
0
LINE
8
BLACK
6
CONTINUOUS
10
82.5314
20
-130.577
11
82.341
21
-130.481
0
LINE
8
BLACK
6
CONTINUOUS
10
82.341
20
-130.481
11
82.0552
21
-130.481
0
LINE
8
BLACK
6
CONTINUOUS
10
82.0552
20
-130.481
11
81.8648
21
-130.577
0
LINE
8
BLACK
6
CONTINUOUS
10
81.8648
20
-130.577
11
81.7695
21
-130.672
0
LINE
8
BLACK
6
CONTINUOUS
10
83.8648
20
-131.815
11
83.6743
21
-131.72
0
LINE
8
BLACK
6
CONTINUOUS
10
83.6743
20
-131.72
11
83.579
21
-131.624
0
LINE
8
BLACK
6
CONTINUOUS
10
83.579
20
-131.624
11
83.4838
21
-131.434
0
LINE
8
BLACK
6
CONTINUOUS
10
83.4838
20
-131.434
11
83.4838
21
-130.862
0
LINE
8
BLACK
6
CONTINUOUS
10
83.4838
20
-130.862
11
83.579
21
-130.672
0
LINE
8
BLACK
6
CONTINUOUS
10
83.579
20
-130.672
11
83.6743
21
-130.577
0
LINE
8
BLACK
6
CONTINUOUS
10
83.6743
20
-130.577
11
83.8648
21
-130.481
0
LINE
8
BLACK
6
CONTINUOUS
10
83.8648
20
-130.481
11
84.1505
21
-130.481
0
LINE
8
BLACK
6
CONTINUOUS
10
84.1505
20
-130.481
11
84.341
21
-130.577
0
LINE
8
BLACK
6
CONTINUOUS
10
84.341
20
-130.577
11
84.4362
21
-130.672
0
LINE
8
BLACK
6
CONTINUOUS
10
84.4362
20
-130.672
11
84.5314
21
-130.862
0
LINE
8
BLACK
6
CONTINUOUS
10
84.5314
20
-130.862
11
84.5314
21
-131.434
0
LINE
8
BLACK
6
CONTINUOUS
10
84.5314
20
-131.434
11
84.4362
21
-131.624
0
LINE
8
BLACK
6
CONTINUOUS
10
84.4362
20
-131.624
11
84.341
21
-131.72
0
LINE
8
BLACK
6
CONTINUOUS
10
84.341
20
-131.72
11
84.1505
21
-131.815
0
LINE
8
BLACK
6
CONTINUOUS
10
84.1505
20
-131.815
11
83.8648
21
-131.815
0
LINE
8
BLACK
6
CONTINUOUS
10
85.6743
20
-131.815
11
85.4838
21
-131.72
0
LINE
8
BLACK
6
CONTINUOUS
10
85.4838
20
-131.72
11
85.3886
21
-131.529
0
LINE
8
BLACK
6
CONTINUOUS
10
85.3886
20
-131.529
11
85.3886
21
-129.815
0
LINE
8
BLACK
6
CONTINUOUS
10
87.1981
20
-131.72
11
87.0076
21
-131.815
0
LINE
8
BLACK
6
CONTINUOUS
10
87.0076
20
-131.815
11
86.6267
21
-131.815
0
LINE
8
BLACK
6
CONTINUOUS
10
86.6267
20
-131.815
11
86.4362
21
-131.72
0
LINE
8
BLACK
6
CONTINUOUS
10
86.4362
20
-131.72
11
86.341
21
-131.529
0
LINE
8
BLACK
6
CONTINUOUS
10
86.341
20
-131.529
11
86.341
21
-130.767
0
LINE
8
BLACK
6
CONTINUOUS
10
86.341
20
-130.767
11
86.4362
21
-130.577
0
LINE
8
BLACK
6
CONTINUOUS
10
86.4362
20
-130.577
11
86.6267
21
-130.481
0
LINE
8
BLACK
6
CONTINUOUS
10
86.6267
20
-130.481
11
87.0076
21
-130.481
0
LINE
8
BLACK
6
CONTINUOUS
10
87.0076
20
-130.481
11
87.1981
21
-130.577
0
LINE
8
BLACK
6
CONTINUOUS
10
87.1981
20
-130.577
11
87.2933
21
-130.767
0
LINE
8
BLACK
6
CONTINUOUS
10
87.2933
20
-130.767
11
87.2933
21
-130.958
0
LINE
8
BLACK
6
CONTINUOUS
10
87.2933
20
-130.958
11
86.341
21
-131.148
0
LINE
8
BLACK
6
CONTINUOUS
10
88.0552
20
-131.72
11
88.2457
21
-131.815
0
LINE
8
BLACK
6
CONTINUOUS
10
88.2457
20
-131.815
11
88.6267
21
-131.815
0
LINE
8
BLACK
6
CONTINUOUS
10
88.6267
20
-131.815
11
88.8171
21
-131.72
0
LINE
8
BLACK
6
CONTINUOUS
10
88.8171
20
-131.72
11
88.9124
21
-131.529
0
LINE
8
BLACK
6
CONTINUOUS
10
88.9124
20
-131.529
11
88.9124
21
-131.434
0
LINE
8
BLACK
6
CONTINUOUS
10
88.9124
20
-131.434
11
88.8171
21
-131.243
0
LINE
8
BLACK
6
CONTINUOUS
10
88.8171
20
-131.243
11
88.6267
21
-131.148
0
LINE
8
BLACK
6
CONTINUOUS
10
88.6267
20
-131.148
11
88.341
21
-131.148
0
LINE
8
BLACK
6
CONTINUOUS
10
88.341
20
-131.148
11
88.1505
21
-131.053
0
LINE
8
BLACK
6
CONTINUOUS
10
88.1505
20
-131.053
11
88.0552
21
-130.862
0
LINE
8
BLACK
6
CONTINUOUS
10
88.0552
20
-130.862
11
88.0552
21
-130.767
0
LINE
8
BLACK
6
CONTINUOUS
10
88.0552
20
-130.767
11
88.1505
21
-130.577
0
LINE
8
BLACK
6
CONTINUOUS
10
88.1505
20
-130.577
11
88.341
21
-130.481
0
LINE
8
BLACK
6
CONTINUOUS
10
88.341
20
-130.481
11
88.6267
21
-130.481
0
LINE
8
BLACK
6
CONTINUOUS
10
88.6267
20
-130.481
11
88.8171
21
-130.577
0
LINE
8
BLACK
6
CONTINUOUS
10
89.579
20
-132.577
11
89.6743
21
-132.481
0
LINE
8
BLACK
6
CONTINUOUS
10
89.6743
20
-132.481
11
89.8648
21
-132.196
0
LINE
8
BLACK
6
CONTINUOUS
10
89.8648
20
-132.196
11
89.96
21
-132.005
0
LINE
8
BLACK
6
CONTINUOUS
10
89.96
20
-132.005
11
90.0552
21
-131.72
0
LINE
8
BLACK
6
CONTINUOUS
10
90.0552
20
-131.72
11
90.1505
21
-131.243
0
LINE
8
BLACK
6
CONTINUOUS
10
90.1505
20
-131.243
11
90.1505
21
-130.862
0
LINE
8
BLACK
6
CONTINUOUS
10
90.1505
20
-130.862
11
90.0552
21
-130.386
0
LINE
8
BLACK
6
CONTINUOUS
10
90.0552
20
-130.386
11
89.96
21
-130.1
0
LINE
8
BLACK
6
CONTINUOUS
10
89.96
20
-130.1
11
89.8648
21
-129.91
0
LINE
8
BLACK
6
CONTINUOUS
10
89.8648
20
-129.91
11
89.6743
21
-129.624
0
LINE
8
BLACK
6
CONTINUOUS
10
89.6743
20
-129.624
11
89.579
21
-129.529
0
LINE
8
BLACK
6
CONTINUOUS
10
93.1981
20
-132.577
11
93.1029
21
-132.481
0
LINE
8
BLACK
6
CONTINUOUS
10
93.1029
20
-132.481
11
92.9124
21
-132.196
0
LINE
8
BLACK
6
CONTINUOUS
10
92.9124
20
-132.196
11
92.8171
21
-132.005
0
LINE
8
BLACK
6
CONTINUOUS
10
92.8171
20
-132.005
11
92.7219
21
-131.72
0
LINE
8
BLACK
6
CONTINUOUS
10
92.7219
20
-131.72
11
92.6267
21
-131.243
0
LINE
8
BLACK
6
CONTINUOUS
10
92.6267
20
-131.243
11
92.6267
21
-130.862
0
LINE
8
BLACK
6
CONTINUOUS
10
92.6267
20
-130.862
11
92.7219
21
-130.386
0
LINE
8
BLACK
6
CONTINUOUS
10
92.7219
20
-130.386
11
92.8171
21
-130.1
0
LINE
8
BLACK
6
CONTINUOUS
10
92.8171
20
-130.1
11
92.9124
21
-129.91
0
LINE
8
BLACK
6
CONTINUOUS
10
92.9124
20
-129.91
11
93.1029
21
-129.624
0
LINE
8
BLACK
6
CONTINUOUS
10
93.1029
20
-129.624
11
93.1981
21
-129.529
0
LINE
8
BLACK
6
CONTINUOUS
10
93.96
20
-130.481
11
93.96
21
-131.815
0
LINE
8
BLACK
6
CONTINUOUS
10
93.96
20
-130.672
11
94.0552
21
-130.577
0
LINE
8
BLACK
6
CONTINUOUS
10
94.0552
20
-130.577
11
94.2457
21
-130.481
0
LINE
8
BLACK
6
CONTINUOUS
10
94.2457
20
-130.481
11
94.5314
21
-130.481
0
LINE
8
BLACK
6
CONTINUOUS
10
94.5314
20
-130.481
11
94.7219
21
-130.577
0
LINE
8
BLACK
6
CONTINUOUS
10
94.7219
20
-130.577
11
94.8171
21
-130.767
0
LINE
8
BLACK
6
CONTINUOUS
10
94.8171
20
-130.767
11
94.8171
21
-131.815
0
LINE
8
BLACK
6
CONTINUOUS
10
96.0552
20
-131.815
11
95.8648
21
-131.72
0
LINE
8
BLACK
6
CONTINUOUS
10
95.8648
20
-131.72
11
95.7695
21
-131.624
0
LINE
8
BLACK
6
CONTINUOUS
10
95.7695
20
-131.624
11
95.6743
21
-131.434
0
LINE
8
BLACK
6
CONTINUOUS
10
95.6743
20
-131.434
11
95.6743
21
-130.862
0
LINE
8
BLACK
6
CONTINUOUS
10
95.6743
20
-130.862
11
95.7695
21
-130.672
0
LINE
8
BLACK
6
CONTINUOUS
10
95.7695
20
-130.672
11
95.8648
21
-130.577
0
LINE
8
BLACK
6
CONTINUOUS
10
95.8648
20
-130.577
11
96.0552
21
-130.481
0
LINE
8
BLACK
6
CONTINUOUS
10
96.0552
20
-130.481
11
96.341
21
-130.481
0
LINE
8
BLACK
6
CONTINUOUS
10
96.341
20
-130.481
11
96.5314
21
-130.577
0
LINE
8
BLACK
6
CONTINUOUS
10
96.5314
20
-130.577
11
96.6267
21
-130.672
0
LINE
8
BLACK
6
CONTINUOUS
10
96.6267
20
-130.672
11
96.7219
21
-130.862
0
LINE
8
BLACK
6
CONTINUOUS
10
96.7219
20
-130.862
11
96.7219
21
-131.434
0
LINE
8
BLACK
6
CONTINUOUS
10
96.7219
20
-131.434
11
96.6267
21
-131.624
0
LINE
8
BLACK
6
CONTINUOUS
10
96.6267
20
-131.624
11
96.5314
21
-131.72
0
LINE
8
BLACK
6
CONTINUOUS
10
96.5314
20
-131.72
11
96.341
21
-131.815
0
LINE
8
BLACK
6
CONTINUOUS
10
96.341
20
-131.815
11
96.0552
21
-131.815
0
LINE
8
BLACK
6
CONTINUOUS
10
97.2933
20
-130.481
11
98.0552
21
-130.481
0
LINE
8
BLACK
6
CONTINUOUS
10
97.579
20
-129.815
11
97.579
21
-131.529
0
LINE
8
BLACK
6
CONTINUOUS
10
97.579
20
-131.529
11
97.6743
21
-131.72
0
LINE
8
BLACK
6
CONTINUOUS
10
97.6743
20
-131.72
11
97.8648
21
-131.815
0
LINE
8
BLACK
6
CONTINUOUS
10
97.8648
20
-131.815
11
98.0552
21
-131.815
0
LINE
8
BLACK
6
CONTINUOUS
10
100.246
20
-130.481
11
100.246
21
-132.481
0
LINE
8
BLACK
6
CONTINUOUS
10
100.246
20
-130.577
11
100.436
21
-130.481
0
LINE
8
BLACK
6
CONTINUOUS
10
100.436
20
-130.481
11
100.817
21
-130.481
0
LINE
8
BLACK
6
CONTINUOUS
10
100.817
20
-130.481
11
101.008
21
-130.577
0
LINE
8
BLACK
6
CONTINUOUS
10
101.008
20
-130.577
11
101.103
21
-130.672
0
LINE
8
BLACK
6
CONTINUOUS
10
101.103
20
-130.672
11
101.198
21
-130.862
0
LINE
8
BLACK
6
CONTINUOUS
10
101.198
20
-130.862
11
101.198
21
-131.434
0
LINE
8
BLACK
6
CONTINUOUS
10
101.198
20
-131.434
11
101.103
21
-131.624
0
LINE
8
BLACK
6
CONTINUOUS
10
101.103
20
-131.624
11
101.008
21
-131.72
0
LINE
8
BLACK
6
CONTINUOUS
10
101.008
20
-131.72
11
100.817
21
-131.815
0
LINE
8
BLACK
6
CONTINUOUS
10
100.817
20
-131.815
11
100.436
21
-131.815
0
LINE
8
BLACK
6
CONTINUOUS
10
100.436
20
-131.815
11
100.246
21
-131.72
0
LINE
8
BLACK
6
CONTINUOUS
10
102.341
20
-131.815
11
102.15
21
-131.72
0
LINE
8
BLACK
6
CONTINUOUS
10
102.15
20
-131.72
11
102.055
21
-131.529
0
LINE
8
BLACK
6
CONTINUOUS
10
102.055
20
-131.529
11
102.055
21
-129.815
0
LINE
8
BLACK
6
CONTINUOUS
10
103.96
20
-131.815
11
103.96
21
-130.767
0
LINE
8
BLACK
6
CONTINUOUS
10
103.96
20
-130.767
11
103.865
21
-130.577
0
LINE
8
BLACK
6
CONTINUOUS
10
103.865
20
-130.577
11
103.674
21
-130.481
0
LINE
8
BLACK
6
CONTINUOUS
10
103.674
20
-130.481
11
103.293
21
-130.481
0
LINE
8
BLACK
6
CONTINUOUS
10
103.293
20
-130.481
11
103.103
21
-130.577
0
LINE
8
BLACK
6
CONTINUOUS
10
103.96
20
-131.72
11
103.77
21
-131.815
0
LINE
8
BLACK
6
CONTINUOUS
10
103.77
20
-131.815
11
103.293
21
-131.815
0
LINE
8
BLACK
6
CONTINUOUS
10
103.293
20
-131.815
11
103.103
21
-131.72
0
LINE
8
BLACK
6
CONTINUOUS
10
103.103
20
-131.72
11
103.008
21
-131.529
0
LINE
8
BLACK
6
CONTINUOUS
10
103.008
20
-131.529
11
103.008
21
-131.339
0
LINE
8
BLACK
6
CONTINUOUS
10
103.008
20
-131.339
11
103.103
21
-131.148
0
LINE
8
BLACK
6
CONTINUOUS
10
103.103
20
-131.148
11
103.293
21
-131.053
0
LINE
8
BLACK
6
CONTINUOUS
10
103.293
20
-131.053
11
103.77
21
-131.053
0
LINE
8
BLACK
6
CONTINUOUS
10
103.77
20
-131.053
11
103.96
21
-130.958
0
LINE
8
BLACK
6
CONTINUOUS
10
104.627
20
-130.481
11
105.389
21
-130.481
0
LINE
8
BLACK
6
CONTINUOUS
10
104.912
20
-129.815
11
104.912
21
-131.529
0
LINE
8
BLACK
6
CONTINUOUS
10
104.912
20
-131.529
11
105.008
21
-131.72
0
LINE
8
BLACK
6
CONTINUOUS
10
105.008
20
-131.72
11
105.198
21
-131.815
0
LINE
8
BLACK
6
CONTINUOUS
10
105.198
20
-131.815
11
105.389
21
-131.815
0
LINE
8
BLACK
6
CONTINUOUS
10
106.817
20
-131.72
11
106.627
21
-131.815
0
LINE
8
BLACK
6
CONTINUOUS
10
106.627
20
-131.815
11
106.246
21
-131.815
0
LINE
8
BLACK
6
CONTINUOUS
10
106.246
20
-131.815
11
106.055
21
-131.72
0
LINE
8
BLACK
6
CONTINUOUS
10
106.055
20
-131.72
11
105.96
21
-131.529
0
LINE
8
BLACK
6
CONTINUOUS
10
105.96
20
-131.529
11
105.96
21
-130.767
0
LINE
8
BLACK
6
CONTINUOUS
10
105.96
20
-130.767
11
106.055
21
-130.577
0
LINE
8
BLACK
6
CONTINUOUS
10
106.055
20
-130.577
11
106.246
21
-130.481
0
LINE
8
BLACK
6
CONTINUOUS
10
106.246
20
-130.481
11
106.627
21
-130.481
0
LINE
8
BLACK
6
CONTINUOUS
10
106.627
20
-130.481
11
106.817
21
-130.577
0
LINE
8
BLACK
6
CONTINUOUS
10
106.817
20
-130.577
11
106.912
21
-130.767
0
LINE
8
BLACK
6
CONTINUOUS
10
106.912
20
-130.767
11
106.912
21
-130.958
0
LINE
8
BLACK
6
CONTINUOUS
10
106.912
20
-130.958
11
105.96
21
-131.148
0
LINE
8
BLACK
6
CONTINUOUS
10
108.627
20
-131.815
11
108.627
21
-129.815
0
LINE
8
BLACK
6
CONTINUOUS
10
108.627
20
-131.72
11
108.436
21
-131.815
0
LINE
8
BLACK
6
CONTINUOUS
10
108.436
20
-131.815
11
108.055
21
-131.815
0
LINE
8
BLACK
6
CONTINUOUS
10
108.055
20
-131.815
11
107.865
21
-131.72
0
LINE
8
BLACK
6
CONTINUOUS
10
107.865
20
-131.72
11
107.77
21
-131.624
0
LINE
8
BLACK
6
CONTINUOUS
10
107.77
20
-131.624
11
107.674
21
-131.434
0
LINE
8
BLACK
6
CONTINUOUS
10
107.674
20
-131.434
11
107.674
21
-130.862
0
LINE
8
BLACK
6
CONTINUOUS
10
107.674
20
-130.862
11
107.77
21
-130.672
0
LINE
8
BLACK
6
CONTINUOUS
10
107.77
20
-130.672
11
107.865
21
-130.577
0
LINE
8
BLACK
6
CONTINUOUS
10
107.865
20
-130.577
11
108.055
21
-130.481
0
LINE
8
BLACK
6
CONTINUOUS
10
108.055
20
-130.481
11
108.436
21
-130.481
0
LINE
8
BLACK
6
CONTINUOUS
10
108.436
20
-130.481
11
108.627
21
-130.577
0
LINE
8
BLACK
6
CONTINUOUS
10
109.389
20
-132.577
11
109.484
21
-132.481
0
LINE
8
BLACK
6
CONTINUOUS
10
109.484
20
-132.481
11
109.674
21
-132.196
0
LINE
8
BLACK
6
CONTINUOUS
10
109.674
20
-132.196
11
109.77
21
-132.005
0
LINE
8
BLACK
6
CONTINUOUS
10
109.77
20
-132.005
11
109.865
21
-131.72
0
LINE
8
BLACK
6
CONTINUOUS
10
109.865
20
-131.72
11
109.96
21
-131.243
0
LINE
8
BLACK
6
CONTINUOUS
10
109.96
20
-131.243
11
109.96
21
-130.862
0
LINE
8
BLACK
6
CONTINUOUS
10
109.96
20
-130.862
11
109.865
21
-130.386
0
LINE
8
BLACK
6
CONTINUOUS
10
109.865
20
-130.386
11
109.77
21
-130.1
0
LINE
8
BLACK
6
CONTINUOUS
10
109.77
20
-130.1
11
109.674
21
-129.91
0
LINE
8
BLACK
6
CONTINUOUS
10
109.674
20
-129.91
11
109.484
21
-129.624
0
LINE
8
BLACK
6
CONTINUOUS
10
109.484
20
-129.624
11
109.389
21
-129.529
0
CIRCLE
8
BLACK
10
41.284
20
-133.55
40
0.576
0
LINE
8
BLACK
6
CONTINUOUS
10
45.4838
20
-134.455
11
44.341
21
-134.455
0
LINE
8
BLACK
6
CONTINUOUS
10
44.9124
20
-134.455
11
44.9124
21
-132.455
0
LINE
8
BLACK
6
CONTINUOUS
10
44.9124
20
-132.455
11
44.7219
21
-132.74
0
LINE
8
BLACK
6
CONTINUOUS
10
44.7219
20
-132.74
11
44.5314
21
-132.931
0
LINE
8
BLACK
6
CONTINUOUS
10
44.5314
20
-132.931
11
44.341
21
-133.026
0
LINE
8
BLACK
6
CONTINUOUS
10
46.341
20
-134.264
11
46.4362
21
-134.36
0
LINE
8
BLACK
6
CONTINUOUS
10
46.4362
20
-134.36
11
46.341
21
-134.455
0
LINE
8
BLACK
6
CONTINUOUS
10
46.341
20
-134.455
11
46.2457
21
-134.36
0
LINE
8
BLACK
6
CONTINUOUS
10
46.2457
20
-134.36
11
46.341
21
-134.264
0
LINE
8
BLACK
6
CONTINUOUS
10
46.341
20
-134.264
11
46.341
21
-134.455
0
LINE
8
BLACK
6
CONTINUOUS
10
48.341
20
-134.455
11
47.1981
21
-134.455
0
LINE
8
BLACK
6
CONTINUOUS
10
47.7695
20
-134.455
11
47.7695
21
-132.455
0
LINE
8
BLACK
6
CONTINUOUS
10
47.7695
20
-132.455
11
47.579
21
-132.74
0
LINE
8
BLACK
6
CONTINUOUS
10
47.579
20
-132.74
11
47.3886
21
-132.931
0
LINE
8
BLACK
6
CONTINUOUS
10
47.3886
20
-132.931
11
47.1981
21
-133.026
0
LINE
8
BLACK
6
CONTINUOUS
10
50.1505
20
-132.455
11
49.1981
21
-132.455
0
LINE
8
BLACK
6
CONTINUOUS
10
49.1981
20
-132.455
11
49.1029
21
-133.407
0
LINE
8
BLACK
6
CONTINUOUS
10
49.1029
20
-133.407
11
49.1981
21
-133.312
0
LINE
8
BLACK
6
CONTINUOUS
10
49.1981
20
-133.312
11
49.3886
21
-133.217
0
LINE
8
BLACK
6
CONTINUOUS
10
49.3886
20
-133.217
11
49.8648
21
-133.217
0
LINE
8
BLACK
6
CONTINUOUS
10
49.8648
20
-133.217
11
50.0552
21
-133.312
0
LINE
8
BLACK
6
CONTINUOUS
10
50.0552
20
-133.312
11
50.1505
21
-133.407
0
LINE
8
BLACK
6
CONTINUOUS
10
50.1505
20
-133.407
11
50.2457
21
-133.598
0
LINE
8
BLACK
6
CONTINUOUS
10
50.2457
20
-133.598
11
50.2457
21
-134.074
0
LINE
8
BLACK
6
CONTINUOUS
10
50.2457
20
-134.074
11
50.1505
21
-134.264
0
LINE
8
BLACK
6
CONTINUOUS
10
50.1505
20
-134.264
11
50.0552
21
-134.36
0
LINE
8
BLACK
6
CONTINUOUS
10
50.0552
20
-134.36
11
49.8648
21
-134.455
0
LINE
8
BLACK
6
CONTINUOUS
10
49.8648
20
-134.455
11
49.3886
21
-134.455
0
LINE
8
BLACK
6
CONTINUOUS
10
49.3886
20
-134.455
11
49.1981
21
-134.36
0
LINE
8
BLACK
6
CONTINUOUS
10
49.1981
20
-134.36
11
49.1029
21
-134.264
0
LINE
8
BLACK
6
CONTINUOUS
10
51.0076
20
-132.645
11
51.1029
21
-132.55
0
LINE
8
BLACK
6
CONTINUOUS
10
51.1029
20
-132.55
11
51.2933
21
-132.455
0
LINE
8
BLACK
6
CONTINUOUS
10
51.2933
20
-132.455
11
51.7695
21
-132.455
0
LINE
8
BLACK
6
CONTINUOUS
10
51.7695
20
-132.455
11
51.96
21
-132.55
0
LINE
8
BLACK
6
CONTINUOUS
10
51.96
20
-132.55
11
52.0552
21
-132.645
0
LINE
8
BLACK
6
CONTINUOUS
10
52.0552
20
-132.645
11
52.1505
21
-132.836
0
LINE
8
BLACK
6
CONTINUOUS
10
52.1505
20
-132.836
11
52.1505
21
-133.026
0
LINE
8
BLACK
6
CONTINUOUS
10
52.1505
20
-133.026
11
52.0552
21
-133.312
0
LINE
8
BLACK
6
CONTINUOUS
10
52.0552
20
-133.312
11
50.9124
21
-134.455
0
LINE
8
BLACK
6
CONTINUOUS
10
50.9124
20
-134.455
11
52.1505
21
-134.455
0
LINE
8
BLACK
6
CONTINUOUS
10
53.0076
20
-134.455
11
53.0076
21
-133.121
0
LINE
8
BLACK
6
CONTINUOUS
10
53.0076
20
-133.312
11
53.1029
21
-133.217
0
LINE
8
BLACK
6
CONTINUOUS
10
53.1029
20
-133.217
11
53.2933
21
-133.121
0
LINE
8
BLACK
6
CONTINUOUS
10
53.2933
20
-133.121
11
53.579
21
-133.121
0
LINE
8
BLACK
6
CONTINUOUS
10
53.579
20
-133.121
11
53.7695
21
-133.217
0
LINE
8
BLACK
6
CONTINUOUS
10
53.7695
20
-133.217
11
53.8648
21
-133.407
0
LINE
8
BLACK
6
CONTINUOUS
10
53.8648
20
-133.407
11
53.8648
21
-134.455
0
LINE
8
BLACK
6
CONTINUOUS
10
53.8648
20
-133.407
11
53.96
21
-133.217
0
LINE
8
BLACK
6
CONTINUOUS
10
53.96
20
-133.217
11
54.1505
21
-133.121
0
LINE
8
BLACK
6
CONTINUOUS
10
54.1505
20
-133.121
11
54.4362
21
-133.121
0
LINE
8
BLACK
6
CONTINUOUS
10
54.4362
20
-133.121
11
54.6267
21
-133.217
0
LINE
8
BLACK
6
CONTINUOUS
10
54.6267
20
-133.217
11
54.7219
21
-133.407
0
LINE
8
BLACK
6
CONTINUOUS
10
54.7219
20
-133.407
11
54.7219
21
-134.455
0
LINE
8
BLACK
6
CONTINUOUS
10
55.6743
20
-134.455
11
55.6743
21
-133.121
0
LINE
8
BLACK
6
CONTINUOUS
10
55.6743
20
-133.312
11
55.7695
21
-133.217
0
LINE
8
BLACK
6
CONTINUOUS
10
55.7695
20
-133.217
11
55.96
21
-133.121
0
LINE
8
BLACK
6
CONTINUOUS
10
55.96
20
-133.121
11
56.2457
21
-133.121
0
LINE
8
BLACK
6
CONTINUOUS
10
56.2457
20
-133.121
11
56.4362
21
-133.217
0
LINE
8
BLACK
6
CONTINUOUS
10
56.4362
20
-133.217
11
56.5314
21
-133.407
0
LINE
8
BLACK
6
CONTINUOUS
10
56.5314
20
-133.407
11
56.5314
21
-134.455
0
LINE
8
BLACK
6
CONTINUOUS
10
56.5314
20
-133.407
11
56.6267
21
-133.217
0
LINE
8
BLACK
6
CONTINUOUS
10
56.6267
20
-133.217
11
56.8171
21
-133.121
0
LINE
8
BLACK
6
CONTINUOUS
10
56.8171
20
-133.121
11
57.1029
21
-133.121
0
LINE
8
BLACK
6
CONTINUOUS
10
57.1029
20
-133.121
11
57.2933
21
-133.217
0
LINE
8
BLACK
6
CONTINUOUS
10
57.2933
20
-133.217
11
57.3886
21
-133.407
0
LINE
8
BLACK
6
CONTINUOUS
10
57.3886
20
-133.407
11
57.3886
21
-134.455
0
LINE
8
BLACK
6
CONTINUOUS
10
61.2933
20
-132.36
11
59.579
21
-134.931
0
LINE
8
BLACK
6
CONTINUOUS
10
63.8648
20
-132.455
11
64.0552
21
-132.455
0
LINE
8
BLACK
6
CONTINUOUS
10
64.0552
20
-132.455
11
64.2457
21
-132.55
0
LINE
8
BLACK
6
CONTINUOUS
10
64.2457
20
-132.55
11
64.341
21
-132.645
0
LINE
8
BLACK
6
CONTINUOUS
10
64.341
20
-132.645
11
64.4362
21
-132.836
0
LINE
8
BLACK
6
CONTINUOUS
10
64.4362
20
-132.836
11
64.5314
21
-133.217
0
LINE
8
BLACK
6
CONTINUOUS
10
64.5314
20
-133.217
11
64.5314
21
-133.693
0
LINE
8
BLACK
6
CONTINUOUS
10
64.5314
20
-133.693
11
64.4362
21
-134.074
0
LINE
8
BLACK
6
CONTINUOUS
10
64.4362
20
-134.074
11
64.341
21
-134.264
0
LINE
8
BLACK
6
CONTINUOUS
10
64.341
20
-134.264
11
64.2457
21
-134.36
0
LINE
8
BLACK
6
CONTINUOUS
10
64.2457
20
-134.36
11
64.0552
21
-134.455
0
LINE
8
BLACK
6
CONTINUOUS
10
64.0552
20
-134.455
11
63.8648
21
-134.455
0
LINE
8
BLACK
6
CONTINUOUS
10
63.8648
20
-134.455
11
63.6743
21
-134.36
0
LINE
8
BLACK
6
CONTINUOUS
10
63.6743
20
-134.36
11
63.579
21
-134.264
0
LINE
8
BLACK
6
CONTINUOUS
10
63.579
20
-134.264
11
63.4838
21
-134.074
0
LINE
8
BLACK
6
CONTINUOUS
10
63.4838
20
-134.074
11
63.3886
21
-133.693
0
LINE
8
BLACK
6
CONTINUOUS
10
63.3886
20
-133.693
11
63.3886
21
-133.217
0
LINE
8
BLACK
6
CONTINUOUS
10
63.3886
20
-133.217
11
63.4838
21
-132.836
0
LINE
8
BLACK
6
CONTINUOUS
10
63.4838
20
-132.836
11
63.579
21
-132.645
0
LINE
8
BLACK
6
CONTINUOUS
10
63.579
20
-132.645
11
63.6743
21
-132.55
0
LINE
8
BLACK
6
CONTINUOUS
10
63.6743
20
-132.55
11
63.8648
21
-132.455
0
LINE
8
BLACK
6
CONTINUOUS
10
65.3886
20
-134.264
11
65.4838
21
-134.36
0
LINE
8
BLACK
6
CONTINUOUS
10
65.4838
20
-134.36
11
65.3886
21
-134.455
0
LINE
8
BLACK
6
CONTINUOUS
10
65.3886
20
-134.455
11
65.2933
21
-134.36
0
LINE
8
BLACK
6
CONTINUOUS
10
65.2933
20
-134.36
11
65.3886
21
-134.264
0
LINE
8
BLACK
6
CONTINUOUS
10
65.3886
20
-134.264
11
65.3886
21
-134.455
0
LINE
8
BLACK
6
CONTINUOUS
10
66.7219
20
-132.455
11
66.9124
21
-132.455
0
LINE
8
BLACK
6
CONTINUOUS
10
66.9124
20
-132.455
11
67.1029
21
-132.55
0
LINE
8
BLACK
6
CONTINUOUS
10
67.1029
20
-132.55
11
67.1981
21
-132.645
0
LINE
8
BLACK
6
CONTINUOUS
10
67.1981
20
-132.645
11
67.2933
21
-132.836
0
LINE
8
BLACK
6
CONTINUOUS
10
67.2933
20
-132.836
11
67.3886
21
-133.217
0
LINE
8
BLACK
6
CONTINUOUS
10
67.3886
20
-133.217
11
67.3886
21
-133.693
0
LINE
8
BLACK
6
CONTINUOUS
10
67.3886
20
-133.693
11
67.2933
21
-134.074
0
LINE
8
BLACK
6
CONTINUOUS
10
67.2933
20
-134.074
11
67.1981
21
-134.264
0
LINE
8
BLACK
6
CONTINUOUS
10
67.1981
20
-134.264
11
67.1029
21
-134.36
0
LINE
8
BLACK
6
CONTINUOUS
10
67.1029
20
-134.36
11
66.9124
21
-134.455
0
LINE
8
BLACK
6
CONTINUOUS
10
66.9124
20
-134.455
11
66.7219
21
-134.455
0
LINE
8
BLACK
6
CONTINUOUS
10
66.7219
20
-134.455
11
66.5314
21
-134.36
0
LINE
8
BLACK
6
CONTINUOUS
10
66.5314
20
-134.36
11
66.4362
21
-134.264
0
LINE
8
BLACK
6
CONTINUOUS
10
66.4362
20
-134.264
11
66.341
21
-134.074
0
LINE
8
BLACK
6
CONTINUOUS
10
66.341
20
-134.074
11
66.2457
21
-133.693
0
LINE
8
BLACK
6
CONTINUOUS
10
66.2457
20
-133.693
11
66.2457
21
-133.217
0
LINE
8
BLACK
6
CONTINUOUS
10
66.2457
20
-133.217
11
66.341
21
-132.836
0
LINE
8
BLACK
6
CONTINUOUS
10
66.341
20
-132.836
11
66.4362
21
-132.645
0
LINE
8
BLACK
6
CONTINUOUS
10
66.4362
20
-132.645
11
66.5314
21
-132.55
0
LINE
8
BLACK
6
CONTINUOUS
10
66.5314
20
-132.55
11
66.7219
21
-132.455
0
LINE
8
BLACK
6
CONTINUOUS
10
69.1029
20
-133.121
11
69.1029
21
-134.455
0
LINE
8
BLACK
6
CONTINUOUS
10
68.6267
20
-132.36
11
68.1505
21
-133.788
0
LINE
8
BLACK
6
CONTINUOUS
10
68.1505
20
-133.788
11
69.3886
21
-133.788
0
LINE
8
BLACK
6
CONTINUOUS
10
71.1029
20
-132.455
11
70.1505
21
-132.455
0
LINE
8
BLACK
6
CONTINUOUS
10
70.1505
20
-132.455
11
70.0552
21
-133.407
0
LINE
8
BLACK
6
CONTINUOUS
10
70.0552
20
-133.407
11
70.1505
21
-133.312
0
LINE
8
BLACK
6
CONTINUOUS
10
70.1505
20
-133.312
11
70.341
21
-133.217
0
LINE
8
BLACK
6
CONTINUOUS
10
70.341
20
-133.217
11
70.8171
21
-133.217
0
LINE
8
BLACK
6
CONTINUOUS
10
70.8171
20
-133.217
11
71.0076
21
-133.312
0
LINE
8
BLACK
6
CONTINUOUS
10
71.0076
20
-133.312
11
71.1029
21
-133.407
0
LINE
8
BLACK
6
CONTINUOUS
10
71.1029
20
-133.407
11
71.1981
21
-133.598
0
LINE
8
BLACK
6
CONTINUOUS
10
71.1981
20
-133.598
11
71.1981
21
-134.074
0
LINE
8
BLACK
6
CONTINUOUS
10
71.1981
20
-134.074
11
71.1029
21
-134.264
0
LINE
8
BLACK
6
CONTINUOUS
10
71.1029
20
-134.264
11
71.0076
21
-134.36
0
LINE
8
BLACK
6
CONTINUOUS
10
71.0076
20
-134.36
11
70.8171
21
-134.455
0
LINE
8
BLACK
6
CONTINUOUS
10
70.8171
20
-134.455
11
70.341
21
-134.455
0
LINE
8
BLACK
6
CONTINUOUS
10
70.341
20
-134.455
11
70.1505
21
-134.36
0
LINE
8
BLACK
6
CONTINUOUS
10
70.1505
20
-134.36
11
70.0552
21
-134.264
0
LINE
8
BLACK
6
CONTINUOUS
10
72.9124
20
-133.121
11
72.9124
21
-134.455
0
LINE
8
BLACK
6
CONTINUOUS
10
72.4362
20
-132.36
11
71.96
21
-133.788
0
LINE
8
BLACK
6
CONTINUOUS
10
71.96
20
-133.788
11
73.1981
21
-133.788
0
LINE
8
BLACK
6
CONTINUOUS
10
73.8648
20
-132.455
11
73.8648
21
-132.836
0
LINE
8
BLACK
6
CONTINUOUS
10
74.6267
20
-132.455
11
74.6267
21
-132.836
0
LINE
8
BLACK
6
CONTINUOUS
10
77.579
20
-135.217
11
77.4838
21
-135.121
0
LINE
8
BLACK
6
CONTINUOUS
10
77.4838
20
-135.121
11
77.2933
21
-134.836
0
LINE
8
BLACK
6
CONTINUOUS
10
77.2933
20
-134.836
11
77.1981
21
-134.645
0
LINE
8
BLACK
6
CONTINUOUS
10
77.1981
20
-134.645
11
77.1029
21
-134.36
0
LINE
8
BLACK
6
CONTINUOUS
10
77.1029
20
-134.36
11
77.0076
21
-133.883
0
LINE
8
BLACK
6
CONTINUOUS
10
77.0076
20
-133.883
11
77.0076
21
-133.502
0
LINE
8
BLACK
6
CONTINUOUS
10
77.0076
20
-133.502
11
77.1029
21
-133.026
0
LINE
8
BLACK
6
CONTINUOUS
10
77.1029
20
-133.026
11
77.1981
21
-132.74
0
LINE
8
BLACK
6
CONTINUOUS
10
77.1981
20
-132.74
11
77.2933
21
-132.55
0
LINE
8
BLACK
6
CONTINUOUS
10
77.2933
20
-132.55
11
77.4838
21
-132.264
0
LINE
8
BLACK
6
CONTINUOUS
10
77.4838
20
-132.264
11
77.579
21
-132.169
0
LINE
8
BLACK
6
CONTINUOUS
10
79.1981
20
-133.121
11
79.1981
21
-134.455
0
LINE
8
BLACK
6
CONTINUOUS
10
78.7219
20
-132.36
11
78.2457
21
-133.788
0
LINE
8
BLACK
6
CONTINUOUS
10
78.2457
20
-133.788
11
79.4838
21
-133.788
0
LINE
8
BLACK
6
CONTINUOUS
10
81.7695
20
-134.455
11
81.7695
21
-132.455
0
LINE
8
BLACK
6
CONTINUOUS
10
82.6267
20
-134.455
11
82.6267
21
-133.407
0
LINE
8
BLACK
6
CONTINUOUS
10
82.6267
20
-133.407
11
82.5314
21
-133.217
0
LINE
8
BLACK
6
CONTINUOUS
10
82.5314
20
-133.217
11
82.341
21
-133.121
0
LINE
8
BLACK
6
CONTINUOUS
10
82.341
20
-133.121
11
82.0552
21
-133.121
0
LINE
8
BLACK
6
CONTINUOUS
10
82.0552
20
-133.121
11
81.8648
21
-133.217
0
LINE
8
BLACK
6
CONTINUOUS
10
81.8648
20
-133.217
11
81.7695
21
-133.312
0
LINE
8
BLACK
6
CONTINUOUS
10
83.8648
20
-134.455
11
83.6743
21
-134.36
0
LINE
8
BLACK
6
CONTINUOUS
10
83.6743
20
-134.36
11
83.579
21
-134.264
0
LINE
8
BLACK
6
CONTINUOUS
10
83.579
20
-134.264
11
83.4838
21
-134.074
0
LINE
8
BLACK
6
CONTINUOUS
10
83.4838
20
-134.074
11
83.4838
21
-133.502
0
LINE
8
BLACK
6
CONTINUOUS
10
83.4838
20
-133.502
11
83.579
21
-133.312
0
LINE
8
BLACK
6
CONTINUOUS
10
83.579
20
-133.312
11
83.6743
21
-133.217
0
LINE
8
BLACK
6
CONTINUOUS
10
83.6743
20
-133.217
11
83.8648
21
-133.121
0
LINE
8
BLACK
6
CONTINUOUS
10
83.8648
20
-133.121
11
84.1505
21
-133.121
0
LINE
8
BLACK
6
CONTINUOUS
10
84.1505
20
-133.121
11
84.341
21
-133.217
0
LINE
8
BLACK
6
CONTINUOUS
10
84.341
20
-133.217
11
84.4362
21
-133.312
0
LINE
8
BLACK
6
CONTINUOUS
10
84.4362
20
-133.312
11
84.5314
21
-133.502
0
LINE
8
BLACK
6
CONTINUOUS
10
84.5314
20
-133.502
11
84.5314
21
-134.074
0
LINE
8
BLACK
6
CONTINUOUS
10
84.5314
20
-134.074
11
84.4362
21
-134.264
0
LINE
8
BLACK
6
CONTINUOUS
10
84.4362
20
-134.264
11
84.341
21
-134.36
0
LINE
8
BLACK
6
CONTINUOUS
10
84.341
20
-134.36
11
84.1505
21
-134.455
0
LINE
8
BLACK
6
CONTINUOUS
10
84.1505
20
-134.455
11
83.8648
21
-134.455
0
LINE
8
BLACK
6
CONTINUOUS
10
85.6743
20
-134.455
11
85.4838
21
-134.36
0
LINE
8
BLACK
6
CONTINUOUS
10
85.4838
20
-134.36
11
85.3886
21
-134.169
0
LINE
8
BLACK
6
CONTINUOUS
10
85.3886
20
-134.169
11
85.3886
21
-132.455
0
LINE
8
BLACK
6
CONTINUOUS
10
87.1981
20
-134.36
11
87.0076
21
-134.455
0
LINE
8
BLACK
6
CONTINUOUS
10
87.0076
20
-134.455
11
86.6267
21
-134.455
0
LINE
8
BLACK
6
CONTINUOUS
10
86.6267
20
-134.455
11
86.4362
21
-134.36
0
LINE
8
BLACK
6
CONTINUOUS
10
86.4362
20
-134.36
11
86.341
21
-134.169
0
LINE
8
BLACK
6
CONTINUOUS
10
86.341
20
-134.169
11
86.341
21
-133.407
0
LINE
8
BLACK
6
CONTINUOUS
10
86.341
20
-133.407
11
86.4362
21
-133.217
0
LINE
8
BLACK
6
CONTINUOUS
10
86.4362
20
-133.217
11
86.6267
21
-133.121
0
LINE
8
BLACK
6
CONTINUOUS
10
86.6267
20
-133.121
11
87.0076
21
-133.121
0
LINE
8
BLACK
6
CONTINUOUS
10
87.0076
20
-133.121
11
87.1981
21
-133.217
0
LINE
8
BLACK
6
CONTINUOUS
10
87.1981
20
-133.217
11
87.2933
21
-133.407
0
LINE
8
BLACK
6
CONTINUOUS
10
87.2933
20
-133.407
11
87.2933
21
-133.598
0
LINE
8
BLACK
6
CONTINUOUS
10
87.2933
20
-133.598
11
86.341
21
-133.788
0
LINE
8
BLACK
6
CONTINUOUS
10
88.0552
20
-134.36
11
88.2457
21
-134.455
0
LINE
8
BLACK
6
CONTINUOUS
10
88.2457
20
-134.455
11
88.6267
21
-134.455
0
LINE
8
BLACK
6
CONTINUOUS
10
88.6267
20
-134.455
11
88.8171
21
-134.36
0
LINE
8
BLACK
6
CONTINUOUS
10
88.8171
20
-134.36
11
88.9124
21
-134.169
0
LINE
8
BLACK
6
CONTINUOUS
10
88.9124
20
-134.169
11
88.9124
21
-134.074
0
LINE
8
BLACK
6
CONTINUOUS
10
88.9124
20
-134.074
11
88.8171
21
-133.883
0
LINE
8
BLACK
6
CONTINUOUS
10
88.8171
20
-133.883
11
88.6267
21
-133.788
0
LINE
8
BLACK
6
CONTINUOUS
10
88.6267
20
-133.788
11
88.341
21
-133.788
0
LINE
8
BLACK
6
CONTINUOUS
10
88.341
20
-133.788
11
88.1505
21
-133.693
0
LINE
8
BLACK
6
CONTINUOUS
10
88.1505
20
-133.693
11
88.0552
21
-133.502
0
LINE
8
BLACK
6
CONTINUOUS
10
88.0552
20
-133.502
11
88.0552
21
-133.407
0
LINE
8
BLACK
6
CONTINUOUS
10
88.0552
20
-133.407
11
88.1505
21
-133.217
0
LINE
8
BLACK
6
CONTINUOUS
10
88.1505
20
-133.217
11
88.341
21
-133.121
0
LINE
8
BLACK
6
CONTINUOUS
10
88.341
20
-133.121
11
88.6267
21
-133.121
0
LINE
8
BLACK
6
CONTINUOUS
10
88.6267
20
-133.121
11
88.8171
21
-133.217
0
LINE
8
BLACK
6
CONTINUOUS
10
89.579
20
-135.217
11
89.6743
21
-135.121
0
LINE
8
BLACK
6
CONTINUOUS
10
89.6743
20
-135.121
11
89.8648
21
-134.836
0
LINE
8
BLACK
6
CONTINUOUS
10
89.8648
20
-134.836
11
89.96
21
-134.645
0
LINE
8
BLACK
6
CONTINUOUS
10
89.96
20
-134.645
11
90.0552
21
-134.36
0
LINE
8
BLACK
6
CONTINUOUS
10
90.0552
20
-134.36
11
90.1505
21
-133.883
0
LINE
8
BLACK
6
CONTINUOUS
10
90.1505
20
-133.883
11
90.1505
21
-133.502
0
LINE
8
BLACK
6
CONTINUOUS
10
90.1505
20
-133.502
11
90.0552
21
-133.026
0
LINE
8
BLACK
6
CONTINUOUS
10
90.0552
20
-133.026
11
89.96
21
-132.74
0
LINE
8
BLACK
6
CONTINUOUS
10
89.96
20
-132.74
11
89.8648
21
-132.55
0
LINE
8
BLACK
6
CONTINUOUS
10
89.8648
20
-132.55
11
89.6743
21
-132.264
0
LINE
8
BLACK
6
CONTINUOUS
10
89.6743
20
-132.264
11
89.579
21
-132.169
0
LINE
8
BLACK
6
CONTINUOUS
10
93.1981
20
-135.217
11
93.1029
21
-135.121
0
LINE
8
BLACK
6
CONTINUOUS
10
93.1029
20
-135.121
11
92.9124
21
-134.836
0
LINE
8
BLACK
6
CONTINUOUS
10
92.9124
20
-134.836
11
92.8171
21
-134.645
0
LINE
8
BLACK
6
CONTINUOUS
10
92.8171
20
-134.645
11
92.7219
21
-134.36
0
LINE
8
BLACK
6
CONTINUOUS
10
92.7219
20
-134.36
11
92.6267
21
-133.883
0
LINE
8
BLACK
6
CONTINUOUS
10
92.6267
20
-133.883
11
92.6267
21
-133.502
0
LINE
8
BLACK
6
CONTINUOUS
10
92.6267
20
-133.502
11
92.7219
21
-133.026
0
LINE
8
BLACK
6
CONTINUOUS
10
92.7219
20
-133.026
11
92.8171
21
-132.74
0
LINE
8
BLACK
6
CONTINUOUS
10
92.8171
20
-132.74
11
92.9124
21
-132.55
0
LINE
8
BLACK
6
CONTINUOUS
10
92.9124
20
-132.55
11
93.1029
21
-132.264
0
LINE
8
BLACK
6
CONTINUOUS
10
93.1029
20
-132.264
11
93.1981
21
-132.169
0
LINE
8
BLACK
6
CONTINUOUS
10
93.96
20
-133.121
11
93.96
21
-134.455
0
LINE
8
BLACK
6
CONTINUOUS
10
93.96
20
-133.312
11
94.0552
21
-133.217
0
LINE
8
BLACK
6
CONTINUOUS
10
94.0552
20
-133.217
11
94.2457
21
-133.121
0
LINE
8
BLACK
6
CONTINUOUS
10
94.2457
20
-133.121
11
94.5314
21
-133.121
0
LINE
8
BLACK
6
CONTINUOUS
10
94.5314
20
-133.121
11
94.7219
21
-133.217
0
LINE
8
BLACK
6
CONTINUOUS
10
94.7219
20
-133.217
11
94.8171
21
-133.407
0
LINE
8
BLACK
6
CONTINUOUS
10
94.8171
20
-133.407
11
94.8171
21
-134.455
0
LINE
8
BLACK
6
CONTINUOUS
10
96.0552
20
-134.455
11
95.8648
21
-134.36
0
LINE
8
BLACK
6
CONTINUOUS
10
95.8648
20
-134.36
11
95.7695
21
-134.264
0
LINE
8
BLACK
6
CONTINUOUS
10
95.7695
20
-134.264
11
95.6743
21
-134.074
0
LINE
8
BLACK
6
CONTINUOUS
10
95.6743
20
-134.074
11
95.6743
21
-133.502
0
LINE
8
BLACK
6
CONTINUOUS
10
95.6743
20
-133.502
11
95.7695
21
-133.312
0
LINE
8
BLACK
6
CONTINUOUS
10
95.7695
20
-133.312
11
95.8648
21
-133.217
0
LINE
8
BLACK
6
CONTINUOUS
10
95.8648
20
-133.217
11
96.0552
21
-133.121
0
LINE
8
BLACK
6
CONTINUOUS
10
96.0552
20
-133.121
11
96.341
21
-133.121
0
LINE
8
BLACK
6
CONTINUOUS
10
96.341
20
-133.121
11
96.5314
21
-133.217
0
LINE
8
BLACK
6
CONTINUOUS
10
96.5314
20
-133.217
11
96.6267
21
-133.312
0
LINE
8
BLACK
6
CONTINUOUS
10
96.6267
20
-133.312
11
96.7219
21
-133.502
0
LINE
8
BLACK
6
CONTINUOUS
10
96.7219
20
-133.502
11
96.7219
21
-134.074
0
LINE
8
BLACK
6
CONTINUOUS
10
96.7219
20
-134.074
11
96.6267
21
-134.264
0
LINE
8
BLACK
6
CONTINUOUS
10
96.6267
20
-134.264
11
96.5314
21
-134.36
0
LINE
8
BLACK
6
CONTINUOUS
10
96.5314
20
-134.36
11
96.341
21
-134.455
0
LINE
8
BLACK
6
CONTINUOUS
10
96.341
20
-134.455
11
96.0552
21
-134.455
0
LINE
8
BLACK
6
CONTINUOUS
10
97.2933
20
-133.121
11
98.0552
21
-133.121
0
LINE
8
BLACK
6
CONTINUOUS
10
97.579
20
-132.455
11
97.579
21
-134.169
0
LINE
8
BLACK
6
CONTINUOUS
10
97.579
20
-134.169
11
97.6743
21
-134.36
0
LINE
8
BLACK
6
CONTINUOUS
10
97.6743
20
-134.36
11
97.8648
21
-134.455
0
LINE
8
BLACK
6
CONTINUOUS
10
97.8648
20
-134.455
11
98.0552
21
-134.455
0
LINE
8
BLACK
6
CONTINUOUS
10
100.246
20
-133.121
11
100.246
21
-135.121
0
LINE
8
BLACK
6
CONTINUOUS
10
100.246
20
-133.217
11
100.436
21
-133.121
0
LINE
8
BLACK
6
CONTINUOUS
10
100.436
20
-133.121
11
100.817
21
-133.121
0
LINE
8
BLACK
6
CONTINUOUS
10
100.817
20
-133.121
11
101.008
21
-133.217
0
LINE
8
BLACK
6
CONTINUOUS
10
101.008
20
-133.217
11
101.103
21
-133.312
0
LINE
8
BLACK
6
CONTINUOUS
10
101.103
20
-133.312
11
101.198
21
-133.502
0
LINE
8
BLACK
6
CONTINUOUS
10
101.198
20
-133.502
11
101.198
21
-134.074
0
LINE
8
BLACK
6
CONTINUOUS
10
101.198
20
-134.074
11
101.103
21
-134.264
0
LINE
8
BLACK
6
CONTINUOUS
10
101.103
20
-134.264
11
101.008
21
-134.36
0
LINE
8
BLACK
6
CONTINUOUS
10
101.008
20
-134.36
11
100.817
21
-134.455
0
LINE
8
BLACK
6
CONTINUOUS
10
100.817
20
-134.455
11
100.436
21
-134.455
0
LINE
8
BLACK
6
CONTINUOUS
10
100.436
20
-134.455
11
100.246
21
-134.36
0
LINE
8
BLACK
6
CONTINUOUS
10
102.341
20
-134.455
11
102.15
21
-134.36
0
LINE
8
BLACK
6
CONTINUOUS
10
102.15
20
-134.36
11
102.055
21
-134.169
0
LINE
8
BLACK
6
CONTINUOUS
10
102.055
20
-134.169
11
102.055
21
-132.455
0
LINE
8
BLACK
6
CONTINUOUS
10
103.96
20
-134.455
11
103.96
21
-133.407
0
LINE
8
BLACK
6
CONTINUOUS
10
103.96
20
-133.407
11
103.865
21
-133.217
0
LINE
8
BLACK
6
CONTINUOUS
10
103.865
20
-133.217
11
103.674
21
-133.121
0
LINE
8
BLACK
6
CONTINUOUS
10
103.674
20
-133.121
11
103.293
21
-133.121
0
LINE
8
BLACK
6
CONTINUOUS
10
103.293
20
-133.121
11
103.103
21
-133.217
0
LINE
8
BLACK
6
CONTINUOUS
10
103.96
20
-134.36
11
103.77
21
-134.455
0
LINE
8
BLACK
6
CONTINUOUS
10
103.77
20
-134.455
11
103.293
21
-134.455
0
LINE
8
BLACK
6
CONTINUOUS
10
103.293
20
-134.455
11
103.103
21
-134.36
0
LINE
8
BLACK
6
CONTINUOUS
10
103.103
20
-134.36
11
103.008
21
-134.169
0
LINE
8
BLACK
6
CONTINUOUS
10
103.008
20
-134.169
11
103.008
21
-133.979
0
LINE
8
BLACK
6
CONTINUOUS
10
103.008
20
-133.979
11
103.103
21
-133.788
0
LINE
8
BLACK
6
CONTINUOUS
10
103.103
20
-133.788
11
103.293
21
-133.693
0
LINE
8
BLACK
6
CONTINUOUS
10
103.293
20
-133.693
11
103.77
21
-133.693
0
LINE
8
BLACK
6
CONTINUOUS
10
103.77
20
-133.693
11
103.96
21
-133.598
0
LINE
8
BLACK
6
CONTINUOUS
10
104.627
20
-133.121
11
105.389
21
-133.121
0
LINE
8
BLACK
6
CONTINUOUS
10
104.912
20
-132.455
11
104.912
21
-134.169
0
LINE
8
BLACK
6
CONTINUOUS
10
104.912
20
-134.169
11
105.008
21
-134.36
0
LINE
8
BLACK
6
CONTINUOUS
10
105.008
20
-134.36
11
105.198
21
-134.455
0
LINE
8
BLACK
6
CONTINUOUS
10
105.198
20
-134.455
11
105.389
21
-134.455
0
LINE
8
BLACK
6
CONTINUOUS
10
106.817
20
-134.36
11
106.627
21
-134.455
0
LINE
8
BLACK
6
CONTINUOUS
10
106.627
20
-134.455
11
106.246
21
-134.455
0
LINE
8
BLACK
6
CONTINUOUS
10
106.246
20
-134.455
11
106.055
21
-134.36
0
LINE
8
BLACK
6
CONTINUOUS
10
106.055
20
-134.36
11
105.96
21
-134.169
0
LINE
8
BLACK
6
CONTINUOUS
10
105.96
20
-134.169
11
105.96
21
-133.407
0
LINE
8
BLACK
6
CONTINUOUS
10
105.96
20
-133.407
11
106.055
21
-133.217
0
LINE
8
BLACK
6
CONTINUOUS
10
106.055
20
-133.217
11
106.246
21
-133.121
0
LINE
8
BLACK
6
CONTINUOUS
10
106.246
20
-133.121
11
106.627
21
-133.121
0
LINE
8
BLACK
6
CONTINUOUS
10
106.627
20
-133.121
11
106.817
21
-133.217
0
LINE
8
BLACK
6
CONTINUOUS
10
106.817
20
-133.217
11
106.912
21
-133.407
0
LINE
8
BLACK
6
CONTINUOUS
10
106.912
20
-133.407
11
106.912
21
-133.598
0
LINE
8
BLACK
6
CONTINUOUS
10
106.912
20
-133.598
11
105.96
21
-133.788
0
LINE
8
BLACK
6
CONTINUOUS
10
108.627
20
-134.455
11
108.627
21
-132.455
0
LINE
8
BLACK
6
CONTINUOUS
10
108.627
20
-134.36
11
108.436
21
-134.455
0
LINE
8
BLACK
6
CONTINUOUS
10
108.436
20
-134.455
11
108.055
21
-134.455
0
LINE
8
BLACK
6
CONTINUOUS
10
108.055
20
-134.455
11
107.865
21
-134.36
0
LINE
8
BLACK
6
CONTINUOUS
10
107.865
20
-134.36
11
107.77
21
-134.264
0
LINE
8
BLACK
6
CONTINUOUS
10
107.77
20
-134.264
11
107.674
21
-134.074
0
LINE
8
BLACK
6
CONTINUOUS
10
107.674
20
-134.074
11
107.674
21
-133.502
0
LINE
8
BLACK
6
CONTINUOUS
10
107.674
20
-133.502
11
107.77
21
-133.312
0
LINE
8
BLACK
6
CONTINUOUS
10
107.77
20
-133.312
11
107.865
21
-133.217
0
LINE
8
BLACK
6
CONTINUOUS
10
107.865
20
-133.217
11
108.055
21
-133.121
0
LINE
8
BLACK
6
CONTINUOUS
10
108.055
20
-133.121
11
108.436
21
-133.121
0
LINE
8
BLACK
6
CONTINUOUS
10
108.436
20
-133.121
11
108.627
21
-133.217
0
LINE
8
BLACK
6
CONTINUOUS
10
109.389
20
-135.217
11
109.484
21
-135.121
0
LINE
8
BLACK
6
CONTINUOUS
10
109.484
20
-135.121
11
109.674
21
-134.836
0
LINE
8
BLACK
6
CONTINUOUS
10
109.674
20
-134.836
11
109.77
21
-134.645
0
LINE
8
BLACK
6
CONTINUOUS
10
109.77
20
-134.645
11
109.865
21
-134.36
0
LINE
8
BLACK
6
CONTINUOUS
10
109.865
20
-134.36
11
109.96
21
-133.883
0
LINE
8
BLACK
6
CONTINUOUS
10
109.96
20
-133.883
11
109.96
21
-133.502
0
LINE
8
BLACK
6
CONTINUOUS
10
109.96
20
-133.502
11
109.865
21
-133.026
0
LINE
8
BLACK
6
CONTINUOUS
10
109.865
20
-133.026
11
109.77
21
-132.74
0
LINE
8
BLACK
6
CONTINUOUS
10
109.77
20
-132.74
11
109.674
21
-132.55
0
LINE
8
BLACK
6
CONTINUOUS
10
109.674
20
-132.55
11
109.484
21
-132.264
0
LINE
8
BLACK
6
CONTINUOUS
10
109.484
20
-132.264
11
109.389
21
-132.169
0
LINE
8
BLACK
6
CONTINUOUS
10
40.86
20
-135.19
11
40.86
21
-137.19
0
LINE
8
BLACK
6
CONTINUOUS
10
39.86
20
-136.19
11
41.86
21
-136.19
0
LINE
8
BLACK
6
CONTINUOUS
10
44.341
20
-135.285
11
44.4362
21
-135.19
0
LINE
8
BLACK
6
CONTINUOUS
10
44.4362
20
-135.19
11
44.6267
21
-135.095
0
LINE
8
BLACK
6
CONTINUOUS
10
44.6267
20
-135.095
11
45.1029
21
-135.095
0
LINE
8
BLACK
6
CONTINUOUS
10
45.1029
20
-135.095
11
45.2933
21
-135.19
0
LINE
8
BLACK
6
CONTINUOUS
10
45.2933
20
-135.19
11
45.3886
21
-135.285
0
LINE
8
BLACK
6
CONTINUOUS
10
45.3886
20
-135.285
11
45.4838
21
-135.476
0
LINE
8
BLACK
6
CONTINUOUS
10
45.4838
20
-135.476
11
45.4838
21
-135.666
0
LINE
8
BLACK
6
CONTINUOUS
10
45.4838
20
-135.666
11
45.3886
21
-135.952
0
LINE
8
BLACK
6
CONTINUOUS
10
45.3886
20
-135.952
11
44.2457
21
-137.095
0
LINE
8
BLACK
6
CONTINUOUS
10
44.2457
20
-137.095
11
45.4838
21
-137.095
0
LINE
8
BLACK
6
CONTINUOUS
10
46.341
20
-136.904
11
46.4362
21
-137
0
LINE
8
BLACK
6
CONTINUOUS
10
46.4362
20
-137
11
46.341
21
-137.095
0
LINE
8
BLACK
6
CONTINUOUS
10
46.341
20
-137.095
11
46.2457
21
-137
0
LINE
8
BLACK
6
CONTINUOUS
10
46.2457
20
-137
11
46.341
21
-136.904
0
LINE
8
BLACK
6
CONTINUOUS
10
46.341
20
-136.904
11
46.341
21
-137.095
0
LINE
8
BLACK
6
CONTINUOUS
10
47.1981
20
-135.285
11
47.2933
21
-135.19
0
LINE
8
BLACK
6
CONTINUOUS
10
47.2933
20
-135.19
11
47.4838
21
-135.095
0
LINE
8
BLACK
6
CONTINUOUS
10
47.4838
20
-135.095
11
47.96
21
-135.095
0
LINE
8
BLACK
6
CONTINUOUS
10
47.96
20
-135.095
11
48.1505
21
-135.19
0
LINE
8
BLACK
6
CONTINUOUS
10
48.1505
20
-135.19
11
48.2457
21
-135.285
0
LINE
8
BLACK
6
CONTINUOUS
10
48.2457
20
-135.285
11
48.341
21
-135.476
0
LINE
8
BLACK
6
CONTINUOUS
10
48.341
20
-135.476
11
48.341
21
-135.666
0
LINE
8
BLACK
6
CONTINUOUS
10
48.341
20
-135.666
11
48.2457
21
-135.952
0
LINE
8
BLACK
6
CONTINUOUS
10
48.2457
20
-135.952
11
47.1029
21
-137.095
0
LINE
8
BLACK
6
CONTINUOUS
10
47.1029
20
-137.095
11
48.341
21
-137.095
0
LINE
8
BLACK
6
CONTINUOUS
10
49.579
20
-135.095
11
49.7695
21
-135.095
0
LINE
8
BLACK
6
CONTINUOUS
10
49.7695
20
-135.095
11
49.96
21
-135.19
0
LINE
8
BLACK
6
CONTINUOUS
10
49.96
20
-135.19
11
50.0552
21
-135.285
0
LINE
8
BLACK
6
CONTINUOUS
10
50.0552
20
-135.285
11
50.1505
21
-135.476
0
LINE
8
BLACK
6
CONTINUOUS
10
50.1505
20
-135.476
11
50.2457
21
-135.857
0
LINE
8
BLACK
6
CONTINUOUS
10
50.2457
20
-135.857
11
50.2457
21
-136.333
0
LINE
8
BLACK
6
CONTINUOUS
10
50.2457
20
-136.333
11
50.1505
21
-136.714
0
LINE
8
BLACK
6
CONTINUOUS
10
50.1505
20
-136.714
11
50.0552
21
-136.904
0
LINE
8
BLACK
6
CONTINUOUS
10
50.0552
20
-136.904
11
49.96
21
-137
0
LINE
8
BLACK
6
CONTINUOUS
10
49.96
20
-137
11
49.7695
21
-137.095
0
LINE
8
BLACK
6
CONTINUOUS
10
49.7695
20
-137.095
11
49.579
21
-137.095
0
LINE
8
BLACK
6
CONTINUOUS
10
49.579
20
-137.095
11
49.3886
21
-137
0
LINE
8
BLACK
6
CONTINUOUS
10
49.3886
20
-137
11
49.2933
21
-136.904
0
LINE
8
BLACK
6
CONTINUOUS
10
49.2933
20
-136.904
11
49.1981
21
-136.714
0
LINE
8
BLACK
6
CONTINUOUS
10
49.1981
20
-136.714
11
49.1029
21
-136.333
0
LINE
8
BLACK
6
CONTINUOUS
10
49.1029
20
-136.333
11
49.1029
21
-135.857
0
LINE
8
BLACK
6
CONTINUOUS
10
49.1029
20
-135.857
11
49.1981
21
-135.476
0
LINE
8
BLACK
6
CONTINUOUS
10
49.1981
20
-135.476
11
49.2933
21
-135.285
0
LINE
8
BLACK
6
CONTINUOUS
10
49.2933
20
-135.285
11
49.3886
21
-135.19
0
LINE
8
BLACK
6
CONTINUOUS
10
49.3886
20
-135.19
11
49.579
21
-135.095
0
LINE
8
BLACK
6
CONTINUOUS
10
51.4838
20
-135.095
11
51.6743
21
-135.095
0
LINE
8
BLACK
6
CONTINUOUS
10
51.6743
20
-135.095
11
51.8648
21
-135.19
0
LINE
8
BLACK
6
CONTINUOUS
10
51.8648
20
-135.19
11
51.96
21
-135.285
0
LINE
8
BLACK
6
CONTINUOUS
10
51.96
20
-135.285
11
52.0552
21
-135.476
0
LINE
8
BLACK
6
CONTINUOUS
10
52.0552
20
-135.476
11
52.1505
21
-135.857
0
LINE
8
BLACK
6
CONTINUOUS
10
52.1505
20
-135.857
11
52.1505
21
-136.333
0
LINE
8
BLACK
6
CONTINUOUS
10
52.1505
20
-136.333
11
52.0552
21
-136.714
0
LINE
8
BLACK
6
CONTINUOUS
10
52.0552
20
-136.714
11
51.96
21
-136.904
0
LINE
8
BLACK
6
CONTINUOUS
10
51.96
20
-136.904
11
51.8648
21
-137
0
LINE
8
BLACK
6
CONTINUOUS
10
51.8648
20
-137
11
51.6743
21
-137.095
0
LINE
8
BLACK
6
CONTINUOUS
10
51.6743
20
-137.095
11
51.4838
21
-137.095
0
LINE
8
BLACK
6
CONTINUOUS
10
51.4838
20
-137.095
11
51.2933
21
-137
0
LINE
8
BLACK
6
CONTINUOUS
10
51.2933
20
-137
11
51.1981
21
-136.904
0
LINE
8
BLACK
6
CONTINUOUS
10
51.1981
20
-136.904
11
51.1029
21
-136.714
0
LINE
8
BLACK
6
CONTINUOUS
10
51.1029
20
-136.714
11
51.0076
21
-136.333
0
LINE
8
BLACK
6
CONTINUOUS
10
51.0076
20
-136.333
11
51.0076
21
-135.857
0
LINE
8
BLACK
6
CONTINUOUS
10
51.0076
20
-135.857
11
51.1029
21
-135.476
0
LINE
8
BLACK
6
CONTINUOUS
10
51.1029
20
-135.476
11
51.1981
21
-135.285
0
LINE
8
BLACK
6
CONTINUOUS
10
51.1981
20
-135.285
11
51.2933
21
-135.19
0
LINE
8
BLACK
6
CONTINUOUS
10
51.2933
20
-135.19
11
51.4838
21
-135.095
0
LINE
8
BLACK
6
CONTINUOUS
10
53.0076
20
-137.095
11
53.0076
21
-135.761
0
LINE
8
BLACK
6
CONTINUOUS
10
53.0076
20
-135.952
11
53.1029
21
-135.857
0
LINE
8
BLACK
6
CONTINUOUS
10
53.1029
20
-135.857
11
53.2933
21
-135.761
0
LINE
8
BLACK
6
CONTINUOUS
10
53.2933
20
-135.761
11
53.579
21
-135.761
0
LINE
8
BLACK
6
CONTINUOUS
10
53.579
20
-135.761
11
53.7695
21
-135.857
0
LINE
8
BLACK
6
CONTINUOUS
10
53.7695
20
-135.857
11
53.8648
21
-136.047
0
LINE
8
BLACK
6
CONTINUOUS
10
53.8648
20
-136.047
11
53.8648
21
-137.095
0
LINE
8
BLACK
6
CONTINUOUS
10
53.8648
20
-136.047
11
53.96
21
-135.857
0
LINE
8
BLACK
6
CONTINUOUS
10
53.96
20
-135.857
11
54.1505
21
-135.761
0
LINE
8
BLACK
6
CONTINUOUS
10
54.1505
20
-135.761
11
54.4362
21
-135.761
0
LINE
8
BLACK
6
CONTINUOUS
10
54.4362
20
-135.761
11
54.6267
21
-135.857
0
LINE
8
BLACK
6
CONTINUOUS
10
54.6267
20
-135.857
11
54.7219
21
-136.047
0
LINE
8
BLACK
6
CONTINUOUS
10
54.7219
20
-136.047
11
54.7219
21
-137.095
0
LINE
8
BLACK
6
CONTINUOUS
10
55.6743
20
-137.095
11
55.6743
21
-135.761
0
LINE
8
BLACK
6
CONTINUOUS
10
55.6743
20
-135.952
11
55.7695
21
-135.857
0
LINE
8
BLACK
6
CONTINUOUS
10
55.7695
20
-135.857
11
55.96
21
-135.761
0
LINE
8
BLACK
6
CONTINUOUS
10
55.96
20
-135.761
11
56.2457
21
-135.761
0
LINE
8
BLACK
6
CONTINUOUS
10
56.2457
20
-135.761
11
56.4362
21
-135.857
0
LINE
8
BLACK
6
CONTINUOUS
10
56.4362
20
-135.857
11
56.5314
21
-136.047
0
LINE
8
BLACK
6
CONTINUOUS
10
56.5314
20
-136.047
11
56.5314
21
-137.095
0
LINE
8
BLACK
6
CONTINUOUS
10
56.5314
20
-136.047
11
56.6267
21
-135.857
0
LINE
8
BLACK
6
CONTINUOUS
10
56.6267
20
-135.857
11
56.8171
21
-135.761
0
LINE
8
BLACK
6
CONTINUOUS
10
56.8171
20
-135.761
11
57.1029
21
-135.761
0
LINE
8
BLACK
6
CONTINUOUS
10
57.1029
20
-135.761
11
57.2933
21
-135.857
0
LINE
8
BLACK
6
CONTINUOUS
10
57.2933
20
-135.857
11
57.3886
21
-136.047
0
LINE
8
BLACK
6
CONTINUOUS
10
57.3886
20
-136.047
11
57.3886
21
-137.095
0
LINE
8
BLACK
6
CONTINUOUS
10
61.2933
20
-135
11
59.579
21
-137.571
0
LINE
8
BLACK
6
CONTINUOUS
10
63.8648
20
-135.095
11
64.0552
21
-135.095
0
LINE
8
BLACK
6
CONTINUOUS
10
64.0552
20
-135.095
11
64.2457
21
-135.19
0
LINE
8
BLACK
6
CONTINUOUS
10
64.2457
20
-135.19
11
64.341
21
-135.285
0
LINE
8
BLACK
6
CONTINUOUS
10
64.341
20
-135.285
11
64.4362
21
-135.476
0
LINE
8
BLACK
6
CONTINUOUS
10
64.4362
20
-135.476
11
64.5314
21
-135.857
0
LINE
8
BLACK
6
CONTINUOUS
10
64.5314
20
-135.857
11
64.5314
21
-136.333
0
LINE
8
BLACK
6
CONTINUOUS
10
64.5314
20
-136.333
11
64.4362
21
-136.714
0
LINE
8
BLACK
6
CONTINUOUS
10
64.4362
20
-136.714
11
64.341
21
-136.904
0
LINE
8
BLACK
6
CONTINUOUS
10
64.341
20
-136.904
11
64.2457
21
-137
0
LINE
8
BLACK
6
CONTINUOUS
10
64.2457
20
-137
11
64.0552
21
-137.095
0
LINE
8
BLACK
6
CONTINUOUS
10
64.0552
20
-137.095
11
63.8648
21
-137.095
0
LINE
8
BLACK
6
CONTINUOUS
10
63.8648
20
-137.095
11
63.6743
21
-137
0
LINE
8
BLACK
6
CONTINUOUS
10
63.6743
20
-137
11
63.579
21
-136.904
0
LINE
8
BLACK
6
CONTINUOUS
10
63.579
20
-136.904
11
63.4838
21
-136.714
0
LINE
8
BLACK
6
CONTINUOUS
10
63.4838
20
-136.714
11
63.3886
21
-136.333
0
LINE
8
BLACK
6
CONTINUOUS
10
63.3886
20
-136.333
11
63.3886
21
-135.857
0
LINE
8
BLACK
6
CONTINUOUS
10
63.3886
20
-135.857
11
63.4838
21
-135.476
0
LINE
8
BLACK
6
CONTINUOUS
10
63.4838
20
-135.476
11
63.579
21
-135.285
0
LINE
8
BLACK
6
CONTINUOUS
10
63.579
20
-135.285
11
63.6743
21
-135.19
0
LINE
8
BLACK
6
CONTINUOUS
10
63.6743
20
-135.19
11
63.8648
21
-135.095
0
LINE
8
BLACK
6
CONTINUOUS
10
65.3886
20
-136.904
11
65.4838
21
-137
0
LINE
8
BLACK
6
CONTINUOUS
10
65.4838
20
-137
11
65.3886
21
-137.095
0
LINE
8
BLACK
6
CONTINUOUS
10
65.3886
20
-137.095
11
65.2933
21
-137
0
LINE
8
BLACK
6
CONTINUOUS
10
65.2933
20
-137
11
65.3886
21
-136.904
0
LINE
8
BLACK
6
CONTINUOUS
10
65.3886
20
-136.904
11
65.3886
21
-137.095
0
LINE
8
BLACK
6
CONTINUOUS
10
66.7219
20
-135.095
11
66.9124
21
-135.095
0
LINE
8
BLACK
6
CONTINUOUS
10
66.9124
20
-135.095
11
67.1029
21
-135.19
0
LINE
8
BLACK
6
CONTINUOUS
10
67.1029
20
-135.19
11
67.1981
21
-135.285
0
LINE
8
BLACK
6
CONTINUOUS
10
67.1981
20
-135.285
11
67.2933
21
-135.476
0
LINE
8
BLACK
6
CONTINUOUS
10
67.2933
20
-135.476
11
67.3886
21
-135.857
0
LINE
8
BLACK
6
CONTINUOUS
10
67.3886
20
-135.857
11
67.3886
21
-136.333
0
LINE
8
BLACK
6
CONTINUOUS
10
67.3886
20
-136.333
11
67.2933
21
-136.714
0
LINE
8
BLACK
6
CONTINUOUS
10
67.2933
20
-136.714
11
67.1981
21
-136.904
0
LINE
8
BLACK
6
CONTINUOUS
10
67.1981
20
-136.904
11
67.1029
21
-137
0
LINE
8
BLACK
6
CONTINUOUS
10
67.1029
20
-137
11
66.9124
21
-137.095
0
LINE
8
BLACK
6
CONTINUOUS
10
66.9124
20
-137.095
11
66.7219
21
-137.095
0
LINE
8
BLACK
6
CONTINUOUS
10
66.7219
20
-137.095
11
66.5314
21
-137
0
LINE
8
BLACK
6
CONTINUOUS
10
66.5314
20
-137
11
66.4362
21
-136.904
0
LINE
8
BLACK
6
CONTINUOUS
10
66.4362
20
-136.904
11
66.341
21
-136.714
0
LINE
8
BLACK
6
CONTINUOUS
10
66.341
20
-136.714
11
66.2457
21
-136.333
0
LINE
8
BLACK
6
CONTINUOUS
10
66.2457
20
-136.333
11
66.2457
21
-135.857
0
LINE
8
BLACK
6
CONTINUOUS
10
66.2457
20
-135.857
11
66.341
21
-135.476
0
LINE
8
BLACK
6
CONTINUOUS
10
66.341
20
-135.476
11
66.4362
21
-135.285
0
LINE
8
BLACK
6
CONTINUOUS
10
66.4362
20
-135.285
11
66.5314
21
-135.19
0
LINE
8
BLACK
6
CONTINUOUS
10
66.5314
20
-135.19
11
66.7219
21
-135.095
0
LINE
8
BLACK
6
CONTINUOUS
10
68.5314
20
-135.952
11
68.341
21
-135.857
0
LINE
8
BLACK
6
CONTINUOUS
10
68.341
20
-135.857
11
68.2457
21
-135.761
0
LINE
8
BLACK
6
CONTINUOUS
10
68.2457
20
-135.761
11
68.1505
21
-135.571
0
LINE
8
BLACK
6
CONTINUOUS
10
68.1505
20
-135.571
11
68.1505
21
-135.476
0
LINE
8
BLACK
6
CONTINUOUS
10
68.1505
20
-135.476
11
68.2457
21
-135.285
0
LINE
8
BLACK
6
CONTINUOUS
10
68.2457
20
-135.285
11
68.341
21
-135.19
0
LINE
8
BLACK
6
CONTINUOUS
10
68.341
20
-135.19
11
68.5314
21
-135.095
0
LINE
8
BLACK
6
CONTINUOUS
10
68.5314
20
-135.095
11
68.9124
21
-135.095
0
LINE
8
BLACK
6
CONTINUOUS
10
68.9124
20
-135.095
11
69.1029
21
-135.19
0
LINE
8
BLACK
6
CONTINUOUS
10
69.1029
20
-135.19
11
69.1981
21
-135.285
0
LINE
8
BLACK
6
CONTINUOUS
10
69.1981
20
-135.285
11
69.2933
21
-135.476
0
LINE
8
BLACK
6
CONTINUOUS
10
69.2933
20
-135.476
11
69.2933
21
-135.571
0
LINE
8
BLACK
6
CONTINUOUS
10
69.2933
20
-135.571
11
69.1981
21
-135.761
0
LINE
8
BLACK
6
CONTINUOUS
10
69.1981
20
-135.761
11
69.1029
21
-135.857
0
LINE
8
BLACK
6
CONTINUOUS
10
69.1029
20
-135.857
11
68.9124
21
-135.952
0
LINE
8
BLACK
6
CONTINUOUS
10
68.9124
20
-135.952
11
68.5314
21
-135.952
0
LINE
8
BLACK
6
CONTINUOUS
10
68.5314
20
-135.952
11
68.341
21
-136.047
0
LINE
8
BLACK
6
CONTINUOUS
10
68.341
20
-136.047
11
68.2457
21
-136.142
0
LINE
8
BLACK
6
CONTINUOUS
10
68.2457
20
-136.142
11
68.1505
21
-136.333
0
LINE
8
BLACK
6
CONTINUOUS
10
68.1505
20
-136.333
11
68.1505
21
-136.714
0
LINE
8
BLACK
6
CONTINUOUS
10
68.1505
20
-136.714
11
68.2457
21
-136.904
0
LINE
8
BLACK
6
CONTINUOUS
10
68.2457
20
-136.904
11
68.341
21
-137
0
LINE
8
BLACK
6
CONTINUOUS
10
68.341
20
-137
11
68.5314
21
-137.095
0
LINE
8
BLACK
6
CONTINUOUS
10
68.5314
20
-137.095
11
68.9124
21
-137.095
0
LINE
8
BLACK
6
CONTINUOUS
10
68.9124
20
-137.095
11
69.1029
21
-137
0
LINE
8
BLACK
6
CONTINUOUS
10
69.1029
20
-137
11
69.1981
21
-136.904
0
LINE
8
BLACK
6
CONTINUOUS
10
69.1981
20
-136.904
11
69.2933
21
-136.714
0
LINE
8
BLACK
6
CONTINUOUS
10
69.2933
20
-136.714
11
69.2933
21
-136.333
0
LINE
8
BLACK
6
CONTINUOUS
10
69.2933
20
-136.333
11
69.1981
21
-136.142
0
LINE
8
BLACK
6
CONTINUOUS
10
69.1981
20
-136.142
11
69.1029
21
-136.047
0
LINE
8
BLACK
6
CONTINUOUS
10
69.1029
20
-136.047
11
68.9124
21
-135.952
0
LINE
8
BLACK
6
CONTINUOUS
10
71.0076
20
-135.095
11
70.6267
21
-135.095
0
LINE
8
BLACK
6
CONTINUOUS
10
70.6267
20
-135.095
11
70.4362
21
-135.19
0
LINE
8
BLACK
6
CONTINUOUS
10
70.4362
20
-135.19
11
70.341
21
-135.285
0
LINE
8
BLACK
6
CONTINUOUS
10
70.341
20
-135.285
11
70.1505
21
-135.571
0
LINE
8
BLACK
6
CONTINUOUS
10
70.1505
20
-135.571
11
70.0552
21
-135.952
0
LINE
8
BLACK
6
CONTINUOUS
10
70.0552
20
-135.952
11
70.0552
21
-136.714
0
LINE
8
BLACK
6
CONTINUOUS
10
70.0552
20
-136.714
11
70.1505
21
-136.904
0
LINE
8
BLACK
6
CONTINUOUS
10
70.1505
20
-136.904
11
70.2457
21
-137
0
LINE
8
BLACK
6
CONTINUOUS
10
70.2457
20
-137
11
70.4362
21
-137.095
0
LINE
8
BLACK
6
CONTINUOUS
10
70.4362
20
-137.095
11
70.8171
21
-137.095
0
LINE
8
BLACK
6
CONTINUOUS
10
70.8171
20
-137.095
11
71.0076
21
-137
0
LINE
8
BLACK
6
CONTINUOUS
10
71.0076
20
-137
11
71.1029
21
-136.904
0
LINE
8
BLACK
6
CONTINUOUS
10
71.1029
20
-136.904
11
71.1981
21
-136.714
0
LINE
8
BLACK
6
CONTINUOUS
10
71.1981
20
-136.714
11
71.1981
21
-136.238
0
LINE
8
BLACK
6
CONTINUOUS
10
71.1981
20
-136.238
11
71.1029
21
-136.047
0
LINE
8
BLACK
6
CONTINUOUS
10
71.1029
20
-136.047
11
71.0076
21
-135.952
0
LINE
8
BLACK
6
CONTINUOUS
10
71.0076
20
-135.952
11
70.8171
21
-135.857
0
LINE
8
BLACK
6
CONTINUOUS
10
70.8171
20
-135.857
11
70.4362
21
-135.857
0
LINE
8
BLACK
6
CONTINUOUS
10
70.4362
20
-135.857
11
70.2457
21
-135.952
0
LINE
8
BLACK
6
CONTINUOUS
10
70.2457
20
-135.952
11
70.1505
21
-136.047
0
LINE
8
BLACK
6
CONTINUOUS
10
70.1505
20
-136.047
11
70.0552
21
-136.238
0
LINE
8
BLACK
6
CONTINUOUS
10
72.9124
20
-135.095
11
72.5314
21
-135.095
0
LINE
8
BLACK
6
CONTINUOUS
10
72.5314
20
-135.095
11
72.341
21
-135.19
0
LINE
8
BLACK
6
CONTINUOUS
10
72.341
20
-135.19
11
72.2457
21
-135.285
0
LINE
8
BLACK
6
CONTINUOUS
10
72.2457
20
-135.285
11
72.0552
21
-135.571
0
LINE
8
BLACK
6
CONTINUOUS
10
72.0552
20
-135.571
11
71.96
21
-135.952
0
LINE
8
BLACK
6
CONTINUOUS
10
71.96
20
-135.952
11
71.96
21
-136.714
0
LINE
8
BLACK
6
CONTINUOUS
10
71.96
20
-136.714
11
72.0552
21
-136.904
0
LINE
8
BLACK
6
CONTINUOUS
10
72.0552
20
-136.904
11
72.1505
21
-137
0
LINE
8
BLACK
6
CONTINUOUS
10
72.1505
20
-137
11
72.341
21
-137.095
0
LINE
8
BLACK
6
CONTINUOUS
10
72.341
20
-137.095
11
72.7219
21
-137.095
0
LINE
8
BLACK
6
CONTINUOUS
10
72.7219
20
-137.095
11
72.9124
21
-137
0
LINE
8
BLACK
6
CONTINUOUS
10
72.9124
20
-137
11
73.0076
21
-136.904
0
LINE
8
BLACK
6
CONTINUOUS
10
73.0076
20
-136.904
11
73.1029
21
-136.714
0
LINE
8
BLACK
6
CONTINUOUS
10
73.1029
20
-136.714
11
73.1029
21
-136.238
0
LINE
8
BLACK
6
CONTINUOUS
10
73.1029
20
-136.238
11
73.0076
21
-136.047
0
LINE
8
BLACK
6
CONTINUOUS
10
73.0076
20
-136.047
11
72.9124
21
-135.952
0
LINE
8
BLACK
6
CONTINUOUS
10
72.9124
20
-135.952
11
72.7219
21
-135.857
0
LINE
8
BLACK
6
CONTINUOUS
10
72.7219
20
-135.857
11
72.341
21
-135.857
0
LINE
8
BLACK
6
CONTINUOUS
10
72.341
20
-135.857
11
72.1505
21
-135.952
0
LINE
8
BLACK
6
CONTINUOUS
10
72.1505
20
-135.952
11
72.0552
21
-136.047
0
LINE
8
BLACK
6
CONTINUOUS
10
72.0552
20
-136.047
11
71.96
21
-136.238
0
LINE
8
BLACK
6
CONTINUOUS
10
73.8648
20
-135.095
11
73.8648
21
-135.476
0
LINE
8
BLACK
6
CONTINUOUS
10
74.6267
20
-135.095
11
74.6267
21
-135.476
0
LINE
8
BLACK
6
CONTINUOUS
10
77.579
20
-137.857
11
77.4838
21
-137.761
0
LINE
8
BLACK
6
CONTINUOUS
10
77.4838
20
-137.761
11
77.2933
21
-137.476
0
LINE
8
BLACK
6
CONTINUOUS
10
77.2933
20
-137.476
11
77.1981
21
-137.285
0
LINE
8
BLACK
6
CONTINUOUS
10
77.1981
20
-137.285
11
77.1029
21
-137
0
LINE
8
BLACK
6
CONTINUOUS
10
77.1029
20
-137
11
77.0076
21
-136.523
0
LINE
8
BLACK
6
CONTINUOUS
10
77.0076
20
-136.523
11
77.0076
21
-136.142
0
LINE
8
BLACK
6
CONTINUOUS
10
77.0076
20
-136.142
11
77.1029
21
-135.666
0
LINE
8
BLACK
6
CONTINUOUS
10
77.1029
20
-135.666
11
77.1981
21
-135.38
0
LINE
8
BLACK
6
CONTINUOUS
10
77.1981
20
-135.38
11
77.2933
21
-135.19
0
LINE
8
BLACK
6
CONTINUOUS
10
77.2933
20
-135.19
11
77.4838
21
-134.904
0
LINE
8
BLACK
6
CONTINUOUS
10
77.4838
20
-134.904
11
77.579
21
-134.809
0
LINE
8
BLACK
6
CONTINUOUS
10
79.1981
20
-135.761
11
79.1981
21
-137.095
0
LINE
8
BLACK
6
CONTINUOUS
10
78.7219
20
-135
11
78.2457
21
-136.428
0
LINE
8
BLACK
6
CONTINUOUS
10
78.2457
20
-136.428
11
79.4838
21
-136.428
0
LINE
8
BLACK
6
CONTINUOUS
10
81.7695
20
-137.095
11
81.7695
21
-135.095
0
LINE
8
BLACK
6
CONTINUOUS
10
82.6267
20
-137.095
11
82.6267
21
-136.047
0
LINE
8
BLACK
6
CONTINUOUS
10
82.6267
20
-136.047
11
82.5314
21
-135.857
0
LINE
8
BLACK
6
CONTINUOUS
10
82.5314
20
-135.857
11
82.341
21
-135.761
0
LINE
8
BLACK
6
CONTINUOUS
10
82.341
20
-135.761
11
82.0552
21
-135.761
0
LINE
8
BLACK
6
CONTINUOUS
10
82.0552
20
-135.761
11
81.8648
21
-135.857
0
LINE
8
BLACK
6
CONTINUOUS
10
81.8648
20
-135.857
11
81.7695
21
-135.952
0
LINE
8
BLACK
6
CONTINUOUS
10
83.8648
20
-137.095
11
83.6743
21
-137
0
LINE
8
BLACK
6
CONTINUOUS
10
83.6743
20
-137
11
83.579
21
-136.904
0
LINE
8
BLACK
6
CONTINUOUS
10
83.579
20
-136.904
11
83.4838
21
-136.714
0
LINE
8
BLACK
6
CONTINUOUS
10
83.4838
20
-136.714
11
83.4838
21
-136.142
0
LINE
8
BLACK
6
CONTINUOUS
10
83.4838
20
-136.142
11
83.579
21
-135.952
0
LINE
8
BLACK
6
CONTINUOUS
10
83.579
20
-135.952
11
83.6743
21
-135.857
0
LINE
8
BLACK
6
CONTINUOUS
10
83.6743
20
-135.857
11
83.8648
21
-135.761
0
LINE
8
BLACK
6
CONTINUOUS
10
83.8648
20
-135.761
11
84.1505
21
-135.761
0
LINE
8
BLACK
6
CONTINUOUS
10
84.1505
20
-135.761
11
84.341
21
-135.857
0
LINE
8
BLACK
6
CONTINUOUS
10
84.341
20
-135.857
11
84.4362
21
-135.952
0
LINE
8
BLACK
6
CONTINUOUS
10
84.4362
20
-135.952
11
84.5314
21
-136.142
0
LINE
8
BLACK
6
CONTINUOUS
10
84.5314
20
-136.142
11
84.5314
21
-136.714
0
LINE
8
BLACK
6
CONTINUOUS
10
84.5314
20
-136.714
11
84.4362
21
-136.904
0
LINE
8
BLACK
6
CONTINUOUS
10
84.4362
20
-136.904
11
84.341
21
-137
0
LINE
8
BLACK
6
CONTINUOUS
10
84.341
20
-137
11
84.1505
21
-137.095
0
LINE
8
BLACK
6
CONTINUOUS
10
84.1505
20
-137.095
11
83.8648
21
-137.095
0
LINE
8
BLACK
6
CONTINUOUS
10
85.6743
20
-137.095
11
85.4838
21
-137
0
LINE
8
BLACK
6
CONTINUOUS
10
85.4838
20
-137
11
85.3886
21
-136.809
0
LINE
8
BLACK
6
CONTINUOUS
10
85.3886
20
-136.809
11
85.3886
21
-135.095
0
LINE
8
BLACK
6
CONTINUOUS
10
87.1981
20
-137
11
87.0076
21
-137.095
0
LINE
8
BLACK
6
CONTINUOUS
10
87.0076
20
-137.095
11
86.6267
21
-137.095
0
LINE
8
BLACK
6
CONTINUOUS
10
86.6267
20
-137.095
11
86.4362
21
-137
0
LINE
8
BLACK
6
CONTINUOUS
10
86.4362
20
-137
11
86.341
21
-136.809
0
LINE
8
BLACK
6
CONTINUOUS
10
86.341
20
-136.809
11
86.341
21
-136.047
0
LINE
8
BLACK
6
CONTINUOUS
10
86.341
20
-136.047
11
86.4362
21
-135.857
0
LINE
8
BLACK
6
CONTINUOUS
10
86.4362
20
-135.857
11
86.6267
21
-135.761
0
LINE
8
BLACK
6
CONTINUOUS
10
86.6267
20
-135.761
11
87.0076
21
-135.761
0
LINE
8
BLACK
6
CONTINUOUS
10
87.0076
20
-135.761
11
87.1981
21
-135.857
0
LINE
8
BLACK
6
CONTINUOUS
10
87.1981
20
-135.857
11
87.2933
21
-136.047
0
LINE
8
BLACK
6
CONTINUOUS
10
87.2933
20
-136.047
11
87.2933
21
-136.238
0
LINE
8
BLACK
6
CONTINUOUS
10
87.2933
20
-136.238
11
86.341
21
-136.428
0
LINE
8
BLACK
6
CONTINUOUS
10
88.0552
20
-137
11
88.2457
21
-137.095
0
LINE
8
BLACK
6
CONTINUOUS
10
88.2457
20
-137.095
11
88.6267
21
-137.095
0
LINE
8
BLACK
6
CONTINUOUS
10
88.6267
20
-137.095
11
88.8171
21
-137
0
LINE
8
BLACK
6
CONTINUOUS
10
88.8171
20
-137
11
88.9124
21
-136.809
0
LINE
8
BLACK
6
CONTINUOUS
10
88.9124
20
-136.809
11
88.9124
21
-136.714
0
LINE
8
BLACK
6
CONTINUOUS
10
88.9124
20
-136.714
11
88.8171
21
-136.523
0
LINE
8
BLACK
6
CONTINUOUS
10
88.8171
20
-136.523
11
88.6267
21
-136.428
0
LINE
8
BLACK
6
CONTINUOUS
10
88.6267
20
-136.428
11
88.341
21
-136.428
0
LINE
8
BLACK
6
CONTINUOUS
10
88.341
20
-136.428
11
88.1505
21
-136.333
0
LINE
8
BLACK
6
CONTINUOUS
10
88.1505
20
-136.333
11
88.0552
21
-136.142
0
LINE
8
BLACK
6
CONTINUOUS
10
88.0552
20
-136.142
11
88.0552
21
-136.047
0
LINE
8
BLACK
6
CONTINUOUS
10
88.0552
20
-136.047
11
88.1505
21
-135.857
0
LINE
8
BLACK
6
CONTINUOUS
10
88.1505
20
-135.857
11
88.341
21
-135.761
0
LINE
8
BLACK
6
CONTINUOUS
10
88.341
20
-135.761
11
88.6267
21
-135.761
0
LINE
8
BLACK
6
CONTINUOUS
10
88.6267
20
-135.761
11
88.8171
21
-135.857
0
LINE
8
BLACK
6
CONTINUOUS
10
89.579
20
-137.857
11
89.6743
21
-137.761
0
LINE
8
BLACK
6
CONTINUOUS
10
89.6743
20
-137.761
11
89.8648
21
-137.476
0
LINE
8
BLACK
6
CONTINUOUS
10
89.8648
20
-137.476
11
89.96
21
-137.285
0
LINE
8
BLACK
6
CONTINUOUS
10
89.96
20
-137.285
11
90.0552
21
-137
0
LINE
8
BLACK
6
CONTINUOUS
10
90.0552
20
-137
11
90.1505
21
-136.523
0
LINE
8
BLACK
6
CONTINUOUS
10
90.1505
20
-136.523
11
90.1505
21
-136.142
0
LINE
8
BLACK
6
CONTINUOUS
10
90.1505
20
-136.142
11
90.0552
21
-135.666
0
LINE
8
BLACK
6
CONTINUOUS
10
90.0552
20
-135.666
11
89.96
21
-135.38
0
LINE
8
BLACK
6
CONTINUOUS
10
89.96
20
-135.38
11
89.8648
21
-135.19
0
LINE
8
BLACK
6
CONTINUOUS
10
89.8648
20
-135.19
11
89.6743
21
-134.904
0
LINE
8
BLACK
6
CONTINUOUS
10
89.6743
20
-134.904
11
89.579
21
-134.809
0
LINE
8
BLACK
6
CONTINUOUS
10
93.1981
20
-137.857
11
93.1029
21
-137.761
0
LINE
8
BLACK
6
CONTINUOUS
10
93.1029
20
-137.761
11
92.9124
21
-137.476
0
LINE
8
BLACK
6
CONTINUOUS
10
92.9124
20
-137.476
11
92.8171
21
-137.285
0
LINE
8
BLACK
6
CONTINUOUS
10
92.8171
20
-137.285
11
92.7219
21
-137
0
LINE
8
BLACK
6
CONTINUOUS
10
92.7219
20
-137
11
92.6267
21
-136.523
0
LINE
8
BLACK
6
CONTINUOUS
10
92.6267
20
-136.523
11
92.6267
21
-136.142
0
LINE
8
BLACK
6
CONTINUOUS
10
92.6267
20
-136.142
11
92.7219
21
-135.666
0
LINE
8
BLACK
6
CONTINUOUS
10
92.7219
20
-135.666
11
92.8171
21
-135.38
0
LINE
8
BLACK
6
CONTINUOUS
10
92.8171
20
-135.38
11
92.9124
21
-135.19
0
LINE
8
BLACK
6
CONTINUOUS
10
92.9124
20
-135.19
11
93.1029
21
-134.904
0
LINE
8
BLACK
6
CONTINUOUS
10
93.1029
20
-134.904
11
93.1981
21
-134.809
0
LINE
8
BLACK
6
CONTINUOUS
10
93.96
20
-135.761
11
93.96
21
-137.095
0
LINE
8
BLACK
6
CONTINUOUS
10
93.96
20
-135.952
11
94.0552
21
-135.857
0
LINE
8
BLACK
6
CONTINUOUS
10
94.0552
20
-135.857
11
94.2457
21
-135.761
0
LINE
8
BLACK
6
CONTINUOUS
10
94.2457
20
-135.761
11
94.5314
21
-135.761
0
LINE
8
BLACK
6
CONTINUOUS
10
94.5314
20
-135.761
11
94.7219
21
-135.857
0
LINE
8
BLACK
6
CONTINUOUS
10
94.7219
20
-135.857
11
94.8171
21
-136.047
0
LINE
8
BLACK
6
CONTINUOUS
10
94.8171
20
-136.047
11
94.8171
21
-137.095
0
LINE
8
BLACK
6
CONTINUOUS
10
96.0552
20
-137.095
11
95.8648
21
-137
0
LINE
8
BLACK
6
CONTINUOUS
10
95.8648
20
-137
11
95.7695
21
-136.904
0
LINE
8
BLACK
6
CONTINUOUS
10
95.7695
20
-136.904
11
95.6743
21
-136.714
0
LINE
8
BLACK
6
CONTINUOUS
10
95.6743
20
-136.714
11
95.6743
21
-136.142
0
LINE
8
BLACK
6
CONTINUOUS
10
95.6743
20
-136.142
11
95.7695
21
-135.952
0
LINE
8
BLACK
6
CONTINUOUS
10
95.7695
20
-135.952
11
95.8648
21
-135.857
0
LINE
8
BLACK
6
CONTINUOUS
10
95.8648
20
-135.857
11
96.0552
21
-135.761
0
LINE
8
BLACK
6
CONTINUOUS
10
96.0552
20
-135.761
11
96.341
21
-135.761
0
LINE
8
BLACK
6
CONTINUOUS
10
96.341
20
-135.761
11
96.5314
21
-135.857
0
LINE
8
BLACK
6
CONTINUOUS
10
96.5314
20
-135.857
11
96.6267
21
-135.952
0
LINE
8
BLACK
6
CONTINUOUS
10
96.6267
20
-135.952
11
96.7219
21
-136.142
0
LINE
8
BLACK
6
CONTINUOUS
10
96.7219
20
-136.142
11
96.7219
21
-136.714
0
LINE
8
BLACK
6
CONTINUOUS
10
96.7219
20
-136.714
11
96.6267
21
-136.904
0
LINE
8
BLACK
6
CONTINUOUS
10
96.6267
20
-136.904
11
96.5314
21
-137
0
LINE
8
BLACK
6
CONTINUOUS
10
96.5314
20
-137
11
96.341
21
-137.095
0
LINE
8
BLACK
6
CONTINUOUS
10
96.341
20
-137.095
11
96.0552
21
-137.095
0
LINE
8
BLACK
6
CONTINUOUS
10
97.2933
20
-135.761
11
98.0552
21
-135.761
0
LINE
8
BLACK
6
CONTINUOUS
10
97.579
20
-135.095
11
97.579
21
-136.809
0
LINE
8
BLACK
6
CONTINUOUS
10
97.579
20
-136.809
11
97.6743
21
-137
0
LINE
8
BLACK
6
CONTINUOUS
10
97.6743
20
-137
11
97.8648
21
-137.095
0
LINE
8
BLACK
6
CONTINUOUS
10
97.8648
20
-137.095
11
98.0552
21
-137.095
0
LINE
8
BLACK
6
CONTINUOUS
10
100.246
20
-135.761
11
100.246
21
-137.761
0
LINE
8
BLACK
6
CONTINUOUS
10
100.246
20
-135.857
11
100.436
21
-135.761
0
LINE
8
BLACK
6
CONTINUOUS
10
100.436
20
-135.761
11
100.817
21
-135.761
0
LINE
8
BLACK
6
CONTINUOUS
10
100.817
20
-135.761
11
101.008
21
-135.857
0
LINE
8
BLACK
6
CONTINUOUS
10
101.008
20
-135.857
11
101.103
21
-135.952
0
LINE
8
BLACK
6
CONTINUOUS
10
101.103
20
-135.952
11
101.198
21
-136.142
0
LINE
8
BLACK
6
CONTINUOUS
10
101.198
20
-136.142
11
101.198
21
-136.714
0
LINE
8
BLACK
6
CONTINUOUS
10
101.198
20
-136.714
11
101.103
21
-136.904
0
LINE
8
BLACK
6
CONTINUOUS
10
101.103
20
-136.904
11
101.008
21
-137
0
LINE
8
BLACK
6
CONTINUOUS
10
101.008
20
-137
11
100.817
21
-137.095
0
LINE
8
BLACK
6
CONTINUOUS
10
100.817
20
-137.095
11
100.436
21
-137.095
0
LINE
8
BLACK
6
CONTINUOUS
10
100.436
20
-137.095
11
100.246
21
-137
0
LINE
8
BLACK
6
CONTINUOUS
10
102.341
20
-137.095
11
102.15
21
-137
0
LINE
8
BLACK
6
CONTINUOUS
10
102.15
20
-137
11
102.055
21
-136.809
0
LINE
8
BLACK
6
CONTINUOUS
10
102.055
20
-136.809
11
102.055
21
-135.095
0
LINE
8
BLACK
6
CONTINUOUS
10
103.96
20
-137.095
11
103.96
21
-136.047
0
LINE
8
BLACK
6
CONTINUOUS
10
103.96
20
-136.047
11
103.865
21
-135.857
0
LINE
8
BLACK
6
CONTINUOUS
10
103.865
20
-135.857
11
103.674
21
-135.761
0
LINE
8
BLACK
6
CONTINUOUS
10
103.674
20
-135.761
11
103.293
21
-135.761
0
LINE
8
BLACK
6
CONTINUOUS
10
103.293
20
-135.761
11
103.103
21
-135.857
0
LINE
8
BLACK
6
CONTINUOUS
10
103.96
20
-137
11
103.77
21
-137.095
0
LINE
8
BLACK
6
CONTINUOUS
10
103.77
20
-137.095
11
103.293
21
-137.095
0
LINE
8
BLACK
6
CONTINUOUS
10
103.293
20
-137.095
11
103.103
21
-137
0
LINE
8
BLACK
6
CONTINUOUS
10
103.103
20
-137
11
103.008
21
-136.809
0
LINE
8
BLACK
6
CONTINUOUS
10
103.008
20
-136.809
11
103.008
21
-136.619
0
LINE
8
BLACK
6
CONTINUOUS
10
103.008
20
-136.619
11
103.103
21
-136.428
0
LINE
8
BLACK
6
CONTINUOUS
10
103.103
20
-136.428
11
103.293
21
-136.333
0
LINE
8
BLACK
6
CONTINUOUS
10
103.293
20
-136.333
11
103.77
21
-136.333
0
LINE
8
BLACK
6
CONTINUOUS
10
103.77
20
-136.333
11
103.96
21
-136.238
0
LINE
8
BLACK
6
CONTINUOUS
10
104.627
20
-135.761
11
105.389
21
-135.761
0
LINE
8
BLACK
6
CONTINUOUS
10
104.912
20
-135.095
11
104.912
21
-136.809
0
LINE
8
BLACK
6
CONTINUOUS
10
104.912
20
-136.809
11
105.008
21
-137
0
LINE
8
BLACK
6
CONTINUOUS
10
105.008
20
-137
11
105.198
21
-137.095
0
LINE
8
BLACK
6
CONTINUOUS
10
105.198
20
-137.095
11
105.389
21
-137.095
0
LINE
8
BLACK
6
CONTINUOUS
10
106.817
20
-137
11
106.627
21
-137.095
0
LINE
8
BLACK
6
CONTINUOUS
10
106.627
20
-137.095
11
106.246
21
-137.095
0
LINE
8
BLACK
6
CONTINUOUS
10
106.246
20
-137.095
11
106.055
21
-137
0
LINE
8
BLACK
6
CONTINUOUS
10
106.055
20
-137
11
105.96
21
-136.809
0
LINE
8
BLACK
6
CONTINUOUS
10
105.96
20
-136.809
11
105.96
21
-136.047
0
LINE
8
BLACK
6
CONTINUOUS
10
105.96
20
-136.047
11
106.055
21
-135.857
0
LINE
8
BLACK
6
CONTINUOUS
10
106.055
20
-135.857
11
106.246
21
-135.761
0
LINE
8
BLACK
6
CONTINUOUS
10
106.246
20
-135.761
11
106.627
21
-135.761
0
LINE
8
BLACK
6
CONTINUOUS
10
106.627
20
-135.761
11
106.817
21
-135.857
0
LINE
8
BLACK
6
CONTINUOUS
10
106.817
20
-135.857
11
106.912
21
-136.047
0
LINE
8
BLACK
6
CONTINUOUS
10
106.912
20
-136.047
11
106.912
21
-136.238
0
LINE
8
BLACK
6
CONTINUOUS
10
106.912
20
-136.238
11
105.96
21
-136.428
0
LINE
8
BLACK
6
CONTINUOUS
10
108.627
20
-137.095
11
108.627
21
-135.095
0
LINE
8
BLACK
6
CONTINUOUS
10
108.627
20
-137
11
108.436
21
-137.095
0
LINE
8
BLACK
6
CONTINUOUS
10
108.436
20
-137.095
11
108.055
21
-137.095
0
LINE
8
BLACK
6
CONTINUOUS
10
108.055
20
-137.095
11
107.865
21
-137
0
LINE
8
BLACK
6
CONTINUOUS
10
107.865
20
-137
11
107.77
21
-136.904
0
LINE
8
BLACK
6
CONTINUOUS
10
107.77
20
-136.904
11
107.674
21
-136.714
0
LINE
8
BLACK
6
CONTINUOUS
10
107.674
20
-136.714
11
107.674
21
-136.142
0
LINE
8
BLACK
6
CONTINUOUS
10
107.674
20
-136.142
11
107.77
21
-135.952
0
LINE
8
BLACK
6
CONTINUOUS
10
107.77
20
-135.952
11
107.865
21
-135.857
0
LINE
8
BLACK
6
CONTINUOUS
10
107.865
20
-135.857
11
108.055
21
-135.761
0
LINE
8
BLACK
6
CONTINUOUS
10
108.055
20
-135.761
11
108.436
21
-135.761
0
LINE
8
BLACK
6
CONTINUOUS
10
108.436
20
-135.761
11
108.627
21
-135.857
0
LINE
8
BLACK
6
CONTINUOUS
10
109.389
20
-137.857
11
109.484
21
-137.761
0
LINE
8
BLACK
6
CONTINUOUS
10
109.484
20
-137.761
11
109.674
21
-137.476
0
LINE
8
BLACK
6
CONTINUOUS
10
109.674
20
-137.476
11
109.77
21
-137.285
0
LINE
8
BLACK
6
CONTINUOUS
10
109.77
20
-137.285
11
109.865
21
-137
0
LINE
8
BLACK
6
CONTINUOUS
10
109.865
20
-137
11
109.96
21
-136.523
0
LINE
8
BLACK
6
CONTINUOUS
10
109.96
20
-136.523
11
109.96
21
-136.142
0
LINE
8
BLACK
6
CONTINUOUS
10
109.96
20
-136.142
11
109.865
21
-135.666
0
LINE
8
BLACK
6
CONTINUOUS
10
109.865
20
-135.666
11
109.77
21
-135.38
0
LINE
8
BLACK
6
CONTINUOUS
10
109.77
20
-135.38
11
109.674
21
-135.19
0
LINE
8
BLACK
6
CONTINUOUS
10
109.674
20
-135.19
11
109.484
21
-134.904
0
LINE
8
BLACK
6
CONTINUOUS
10
109.484
20
-134.904
11
109.389
21
-134.809
  0
ENDSEC
  0
EOF
