  0
SECTION
  2
HEADER
  9
$ANGBASE
  50
0.0
  9
$ANGDIR
  70
1
  9
$MEASUREMENT
  70
1
  0
ENDSEC
  0
SECTION
  2
TABLES
  0
TABLE
  2
LTYPE
  70
4
  0
LTYPE
  5
40F
  2
CONTINUOUS
  70
0
  3
Solid line
  72
65
  73
0
  40
0.0
  0
LTYPE
  5
410
  2
DASHDOT
 70
0
  3
Dash Dot ____ _ ____ _
 72
65
 73
4
 40
2.0
 49
1.25
 49
-0.25
 49
0.25
 49
-0.25
  0
LTYPE
  5
411
  2
DASHED
 70
0
  3
Dashed __ __ __ __ __
 72
65
 73
2
 40
0.75
 49
0.5
 49
-0.25
  0
LTYPE
  5
43B
  2
DOTTED
 70
0
  3
Dotted .  .  .  .
 72
65
 73
2
 40
0.2
 49
0.0
 49
-0.2
  0
ENDTAB
  0
TABLE
  2
STYLE
  70
4
  0
STYLE
  2
KICAD
  70
0
  40
0
  41
1
  42
1
  50
0
  71
0
  3
isocp.shx
  0
STYLE
  2
KICADB
  70
0
  40
0
  41
1
  42
1
  50
0
  71
0
  3
isocp.shx
  0
STYLE
  2
KICADI
  70
0
  40
0
  41
1
  42
1
  50
15
  71
0
  3
isocp.shx
  0
STYLE
  2
KICADBI
  70
0
  40
0
  41
1
  42
1
  50
15
  71
0
  3
isocp.shx
  0
ENDTAB
  0
TABLE
  2
LAYER
  70
1
  0
LAYER
  2
BLACK
  70
0
  62
7
  6
CONTINUOUS
  0
ENDTAB
  0
ENDSEC
  0
SECTION
  2
ENTITIES
0
LINE
8
BLACK
6
CONTINUOUS
10
43.18
20
-17.78
11
43.18
21
-114.3
0
LINE
8
BLACK
6
CONTINUOUS
10
256.54
20
-7.62
11
53.34
21
-7.62
0
LINE
8
BLACK
6
CONTINUOUS
10
266.7
20
-114.3
11
266.7
21
-17.78
0
LINE
8
BLACK
6
CONTINUOUS
10
53.34
20
-124.46
11
256.54
21
-124.46
0
ARC
8
BLACK
10
53.34
20
-17.78
40
10.16
50
90
51
180
0
ARC
8
BLACK
10
53.34
20
-114.3
40
10.16
50
-180
51
-90
0
ARC
8
BLACK
10
256.54
20
-114.3
40
10.16
50
-90
51
-0
0
ARC
8
BLACK
10
256.54
20
-17.78
40
10.16
50
-0
51
90
0
LINE
8
BLACK
6
CONTINUOUS
10
51.285
20
-61.445
11
51.585
21
-61.745
0
LINE
8
BLACK
6
CONTINUOUS
10
51.585
20
-61.445
11
51.285
21
-61.745
0
LINE
8
BLACK
6
CONTINUOUS
10
51.285
20
-70.335
11
51.585
21
-70.635
0
LINE
8
BLACK
6
CONTINUOUS
10
51.585
20
-70.335
11
51.285
21
-70.635
0
LINE
8
BLACK
6
CONTINUOUS
10
53.19
20
-29.822
11
53.49
21
-30.122
0
LINE
8
BLACK
6
CONTINUOUS
10
53.49
20
-29.822
11
53.19
21
-30.122
0
LINE
8
BLACK
6
CONTINUOUS
10
53.19
20
-41.506
11
53.49
21
-41.806
0
LINE
8
BLACK
6
CONTINUOUS
10
53.49
20
-41.506
11
53.19
21
-41.806
0
LINE
8
BLACK
6
CONTINUOUS
10
53.19
20
-53.19
11
53.49
21
-53.49
0
LINE
8
BLACK
6
CONTINUOUS
10
53.49
20
-53.19
11
53.19
21
-53.49
0
LINE
8
BLACK
6
CONTINUOUS
10
53.19
20
-64.874
11
53.49
21
-65.174
0
LINE
8
BLACK
6
CONTINUOUS
10
53.49
20
-64.874
11
53.19
21
-65.174
0
LINE
8
BLACK
6
CONTINUOUS
10
53.19
20
-76.812
11
53.49
21
-77.112
0
LINE
8
BLACK
6
CONTINUOUS
10
53.49
20
-76.812
11
53.19
21
-77.112
0
LINE
8
BLACK
6
CONTINUOUS
10
53.19
20
-88.75
11
53.49
21
-89.05
0
LINE
8
BLACK
6
CONTINUOUS
10
53.49
20
-88.75
11
53.19
21
-89.05
0
LINE
8
BLACK
6
CONTINUOUS
10
53.19
20
-100.688
11
53.49
21
-100.988
0
LINE
8
BLACK
6
CONTINUOUS
10
53.49
20
-100.688
11
53.19
21
-100.988
0
LINE
8
BLACK
6
CONTINUOUS
10
53.19
20
-112.626
11
53.49
21
-112.926
0
LINE
8
BLACK
6
CONTINUOUS
10
53.49
20
-112.626
11
53.19
21
-112.926
0
LINE
8
BLACK
6
CONTINUOUS
10
58.489
20
-57.254
11
58.789
21
-57.554
0
LINE
8
BLACK
6
CONTINUOUS
10
58.789
20
-57.254
11
58.489
21
-57.554
0
LINE
8
BLACK
6
CONTINUOUS
10
58.489
20
-68.938
11
58.789
21
-69.238
0
LINE
8
BLACK
6
CONTINUOUS
10
58.789
20
-68.938
11
58.489
21
-69.238
0
LINE
8
BLACK
6
CONTINUOUS
10
58.489
20
-104.752
11
58.789
21
-105.052
0
LINE
8
BLACK
6
CONTINUOUS
10
58.789
20
-104.752
11
58.489
21
-105.052
0
LINE
8
BLACK
6
CONTINUOUS
10
58.491
20
-45.57
11
58.791
21
-45.87
0
LINE
8
BLACK
6
CONTINUOUS
10
58.791
20
-45.57
11
58.491
21
-45.87
0
LINE
8
BLACK
6
CONTINUOUS
10
58.5215
20
-80.876
11
58.8215
21
-81.176
0
LINE
8
BLACK
6
CONTINUOUS
10
58.8215
20
-80.876
11
58.5215
21
-81.176
0
LINE
8
BLACK
6
CONTINUOUS
10
58.5675
20
-92.814
11
58.8675
21
-93.114
0
LINE
8
BLACK
6
CONTINUOUS
10
58.8675
20
-92.814
11
58.5675
21
-93.114
0
LINE
8
BLACK
6
CONTINUOUS
10
58.87
20
-31.473
11
59.17
21
-31.773
0
LINE
8
BLACK
6
CONTINUOUS
10
59.17
20
-31.473
11
58.87
21
-31.773
0
LINE
8
BLACK
6
CONTINUOUS
10
58.87
20
-32.997
11
59.17
21
-33.297
0
LINE
8
BLACK
6
CONTINUOUS
10
59.17
20
-32.997
11
58.87
21
-33.297
0
LINE
8
BLACK
6
CONTINUOUS
10
58.9927
20
-120.25
11
59.2927
21
-120.55
0
LINE
8
BLACK
6
CONTINUOUS
10
59.2927
20
-120.25
11
58.9927
21
-120.55
0
LINE
8
BLACK
6
CONTINUOUS
10
58.997
20
-38.458
11
59.297
21
-38.758
0
LINE
8
BLACK
6
CONTINUOUS
10
59.297
20
-38.458
11
58.997
21
-38.758
0
LINE
8
BLACK
6
CONTINUOUS
10
58.997
20
-61.826
11
59.297
21
-62.126
0
LINE
8
BLACK
6
CONTINUOUS
10
59.297
20
-61.826
11
58.997
21
-62.126
0
LINE
8
BLACK
6
CONTINUOUS
10
58.997
20
-73.51
11
59.297
21
-73.81
0
LINE
8
BLACK
6
CONTINUOUS
10
59.297
20
-73.51
11
58.997
21
-73.81
0
LINE
8
BLACK
6
CONTINUOUS
10
58.997
20
-109.324
11
59.297
21
-109.624
0
LINE
8
BLACK
6
CONTINUOUS
10
59.297
20
-109.324
11
58.997
21
-109.624
0
LINE
8
BLACK
6
CONTINUOUS
10
58.999
20
-50.142
11
59.299
21
-50.442
0
LINE
8
BLACK
6
CONTINUOUS
10
59.299
20
-50.142
11
58.999
21
-50.442
0
LINE
8
BLACK
6
CONTINUOUS
10
59.0295
20
-85.448
11
59.3295
21
-85.748
0
LINE
8
BLACK
6
CONTINUOUS
10
59.3295
20
-85.448
11
59.0295
21
-85.748
0
LINE
8
BLACK
6
CONTINUOUS
10
59.0755
20
-97.386
11
59.3755
21
-97.686
0
LINE
8
BLACK
6
CONTINUOUS
10
59.3755
20
-97.386
11
59.0755
21
-97.686
0
LINE
8
BLACK
6
CONTINUOUS
10
59.378
20
-35.8805
11
59.678
21
-36.1805
0
LINE
8
BLACK
6
CONTINUOUS
10
59.678
20
-35.8805
11
59.378
21
-36.1805
0
LINE
8
BLACK
6
CONTINUOUS
10
59.4964
20
-118.731
11
59.7964
21
-119.031
0
LINE
8
BLACK
6
CONTINUOUS
10
59.7964
20
-118.731
11
59.4964
21
-119.031
0
LINE
8
BLACK
6
CONTINUOUS
10
59.505
20
-116.69
11
59.805
21
-116.99
0
LINE
8
BLACK
6
CONTINUOUS
10
59.805
20
-116.69
11
59.505
21
-116.99
0
LINE
8
BLACK
6
CONTINUOUS
10
60.013
20
-58.778
11
60.313
21
-59.078
0
LINE
8
BLACK
6
CONTINUOUS
10
60.313
20
-58.778
11
60.013
21
-59.078
0
LINE
8
BLACK
6
CONTINUOUS
10
60.013
20
-70.462
11
60.313
21
-70.762
0
LINE
8
BLACK
6
CONTINUOUS
10
60.313
20
-70.462
11
60.013
21
-70.762
0
LINE
8
BLACK
6
CONTINUOUS
10
60.013
20
-106.276
11
60.313
21
-106.576
0
LINE
8
BLACK
6
CONTINUOUS
10
60.313
20
-106.276
11
60.013
21
-106.576
0
LINE
8
BLACK
6
CONTINUOUS
10
60.015
20
-47.094
11
60.315
21
-47.394
0
LINE
8
BLACK
6
CONTINUOUS
10
60.315
20
-47.094
11
60.015
21
-47.394
0
LINE
8
BLACK
6
CONTINUOUS
10
60.0455
20
-82.4
11
60.3455
21
-82.7
0
LINE
8
BLACK
6
CONTINUOUS
10
60.3455
20
-82.4
11
60.0455
21
-82.7
0
LINE
8
BLACK
6
CONTINUOUS
10
60.0915
20
-94.338
11
60.3915
21
-94.638
0
LINE
8
BLACK
6
CONTINUOUS
10
60.3915
20
-94.338
11
60.0915
21
-94.638
0
LINE
8
BLACK
6
CONTINUOUS
10
60.394
20
-34.4315
11
60.694
21
-34.7315
0
LINE
8
BLACK
6
CONTINUOUS
10
60.694
20
-34.4315
11
60.394
21
-34.7315
0
LINE
8
BLACK
6
CONTINUOUS
10
64.586
20
-46.587
11
64.886
21
-46.887
0
LINE
8
BLACK
6
CONTINUOUS
10
64.886
20
-46.587
11
64.586
21
-46.887
0
LINE
8
BLACK
6
CONTINUOUS
10
64.839
20
-33.886
11
65.139
21
-34.186
0
LINE
8
BLACK
6
CONTINUOUS
10
65.139
20
-33.886
11
64.839
21
-34.186
0
LINE
8
BLACK
6
CONTINUOUS
10
65.354
20
-53.218
11
65.654
21
-53.518
0
LINE
8
BLACK
6
CONTINUOUS
10
65.654
20
-53.218
11
65.354
21
-53.518
0
LINE
8
BLACK
6
CONTINUOUS
10
65.382
20
-29.822
11
65.682
21
-30.122
0
LINE
8
BLACK
6
CONTINUOUS
10
65.682
20
-29.822
11
65.382
21
-30.122
0
LINE
8
BLACK
6
CONTINUOUS
10
65.382
20
-30.838
11
65.682
21
-31.138
0
LINE
8
BLACK
6
CONTINUOUS
10
65.682
20
-30.838
11
65.382
21
-31.138
0
LINE
8
BLACK
6
CONTINUOUS
10
65.382
20
-41.506
11
65.682
21
-41.806
0
LINE
8
BLACK
6
CONTINUOUS
10
65.682
20
-41.506
11
65.382
21
-41.806
0
LINE
8
BLACK
6
CONTINUOUS
10
65.382
20
-42.522
11
65.682
21
-42.822
0
LINE
8
BLACK
6
CONTINUOUS
10
65.682
20
-42.522
11
65.382
21
-42.822
0
LINE
8
BLACK
6
CONTINUOUS
10
65.382
20
-54.206
11
65.682
21
-54.506
0
LINE
8
BLACK
6
CONTINUOUS
10
65.682
20
-54.206
11
65.382
21
-54.506
0
LINE
8
BLACK
6
CONTINUOUS
10
65.382
20
-64.874
11
65.682
21
-65.174
0
LINE
8
BLACK
6
CONTINUOUS
10
65.682
20
-64.874
11
65.382
21
-65.174
0
LINE
8
BLACK
6
CONTINUOUS
10
65.382
20
-65.89
11
65.682
21
-66.19
0
LINE
8
BLACK
6
CONTINUOUS
10
65.682
20
-65.89
11
65.382
21
-66.19
0
LINE
8
BLACK
6
CONTINUOUS
10
65.382
20
-76.868
11
65.682
21
-77.168
0
LINE
8
BLACK
6
CONTINUOUS
10
65.682
20
-76.868
11
65.382
21
-77.168
0
LINE
8
BLACK
6
CONTINUOUS
10
65.382
20
-77.884
11
65.682
21
-78.184
0
LINE
8
BLACK
6
CONTINUOUS
10
65.682
20
-77.884
11
65.382
21
-78.184
0
LINE
8
BLACK
6
CONTINUOUS
10
65.382
20
-88.75
11
65.682
21
-89.05
0
LINE
8
BLACK
6
CONTINUOUS
10
65.682
20
-88.75
11
65.382
21
-89.05
0
LINE
8
BLACK
6
CONTINUOUS
10
65.382
20
-89.766
11
65.682
21
-90.066
0
LINE
8
BLACK
6
CONTINUOUS
10
65.682
20
-89.766
11
65.382
21
-90.066
0
LINE
8
BLACK
6
CONTINUOUS
10
65.382
20
-100.688
11
65.682
21
-100.988
0
LINE
8
BLACK
6
CONTINUOUS
10
65.682
20
-100.688
11
65.382
21
-100.988
0
LINE
8
BLACK
6
CONTINUOUS
10
65.382
20
-101.704
11
65.682
21
-102.004
0
LINE
8
BLACK
6
CONTINUOUS
10
65.682
20
-101.704
11
65.382
21
-102.004
0
LINE
8
BLACK
6
CONTINUOUS
10
65.382
20
-112.626
11
65.682
21
-112.926
0
LINE
8
BLACK
6
CONTINUOUS
10
65.682
20
-112.626
11
65.382
21
-112.926
0
LINE
8
BLACK
6
CONTINUOUS
10
65.382
20
-113.642
11
65.682
21
-113.942
0
LINE
8
BLACK
6
CONTINUOUS
10
65.682
20
-113.642
11
65.382
21
-113.942
0
LINE
8
BLACK
6
CONTINUOUS
10
66.109
20
-70.208
11
66.409
21
-70.508
0
LINE
8
BLACK
6
CONTINUOUS
10
66.409
20
-70.208
11
66.109
21
-70.508
0
LINE
8
BLACK
6
CONTINUOUS
10
66.109
20
-94.084
11
66.409
21
-94.384
0
LINE
8
BLACK
6
CONTINUOUS
10
66.409
20
-94.084
11
66.109
21
-94.384
0
LINE
8
BLACK
6
CONTINUOUS
10
68.0582
20
-120.824
11
68.3582
21
-121.124
0
LINE
8
BLACK
6
CONTINUOUS
10
68.3582
20
-120.824
11
68.0582
21
-121.124
0
LINE
8
BLACK
6
CONTINUOUS
10
68.176
20
-109.832
11
68.476
21
-110.132
0
LINE
8
BLACK
6
CONTINUOUS
10
68.476
20
-109.832
11
68.176
21
-110.132
0
LINE
8
BLACK
6
CONTINUOUS
10
69.507
20
-38.178
11
69.807
21
-38.478
0
LINE
8
BLACK
6
CONTINUOUS
10
69.807
20
-38.178
11
69.507
21
-38.478
0
LINE
8
BLACK
6
CONTINUOUS
10
69.507
20
-61.546
11
69.807
21
-61.846
0
LINE
8
BLACK
6
CONTINUOUS
10
69.807
20
-61.546
11
69.507
21
-61.846
0
LINE
8
BLACK
6
CONTINUOUS
10
69.507
20
-73.23
11
69.807
21
-73.53
0
LINE
8
BLACK
6
CONTINUOUS
10
69.807
20
-73.23
11
69.507
21
-73.53
0
LINE
8
BLACK
6
CONTINUOUS
10
69.507
20
-109.044
11
69.807
21
-109.344
0
LINE
8
BLACK
6
CONTINUOUS
10
69.807
20
-109.044
11
69.507
21
-109.344
0
LINE
8
BLACK
6
CONTINUOUS
10
69.509
20
-49.862
11
69.809
21
-50.162
0
LINE
8
BLACK
6
CONTINUOUS
10
69.809
20
-49.862
11
69.509
21
-50.162
0
LINE
8
BLACK
6
CONTINUOUS
10
69.5395
20
-85.168
11
69.8395
21
-85.468
0
LINE
8
BLACK
6
CONTINUOUS
10
69.8395
20
-85.168
11
69.5395
21
-85.468
0
LINE
8
BLACK
6
CONTINUOUS
10
69.5855
20
-97.106
11
69.8855
21
-97.406
0
LINE
8
BLACK
6
CONTINUOUS
10
69.8855
20
-97.106
11
69.5855
21
-97.406
0
LINE
8
BLACK
6
CONTINUOUS
10
70.97
20
-46.586
11
71.27
21
-46.886
0
LINE
8
BLACK
6
CONTINUOUS
10
71.27
20
-46.586
11
70.97
21
-46.886
0
LINE
8
BLACK
6
CONTINUOUS
10
71.189
20
-70.208
11
71.489
21
-70.508
0
LINE
8
BLACK
6
CONTINUOUS
10
71.489
20
-70.208
11
71.189
21
-70.508
0
LINE
8
BLACK
6
CONTINUOUS
10
71.189
20
-94.084
11
71.489
21
-94.384
0
LINE
8
BLACK
6
CONTINUOUS
10
71.489
20
-94.084
11
71.189
21
-94.384
0
LINE
8
BLACK
6
CONTINUOUS
10
71.697
20
-35.41
11
71.997
21
-35.71
0
LINE
8
BLACK
6
CONTINUOUS
10
71.997
20
-35.41
11
71.697
21
-35.71
0
LINE
8
BLACK
6
CONTINUOUS
10
71.986
20
-50.65
11
72.286
21
-50.95
0
LINE
8
BLACK
6
CONTINUOUS
10
72.286
20
-50.65
11
71.986
21
-50.95
0
LINE
8
BLACK
6
CONTINUOUS
10
73.002
20
-71.478
11
73.302
21
-71.778
0
LINE
8
BLACK
6
CONTINUOUS
10
73.302
20
-71.478
11
73.002
21
-71.778
0
LINE
8
BLACK
6
CONTINUOUS
10
73.51
20
-29.822
11
73.81
21
-30.122
0
LINE
8
BLACK
6
CONTINUOUS
10
73.81
20
-29.822
11
73.51
21
-30.122
0
LINE
8
BLACK
6
CONTINUOUS
10
73.51
20
-30.838
11
73.81
21
-31.138
0
LINE
8
BLACK
6
CONTINUOUS
10
73.81
20
-30.838
11
73.51
21
-31.138
0
LINE
8
BLACK
6
CONTINUOUS
10
73.51
20
-31.854
11
73.81
21
-32.154
0
LINE
8
BLACK
6
CONTINUOUS
10
73.81
20
-31.854
11
73.51
21
-32.154
0
LINE
8
BLACK
6
CONTINUOUS
10
73.51
20
-32.87
11
73.81
21
-33.17
0
LINE
8
BLACK
6
CONTINUOUS
10
73.81
20
-32.87
11
73.51
21
-33.17
0
LINE
8
BLACK
6
CONTINUOUS
10
73.51
20
-33.886
11
73.81
21
-34.186
0
LINE
8
BLACK
6
CONTINUOUS
10
73.81
20
-33.886
11
73.51
21
-34.186
0
LINE
8
BLACK
6
CONTINUOUS
10
73.51
20
-38.966
11
73.81
21
-39.266
0
LINE
8
BLACK
6
CONTINUOUS
10
73.81
20
-38.966
11
73.51
21
-39.266
0
LINE
8
BLACK
6
CONTINUOUS
10
73.51
20
-41.506
11
73.81
21
-41.806
0
LINE
8
BLACK
6
CONTINUOUS
10
73.81
20
-41.506
11
73.51
21
-41.806
0
LINE
8
BLACK
6
CONTINUOUS
10
73.51
20
-42.522
11
73.81
21
-42.822
0
LINE
8
BLACK
6
CONTINUOUS
10
73.81
20
-42.522
11
73.51
21
-42.822
0
LINE
8
BLACK
6
CONTINUOUS
10
73.51
20
-43.538
11
73.81
21
-43.838
0
LINE
8
BLACK
6
CONTINUOUS
10
73.81
20
-43.538
11
73.51
21
-43.838
0
LINE
8
BLACK
6
CONTINUOUS
10
73.51
20
-44.554
11
73.81
21
-44.854
0
LINE
8
BLACK
6
CONTINUOUS
10
73.81
20
-44.554
11
73.51
21
-44.854
0
LINE
8
BLACK
6
CONTINUOUS
10
73.51
20
-45.57
11
73.81
21
-45.87
0
LINE
8
BLACK
6
CONTINUOUS
10
73.81
20
-45.57
11
73.51
21
-45.87
0
LINE
8
BLACK
6
CONTINUOUS
10
73.51
20
-51.666
11
73.81
21
-51.966
0
LINE
8
BLACK
6
CONTINUOUS
10
73.81
20
-51.666
11
73.51
21
-51.966
0
LINE
8
BLACK
6
CONTINUOUS
10
73.51
20
-53.19
11
73.81
21
-53.49
0
LINE
8
BLACK
6
CONTINUOUS
10
73.81
20
-53.19
11
73.51
21
-53.49
0
LINE
8
BLACK
6
CONTINUOUS
10
73.51
20
-54.206
11
73.81
21
-54.506
0
LINE
8
BLACK
6
CONTINUOUS
10
73.81
20
-54.206
11
73.51
21
-54.506
0
LINE
8
BLACK
6
CONTINUOUS
10
73.51
20
-55.222
11
73.81
21
-55.522
0
LINE
8
BLACK
6
CONTINUOUS
10
73.81
20
-55.222
11
73.51
21
-55.522
0
LINE
8
BLACK
6
CONTINUOUS
10
73.51
20
-56.238
11
73.81
21
-56.538
0
LINE
8
BLACK
6
CONTINUOUS
10
73.81
20
-56.238
11
73.51
21
-56.538
0
LINE
8
BLACK
6
CONTINUOUS
10
73.51
20
-57.254
11
73.81
21
-57.554
0
LINE
8
BLACK
6
CONTINUOUS
10
73.81
20
-57.254
11
73.51
21
-57.554
0
LINE
8
BLACK
6
CONTINUOUS
10
73.51
20
-62.842
11
73.81
21
-63.142
0
LINE
8
BLACK
6
CONTINUOUS
10
73.81
20
-62.842
11
73.51
21
-63.142
0
LINE
8
BLACK
6
CONTINUOUS
10
73.51
20
-64.874
11
73.81
21
-65.174
0
LINE
8
BLACK
6
CONTINUOUS
10
73.81
20
-64.874
11
73.51
21
-65.174
0
LINE
8
BLACK
6
CONTINUOUS
10
73.51
20
-65.89
11
73.81
21
-66.19
0
LINE
8
BLACK
6
CONTINUOUS
10
73.81
20
-65.89
11
73.51
21
-66.19
0
LINE
8
BLACK
6
CONTINUOUS
10
73.51
20
-66.906
11
73.81
21
-67.206
0
LINE
8
BLACK
6
CONTINUOUS
10
73.81
20
-66.906
11
73.51
21
-67.206
0
LINE
8
BLACK
6
CONTINUOUS
10
73.51
20
-67.922
11
73.81
21
-68.222
0
LINE
8
BLACK
6
CONTINUOUS
10
73.81
20
-67.922
11
73.51
21
-68.222
0
LINE
8
BLACK
6
CONTINUOUS
10
73.51
20
-68.938
11
73.81
21
-69.238
0
LINE
8
BLACK
6
CONTINUOUS
10
73.81
20
-68.938
11
73.51
21
-69.238
0
LINE
8
BLACK
6
CONTINUOUS
10
73.51
20
-76.812
11
73.81
21
-77.112
0
LINE
8
BLACK
6
CONTINUOUS
10
73.81
20
-76.812
11
73.51
21
-77.112
0
LINE
8
BLACK
6
CONTINUOUS
10
73.51
20
-77.828
11
73.81
21
-78.128
0
LINE
8
BLACK
6
CONTINUOUS
10
73.81
20
-77.828
11
73.51
21
-78.128
0
LINE
8
BLACK
6
CONTINUOUS
10
73.51
20
-78.844
11
73.81
21
-79.144
0
LINE
8
BLACK
6
CONTINUOUS
10
73.81
20
-78.844
11
73.51
21
-79.144
0
LINE
8
BLACK
6
CONTINUOUS
10
73.51
20
-79.86
11
73.81
21
-80.16
0
LINE
8
BLACK
6
CONTINUOUS
10
73.81
20
-79.86
11
73.51
21
-80.16
0
LINE
8
BLACK
6
CONTINUOUS
10
73.51
20
-80.876
11
73.81
21
-81.176
0
LINE
8
BLACK
6
CONTINUOUS
10
73.81
20
-80.876
11
73.51
21
-81.176
0
LINE
8
BLACK
6
CONTINUOUS
10
73.51
20
-83.162
11
73.81
21
-83.462
0
LINE
8
BLACK
6
CONTINUOUS
10
73.81
20
-83.162
11
73.51
21
-83.462
0
LINE
8
BLACK
6
CONTINUOUS
10
73.51
20
-88.75
11
73.81
21
-89.05
0
LINE
8
BLACK
6
CONTINUOUS
10
73.81
20
-88.75
11
73.51
21
-89.05
0
LINE
8
BLACK
6
CONTINUOUS
10
73.51
20
-89.766
11
73.81
21
-90.066
0
LINE
8
BLACK
6
CONTINUOUS
10
73.81
20
-89.766
11
73.51
21
-90.066
0
LINE
8
BLACK
6
CONTINUOUS
10
73.51
20
-90.782
11
73.81
21
-91.082
0
LINE
8
BLACK
6
CONTINUOUS
10
73.81
20
-90.782
11
73.51
21
-91.082
0
LINE
8
BLACK
6
CONTINUOUS
10
73.51
20
-91.798
11
73.81
21
-92.098
0
LINE
8
BLACK
6
CONTINUOUS
10
73.81
20
-91.798
11
73.51
21
-92.098
0
LINE
8
BLACK
6
CONTINUOUS
10
73.51
20
-92.814
11
73.81
21
-93.114
0
LINE
8
BLACK
6
CONTINUOUS
10
73.81
20
-92.814
11
73.51
21
-93.114
0
LINE
8
BLACK
6
CONTINUOUS
10
73.51
20
-101.704
11
73.81
21
-102.004
0
LINE
8
BLACK
6
CONTINUOUS
10
73.81
20
-101.704
11
73.51
21
-102.004
0
LINE
8
BLACK
6
CONTINUOUS
10
73.51
20
-102.72
11
73.81
21
-103.02
0
LINE
8
BLACK
6
CONTINUOUS
10
73.81
20
-102.72
11
73.51
21
-103.02
0
LINE
8
BLACK
6
CONTINUOUS
10
73.51
20
-103.736
11
73.81
21
-104.036
0
LINE
8
BLACK
6
CONTINUOUS
10
73.81
20
-103.736
11
73.51
21
-104.036
0
LINE
8
BLACK
6
CONTINUOUS
10
73.51
20
-104.752
11
73.81
21
-105.052
0
LINE
8
BLACK
6
CONTINUOUS
10
73.81
20
-104.752
11
73.51
21
-105.052
0
LINE
8
BLACK
6
CONTINUOUS
10
73.51
20
-105.768
11
73.81
21
-106.068
0
LINE
8
BLACK
6
CONTINUOUS
10
73.81
20
-105.768
11
73.51
21
-106.068
0
LINE
8
BLACK
6
CONTINUOUS
10
73.51
20
-112.626
11
73.81
21
-112.926
0
LINE
8
BLACK
6
CONTINUOUS
10
73.81
20
-112.626
11
73.51
21
-112.926
0
LINE
8
BLACK
6
CONTINUOUS
10
73.51
20
-113.642
11
73.81
21
-113.942
0
LINE
8
BLACK
6
CONTINUOUS
10
73.81
20
-113.642
11
73.51
21
-113.942
0
LINE
8
BLACK
6
CONTINUOUS
10
73.51
20
-114.658
11
73.81
21
-114.958
0
LINE
8
BLACK
6
CONTINUOUS
10
73.81
20
-114.658
11
73.51
21
-114.958
0
LINE
8
BLACK
6
CONTINUOUS
10
73.51
20
-115.674
11
73.81
21
-115.974
0
LINE
8
BLACK
6
CONTINUOUS
10
73.81
20
-115.674
11
73.51
21
-115.974
0
LINE
8
BLACK
6
CONTINUOUS
10
73.51
20
-116.69
11
73.81
21
-116.99
0
LINE
8
BLACK
6
CONTINUOUS
10
73.81
20
-116.69
11
73.51
21
-116.99
0
LINE
8
BLACK
6
CONTINUOUS
10
74.237
20
-75.796
11
74.537
21
-76.096
0
LINE
8
BLACK
6
CONTINUOUS
10
74.537
20
-75.796
11
74.237
21
-76.096
0
LINE
8
BLACK
6
CONTINUOUS
10
74.272
20
-95.1
11
74.572
21
-95.4
0
LINE
8
BLACK
6
CONTINUOUS
10
74.572
20
-95.1
11
74.272
21
-95.4
0
LINE
8
BLACK
6
CONTINUOUS
10
74.78
20
-47.094
11
75.08
21
-47.394
0
LINE
8
BLACK
6
CONTINUOUS
10
75.08
20
-47.094
11
74.78
21
-47.394
0
LINE
8
BLACK
6
CONTINUOUS
10
74.78
20
-100.18
11
75.08
21
-100.48
0
LINE
8
BLACK
6
CONTINUOUS
10
75.08
20
-100.18
11
74.78
21
-100.48
0
LINE
8
BLACK
6
CONTINUOUS
10
75.034
20
-58.524
11
75.334
21
-58.824
0
LINE
8
BLACK
6
CONTINUOUS
10
75.334
20
-58.524
11
75.034
21
-58.824
0
LINE
8
BLACK
6
CONTINUOUS
10
78.59
20
-40.744
11
78.89
21
-41.044
0
LINE
8
BLACK
6
CONTINUOUS
10
78.89
20
-40.744
11
78.59
21
-41.044
0
LINE
8
BLACK
6
CONTINUOUS
10
78.59
20
-82.654
11
78.89
21
-82.954
0
LINE
8
BLACK
6
CONTINUOUS
10
78.89
20
-82.654
11
78.59
21
-82.954
0
LINE
8
BLACK
6
CONTINUOUS
10
78.844
20
-54.206
11
79.144
21
-54.506
0
LINE
8
BLACK
6
CONTINUOUS
10
79.144
20
-54.206
11
78.844
21
-54.506
0
LINE
8
BLACK
6
CONTINUOUS
10
78.844
20
-94.846
11
79.144
21
-95.146
0
LINE
8
BLACK
6
CONTINUOUS
10
79.144
20
-94.846
11
78.844
21
-95.146
0
LINE
8
BLACK
6
CONTINUOUS
10
78.844
20
-96.37
11
79.144
21
-96.67
0
LINE
8
BLACK
6
CONTINUOUS
10
79.144
20
-96.37
11
78.844
21
-96.67
0
LINE
8
BLACK
6
CONTINUOUS
10
79.098
20
-70.716
11
79.398
21
-71.016
0
LINE
8
BLACK
6
CONTINUOUS
10
79.398
20
-70.716
11
79.098
21
-71.016
0
LINE
8
BLACK
6
CONTINUOUS
10
79.098
20
-102.466
11
79.398
21
-102.766
0
LINE
8
BLACK
6
CONTINUOUS
10
79.398
20
-102.466
11
79.098
21
-102.766
0
LINE
8
BLACK
6
CONTINUOUS
10
79.352
20
-71.986
11
79.652
21
-72.286
0
LINE
8
BLACK
6
CONTINUOUS
10
79.652
20
-71.986
11
79.352
21
-72.286
0
LINE
8
BLACK
6
CONTINUOUS
10
79.352
20
-76.05
11
79.652
21
-76.35
0
LINE
8
BLACK
6
CONTINUOUS
10
79.652
20
-76.05
11
79.352
21
-76.35
0
LINE
8
BLACK
6
CONTINUOUS
10
79.571
20
-52.936
11
79.871
21
-53.236
0
LINE
8
BLACK
6
CONTINUOUS
10
79.871
20
-52.936
11
79.571
21
-53.236
0
LINE
8
BLACK
6
CONTINUOUS
10
79.606
20
-47.094
11
79.906
21
-47.394
0
LINE
8
BLACK
6
CONTINUOUS
10
79.906
20
-47.094
11
79.606
21
-47.394
0
LINE
8
BLACK
6
CONTINUOUS
10
79.825
20
-98.402
11
80.125
21
-98.702
0
LINE
8
BLACK
6
CONTINUOUS
10
80.125
20
-98.402
11
79.825
21
-98.702
0
LINE
8
BLACK
6
CONTINUOUS
10
79.86
20
-48.364
11
80.16
21
-48.664
0
LINE
8
BLACK
6
CONTINUOUS
10
80.16
20
-48.364
11
79.86
21
-48.664
0
LINE
8
BLACK
6
CONTINUOUS
10
79.86
20
-51.158
11
80.16
21
-51.458
0
LINE
8
BLACK
6
CONTINUOUS
10
80.16
20
-51.158
11
79.86
21
-51.458
0
LINE
8
BLACK
6
CONTINUOUS
10
80.114
20
-99.926
11
80.414
21
-100.226
0
LINE
8
BLACK
6
CONTINUOUS
10
80.414
20
-99.926
11
80.114
21
-100.226
0
LINE
8
BLACK
6
CONTINUOUS
10
82.146
20
-104.381
11
82.446
21
-104.681
0
LINE
8
BLACK
6
CONTINUOUS
10
82.446
20
-104.381
11
82.146
21
-104.681
0
LINE
8
BLACK
6
CONTINUOUS
10
83.924
20
-48.618
11
84.224
21
-48.918
0
LINE
8
BLACK
6
CONTINUOUS
10
84.224
20
-48.618
11
83.924
21
-48.918
0
LINE
8
BLACK
6
CONTINUOUS
10
84.178
20
-46.586
11
84.478
21
-46.886
0
LINE
8
BLACK
6
CONTINUOUS
10
84.478
20
-46.586
11
84.178
21
-46.886
0
LINE
8
BLACK
6
CONTINUOUS
10
84.178
20
-50.142
11
84.478
21
-50.442
0
LINE
8
BLACK
6
CONTINUOUS
10
84.478
20
-50.142
11
84.178
21
-50.442
0
LINE
8
BLACK
6
CONTINUOUS
10
84.686
20
-72.748
11
84.986
21
-73.048
0
LINE
8
BLACK
6
CONTINUOUS
10
84.986
20
-72.748
11
84.686
21
-73.048
0
LINE
8
BLACK
6
CONTINUOUS
10
84.686
20
-75.542
11
84.986
21
-75.842
0
LINE
8
BLACK
6
CONTINUOUS
10
84.986
20
-75.542
11
84.686
21
-75.842
0
LINE
8
BLACK
6
CONTINUOUS
10
85.413
20
-52.682
11
85.713
21
-52.982
0
LINE
8
BLACK
6
CONTINUOUS
10
85.713
20
-52.682
11
85.413
21
-52.982
0
LINE
8
BLACK
6
CONTINUOUS
10
85.413
20
-71.951
11
85.713
21
-72.251
0
LINE
8
BLACK
6
CONTINUOUS
10
85.713
20
-71.951
11
85.413
21
-72.251
0
LINE
8
BLACK
6
CONTINUOUS
10
85.4305
20
-101.432
11
85.7305
21
-101.733
0
LINE
8
BLACK
6
CONTINUOUS
10
85.7305
20
-101.432
11
85.4305
21
-101.733
0
LINE
8
BLACK
6
CONTINUOUS
10
85.448
20
-76.558
11
85.748
21
-76.858
0
LINE
8
BLACK
6
CONTINUOUS
10
85.748
20
-76.558
11
85.448
21
-76.858
0
LINE
8
BLACK
6
CONTINUOUS
10
85.448
20
-97.894
11
85.748
21
-98.194
0
LINE
8
BLACK
6
CONTINUOUS
10
85.748
20
-97.894
11
85.448
21
-98.194
0
LINE
8
BLACK
6
CONTINUOUS
10
85.956
20
-37.188
11
86.256
21
-37.488
0
LINE
8
BLACK
6
CONTINUOUS
10
86.256
20
-37.188
11
85.956
21
-37.488
0
LINE
8
BLACK
6
CONTINUOUS
10
85.956
20
-46.586
11
86.256
21
-46.886
0
LINE
8
BLACK
6
CONTINUOUS
10
86.256
20
-46.586
11
85.956
21
-46.886
0
LINE
8
BLACK
6
CONTINUOUS
10
86.972
20
-59.794
11
87.272
21
-60.094
0
LINE
8
BLACK
6
CONTINUOUS
10
87.272
20
-59.794
11
86.972
21
-60.094
0
LINE
8
BLACK
6
CONTINUOUS
10
86.972
20
-82.908
11
87.272
21
-83.208
0
LINE
8
BLACK
6
CONTINUOUS
10
87.272
20
-82.908
11
86.972
21
-83.208
0
LINE
8
BLACK
6
CONTINUOUS
10
87.226
20
-34.902
11
87.526
21
-35.202
0
LINE
8
BLACK
6
CONTINUOUS
10
87.526
20
-34.902
11
87.226
21
-35.202
0
LINE
8
BLACK
6
CONTINUOUS
10
88.242
20
-103.482
11
88.542
21
-103.782
0
LINE
8
BLACK
6
CONTINUOUS
10
88.542
20
-103.482
11
88.242
21
-103.782
0
LINE
8
BLACK
6
CONTINUOUS
10
90.274
20
-60.302
11
90.574
21
-60.602
0
LINE
8
BLACK
6
CONTINUOUS
10
90.574
20
-60.302
11
90.274
21
-60.602
0
LINE
8
BLACK
6
CONTINUOUS
10
91.036
20
-54.206
11
91.336
21
-54.506
0
LINE
8
BLACK
6
CONTINUOUS
10
91.336
20
-54.206
11
91.036
21
-54.506
0
LINE
8
BLACK
6
CONTINUOUS
10
91.29
20
-76.558
11
91.59
21
-76.858
0
LINE
8
BLACK
6
CONTINUOUS
10
91.59
20
-76.558
11
91.29
21
-76.858
0
LINE
8
BLACK
6
CONTINUOUS
10
92.052
20
-61.318
11
92.352
21
-61.618
0
LINE
8
BLACK
6
CONTINUOUS
10
92.352
20
-61.318
11
92.052
21
-61.618
0
LINE
8
BLACK
6
CONTINUOUS
10
92.306
20
-24.234
11
92.606
21
-24.534
0
LINE
8
BLACK
6
CONTINUOUS
10
92.606
20
-24.234
11
92.306
21
-24.534
0
LINE
8
BLACK
6
CONTINUOUS
10
92.306
20
-25.25
11
92.606
21
-25.55
0
LINE
8
BLACK
6
CONTINUOUS
10
92.606
20
-25.25
11
92.306
21
-25.55
0
LINE
8
BLACK
6
CONTINUOUS
10
92.306
20
-26.266
11
92.606
21
-26.566
0
LINE
8
BLACK
6
CONTINUOUS
10
92.606
20
-26.266
11
92.306
21
-26.566
0
LINE
8
BLACK
6
CONTINUOUS
10
92.306
20
-27.282
11
92.606
21
-27.582
0
LINE
8
BLACK
6
CONTINUOUS
10
92.606
20
-27.282
11
92.306
21
-27.582
0
LINE
8
BLACK
6
CONTINUOUS
10
92.306
20
-28.298
11
92.606
21
-28.598
0
LINE
8
BLACK
6
CONTINUOUS
10
92.606
20
-28.298
11
92.306
21
-28.598
0
LINE
8
BLACK
6
CONTINUOUS
10
92.306
20
-46.332
11
92.606
21
-46.632
0
LINE
8
BLACK
6
CONTINUOUS
10
92.606
20
-46.332
11
92.306
21
-46.632
0
LINE
8
BLACK
6
CONTINUOUS
10
92.306
20
-47.348
11
92.606
21
-47.648
0
LINE
8
BLACK
6
CONTINUOUS
10
92.606
20
-47.348
11
92.306
21
-47.648
0
LINE
8
BLACK
6
CONTINUOUS
10
92.306
20
-48.364
11
92.606
21
-48.664
0
LINE
8
BLACK
6
CONTINUOUS
10
92.606
20
-48.364
11
92.306
21
-48.664
0
LINE
8
BLACK
6
CONTINUOUS
10
92.306
20
-49.38
11
92.606
21
-49.68
0
LINE
8
BLACK
6
CONTINUOUS
10
92.606
20
-49.38
11
92.306
21
-49.68
0
LINE
8
BLACK
6
CONTINUOUS
10
92.306
20
-50.396
11
92.606
21
-50.696
0
LINE
8
BLACK
6
CONTINUOUS
10
92.606
20
-50.396
11
92.306
21
-50.696
0
LINE
8
BLACK
6
CONTINUOUS
10
92.306
20
-51.412
11
92.606
21
-51.712
0
LINE
8
BLACK
6
CONTINUOUS
10
92.606
20
-51.412
11
92.306
21
-51.712
0
LINE
8
BLACK
6
CONTINUOUS
10
92.306
20
-70.97
11
92.606
21
-71.27
0
LINE
8
BLACK
6
CONTINUOUS
10
92.606
20
-70.97
11
92.306
21
-71.27
0
LINE
8
BLACK
6
CONTINUOUS
10
92.306
20
-71.986
11
92.606
21
-72.286
0
LINE
8
BLACK
6
CONTINUOUS
10
92.606
20
-71.986
11
92.306
21
-72.286
0
LINE
8
BLACK
6
CONTINUOUS
10
92.306
20
-73.002
11
92.606
21
-73.302
0
LINE
8
BLACK
6
CONTINUOUS
10
92.606
20
-73.002
11
92.306
21
-73.302
0
LINE
8
BLACK
6
CONTINUOUS
10
92.306
20
-74.018
11
92.606
21
-74.318
0
LINE
8
BLACK
6
CONTINUOUS
10
92.606
20
-74.018
11
92.306
21
-74.318
0
LINE
8
BLACK
6
CONTINUOUS
10
92.306
20
-75.034
11
92.606
21
-75.334
0
LINE
8
BLACK
6
CONTINUOUS
10
92.606
20
-75.034
11
92.306
21
-75.334
0
LINE
8
BLACK
6
CONTINUOUS
10
92.306
20
-94.846
11
92.606
21
-95.146
0
LINE
8
BLACK
6
CONTINUOUS
10
92.606
20
-94.846
11
92.306
21
-95.146
0
LINE
8
BLACK
6
CONTINUOUS
10
92.306
20
-95.862
11
92.606
21
-96.162
0
LINE
8
BLACK
6
CONTINUOUS
10
92.606
20
-95.862
11
92.306
21
-96.162
0
LINE
8
BLACK
6
CONTINUOUS
10
92.306
20
-96.878
11
92.606
21
-97.178
0
LINE
8
BLACK
6
CONTINUOUS
10
92.606
20
-96.878
11
92.306
21
-97.178
0
LINE
8
BLACK
6
CONTINUOUS
10
92.306
20
-97.894
11
92.606
21
-98.194
0
LINE
8
BLACK
6
CONTINUOUS
10
92.606
20
-97.894
11
92.306
21
-98.194
0
LINE
8
BLACK
6
CONTINUOUS
10
92.306
20
-98.91
11
92.606
21
-99.21
0
LINE
8
BLACK
6
CONTINUOUS
10
92.606
20
-98.91
11
92.306
21
-99.21
0
LINE
8
BLACK
6
CONTINUOUS
10
104.752
20
-49.634
11
105.052
21
-49.934
0
LINE
8
BLACK
6
CONTINUOUS
10
105.052
20
-49.634
11
104.752
21
-49.934
0
LINE
8
BLACK
6
CONTINUOUS
10
104.752
20
-69.954
11
105.052
21
-70.254
0
LINE
8
BLACK
6
CONTINUOUS
10
105.052
20
-69.954
11
104.752
21
-70.254
0
LINE
8
BLACK
6
CONTINUOUS
10
105.006
20
-91.036
11
105.306
21
-91.336
0
LINE
8
BLACK
6
CONTINUOUS
10
105.306
20
-91.036
11
105.006
21
-91.336
0
LINE
8
BLACK
6
CONTINUOUS
10
105.006
20
-101.958
11
105.306
21
-102.258
0
LINE
8
BLACK
6
CONTINUOUS
10
105.306
20
-101.958
11
105.006
21
-102.258
0
LINE
8
BLACK
6
CONTINUOUS
10
105.26
20
-59.794
11
105.56
21
-60.094
0
LINE
8
BLACK
6
CONTINUOUS
10
105.56
20
-59.794
11
105.26
21
-60.094
0
LINE
8
BLACK
6
CONTINUOUS
10
105.26
20
-61.318
11
105.56
21
-61.618
0
LINE
8
BLACK
6
CONTINUOUS
10
105.56
20
-61.318
11
105.26
21
-61.618
0
LINE
8
BLACK
6
CONTINUOUS
10
105.26
20
-81.892
11
105.56
21
-82.192
0
LINE
8
BLACK
6
CONTINUOUS
10
105.56
20
-81.892
11
105.26
21
-82.192
0
LINE
8
BLACK
6
CONTINUOUS
10
105.514
20
-35.918
11
105.814
21
-36.218
0
LINE
8
BLACK
6
CONTINUOUS
10
105.814
20
-35.918
11
105.514
21
-36.218
0
LINE
8
BLACK
6
CONTINUOUS
10
115.674
20
-33.886
11
115.974
21
-34.186
0
LINE
8
BLACK
6
CONTINUOUS
10
115.974
20
-33.886
11
115.674
21
-34.186
0
LINE
8
BLACK
6
CONTINUOUS
10
115.674
20
-49.38
11
115.974
21
-49.68
0
LINE
8
BLACK
6
CONTINUOUS
10
115.974
20
-49.38
11
115.674
21
-49.68
0
LINE
8
BLACK
6
CONTINUOUS
10
115.674
20
-59.54
11
115.974
21
-59.84
0
LINE
8
BLACK
6
CONTINUOUS
10
115.974
20
-59.54
11
115.674
21
-59.84
0
LINE
8
BLACK
6
CONTINUOUS
10
115.674
20
-80.114
11
115.974
21
-80.414
0
LINE
8
BLACK
6
CONTINUOUS
10
115.974
20
-80.114
11
115.674
21
-80.414
0
LINE
8
BLACK
6
CONTINUOUS
10
115.928
20
-69.954
11
116.228
21
-70.254
0
LINE
8
BLACK
6
CONTINUOUS
10
116.228
20
-69.954
11
115.928
21
-70.254
0
LINE
8
BLACK
6
CONTINUOUS
10
115.928
20
-90.02
11
116.228
21
-90.32
0
LINE
8
BLACK
6
CONTINUOUS
10
116.228
20
-90.02
11
115.928
21
-90.32
0
LINE
8
BLACK
6
CONTINUOUS
10
116.055
20
-100.18
11
116.355
21
-100.48
0
LINE
8
BLACK
6
CONTINUOUS
10
116.355
20
-100.18
11
116.055
21
-100.48
0
LINE
8
BLACK
6
CONTINUOUS
10
120.754
20
-49.38
11
121.054
21
-49.68
0
LINE
8
BLACK
6
CONTINUOUS
10
121.054
20
-49.38
11
120.754
21
-49.68
0
LINE
8
BLACK
6
CONTINUOUS
10
120.754
20
-59.54
11
121.054
21
-59.84
0
LINE
8
BLACK
6
CONTINUOUS
10
121.054
20
-59.54
11
120.754
21
-59.84
0
LINE
8
BLACK
6
CONTINUOUS
10
120.982
20
-33.8605
11
121.282
21
-34.1605
0
LINE
8
BLACK
6
CONTINUOUS
10
121.282
20
-33.8605
11
120.982
21
-34.1605
0
LINE
8
BLACK
6
CONTINUOUS
10
121.008
20
-69.954
11
121.308
21
-70.254
0
LINE
8
BLACK
6
CONTINUOUS
10
121.308
20
-69.954
11
121.008
21
-70.254
0
LINE
8
BLACK
6
CONTINUOUS
10
121.008
20
-80.114
11
121.308
21
-80.414
0
LINE
8
BLACK
6
CONTINUOUS
10
121.308
20
-80.114
11
121.008
21
-80.414
0
LINE
8
BLACK
6
CONTINUOUS
10
121.008
20
-90.02
11
121.308
21
-90.32
0
LINE
8
BLACK
6
CONTINUOUS
10
121.308
20
-90.02
11
121.008
21
-90.32
0
LINE
8
BLACK
6
CONTINUOUS
10
121.135
20
-100.18
11
121.435
21
-100.48
0
LINE
8
BLACK
6
CONTINUOUS
10
121.435
20
-100.18
11
121.135
21
-100.48
0
LINE
8
BLACK
6
CONTINUOUS
10
125.834
20
-49.38
11
126.134
21
-49.68
0
LINE
8
BLACK
6
CONTINUOUS
10
126.134
20
-49.38
11
125.834
21
-49.68
0
LINE
8
BLACK
6
CONTINUOUS
10
125.834
20
-59.54
11
126.134
21
-59.84
0
LINE
8
BLACK
6
CONTINUOUS
10
126.134
20
-59.54
11
125.834
21
-59.84
0
LINE
8
BLACK
6
CONTINUOUS
10
126.088
20
-33.886
11
126.388
21
-34.186
0
LINE
8
BLACK
6
CONTINUOUS
10
126.388
20
-33.886
11
126.088
21
-34.186
0
LINE
8
BLACK
6
CONTINUOUS
10
126.088
20
-69.954
11
126.388
21
-70.254
0
LINE
8
BLACK
6
CONTINUOUS
10
126.388
20
-69.954
11
126.088
21
-70.254
0
LINE
8
BLACK
6
CONTINUOUS
10
126.088
20
-80.114
11
126.388
21
-80.414
0
LINE
8
BLACK
6
CONTINUOUS
10
126.388
20
-80.114
11
126.088
21
-80.414
0
LINE
8
BLACK
6
CONTINUOUS
10
126.088
20
-90.02
11
126.388
21
-90.32
0
LINE
8
BLACK
6
CONTINUOUS
10
126.388
20
-90.02
11
126.088
21
-90.32
0
LINE
8
BLACK
6
CONTINUOUS
10
126.215
20
-100.18
11
126.515
21
-100.48
0
LINE
8
BLACK
6
CONTINUOUS
10
126.515
20
-100.18
11
126.215
21
-100.48
0
LINE
8
BLACK
6
CONTINUOUS
10
130.914
20
-49.38
11
131.214
21
-49.68
0
LINE
8
BLACK
6
CONTINUOUS
10
131.214
20
-49.38
11
130.914
21
-49.68
0
LINE
8
BLACK
6
CONTINUOUS
10
130.914
20
-59.54
11
131.214
21
-59.84
0
LINE
8
BLACK
6
CONTINUOUS
10
131.214
20
-59.54
11
130.914
21
-59.84
0
LINE
8
BLACK
6
CONTINUOUS
10
131.142
20
-33.8605
11
131.442
21
-34.1605
0
LINE
8
BLACK
6
CONTINUOUS
10
131.442
20
-33.8605
11
131.142
21
-34.1605
0
LINE
8
BLACK
6
CONTINUOUS
10
131.168
20
-69.954
11
131.468
21
-70.254
0
LINE
8
BLACK
6
CONTINUOUS
10
131.468
20
-69.954
11
131.168
21
-70.254
0
LINE
8
BLACK
6
CONTINUOUS
10
131.168
20
-80.114
11
131.468
21
-80.414
0
LINE
8
BLACK
6
CONTINUOUS
10
131.468
20
-80.114
11
131.168
21
-80.414
0
LINE
8
BLACK
6
CONTINUOUS
10
131.168
20
-90.02
11
131.468
21
-90.32
0
LINE
8
BLACK
6
CONTINUOUS
10
131.468
20
-90.02
11
131.168
21
-90.32
0
LINE
8
BLACK
6
CONTINUOUS
10
131.295
20
-100.18
11
131.595
21
-100.48
0
LINE
8
BLACK
6
CONTINUOUS
10
131.595
20
-100.18
11
131.295
21
-100.48
0
LINE
8
BLACK
6
CONTINUOUS
10
135.994
20
-49.38
11
136.294
21
-49.68
0
LINE
8
BLACK
6
CONTINUOUS
10
136.294
20
-49.38
11
135.994
21
-49.68
0
LINE
8
BLACK
6
CONTINUOUS
10
135.994
20
-59.54
11
136.294
21
-59.84
0
LINE
8
BLACK
6
CONTINUOUS
10
136.294
20
-59.54
11
135.994
21
-59.84
0
LINE
8
BLACK
6
CONTINUOUS
10
135.994
20
-80.114
11
136.294
21
-80.414
0
LINE
8
BLACK
6
CONTINUOUS
10
136.294
20
-80.114
11
135.994
21
-80.414
0
LINE
8
BLACK
6
CONTINUOUS
10
136.222
20
-33.9115
11
136.523
21
-34.2115
0
LINE
8
BLACK
6
CONTINUOUS
10
136.523
20
-33.9115
11
136.222
21
-34.2115
0
LINE
8
BLACK
6
CONTINUOUS
10
136.248
20
-69.954
11
136.548
21
-70.254
0
LINE
8
BLACK
6
CONTINUOUS
10
136.548
20
-69.954
11
136.248
21
-70.254
0
LINE
8
BLACK
6
CONTINUOUS
10
136.248
20
-90.02
11
136.548
21
-90.32
0
LINE
8
BLACK
6
CONTINUOUS
10
136.548
20
-90.02
11
136.248
21
-90.32
0
LINE
8
BLACK
6
CONTINUOUS
10
136.375
20
-100.18
11
136.675
21
-100.48
0
LINE
8
BLACK
6
CONTINUOUS
10
136.675
20
-100.18
11
136.375
21
-100.48
0
LINE
8
BLACK
6
CONTINUOUS
10
165.712
20
-75.034
11
166.012
21
-75.334
0
LINE
8
BLACK
6
CONTINUOUS
10
166.012
20
-75.034
11
165.712
21
-75.334
0
LINE
8
BLACK
6
CONTINUOUS
10
166.474
20
-34.14
11
166.774
21
-34.44
0
LINE
8
BLACK
6
CONTINUOUS
10
166.774
20
-34.14
11
166.474
21
-34.44
0
LINE
8
BLACK
6
CONTINUOUS
10
166.474
20
-54.46
11
166.774
21
-54.76
0
LINE
8
BLACK
6
CONTINUOUS
10
166.774
20
-54.46
11
166.474
21
-54.76
0
LINE
8
BLACK
6
CONTINUOUS
10
166.474
20
-95.1
11
166.774
21
-95.4
0
LINE
8
BLACK
6
CONTINUOUS
10
166.774
20
-95.1
11
166.474
21
-95.4
0
LINE
8
BLACK
6
CONTINUOUS
10
171.3
20
-75.034
11
171.6
21
-75.334
0
LINE
8
BLACK
6
CONTINUOUS
10
171.6
20
-75.034
11
171.3
21
-75.334
0
LINE
8
BLACK
6
CONTINUOUS
10
171.3
20
-95.1
11
171.6
21
-95.4
0
LINE
8
BLACK
6
CONTINUOUS
10
171.6
20
-95.1
11
171.3
21
-95.4
0
LINE
8
BLACK
6
CONTINUOUS
10
171.554
20
-34.14
11
171.854
21
-34.44
0
LINE
8
BLACK
6
CONTINUOUS
10
171.854
20
-34.14
11
171.554
21
-34.44
0
LINE
8
BLACK
6
CONTINUOUS
10
171.554
20
-54.46
11
171.854
21
-54.76
0
LINE
8
BLACK
6
CONTINUOUS
10
171.854
20
-54.46
11
171.554
21
-54.76
0
LINE
8
BLACK
6
CONTINUOUS
10
176.126
20
-73.51
11
176.426
21
-73.81
0
LINE
8
BLACK
6
CONTINUOUS
10
176.426
20
-73.51
11
176.126
21
-73.81
0
LINE
8
BLACK
6
CONTINUOUS
10
176.126
20
-93.576
11
176.426
21
-93.876
0
LINE
8
BLACK
6
CONTINUOUS
10
176.426
20
-93.576
11
176.126
21
-93.876
0
LINE
8
BLACK
6
CONTINUOUS
10
177.142
20
-35.918
11
177.442
21
-36.218
0
LINE
8
BLACK
6
CONTINUOUS
10
177.442
20
-35.918
11
177.142
21
-36.218
0
LINE
8
BLACK
6
CONTINUOUS
10
177.142
20
-56.492
11
177.442
21
-56.792
0
LINE
8
BLACK
6
CONTINUOUS
10
177.442
20
-56.492
11
177.142
21
-56.792
0
LINE
8
BLACK
6
CONTINUOUS
10
183.492
20
-69.954
11
183.792
21
-70.254
0
LINE
8
BLACK
6
CONTINUOUS
10
183.792
20
-69.954
11
183.492
21
-70.254
0
LINE
8
BLACK
6
CONTINUOUS
10
184.254
20
-49.38
11
184.554
21
-49.68
0
LINE
8
BLACK
6
CONTINUOUS
10
184.554
20
-49.38
11
184.254
21
-49.68
0
LINE
8
BLACK
6
CONTINUOUS
10
184.254
20
-59.54
11
184.554
21
-59.84
0
LINE
8
BLACK
6
CONTINUOUS
10
184.554
20
-59.54
11
184.254
21
-59.84
0
LINE
8
BLACK
6
CONTINUOUS
10
184.254
20
-80.114
11
184.554
21
-80.414
0
LINE
8
BLACK
6
CONTINUOUS
10
184.554
20
-80.114
11
184.254
21
-80.414
0
LINE
8
BLACK
6
CONTINUOUS
10
188.826
20
-69.954
11
189.126
21
-70.254
0
LINE
8
BLACK
6
CONTINUOUS
10
189.126
20
-69.954
11
188.826
21
-70.254
0
LINE
8
BLACK
6
CONTINUOUS
10
189.334
20
-49.38
11
189.634
21
-49.68
0
LINE
8
BLACK
6
CONTINUOUS
10
189.634
20
-49.38
11
189.334
21
-49.68
0
LINE
8
BLACK
6
CONTINUOUS
10
189.334
20
-59.54
11
189.634
21
-59.84
0
LINE
8
BLACK
6
CONTINUOUS
10
189.634
20
-59.54
11
189.334
21
-59.84
0
LINE
8
BLACK
6
CONTINUOUS
10
189.334
20
-80.114
11
189.634
21
-80.414
0
LINE
8
BLACK
6
CONTINUOUS
10
189.634
20
-80.114
11
189.334
21
-80.414
0
LINE
8
BLACK
6
CONTINUOUS
10
240.515
20
-64.62
11
240.815
21
-64.92
0
LINE
8
BLACK
6
CONTINUOUS
10
240.815
20
-64.62
11
240.515
21
-64.92
0
LINE
8
BLACK
6
CONTINUOUS
10
245.595
20
-64.62
11
245.895
21
-64.92
0
LINE
8
BLACK
6
CONTINUOUS
10
245.895
20
-64.62
11
245.595
21
-64.92
0
LINE
8
BLACK
6
CONTINUOUS
10
250.675
20
-64.62
11
250.975
21
-64.92
0
LINE
8
BLACK
6
CONTINUOUS
10
250.975
20
-64.62
11
250.675
21
-64.92
0
LINE
8
BLACK
6
CONTINUOUS
10
255.755
20
-64.62
11
256.055
21
-64.92
0
LINE
8
BLACK
6
CONTINUOUS
10
256.055
20
-64.62
11
255.755
21
-64.92
0
LINE
8
BLACK
6
CONTINUOUS
10
260.835
20
-64.62
11
261.135
21
-64.92
0
LINE
8
BLACK
6
CONTINUOUS
10
261.135
20
-64.62
11
260.835
21
-64.92
0
CIRCLE
8
BLACK
10
44.715
20
-61.72
40
0.3
0
LINE
8
BLACK
6
CONTINUOUS
10
45.015
20
-61.42
11
44.415
21
-61.42
0
LINE
8
BLACK
6
CONTINUOUS
10
45.015
20
-62.02
11
44.415
21
-62.02
0
ARC
8
BLACK
10
44.415
20
-61.72
40
0.3
50
450
51
630
0
ARC
8
BLACK
10
45.015
20
-61.72
40
0.3
50
270
51
450
0
CIRCLE
8
BLACK
10
44.715
20
-70.36
40
0.3
0
LINE
8
BLACK
6
CONTINUOUS
10
45.015
20
-70.06
11
44.415
21
-70.06
0
LINE
8
BLACK
6
CONTINUOUS
10
45.015
20
-70.66
11
44.415
21
-70.66
0
ARC
8
BLACK
10
44.415
20
-70.36
40
0.3
50
450
51
630
0
ARC
8
BLACK
10
45.015
20
-70.36
40
0.3
50
270
51
450
0
CIRCLE
8
BLACK
10
48.895
20
-61.72
40
0.3
0
LINE
8
BLACK
6
CONTINUOUS
10
49.445
20
-61.42
11
48.345
21
-61.42
0
LINE
8
BLACK
6
CONTINUOUS
10
49.445
20
-62.02
11
48.345
21
-62.02
0
ARC
8
BLACK
10
48.345
20
-61.72
40
0.3
50
450
51
630
0
ARC
8
BLACK
10
49.445
20
-61.72
40
0.3
50
270
51
450
0
CIRCLE
8
BLACK
10
48.895
20
-70.36
40
0.3
0
LINE
8
BLACK
6
CONTINUOUS
10
49.445
20
-70.06
11
48.345
21
-70.06
0
LINE
8
BLACK
6
CONTINUOUS
10
49.445
20
-70.66
11
48.345
21
-70.66
0
ARC
8
BLACK
10
48.345
20
-70.36
40
0.3
50
450
51
630
0
ARC
8
BLACK
10
49.445
20
-70.36
40
0.3
50
270
51
450
0
LINE
8
BLACK
6
CONTINUOUS
10
45.7062
20
-127.615
11
45.7062
21
-125.615
0
LINE
8
BLACK
6
CONTINUOUS
10
45.7062
20
-125.615
11
46.1824
21
-125.615
0
LINE
8
BLACK
6
CONTINUOUS
10
46.1824
20
-125.615
11
46.4681
21
-125.71
0
LINE
8
BLACK
6
CONTINUOUS
10
46.4681
20
-125.71
11
46.6586
21
-125.9
0
LINE
8
BLACK
6
CONTINUOUS
10
46.6586
20
-125.9
11
46.7538
21
-126.091
0
LINE
8
BLACK
6
CONTINUOUS
10
46.7538
20
-126.091
11
46.849
21
-126.472
0
LINE
8
BLACK
6
CONTINUOUS
10
46.849
20
-126.472
11
46.849
21
-126.758
0
LINE
8
BLACK
6
CONTINUOUS
10
46.849
20
-126.758
11
46.7538
21
-127.139
0
LINE
8
BLACK
6
CONTINUOUS
10
46.7538
20
-127.139
11
46.6586
21
-127.329
0
LINE
8
BLACK
6
CONTINUOUS
10
46.6586
20
-127.329
11
46.4681
21
-127.52
0
LINE
8
BLACK
6
CONTINUOUS
10
46.4681
20
-127.52
11
46.1824
21
-127.615
0
LINE
8
BLACK
6
CONTINUOUS
10
46.1824
20
-127.615
11
45.7062
21
-127.615
0
LINE
8
BLACK
6
CONTINUOUS
10
47.7062
20
-127.615
11
47.7062
21
-126.281
0
LINE
8
BLACK
6
CONTINUOUS
10
47.7062
20
-126.662
11
47.8014
21
-126.472
0
LINE
8
BLACK
6
CONTINUOUS
10
47.8014
20
-126.472
11
47.8967
21
-126.377
0
LINE
8
BLACK
6
CONTINUOUS
10
47.8967
20
-126.377
11
48.0871
21
-126.281
0
LINE
8
BLACK
6
CONTINUOUS
10
48.0871
20
-126.281
11
48.2776
21
-126.281
0
LINE
8
BLACK
6
CONTINUOUS
10
48.9443
20
-127.615
11
48.9443
21
-126.281
0
LINE
8
BLACK
6
CONTINUOUS
10
48.9443
20
-125.615
11
48.849
21
-125.71
0
LINE
8
BLACK
6
CONTINUOUS
10
48.849
20
-125.71
11
48.9443
21
-125.805
0
LINE
8
BLACK
6
CONTINUOUS
10
48.9443
20
-125.805
11
49.0395
21
-125.71
0
LINE
8
BLACK
6
CONTINUOUS
10
49.0395
20
-125.71
11
48.9443
21
-125.615
0
LINE
8
BLACK
6
CONTINUOUS
10
48.9443
20
-125.615
11
48.9443
21
-125.805
0
LINE
8
BLACK
6
CONTINUOUS
10
50.1824
20
-127.615
11
49.9919
21
-127.52
0
LINE
8
BLACK
6
CONTINUOUS
10
49.9919
20
-127.52
11
49.8967
21
-127.329
0
LINE
8
BLACK
6
CONTINUOUS
10
49.8967
20
-127.329
11
49.8967
21
-125.615
0
LINE
8
BLACK
6
CONTINUOUS
10
51.23
20
-127.615
11
51.0395
21
-127.52
0
LINE
8
BLACK
6
CONTINUOUS
10
51.0395
20
-127.52
11
50.9443
21
-127.329
0
LINE
8
BLACK
6
CONTINUOUS
10
50.9443
20
-127.329
11
50.9443
21
-125.615
0
LINE
8
BLACK
6
CONTINUOUS
10
53.5157
20
-127.615
11
53.5157
21
-125.615
0
LINE
8
BLACK
6
CONTINUOUS
10
53.5157
20
-125.615
11
54.1824
21
-127.043
0
LINE
8
BLACK
6
CONTINUOUS
10
54.1824
20
-127.043
11
54.849
21
-125.615
0
LINE
8
BLACK
6
CONTINUOUS
10
54.849
20
-125.615
11
54.849
21
-127.615
0
LINE
8
BLACK
6
CONTINUOUS
10
56.6586
20
-127.615
11
56.6586
21
-126.567
0
LINE
8
BLACK
6
CONTINUOUS
10
56.6586
20
-126.567
11
56.5633
21
-126.377
0
LINE
8
BLACK
6
CONTINUOUS
10
56.5633
20
-126.377
11
56.3729
21
-126.281
0
LINE
8
BLACK
6
CONTINUOUS
10
56.3729
20
-126.281
11
55.9919
21
-126.281
0
LINE
8
BLACK
6
CONTINUOUS
10
55.9919
20
-126.281
11
55.8014
21
-126.377
0
LINE
8
BLACK
6
CONTINUOUS
10
56.6586
20
-127.52
11
56.4681
21
-127.615
0
LINE
8
BLACK
6
CONTINUOUS
10
56.4681
20
-127.615
11
55.9919
21
-127.615
0
LINE
8
BLACK
6
CONTINUOUS
10
55.9919
20
-127.615
11
55.8014
21
-127.52
0
LINE
8
BLACK
6
CONTINUOUS
10
55.8014
20
-127.52
11
55.7062
21
-127.329
0
LINE
8
BLACK
6
CONTINUOUS
10
55.7062
20
-127.329
11
55.7062
21
-127.139
0
LINE
8
BLACK
6
CONTINUOUS
10
55.7062
20
-127.139
11
55.8014
21
-126.948
0
LINE
8
BLACK
6
CONTINUOUS
10
55.8014
20
-126.948
11
55.9919
21
-126.853
0
LINE
8
BLACK
6
CONTINUOUS
10
55.9919
20
-126.853
11
56.4681
21
-126.853
0
LINE
8
BLACK
6
CONTINUOUS
10
56.4681
20
-126.853
11
56.6586
21
-126.758
0
LINE
8
BLACK
6
CONTINUOUS
10
57.611
20
-126.281
11
57.611
21
-128.281
0
LINE
8
BLACK
6
CONTINUOUS
10
57.611
20
-126.377
11
57.8014
21
-126.281
0
LINE
8
BLACK
6
CONTINUOUS
10
57.8014
20
-126.281
11
58.1824
21
-126.281
0
LINE
8
BLACK
6
CONTINUOUS
10
58.1824
20
-126.281
11
58.3729
21
-126.377
0
LINE
8
BLACK
6
CONTINUOUS
10
58.3729
20
-126.377
11
58.4681
21
-126.472
0
LINE
8
BLACK
6
CONTINUOUS
10
58.4681
20
-126.472
11
58.5633
21
-126.662
0
LINE
8
BLACK
6
CONTINUOUS
10
58.5633
20
-126.662
11
58.5633
21
-127.234
0
LINE
8
BLACK
6
CONTINUOUS
10
58.5633
20
-127.234
11
58.4681
21
-127.424
0
LINE
8
BLACK
6
CONTINUOUS
10
58.4681
20
-127.424
11
58.3729
21
-127.52
0
LINE
8
BLACK
6
CONTINUOUS
10
58.3729
20
-127.52
11
58.1824
21
-127.615
0
LINE
8
BLACK
6
CONTINUOUS
10
58.1824
20
-127.615
11
57.8014
21
-127.615
0
LINE
8
BLACK
6
CONTINUOUS
10
57.8014
20
-127.615
11
57.611
21
-127.52
0
LINE
8
BLACK
6
CONTINUOUS
10
59.4205
20
-127.424
11
59.5157
21
-127.52
0
LINE
8
BLACK
6
CONTINUOUS
10
59.5157
20
-127.52
11
59.4205
21
-127.615
0
LINE
8
BLACK
6
CONTINUOUS
10
59.4205
20
-127.615
11
59.3252
21
-127.52
0
LINE
8
BLACK
6
CONTINUOUS
10
59.3252
20
-127.52
11
59.4205
21
-127.424
0
LINE
8
BLACK
6
CONTINUOUS
10
59.4205
20
-127.424
11
59.4205
21
-127.615
0
LINE
8
BLACK
6
CONTINUOUS
10
59.4205
20
-126.377
11
59.5157
21
-126.472
0
LINE
8
BLACK
6
CONTINUOUS
10
59.5157
20
-126.472
11
59.4205
21
-126.567
0
LINE
8
BLACK
6
CONTINUOUS
10
59.4205
20
-126.567
11
59.3252
21
-126.472
0
LINE
8
BLACK
6
CONTINUOUS
10
59.3252
20
-126.472
11
59.4205
21
-126.377
0
LINE
8
BLACK
6
CONTINUOUS
10
59.4205
20
-126.377
11
59.4205
21
-126.567
0
LINE
8
BLACK
6
CONTINUOUS
10
42.83
20
-130.76
11
43.13
21
-131.06
0
LINE
8
BLACK
6
CONTINUOUS
10
43.13
20
-130.76
11
42.83
21
-131.06
0
LINE
8
BLACK
6
CONTINUOUS
10
46.0871
20
-129.815
11
46.2776
21
-129.815
0
LINE
8
BLACK
6
CONTINUOUS
10
46.2776
20
-129.815
11
46.4681
21
-129.91
0
LINE
8
BLACK
6
CONTINUOUS
10
46.4681
20
-129.91
11
46.5633
21
-130.005
0
LINE
8
BLACK
6
CONTINUOUS
10
46.5633
20
-130.005
11
46.6586
21
-130.196
0
LINE
8
BLACK
6
CONTINUOUS
10
46.6586
20
-130.196
11
46.7538
21
-130.577
0
LINE
8
BLACK
6
CONTINUOUS
10
46.7538
20
-130.577
11
46.7538
21
-131.053
0
LINE
8
BLACK
6
CONTINUOUS
10
46.7538
20
-131.053
11
46.6586
21
-131.434
0
LINE
8
BLACK
6
CONTINUOUS
10
46.6586
20
-131.434
11
46.5633
21
-131.624
0
LINE
8
BLACK
6
CONTINUOUS
10
46.5633
20
-131.624
11
46.4681
21
-131.72
0
LINE
8
BLACK
6
CONTINUOUS
10
46.4681
20
-131.72
11
46.2776
21
-131.815
0
LINE
8
BLACK
6
CONTINUOUS
10
46.2776
20
-131.815
11
46.0871
21
-131.815
0
LINE
8
BLACK
6
CONTINUOUS
10
46.0871
20
-131.815
11
45.8967
21
-131.72
0
LINE
8
BLACK
6
CONTINUOUS
10
45.8967
20
-131.72
11
45.8014
21
-131.624
0
LINE
8
BLACK
6
CONTINUOUS
10
45.8014
20
-131.624
11
45.7062
21
-131.434
0
LINE
8
BLACK
6
CONTINUOUS
10
45.7062
20
-131.434
11
45.611
21
-131.053
0
LINE
8
BLACK
6
CONTINUOUS
10
45.611
20
-131.053
11
45.611
21
-130.577
0
LINE
8
BLACK
6
CONTINUOUS
10
45.611
20
-130.577
11
45.7062
21
-130.196
0
LINE
8
BLACK
6
CONTINUOUS
10
45.7062
20
-130.196
11
45.8014
21
-130.005
0
LINE
8
BLACK
6
CONTINUOUS
10
45.8014
20
-130.005
11
45.8967
21
-129.91
0
LINE
8
BLACK
6
CONTINUOUS
10
45.8967
20
-129.91
11
46.0871
21
-129.815
0
LINE
8
BLACK
6
CONTINUOUS
10
47.611
20
-131.624
11
47.7062
21
-131.72
0
LINE
8
BLACK
6
CONTINUOUS
10
47.7062
20
-131.72
11
47.611
21
-131.815
0
LINE
8
BLACK
6
CONTINUOUS
10
47.611
20
-131.815
11
47.5157
21
-131.72
0
LINE
8
BLACK
6
CONTINUOUS
10
47.5157
20
-131.72
11
47.611
21
-131.624
0
LINE
8
BLACK
6
CONTINUOUS
10
47.611
20
-131.624
11
47.611
21
-131.815
0
LINE
8
BLACK
6
CONTINUOUS
10
48.3729
20
-129.815
11
49.611
21
-129.815
0
LINE
8
BLACK
6
CONTINUOUS
10
49.611
20
-129.815
11
48.9443
21
-130.577
0
LINE
8
BLACK
6
CONTINUOUS
10
48.9443
20
-130.577
11
49.23
21
-130.577
0
LINE
8
BLACK
6
CONTINUOUS
10
49.23
20
-130.577
11
49.4205
21
-130.672
0
LINE
8
BLACK
6
CONTINUOUS
10
49.4205
20
-130.672
11
49.5157
21
-130.767
0
LINE
8
BLACK
6
CONTINUOUS
10
49.5157
20
-130.767
11
49.611
21
-130.958
0
LINE
8
BLACK
6
CONTINUOUS
10
49.611
20
-130.958
11
49.611
21
-131.434
0
LINE
8
BLACK
6
CONTINUOUS
10
49.611
20
-131.434
11
49.5157
21
-131.624
0
LINE
8
BLACK
6
CONTINUOUS
10
49.5157
20
-131.624
11
49.4205
21
-131.72
0
LINE
8
BLACK
6
CONTINUOUS
10
49.4205
20
-131.72
11
49.23
21
-131.815
0
LINE
8
BLACK
6
CONTINUOUS
10
49.23
20
-131.815
11
48.6586
21
-131.815
0
LINE
8
BLACK
6
CONTINUOUS
10
48.6586
20
-131.815
11
48.4681
21
-131.72
0
LINE
8
BLACK
6
CONTINUOUS
10
48.4681
20
-131.72
11
48.3729
21
-131.624
0
LINE
8
BLACK
6
CONTINUOUS
10
50.849
20
-129.815
11
51.0395
21
-129.815
0
LINE
8
BLACK
6
CONTINUOUS
10
51.0395
20
-129.815
11
51.23
21
-129.91
0
LINE
8
BLACK
6
CONTINUOUS
10
51.23
20
-129.91
11
51.3252
21
-130.005
0
LINE
8
BLACK
6
CONTINUOUS
10
51.3252
20
-130.005
11
51.4205
21
-130.196
0
LINE
8
BLACK
6
CONTINUOUS
10
51.4205
20
-130.196
11
51.5157
21
-130.577
0
LINE
8
BLACK
6
CONTINUOUS
10
51.5157
20
-130.577
11
51.5157
21
-131.053
0
LINE
8
BLACK
6
CONTINUOUS
10
51.5157
20
-131.053
11
51.4205
21
-131.434
0
LINE
8
BLACK
6
CONTINUOUS
10
51.4205
20
-131.434
11
51.3252
21
-131.624
0
LINE
8
BLACK
6
CONTINUOUS
10
51.3252
20
-131.624
11
51.23
21
-131.72
0
LINE
8
BLACK
6
CONTINUOUS
10
51.23
20
-131.72
11
51.0395
21
-131.815
0
LINE
8
BLACK
6
CONTINUOUS
10
51.0395
20
-131.815
11
50.849
21
-131.815
0
LINE
8
BLACK
6
CONTINUOUS
10
50.849
20
-131.815
11
50.6586
21
-131.72
0
LINE
8
BLACK
6
CONTINUOUS
10
50.6586
20
-131.72
11
50.5633
21
-131.624
0
LINE
8
BLACK
6
CONTINUOUS
10
50.5633
20
-131.624
11
50.4681
21
-131.434
0
LINE
8
BLACK
6
CONTINUOUS
10
50.4681
20
-131.434
11
50.3729
21
-131.053
0
LINE
8
BLACK
6
CONTINUOUS
10
50.3729
20
-131.053
11
50.3729
21
-130.577
0
LINE
8
BLACK
6
CONTINUOUS
10
50.3729
20
-130.577
11
50.4681
21
-130.196
0
LINE
8
BLACK
6
CONTINUOUS
10
50.4681
20
-130.196
11
50.5633
21
-130.005
0
LINE
8
BLACK
6
CONTINUOUS
10
50.5633
20
-130.005
11
50.6586
21
-129.91
0
LINE
8
BLACK
6
CONTINUOUS
10
50.6586
20
-129.91
11
50.849
21
-129.815
0
LINE
8
BLACK
6
CONTINUOUS
10
52.7538
20
-129.815
11
52.9443
21
-129.815
0
LINE
8
BLACK
6
CONTINUOUS
10
52.9443
20
-129.815
11
53.1348
21
-129.91
0
LINE
8
BLACK
6
CONTINUOUS
10
53.1348
20
-129.91
11
53.23
21
-130.005
0
LINE
8
BLACK
6
CONTINUOUS
10
53.23
20
-130.005
11
53.3252
21
-130.196
0
LINE
8
BLACK
6
CONTINUOUS
10
53.3252
20
-130.196
11
53.4205
21
-130.577
0
LINE
8
BLACK
6
CONTINUOUS
10
53.4205
20
-130.577
11
53.4205
21
-131.053
0
LINE
8
BLACK
6
CONTINUOUS
10
53.4205
20
-131.053
11
53.3252
21
-131.434
0
LINE
8
BLACK
6
CONTINUOUS
10
53.3252
20
-131.434
11
53.23
21
-131.624
0
LINE
8
BLACK
6
CONTINUOUS
10
53.23
20
-131.624
11
53.1348
21
-131.72
0
LINE
8
BLACK
6
CONTINUOUS
10
53.1348
20
-131.72
11
52.9443
21
-131.815
0
LINE
8
BLACK
6
CONTINUOUS
10
52.9443
20
-131.815
11
52.7538
21
-131.815
0
LINE
8
BLACK
6
CONTINUOUS
10
52.7538
20
-131.815
11
52.5633
21
-131.72
0
LINE
8
BLACK
6
CONTINUOUS
10
52.5633
20
-131.72
11
52.4681
21
-131.624
0
LINE
8
BLACK
6
CONTINUOUS
10
52.4681
20
-131.624
11
52.3729
21
-131.434
0
LINE
8
BLACK
6
CONTINUOUS
10
52.3729
20
-131.434
11
52.2776
21
-131.053
0
LINE
8
BLACK
6
CONTINUOUS
10
52.2776
20
-131.053
11
52.2776
21
-130.577
0
LINE
8
BLACK
6
CONTINUOUS
10
52.2776
20
-130.577
11
52.3729
21
-130.196
0
LINE
8
BLACK
6
CONTINUOUS
10
52.3729
20
-130.196
11
52.4681
21
-130.005
0
LINE
8
BLACK
6
CONTINUOUS
10
52.4681
20
-130.005
11
52.5633
21
-129.91
0
LINE
8
BLACK
6
CONTINUOUS
10
52.5633
20
-129.91
11
52.7538
21
-129.815
0
LINE
8
BLACK
6
CONTINUOUS
10
54.2776
20
-131.815
11
54.2776
21
-130.481
0
LINE
8
BLACK
6
CONTINUOUS
10
54.2776
20
-130.672
11
54.3729
21
-130.577
0
LINE
8
BLACK
6
CONTINUOUS
10
54.3729
20
-130.577
11
54.5633
21
-130.481
0
LINE
8
BLACK
6
CONTINUOUS
10
54.5633
20
-130.481
11
54.849
21
-130.481
0
LINE
8
BLACK
6
CONTINUOUS
10
54.849
20
-130.481
11
55.0395
21
-130.577
0
LINE
8
BLACK
6
CONTINUOUS
10
55.0395
20
-130.577
11
55.1348
21
-130.767
0
LINE
8
BLACK
6
CONTINUOUS
10
55.1348
20
-130.767
11
55.1348
21
-131.815
0
LINE
8
BLACK
6
CONTINUOUS
10
55.1348
20
-130.767
11
55.23
21
-130.577
0
LINE
8
BLACK
6
CONTINUOUS
10
55.23
20
-130.577
11
55.4205
21
-130.481
0
LINE
8
BLACK
6
CONTINUOUS
10
55.4205
20
-130.481
11
55.7062
21
-130.481
0
LINE
8
BLACK
6
CONTINUOUS
10
55.7062
20
-130.481
11
55.8967
21
-130.577
0
LINE
8
BLACK
6
CONTINUOUS
10
55.8967
20
-130.577
11
55.9919
21
-130.767
0
LINE
8
BLACK
6
CONTINUOUS
10
55.9919
20
-130.767
11
55.9919
21
-131.815
0
LINE
8
BLACK
6
CONTINUOUS
10
56.9443
20
-131.815
11
56.9443
21
-130.481
0
LINE
8
BLACK
6
CONTINUOUS
10
56.9443
20
-130.672
11
57.0395
21
-130.577
0
LINE
8
BLACK
6
CONTINUOUS
10
57.0395
20
-130.577
11
57.23
21
-130.481
0
LINE
8
BLACK
6
CONTINUOUS
10
57.23
20
-130.481
11
57.5157
21
-130.481
0
LINE
8
BLACK
6
CONTINUOUS
10
57.5157
20
-130.481
11
57.7062
21
-130.577
0
LINE
8
BLACK
6
CONTINUOUS
10
57.7062
20
-130.577
11
57.8014
21
-130.767
0
LINE
8
BLACK
6
CONTINUOUS
10
57.8014
20
-130.767
11
57.8014
21
-131.815
0
LINE
8
BLACK
6
CONTINUOUS
10
57.8014
20
-130.767
11
57.8967
21
-130.577
0
LINE
8
BLACK
6
CONTINUOUS
10
57.8967
20
-130.577
11
58.0871
21
-130.481
0
LINE
8
BLACK
6
CONTINUOUS
10
58.0871
20
-130.481
11
58.3729
21
-130.481
0
LINE
8
BLACK
6
CONTINUOUS
10
58.3729
20
-130.481
11
58.5633
21
-130.577
0
LINE
8
BLACK
6
CONTINUOUS
10
58.5633
20
-130.577
11
58.6586
21
-130.767
0
LINE
8
BLACK
6
CONTINUOUS
10
58.6586
20
-130.767
11
58.6586
21
-131.815
0
LINE
8
BLACK
6
CONTINUOUS
10
62.5633
20
-129.72
11
60.849
21
-132.291
0
LINE
8
BLACK
6
CONTINUOUS
10
65.1348
20
-129.815
11
65.3252
21
-129.815
0
LINE
8
BLACK
6
CONTINUOUS
10
65.3252
20
-129.815
11
65.5157
21
-129.91
0
LINE
8
BLACK
6
CONTINUOUS
10
65.5157
20
-129.91
11
65.611
21
-130.005
0
LINE
8
BLACK
6
CONTINUOUS
10
65.611
20
-130.005
11
65.7062
21
-130.196
0
LINE
8
BLACK
6
CONTINUOUS
10
65.7062
20
-130.196
11
65.8014
21
-130.577
0
LINE
8
BLACK
6
CONTINUOUS
10
65.8014
20
-130.577
11
65.8014
21
-131.053
0
LINE
8
BLACK
6
CONTINUOUS
10
65.8014
20
-131.053
11
65.7062
21
-131.434
0
LINE
8
BLACK
6
CONTINUOUS
10
65.7062
20
-131.434
11
65.611
21
-131.624
0
LINE
8
BLACK
6
CONTINUOUS
10
65.611
20
-131.624
11
65.5157
21
-131.72
0
LINE
8
BLACK
6
CONTINUOUS
10
65.5157
20
-131.72
11
65.3252
21
-131.815
0
LINE
8
BLACK
6
CONTINUOUS
10
65.3252
20
-131.815
11
65.1348
21
-131.815
0
LINE
8
BLACK
6
CONTINUOUS
10
65.1348
20
-131.815
11
64.9443
21
-131.72
0
LINE
8
BLACK
6
CONTINUOUS
10
64.9443
20
-131.72
11
64.849
21
-131.624
0
LINE
8
BLACK
6
CONTINUOUS
10
64.849
20
-131.624
11
64.7538
21
-131.434
0
LINE
8
BLACK
6
CONTINUOUS
10
64.7538
20
-131.434
11
64.6586
21
-131.053
0
LINE
8
BLACK
6
CONTINUOUS
10
64.6586
20
-131.053
11
64.6586
21
-130.577
0
LINE
8
BLACK
6
CONTINUOUS
10
64.6586
20
-130.577
11
64.7538
21
-130.196
0
LINE
8
BLACK
6
CONTINUOUS
10
64.7538
20
-130.196
11
64.849
21
-130.005
0
LINE
8
BLACK
6
CONTINUOUS
10
64.849
20
-130.005
11
64.9443
21
-129.91
0
LINE
8
BLACK
6
CONTINUOUS
10
64.9443
20
-129.91
11
65.1348
21
-129.815
0
LINE
8
BLACK
6
CONTINUOUS
10
66.6586
20
-131.624
11
66.7538
21
-131.72
0
LINE
8
BLACK
6
CONTINUOUS
10
66.7538
20
-131.72
11
66.6586
21
-131.815
0
LINE
8
BLACK
6
CONTINUOUS
10
66.6586
20
-131.815
11
66.5633
21
-131.72
0
LINE
8
BLACK
6
CONTINUOUS
10
66.5633
20
-131.72
11
66.6586
21
-131.624
0
LINE
8
BLACK
6
CONTINUOUS
10
66.6586
20
-131.624
11
66.6586
21
-131.815
0
LINE
8
BLACK
6
CONTINUOUS
10
67.9919
20
-129.815
11
68.1824
21
-129.815
0
LINE
8
BLACK
6
CONTINUOUS
10
68.1824
20
-129.815
11
68.3729
21
-129.91
0
LINE
8
BLACK
6
CONTINUOUS
10
68.3729
20
-129.91
11
68.4681
21
-130.005
0
LINE
8
BLACK
6
CONTINUOUS
10
68.4681
20
-130.005
11
68.5633
21
-130.196
0
LINE
8
BLACK
6
CONTINUOUS
10
68.5633
20
-130.196
11
68.6586
21
-130.577
0
LINE
8
BLACK
6
CONTINUOUS
10
68.6586
20
-130.577
11
68.6586
21
-131.053
0
LINE
8
BLACK
6
CONTINUOUS
10
68.6586
20
-131.053
11
68.5633
21
-131.434
0
LINE
8
BLACK
6
CONTINUOUS
10
68.5633
20
-131.434
11
68.4681
21
-131.624
0
LINE
8
BLACK
6
CONTINUOUS
10
68.4681
20
-131.624
11
68.3729
21
-131.72
0
LINE
8
BLACK
6
CONTINUOUS
10
68.3729
20
-131.72
11
68.1824
21
-131.815
0
LINE
8
BLACK
6
CONTINUOUS
10
68.1824
20
-131.815
11
67.9919
21
-131.815
0
LINE
8
BLACK
6
CONTINUOUS
10
67.9919
20
-131.815
11
67.8014
21
-131.72
0
LINE
8
BLACK
6
CONTINUOUS
10
67.8014
20
-131.72
11
67.7062
21
-131.624
0
LINE
8
BLACK
6
CONTINUOUS
10
67.7062
20
-131.624
11
67.611
21
-131.434
0
LINE
8
BLACK
6
CONTINUOUS
10
67.611
20
-131.434
11
67.5157
21
-131.053
0
LINE
8
BLACK
6
CONTINUOUS
10
67.5157
20
-131.053
11
67.5157
21
-130.577
0
LINE
8
BLACK
6
CONTINUOUS
10
67.5157
20
-130.577
11
67.611
21
-130.196
0
LINE
8
BLACK
6
CONTINUOUS
10
67.611
20
-130.196
11
67.7062
21
-130.005
0
LINE
8
BLACK
6
CONTINUOUS
10
67.7062
20
-130.005
11
67.8014
21
-129.91
0
LINE
8
BLACK
6
CONTINUOUS
10
67.8014
20
-129.91
11
67.9919
21
-129.815
0
LINE
8
BLACK
6
CONTINUOUS
10
70.5633
20
-131.815
11
69.4205
21
-131.815
0
LINE
8
BLACK
6
CONTINUOUS
10
69.9919
20
-131.815
11
69.9919
21
-129.815
0
LINE
8
BLACK
6
CONTINUOUS
10
69.9919
20
-129.815
11
69.8014
21
-130.1
0
LINE
8
BLACK
6
CONTINUOUS
10
69.8014
20
-130.1
11
69.611
21
-130.291
0
LINE
8
BLACK
6
CONTINUOUS
10
69.611
20
-130.291
11
69.4205
21
-130.386
0
LINE
8
BLACK
6
CONTINUOUS
10
72.4681
20
-131.815
11
71.3252
21
-131.815
0
LINE
8
BLACK
6
CONTINUOUS
10
71.8967
20
-131.815
11
71.8967
21
-129.815
0
LINE
8
BLACK
6
CONTINUOUS
10
71.8967
20
-129.815
11
71.7062
21
-130.1
0
LINE
8
BLACK
6
CONTINUOUS
10
71.7062
20
-130.1
11
71.5157
21
-130.291
0
LINE
8
BLACK
6
CONTINUOUS
10
71.5157
20
-130.291
11
71.3252
21
-130.386
0
LINE
8
BLACK
6
CONTINUOUS
10
73.611
20
-130.672
11
73.4205
21
-130.577
0
LINE
8
BLACK
6
CONTINUOUS
10
73.4205
20
-130.577
11
73.3252
21
-130.481
0
LINE
8
BLACK
6
CONTINUOUS
10
73.3252
20
-130.481
11
73.23
21
-130.291
0
LINE
8
BLACK
6
CONTINUOUS
10
73.23
20
-130.291
11
73.23
21
-130.196
0
LINE
8
BLACK
6
CONTINUOUS
10
73.23
20
-130.196
11
73.3252
21
-130.005
0
LINE
8
BLACK
6
CONTINUOUS
10
73.3252
20
-130.005
11
73.4205
21
-129.91
0
LINE
8
BLACK
6
CONTINUOUS
10
73.4205
20
-129.91
11
73.611
21
-129.815
0
LINE
8
BLACK
6
CONTINUOUS
10
73.611
20
-129.815
11
73.9919
21
-129.815
0
LINE
8
BLACK
6
CONTINUOUS
10
73.9919
20
-129.815
11
74.1824
21
-129.91
0
LINE
8
BLACK
6
CONTINUOUS
10
74.1824
20
-129.91
11
74.2776
21
-130.005
0
LINE
8
BLACK
6
CONTINUOUS
10
74.2776
20
-130.005
11
74.3729
21
-130.196
0
LINE
8
BLACK
6
CONTINUOUS
10
74.3729
20
-130.196
11
74.3729
21
-130.291
0
LINE
8
BLACK
6
CONTINUOUS
10
74.3729
20
-130.291
11
74.2776
21
-130.481
0
LINE
8
BLACK
6
CONTINUOUS
10
74.2776
20
-130.481
11
74.1824
21
-130.577
0
LINE
8
BLACK
6
CONTINUOUS
10
74.1824
20
-130.577
11
73.9919
21
-130.672
0
LINE
8
BLACK
6
CONTINUOUS
10
73.9919
20
-130.672
11
73.611
21
-130.672
0
LINE
8
BLACK
6
CONTINUOUS
10
73.611
20
-130.672
11
73.4205
21
-130.767
0
LINE
8
BLACK
6
CONTINUOUS
10
73.4205
20
-130.767
11
73.3252
21
-130.862
0
LINE
8
BLACK
6
CONTINUOUS
10
73.3252
20
-130.862
11
73.23
21
-131.053
0
LINE
8
BLACK
6
CONTINUOUS
10
73.23
20
-131.053
11
73.23
21
-131.434
0
LINE
8
BLACK
6
CONTINUOUS
10
73.23
20
-131.434
11
73.3252
21
-131.624
0
LINE
8
BLACK
6
CONTINUOUS
10
73.3252
20
-131.624
11
73.4205
21
-131.72
0
LINE
8
BLACK
6
CONTINUOUS
10
73.4205
20
-131.72
11
73.611
21
-131.815
0
LINE
8
BLACK
6
CONTINUOUS
10
73.611
20
-131.815
11
73.9919
21
-131.815
0
LINE
8
BLACK
6
CONTINUOUS
10
73.9919
20
-131.815
11
74.1824
21
-131.72
0
LINE
8
BLACK
6
CONTINUOUS
10
74.1824
20
-131.72
11
74.2776
21
-131.624
0
LINE
8
BLACK
6
CONTINUOUS
10
74.2776
20
-131.624
11
74.3729
21
-131.434
0
LINE
8
BLACK
6
CONTINUOUS
10
74.3729
20
-131.434
11
74.3729
21
-131.053
0
LINE
8
BLACK
6
CONTINUOUS
10
74.3729
20
-131.053
11
74.2776
21
-130.862
0
LINE
8
BLACK
6
CONTINUOUS
10
74.2776
20
-130.862
11
74.1824
21
-130.767
0
LINE
8
BLACK
6
CONTINUOUS
10
74.1824
20
-130.767
11
73.9919
21
-130.672
0
LINE
8
BLACK
6
CONTINUOUS
10
75.1348
20
-129.815
11
75.1348
21
-130.196
0
LINE
8
BLACK
6
CONTINUOUS
10
75.8967
20
-129.815
11
75.8967
21
-130.196
0
LINE
8
BLACK
6
CONTINUOUS
10
78.849
20
-132.577
11
78.7538
21
-132.481
0
LINE
8
BLACK
6
CONTINUOUS
10
78.7538
20
-132.481
11
78.5633
21
-132.196
0
LINE
8
BLACK
6
CONTINUOUS
10
78.5633
20
-132.196
11
78.4681
21
-132.005
0
LINE
8
BLACK
6
CONTINUOUS
10
78.4681
20
-132.005
11
78.3729
21
-131.72
0
LINE
8
BLACK
6
CONTINUOUS
10
78.3729
20
-131.72
11
78.2776
21
-131.243
0
LINE
8
BLACK
6
CONTINUOUS
10
78.2776
20
-131.243
11
78.2776
21
-130.862
0
LINE
8
BLACK
6
CONTINUOUS
10
78.2776
20
-130.862
11
78.3729
21
-130.386
0
LINE
8
BLACK
6
CONTINUOUS
10
78.3729
20
-130.386
11
78.4681
21
-130.1
0
LINE
8
BLACK
6
CONTINUOUS
10
78.4681
20
-130.1
11
78.5633
21
-129.91
0
LINE
8
BLACK
6
CONTINUOUS
10
78.5633
20
-129.91
11
78.7538
21
-129.624
0
LINE
8
BLACK
6
CONTINUOUS
10
78.7538
20
-129.624
11
78.849
21
-129.529
0
LINE
8
BLACK
6
CONTINUOUS
10
79.5157
20
-130.005
11
79.611
21
-129.91
0
LINE
8
BLACK
6
CONTINUOUS
10
79.611
20
-129.91
11
79.8014
21
-129.815
0
LINE
8
BLACK
6
CONTINUOUS
10
79.8014
20
-129.815
11
80.2776
21
-129.815
0
LINE
8
BLACK
6
CONTINUOUS
10
80.2776
20
-129.815
11
80.4681
21
-129.91
0
LINE
8
BLACK
6
CONTINUOUS
10
80.4681
20
-129.91
11
80.5633
21
-130.005
0
LINE
8
BLACK
6
CONTINUOUS
10
80.5633
20
-130.005
11
80.6586
21
-130.196
0
LINE
8
BLACK
6
CONTINUOUS
10
80.6586
20
-130.196
11
80.6586
21
-130.386
0
LINE
8
BLACK
6
CONTINUOUS
10
80.6586
20
-130.386
11
80.5633
21
-130.672
0
LINE
8
BLACK
6
CONTINUOUS
10
80.5633
20
-130.672
11
79.4205
21
-131.815
0
LINE
8
BLACK
6
CONTINUOUS
10
79.4205
20
-131.815
11
80.6586
21
-131.815
0
LINE
8
BLACK
6
CONTINUOUS
10
82.3729
20
-130.481
11
82.3729
21
-131.815
0
LINE
8
BLACK
6
CONTINUOUS
10
81.8967
20
-129.72
11
81.4205
21
-131.148
0
LINE
8
BLACK
6
CONTINUOUS
10
81.4205
20
-131.148
11
82.6586
21
-131.148
0
LINE
8
BLACK
6
CONTINUOUS
10
84.3729
20
-129.815
11
83.4205
21
-129.815
0
LINE
8
BLACK
6
CONTINUOUS
10
83.4205
20
-129.815
11
83.3252
21
-130.767
0
LINE
8
BLACK
6
CONTINUOUS
10
83.3252
20
-130.767
11
83.4205
21
-130.672
0
LINE
8
BLACK
6
CONTINUOUS
10
83.4205
20
-130.672
11
83.611
21
-130.577
0
LINE
8
BLACK
6
CONTINUOUS
10
83.611
20
-130.577
11
84.0871
21
-130.577
0
LINE
8
BLACK
6
CONTINUOUS
10
84.0871
20
-130.577
11
84.2776
21
-130.672
0
LINE
8
BLACK
6
CONTINUOUS
10
84.2776
20
-130.672
11
84.3729
21
-130.767
0
LINE
8
BLACK
6
CONTINUOUS
10
84.3729
20
-130.767
11
84.4681
21
-130.958
0
LINE
8
BLACK
6
CONTINUOUS
10
84.4681
20
-130.958
11
84.4681
21
-131.434
0
LINE
8
BLACK
6
CONTINUOUS
10
84.4681
20
-131.434
11
84.3729
21
-131.624
0
LINE
8
BLACK
6
CONTINUOUS
10
84.3729
20
-131.624
11
84.2776
21
-131.72
0
LINE
8
BLACK
6
CONTINUOUS
10
84.2776
20
-131.72
11
84.0871
21
-131.815
0
LINE
8
BLACK
6
CONTINUOUS
10
84.0871
20
-131.815
11
83.611
21
-131.815
0
LINE
8
BLACK
6
CONTINUOUS
10
83.611
20
-131.815
11
83.4205
21
-131.72
0
LINE
8
BLACK
6
CONTINUOUS
10
83.4205
20
-131.72
11
83.3252
21
-131.624
0
LINE
8
BLACK
6
CONTINUOUS
10
86.849
20
-131.815
11
86.849
21
-129.815
0
LINE
8
BLACK
6
CONTINUOUS
10
87.7062
20
-131.815
11
87.7062
21
-130.767
0
LINE
8
BLACK
6
CONTINUOUS
10
87.7062
20
-130.767
11
87.611
21
-130.577
0
LINE
8
BLACK
6
CONTINUOUS
10
87.611
20
-130.577
11
87.4205
21
-130.481
0
LINE
8
BLACK
6
CONTINUOUS
10
87.4205
20
-130.481
11
87.1348
21
-130.481
0
LINE
8
BLACK
6
CONTINUOUS
10
87.1348
20
-130.481
11
86.9443
21
-130.577
0
LINE
8
BLACK
6
CONTINUOUS
10
86.9443
20
-130.577
11
86.849
21
-130.672
0
LINE
8
BLACK
6
CONTINUOUS
10
88.9443
20
-131.815
11
88.7538
21
-131.72
0
LINE
8
BLACK
6
CONTINUOUS
10
88.7538
20
-131.72
11
88.6586
21
-131.624
0
LINE
8
BLACK
6
CONTINUOUS
10
88.6586
20
-131.624
11
88.5633
21
-131.434
0
LINE
8
BLACK
6
CONTINUOUS
10
88.5633
20
-131.434
11
88.5633
21
-130.862
0
LINE
8
BLACK
6
CONTINUOUS
10
88.5633
20
-130.862
11
88.6586
21
-130.672
0
LINE
8
BLACK
6
CONTINUOUS
10
88.6586
20
-130.672
11
88.7538
21
-130.577
0
LINE
8
BLACK
6
CONTINUOUS
10
88.7538
20
-130.577
11
88.9443
21
-130.481
0
LINE
8
BLACK
6
CONTINUOUS
10
88.9443
20
-130.481
11
89.23
21
-130.481
0
LINE
8
BLACK
6
CONTINUOUS
10
89.23
20
-130.481
11
89.4205
21
-130.577
0
LINE
8
BLACK
6
CONTINUOUS
10
89.4205
20
-130.577
11
89.5157
21
-130.672
0
LINE
8
BLACK
6
CONTINUOUS
10
89.5157
20
-130.672
11
89.611
21
-130.862
0
LINE
8
BLACK
6
CONTINUOUS
10
89.611
20
-130.862
11
89.611
21
-131.434
0
LINE
8
BLACK
6
CONTINUOUS
10
89.611
20
-131.434
11
89.5157
21
-131.624
0
LINE
8
BLACK
6
CONTINUOUS
10
89.5157
20
-131.624
11
89.4205
21
-131.72
0
LINE
8
BLACK
6
CONTINUOUS
10
89.4205
20
-131.72
11
89.23
21
-131.815
0
LINE
8
BLACK
6
CONTINUOUS
10
89.23
20
-131.815
11
88.9443
21
-131.815
0
LINE
8
BLACK
6
CONTINUOUS
10
90.7538
20
-131.815
11
90.5633
21
-131.72
0
LINE
8
BLACK
6
CONTINUOUS
10
90.5633
20
-131.72
11
90.4681
21
-131.529
0
LINE
8
BLACK
6
CONTINUOUS
10
90.4681
20
-131.529
11
90.4681
21
-129.815
0
LINE
8
BLACK
6
CONTINUOUS
10
92.2776
20
-131.72
11
92.0871
21
-131.815
0
LINE
8
BLACK
6
CONTINUOUS
10
92.0871
20
-131.815
11
91.7062
21
-131.815
0
LINE
8
BLACK
6
CONTINUOUS
10
91.7062
20
-131.815
11
91.5157
21
-131.72
0
LINE
8
BLACK
6
CONTINUOUS
10
91.5157
20
-131.72
11
91.4205
21
-131.529
0
LINE
8
BLACK
6
CONTINUOUS
10
91.4205
20
-131.529
11
91.4205
21
-130.767
0
LINE
8
BLACK
6
CONTINUOUS
10
91.4205
20
-130.767
11
91.5157
21
-130.577
0
LINE
8
BLACK
6
CONTINUOUS
10
91.5157
20
-130.577
11
91.7062
21
-130.481
0
LINE
8
BLACK
6
CONTINUOUS
10
91.7062
20
-130.481
11
92.0871
21
-130.481
0
LINE
8
BLACK
6
CONTINUOUS
10
92.0871
20
-130.481
11
92.2776
21
-130.577
0
LINE
8
BLACK
6
CONTINUOUS
10
92.2776
20
-130.577
11
92.3729
21
-130.767
0
LINE
8
BLACK
6
CONTINUOUS
10
92.3729
20
-130.767
11
92.3729
21
-130.958
0
LINE
8
BLACK
6
CONTINUOUS
10
92.3729
20
-130.958
11
91.4205
21
-131.148
0
LINE
8
BLACK
6
CONTINUOUS
10
93.1348
20
-131.72
11
93.3252
21
-131.815
0
LINE
8
BLACK
6
CONTINUOUS
10
93.3252
20
-131.815
11
93.7062
21
-131.815
0
LINE
8
BLACK
6
CONTINUOUS
10
93.7062
20
-131.815
11
93.8967
21
-131.72
0
LINE
8
BLACK
6
CONTINUOUS
10
93.8967
20
-131.72
11
93.9919
21
-131.529
0
LINE
8
BLACK
6
CONTINUOUS
10
93.9919
20
-131.529
11
93.9919
21
-131.434
0
LINE
8
BLACK
6
CONTINUOUS
10
93.9919
20
-131.434
11
93.8967
21
-131.243
0
LINE
8
BLACK
6
CONTINUOUS
10
93.8967
20
-131.243
11
93.7062
21
-131.148
0
LINE
8
BLACK
6
CONTINUOUS
10
93.7062
20
-131.148
11
93.4205
21
-131.148
0
LINE
8
BLACK
6
CONTINUOUS
10
93.4205
20
-131.148
11
93.23
21
-131.053
0
LINE
8
BLACK
6
CONTINUOUS
10
93.23
20
-131.053
11
93.1348
21
-130.862
0
LINE
8
BLACK
6
CONTINUOUS
10
93.1348
20
-130.862
11
93.1348
21
-130.767
0
LINE
8
BLACK
6
CONTINUOUS
10
93.1348
20
-130.767
11
93.23
21
-130.577
0
LINE
8
BLACK
6
CONTINUOUS
10
93.23
20
-130.577
11
93.4205
21
-130.481
0
LINE
8
BLACK
6
CONTINUOUS
10
93.4205
20
-130.481
11
93.7062
21
-130.481
0
LINE
8
BLACK
6
CONTINUOUS
10
93.7062
20
-130.481
11
93.8967
21
-130.577
0
LINE
8
BLACK
6
CONTINUOUS
10
94.6586
20
-132.577
11
94.7538
21
-132.481
0
LINE
8
BLACK
6
CONTINUOUS
10
94.7538
20
-132.481
11
94.9443
21
-132.196
0
LINE
8
BLACK
6
CONTINUOUS
10
94.9443
20
-132.196
11
95.0395
21
-132.005
0
LINE
8
BLACK
6
CONTINUOUS
10
95.0395
20
-132.005
11
95.1348
21
-131.72
0
LINE
8
BLACK
6
CONTINUOUS
10
95.1348
20
-131.72
11
95.23
21
-131.243
0
LINE
8
BLACK
6
CONTINUOUS
10
95.23
20
-131.243
11
95.23
21
-130.862
0
LINE
8
BLACK
6
CONTINUOUS
10
95.23
20
-130.862
11
95.1348
21
-130.386
0
LINE
8
BLACK
6
CONTINUOUS
10
95.1348
20
-130.386
11
95.0395
21
-130.1
0
LINE
8
BLACK
6
CONTINUOUS
10
95.0395
20
-130.1
11
94.9443
21
-129.91
0
LINE
8
BLACK
6
CONTINUOUS
10
94.9443
20
-129.91
11
94.7538
21
-129.624
0
LINE
8
BLACK
6
CONTINUOUS
10
94.7538
20
-129.624
11
94.6586
21
-129.529
0
CIRCLE
8
BLACK
10
42.83
20
-133.55
40
0.3
0
LINE
8
BLACK
6
CONTINUOUS
10
46.0871
20
-132.455
11
46.2776
21
-132.455
0
LINE
8
BLACK
6
CONTINUOUS
10
46.2776
20
-132.455
11
46.4681
21
-132.55
0
LINE
8
BLACK
6
CONTINUOUS
10
46.4681
20
-132.55
11
46.5633
21
-132.645
0
LINE
8
BLACK
6
CONTINUOUS
10
46.5633
20
-132.645
11
46.6586
21
-132.836
0
LINE
8
BLACK
6
CONTINUOUS
10
46.6586
20
-132.836
11
46.7538
21
-133.217
0
LINE
8
BLACK
6
CONTINUOUS
10
46.7538
20
-133.217
11
46.7538
21
-133.693
0
LINE
8
BLACK
6
CONTINUOUS
10
46.7538
20
-133.693
11
46.6586
21
-134.074
0
LINE
8
BLACK
6
CONTINUOUS
10
46.6586
20
-134.074
11
46.5633
21
-134.264
0
LINE
8
BLACK
6
CONTINUOUS
10
46.5633
20
-134.264
11
46.4681
21
-134.36
0
LINE
8
BLACK
6
CONTINUOUS
10
46.4681
20
-134.36
11
46.2776
21
-134.455
0
LINE
8
BLACK
6
CONTINUOUS
10
46.2776
20
-134.455
11
46.0871
21
-134.455
0
LINE
8
BLACK
6
CONTINUOUS
10
46.0871
20
-134.455
11
45.8967
21
-134.36
0
LINE
8
BLACK
6
CONTINUOUS
10
45.8967
20
-134.36
11
45.8014
21
-134.264
0
LINE
8
BLACK
6
CONTINUOUS
10
45.8014
20
-134.264
11
45.7062
21
-134.074
0
LINE
8
BLACK
6
CONTINUOUS
10
45.7062
20
-134.074
11
45.611
21
-133.693
0
LINE
8
BLACK
6
CONTINUOUS
10
45.611
20
-133.693
11
45.611
21
-133.217
0
LINE
8
BLACK
6
CONTINUOUS
10
45.611
20
-133.217
11
45.7062
21
-132.836
0
LINE
8
BLACK
6
CONTINUOUS
10
45.7062
20
-132.836
11
45.8014
21
-132.645
0
LINE
8
BLACK
6
CONTINUOUS
10
45.8014
20
-132.645
11
45.8967
21
-132.55
0
LINE
8
BLACK
6
CONTINUOUS
10
45.8967
20
-132.55
11
46.0871
21
-132.455
0
LINE
8
BLACK
6
CONTINUOUS
10
47.611
20
-134.264
11
47.7062
21
-134.36
0
LINE
8
BLACK
6
CONTINUOUS
10
47.7062
20
-134.36
11
47.611
21
-134.455
0
LINE
8
BLACK
6
CONTINUOUS
10
47.611
20
-134.455
11
47.5157
21
-134.36
0
LINE
8
BLACK
6
CONTINUOUS
10
47.5157
20
-134.36
11
47.611
21
-134.264
0
LINE
8
BLACK
6
CONTINUOUS
10
47.611
20
-134.264
11
47.611
21
-134.455
0
LINE
8
BLACK
6
CONTINUOUS
10
49.4205
20
-132.455
11
49.0395
21
-132.455
0
LINE
8
BLACK
6
CONTINUOUS
10
49.0395
20
-132.455
11
48.849
21
-132.55
0
LINE
8
BLACK
6
CONTINUOUS
10
48.849
20
-132.55
11
48.7538
21
-132.645
0
LINE
8
BLACK
6
CONTINUOUS
10
48.7538
20
-132.645
11
48.5633
21
-132.931
0
LINE
8
BLACK
6
CONTINUOUS
10
48.5633
20
-132.931
11
48.4681
21
-133.312
0
LINE
8
BLACK
6
CONTINUOUS
10
48.4681
20
-133.312
11
48.4681
21
-134.074
0
LINE
8
BLACK
6
CONTINUOUS
10
48.4681
20
-134.074
11
48.5633
21
-134.264
0
LINE
8
BLACK
6
CONTINUOUS
10
48.5633
20
-134.264
11
48.6586
21
-134.36
0
LINE
8
BLACK
6
CONTINUOUS
10
48.6586
20
-134.36
11
48.849
21
-134.455
0
LINE
8
BLACK
6
CONTINUOUS
10
48.849
20
-134.455
11
49.23
21
-134.455
0
LINE
8
BLACK
6
CONTINUOUS
10
49.23
20
-134.455
11
49.4205
21
-134.36
0
LINE
8
BLACK
6
CONTINUOUS
10
49.4205
20
-134.36
11
49.5157
21
-134.264
0
LINE
8
BLACK
6
CONTINUOUS
10
49.5157
20
-134.264
11
49.611
21
-134.074
0
LINE
8
BLACK
6
CONTINUOUS
10
49.611
20
-134.074
11
49.611
21
-133.598
0
LINE
8
BLACK
6
CONTINUOUS
10
49.611
20
-133.598
11
49.5157
21
-133.407
0
LINE
8
BLACK
6
CONTINUOUS
10
49.5157
20
-133.407
11
49.4205
21
-133.312
0
LINE
8
BLACK
6
CONTINUOUS
10
49.4205
20
-133.312
11
49.23
21
-133.217
0
LINE
8
BLACK
6
CONTINUOUS
10
49.23
20
-133.217
11
48.849
21
-133.217
0
LINE
8
BLACK
6
CONTINUOUS
10
48.849
20
-133.217
11
48.6586
21
-133.312
0
LINE
8
BLACK
6
CONTINUOUS
10
48.6586
20
-133.312
11
48.5633
21
-133.407
0
LINE
8
BLACK
6
CONTINUOUS
10
48.5633
20
-133.407
11
48.4681
21
-133.598
0
LINE
8
BLACK
6
CONTINUOUS
10
50.849
20
-132.455
11
51.0395
21
-132.455
0
LINE
8
BLACK
6
CONTINUOUS
10
51.0395
20
-132.455
11
51.23
21
-132.55
0
LINE
8
BLACK
6
CONTINUOUS
10
51.23
20
-132.55
11
51.3252
21
-132.645
0
LINE
8
BLACK
6
CONTINUOUS
10
51.3252
20
-132.645
11
51.4205
21
-132.836
0
LINE
8
BLACK
6
CONTINUOUS
10
51.4205
20
-132.836
11
51.5157
21
-133.217
0
LINE
8
BLACK
6
CONTINUOUS
10
51.5157
20
-133.217
11
51.5157
21
-133.693
0
LINE
8
BLACK
6
CONTINUOUS
10
51.5157
20
-133.693
11
51.4205
21
-134.074
0
LINE
8
BLACK
6
CONTINUOUS
10
51.4205
20
-134.074
11
51.3252
21
-134.264
0
LINE
8
BLACK
6
CONTINUOUS
10
51.3252
20
-134.264
11
51.23
21
-134.36
0
LINE
8
BLACK
6
CONTINUOUS
10
51.23
20
-134.36
11
51.0395
21
-134.455
0
LINE
8
BLACK
6
CONTINUOUS
10
51.0395
20
-134.455
11
50.849
21
-134.455
0
LINE
8
BLACK
6
CONTINUOUS
10
50.849
20
-134.455
11
50.6586
21
-134.36
0
LINE
8
BLACK
6
CONTINUOUS
10
50.6586
20
-134.36
11
50.5633
21
-134.264
0
LINE
8
BLACK
6
CONTINUOUS
10
50.5633
20
-134.264
11
50.4681
21
-134.074
0
LINE
8
BLACK
6
CONTINUOUS
10
50.4681
20
-134.074
11
50.3729
21
-133.693
0
LINE
8
BLACK
6
CONTINUOUS
10
50.3729
20
-133.693
11
50.3729
21
-133.217
0
LINE
8
BLACK
6
CONTINUOUS
10
50.3729
20
-133.217
11
50.4681
21
-132.836
0
LINE
8
BLACK
6
CONTINUOUS
10
50.4681
20
-132.836
11
50.5633
21
-132.645
0
LINE
8
BLACK
6
CONTINUOUS
10
50.5633
20
-132.645
11
50.6586
21
-132.55
0
LINE
8
BLACK
6
CONTINUOUS
10
50.6586
20
-132.55
11
50.849
21
-132.455
0
LINE
8
BLACK
6
CONTINUOUS
10
52.7538
20
-132.455
11
52.9443
21
-132.455
0
LINE
8
BLACK
6
CONTINUOUS
10
52.9443
20
-132.455
11
53.1348
21
-132.55
0
LINE
8
BLACK
6
CONTINUOUS
10
53.1348
20
-132.55
11
53.23
21
-132.645
0
LINE
8
BLACK
6
CONTINUOUS
10
53.23
20
-132.645
11
53.3252
21
-132.836
0
LINE
8
BLACK
6
CONTINUOUS
10
53.3252
20
-132.836
11
53.4205
21
-133.217
0
LINE
8
BLACK
6
CONTINUOUS
10
53.4205
20
-133.217
11
53.4205
21
-133.693
0
LINE
8
BLACK
6
CONTINUOUS
10
53.4205
20
-133.693
11
53.3252
21
-134.074
0
LINE
8
BLACK
6
CONTINUOUS
10
53.3252
20
-134.074
11
53.23
21
-134.264
0
LINE
8
BLACK
6
CONTINUOUS
10
53.23
20
-134.264
11
53.1348
21
-134.36
0
LINE
8
BLACK
6
CONTINUOUS
10
53.1348
20
-134.36
11
52.9443
21
-134.455
0
LINE
8
BLACK
6
CONTINUOUS
10
52.9443
20
-134.455
11
52.7538
21
-134.455
0
LINE
8
BLACK
6
CONTINUOUS
10
52.7538
20
-134.455
11
52.5633
21
-134.36
0
LINE
8
BLACK
6
CONTINUOUS
10
52.5633
20
-134.36
11
52.4681
21
-134.264
0
LINE
8
BLACK
6
CONTINUOUS
10
52.4681
20
-134.264
11
52.3729
21
-134.074
0
LINE
8
BLACK
6
CONTINUOUS
10
52.3729
20
-134.074
11
52.2776
21
-133.693
0
LINE
8
BLACK
6
CONTINUOUS
10
52.2776
20
-133.693
11
52.2776
21
-133.217
0
LINE
8
BLACK
6
CONTINUOUS
10
52.2776
20
-133.217
11
52.3729
21
-132.836
0
LINE
8
BLACK
6
CONTINUOUS
10
52.3729
20
-132.836
11
52.4681
21
-132.645
0
LINE
8
BLACK
6
CONTINUOUS
10
52.4681
20
-132.645
11
52.5633
21
-132.55
0
LINE
8
BLACK
6
CONTINUOUS
10
52.5633
20
-132.55
11
52.7538
21
-132.455
0
LINE
8
BLACK
6
CONTINUOUS
10
54.2776
20
-134.455
11
54.2776
21
-133.121
0
LINE
8
BLACK
6
CONTINUOUS
10
54.2776
20
-133.312
11
54.3729
21
-133.217
0
LINE
8
BLACK
6
CONTINUOUS
10
54.3729
20
-133.217
11
54.5633
21
-133.121
0
LINE
8
BLACK
6
CONTINUOUS
10
54.5633
20
-133.121
11
54.849
21
-133.121
0
LINE
8
BLACK
6
CONTINUOUS
10
54.849
20
-133.121
11
55.0395
21
-133.217
0
LINE
8
BLACK
6
CONTINUOUS
10
55.0395
20
-133.217
11
55.1348
21
-133.407
0
LINE
8
BLACK
6
CONTINUOUS
10
55.1348
20
-133.407
11
55.1348
21
-134.455
0
LINE
8
BLACK
6
CONTINUOUS
10
55.1348
20
-133.407
11
55.23
21
-133.217
0
LINE
8
BLACK
6
CONTINUOUS
10
55.23
20
-133.217
11
55.4205
21
-133.121
0
LINE
8
BLACK
6
CONTINUOUS
10
55.4205
20
-133.121
11
55.7062
21
-133.121
0
LINE
8
BLACK
6
CONTINUOUS
10
55.7062
20
-133.121
11
55.8967
21
-133.217
0
LINE
8
BLACK
6
CONTINUOUS
10
55.8967
20
-133.217
11
55.9919
21
-133.407
0
LINE
8
BLACK
6
CONTINUOUS
10
55.9919
20
-133.407
11
55.9919
21
-134.455
0
LINE
8
BLACK
6
CONTINUOUS
10
56.9443
20
-134.455
11
56.9443
21
-133.121
0
LINE
8
BLACK
6
CONTINUOUS
10
56.9443
20
-133.312
11
57.0395
21
-133.217
0
LINE
8
BLACK
6
CONTINUOUS
10
57.0395
20
-133.217
11
57.23
21
-133.121
0
LINE
8
BLACK
6
CONTINUOUS
10
57.23
20
-133.121
11
57.5157
21
-133.121
0
LINE
8
BLACK
6
CONTINUOUS
10
57.5157
20
-133.121
11
57.7062
21
-133.217
0
LINE
8
BLACK
6
CONTINUOUS
10
57.7062
20
-133.217
11
57.8014
21
-133.407
0
LINE
8
BLACK
6
CONTINUOUS
10
57.8014
20
-133.407
11
57.8014
21
-134.455
0
LINE
8
BLACK
6
CONTINUOUS
10
57.8014
20
-133.407
11
57.8967
21
-133.217
0
LINE
8
BLACK
6
CONTINUOUS
10
57.8967
20
-133.217
11
58.0871
21
-133.121
0
LINE
8
BLACK
6
CONTINUOUS
10
58.0871
20
-133.121
11
58.3729
21
-133.121
0
LINE
8
BLACK
6
CONTINUOUS
10
58.3729
20
-133.121
11
58.5633
21
-133.217
0
LINE
8
BLACK
6
CONTINUOUS
10
58.5633
20
-133.217
11
58.6586
21
-133.407
0
LINE
8
BLACK
6
CONTINUOUS
10
58.6586
20
-133.407
11
58.6586
21
-134.455
0
LINE
8
BLACK
6
CONTINUOUS
10
62.5633
20
-132.36
11
60.849
21
-134.931
0
LINE
8
BLACK
6
CONTINUOUS
10
65.1348
20
-132.455
11
65.3252
21
-132.455
0
LINE
8
BLACK
6
CONTINUOUS
10
65.3252
20
-132.455
11
65.5157
21
-132.55
0
LINE
8
BLACK
6
CONTINUOUS
10
65.5157
20
-132.55
11
65.611
21
-132.645
0
LINE
8
BLACK
6
CONTINUOUS
10
65.611
20
-132.645
11
65.7062
21
-132.836
0
LINE
8
BLACK
6
CONTINUOUS
10
65.7062
20
-132.836
11
65.8014
21
-133.217
0
LINE
8
BLACK
6
CONTINUOUS
10
65.8014
20
-133.217
11
65.8014
21
-133.693
0
LINE
8
BLACK
6
CONTINUOUS
10
65.8014
20
-133.693
11
65.7062
21
-134.074
0
LINE
8
BLACK
6
CONTINUOUS
10
65.7062
20
-134.074
11
65.611
21
-134.264
0
LINE
8
BLACK
6
CONTINUOUS
10
65.611
20
-134.264
11
65.5157
21
-134.36
0
LINE
8
BLACK
6
CONTINUOUS
10
65.5157
20
-134.36
11
65.3252
21
-134.455
0
LINE
8
BLACK
6
CONTINUOUS
10
65.3252
20
-134.455
11
65.1348
21
-134.455
0
LINE
8
BLACK
6
CONTINUOUS
10
65.1348
20
-134.455
11
64.9443
21
-134.36
0
LINE
8
BLACK
6
CONTINUOUS
10
64.9443
20
-134.36
11
64.849
21
-134.264
0
LINE
8
BLACK
6
CONTINUOUS
10
64.849
20
-134.264
11
64.7538
21
-134.074
0
LINE
8
BLACK
6
CONTINUOUS
10
64.7538
20
-134.074
11
64.6586
21
-133.693
0
LINE
8
BLACK
6
CONTINUOUS
10
64.6586
20
-133.693
11
64.6586
21
-133.217
0
LINE
8
BLACK
6
CONTINUOUS
10
64.6586
20
-133.217
11
64.7538
21
-132.836
0
LINE
8
BLACK
6
CONTINUOUS
10
64.7538
20
-132.836
11
64.849
21
-132.645
0
LINE
8
BLACK
6
CONTINUOUS
10
64.849
20
-132.645
11
64.9443
21
-132.55
0
LINE
8
BLACK
6
CONTINUOUS
10
64.9443
20
-132.55
11
65.1348
21
-132.455
0
LINE
8
BLACK
6
CONTINUOUS
10
66.6586
20
-134.264
11
66.7538
21
-134.36
0
LINE
8
BLACK
6
CONTINUOUS
10
66.7538
20
-134.36
11
66.6586
21
-134.455
0
LINE
8
BLACK
6
CONTINUOUS
10
66.6586
20
-134.455
11
66.5633
21
-134.36
0
LINE
8
BLACK
6
CONTINUOUS
10
66.5633
20
-134.36
11
66.6586
21
-134.264
0
LINE
8
BLACK
6
CONTINUOUS
10
66.6586
20
-134.264
11
66.6586
21
-134.455
0
LINE
8
BLACK
6
CONTINUOUS
10
67.9919
20
-132.455
11
68.1824
21
-132.455
0
LINE
8
BLACK
6
CONTINUOUS
10
68.1824
20
-132.455
11
68.3729
21
-132.55
0
LINE
8
BLACK
6
CONTINUOUS
10
68.3729
20
-132.55
11
68.4681
21
-132.645
0
LINE
8
BLACK
6
CONTINUOUS
10
68.4681
20
-132.645
11
68.5633
21
-132.836
0
LINE
8
BLACK
6
CONTINUOUS
10
68.5633
20
-132.836
11
68.6586
21
-133.217
0
LINE
8
BLACK
6
CONTINUOUS
10
68.6586
20
-133.217
11
68.6586
21
-133.693
0
LINE
8
BLACK
6
CONTINUOUS
10
68.6586
20
-133.693
11
68.5633
21
-134.074
0
LINE
8
BLACK
6
CONTINUOUS
10
68.5633
20
-134.074
11
68.4681
21
-134.264
0
LINE
8
BLACK
6
CONTINUOUS
10
68.4681
20
-134.264
11
68.3729
21
-134.36
0
LINE
8
BLACK
6
CONTINUOUS
10
68.3729
20
-134.36
11
68.1824
21
-134.455
0
LINE
8
BLACK
6
CONTINUOUS
10
68.1824
20
-134.455
11
67.9919
21
-134.455
0
LINE
8
BLACK
6
CONTINUOUS
10
67.9919
20
-134.455
11
67.8014
21
-134.36
0
LINE
8
BLACK
6
CONTINUOUS
10
67.8014
20
-134.36
11
67.7062
21
-134.264
0
LINE
8
BLACK
6
CONTINUOUS
10
67.7062
20
-134.264
11
67.611
21
-134.074
0
LINE
8
BLACK
6
CONTINUOUS
10
67.611
20
-134.074
11
67.5157
21
-133.693
0
LINE
8
BLACK
6
CONTINUOUS
10
67.5157
20
-133.693
11
67.5157
21
-133.217
0
LINE
8
BLACK
6
CONTINUOUS
10
67.5157
20
-133.217
11
67.611
21
-132.836
0
LINE
8
BLACK
6
CONTINUOUS
10
67.611
20
-132.836
11
67.7062
21
-132.645
0
LINE
8
BLACK
6
CONTINUOUS
10
67.7062
20
-132.645
11
67.8014
21
-132.55
0
LINE
8
BLACK
6
CONTINUOUS
10
67.8014
20
-132.55
11
67.9919
21
-132.455
0
LINE
8
BLACK
6
CONTINUOUS
10
69.4205
20
-132.645
11
69.5157
21
-132.55
0
LINE
8
BLACK
6
CONTINUOUS
10
69.5157
20
-132.55
11
69.7062
21
-132.455
0
LINE
8
BLACK
6
CONTINUOUS
10
69.7062
20
-132.455
11
70.1824
21
-132.455
0
LINE
8
BLACK
6
CONTINUOUS
10
70.1824
20
-132.455
11
70.3729
21
-132.55
0
LINE
8
BLACK
6
CONTINUOUS
10
70.3729
20
-132.55
11
70.4681
21
-132.645
0
LINE
8
BLACK
6
CONTINUOUS
10
70.4681
20
-132.645
11
70.5633
21
-132.836
0
LINE
8
BLACK
6
CONTINUOUS
10
70.5633
20
-132.836
11
70.5633
21
-133.026
0
LINE
8
BLACK
6
CONTINUOUS
10
70.5633
20
-133.026
11
70.4681
21
-133.312
0
LINE
8
BLACK
6
CONTINUOUS
10
70.4681
20
-133.312
11
69.3252
21
-134.455
0
LINE
8
BLACK
6
CONTINUOUS
10
69.3252
20
-134.455
11
70.5633
21
-134.455
0
LINE
8
BLACK
6
CONTINUOUS
10
71.23
20
-132.455
11
72.4681
21
-132.455
0
LINE
8
BLACK
6
CONTINUOUS
10
72.4681
20
-132.455
11
71.8014
21
-133.217
0
LINE
8
BLACK
6
CONTINUOUS
10
71.8014
20
-133.217
11
72.0871
21
-133.217
0
LINE
8
BLACK
6
CONTINUOUS
10
72.0871
20
-133.217
11
72.2776
21
-133.312
0
LINE
8
BLACK
6
CONTINUOUS
10
72.2776
20
-133.312
11
72.3729
21
-133.407
0
LINE
8
BLACK
6
CONTINUOUS
10
72.3729
20
-133.407
11
72.4681
21
-133.598
0
LINE
8
BLACK
6
CONTINUOUS
10
72.4681
20
-133.598
11
72.4681
21
-134.074
0
LINE
8
BLACK
6
CONTINUOUS
10
72.4681
20
-134.074
11
72.3729
21
-134.264
0
LINE
8
BLACK
6
CONTINUOUS
10
72.3729
20
-134.264
11
72.2776
21
-134.36
0
LINE
8
BLACK
6
CONTINUOUS
10
72.2776
20
-134.36
11
72.0871
21
-134.455
0
LINE
8
BLACK
6
CONTINUOUS
10
72.0871
20
-134.455
11
71.5157
21
-134.455
0
LINE
8
BLACK
6
CONTINUOUS
10
71.5157
20
-134.455
11
71.3252
21
-134.36
0
LINE
8
BLACK
6
CONTINUOUS
10
71.3252
20
-134.36
11
71.23
21
-134.264
0
LINE
8
BLACK
6
CONTINUOUS
10
74.1824
20
-132.455
11
73.8014
21
-132.455
0
LINE
8
BLACK
6
CONTINUOUS
10
73.8014
20
-132.455
11
73.611
21
-132.55
0
LINE
8
BLACK
6
CONTINUOUS
10
73.611
20
-132.55
11
73.5157
21
-132.645
0
LINE
8
BLACK
6
CONTINUOUS
10
73.5157
20
-132.645
11
73.3252
21
-132.931
0
LINE
8
BLACK
6
CONTINUOUS
10
73.3252
20
-132.931
11
73.23
21
-133.312
0
LINE
8
BLACK
6
CONTINUOUS
10
73.23
20
-133.312
11
73.23
21
-134.074
0
LINE
8
BLACK
6
CONTINUOUS
10
73.23
20
-134.074
11
73.3252
21
-134.264
0
LINE
8
BLACK
6
CONTINUOUS
10
73.3252
20
-134.264
11
73.4205
21
-134.36
0
LINE
8
BLACK
6
CONTINUOUS
10
73.4205
20
-134.36
11
73.611
21
-134.455
0
LINE
8
BLACK
6
CONTINUOUS
10
73.611
20
-134.455
11
73.9919
21
-134.455
0
LINE
8
BLACK
6
CONTINUOUS
10
73.9919
20
-134.455
11
74.1824
21
-134.36
0
LINE
8
BLACK
6
CONTINUOUS
10
74.1824
20
-134.36
11
74.2776
21
-134.264
0
LINE
8
BLACK
6
CONTINUOUS
10
74.2776
20
-134.264
11
74.3729
21
-134.074
0
LINE
8
BLACK
6
CONTINUOUS
10
74.3729
20
-134.074
11
74.3729
21
-133.598
0
LINE
8
BLACK
6
CONTINUOUS
10
74.3729
20
-133.598
11
74.2776
21
-133.407
0
LINE
8
BLACK
6
CONTINUOUS
10
74.2776
20
-133.407
11
74.1824
21
-133.312
0
LINE
8
BLACK
6
CONTINUOUS
10
74.1824
20
-133.312
11
73.9919
21
-133.217
0
LINE
8
BLACK
6
CONTINUOUS
10
73.9919
20
-133.217
11
73.611
21
-133.217
0
LINE
8
BLACK
6
CONTINUOUS
10
73.611
20
-133.217
11
73.4205
21
-133.312
0
LINE
8
BLACK
6
CONTINUOUS
10
73.4205
20
-133.312
11
73.3252
21
-133.407
0
LINE
8
BLACK
6
CONTINUOUS
10
73.3252
20
-133.407
11
73.23
21
-133.598
0
LINE
8
BLACK
6
CONTINUOUS
10
75.1348
20
-132.455
11
75.1348
21
-132.836
0
LINE
8
BLACK
6
CONTINUOUS
10
75.8967
20
-132.455
11
75.8967
21
-132.836
0
LINE
8
BLACK
6
CONTINUOUS
10
78.849
20
-135.217
11
78.7538
21
-135.121
0
LINE
8
BLACK
6
CONTINUOUS
10
78.7538
20
-135.121
11
78.5633
21
-134.836
0
LINE
8
BLACK
6
CONTINUOUS
10
78.5633
20
-134.836
11
78.4681
21
-134.645
0
LINE
8
BLACK
6
CONTINUOUS
10
78.4681
20
-134.645
11
78.3729
21
-134.36
0
LINE
8
BLACK
6
CONTINUOUS
10
78.3729
20
-134.36
11
78.2776
21
-133.883
0
LINE
8
BLACK
6
CONTINUOUS
10
78.2776
20
-133.883
11
78.2776
21
-133.502
0
LINE
8
BLACK
6
CONTINUOUS
10
78.2776
20
-133.502
11
78.3729
21
-133.026
0
LINE
8
BLACK
6
CONTINUOUS
10
78.3729
20
-133.026
11
78.4681
21
-132.74
0
LINE
8
BLACK
6
CONTINUOUS
10
78.4681
20
-132.74
11
78.5633
21
-132.55
0
LINE
8
BLACK
6
CONTINUOUS
10
78.5633
20
-132.55
11
78.7538
21
-132.264
0
LINE
8
BLACK
6
CONTINUOUS
10
78.7538
20
-132.264
11
78.849
21
-132.169
0
LINE
8
BLACK
6
CONTINUOUS
10
79.9919
20
-132.455
11
80.1824
21
-132.455
0
LINE
8
BLACK
6
CONTINUOUS
10
80.1824
20
-132.455
11
80.3729
21
-132.55
0
LINE
8
BLACK
6
CONTINUOUS
10
80.3729
20
-132.55
11
80.4681
21
-132.645
0
LINE
8
BLACK
6
CONTINUOUS
10
80.4681
20
-132.645
11
80.5633
21
-132.836
0
LINE
8
BLACK
6
CONTINUOUS
10
80.5633
20
-132.836
11
80.6586
21
-133.217
0
LINE
8
BLACK
6
CONTINUOUS
10
80.6586
20
-133.217
11
80.6586
21
-133.693
0
LINE
8
BLACK
6
CONTINUOUS
10
80.6586
20
-133.693
11
80.5633
21
-134.074
0
LINE
8
BLACK
6
CONTINUOUS
10
80.5633
20
-134.074
11
80.4681
21
-134.264
0
LINE
8
BLACK
6
CONTINUOUS
10
80.4681
20
-134.264
11
80.3729
21
-134.36
0
LINE
8
BLACK
6
CONTINUOUS
10
80.3729
20
-134.36
11
80.1824
21
-134.455
0
LINE
8
BLACK
6
CONTINUOUS
10
80.1824
20
-134.455
11
79.9919
21
-134.455
0
LINE
8
BLACK
6
CONTINUOUS
10
79.9919
20
-134.455
11
79.8014
21
-134.36
0
LINE
8
BLACK
6
CONTINUOUS
10
79.8014
20
-134.36
11
79.7062
21
-134.264
0
LINE
8
BLACK
6
CONTINUOUS
10
79.7062
20
-134.264
11
79.611
21
-134.074
0
LINE
8
BLACK
6
CONTINUOUS
10
79.611
20
-134.074
11
79.5157
21
-133.693
0
LINE
8
BLACK
6
CONTINUOUS
10
79.5157
20
-133.693
11
79.5157
21
-133.217
0
LINE
8
BLACK
6
CONTINUOUS
10
79.5157
20
-133.217
11
79.611
21
-132.836
0
LINE
8
BLACK
6
CONTINUOUS
10
79.611
20
-132.836
11
79.7062
21
-132.645
0
LINE
8
BLACK
6
CONTINUOUS
10
79.7062
20
-132.645
11
79.8014
21
-132.55
0
LINE
8
BLACK
6
CONTINUOUS
10
79.8014
20
-132.55
11
79.9919
21
-132.455
0
LINE
8
BLACK
6
CONTINUOUS
10
83.0395
20
-134.455
11
83.0395
21
-132.455
0
LINE
8
BLACK
6
CONTINUOUS
10
83.8967
20
-134.455
11
83.8967
21
-133.407
0
LINE
8
BLACK
6
CONTINUOUS
10
83.8967
20
-133.407
11
83.8014
21
-133.217
0
LINE
8
BLACK
6
CONTINUOUS
10
83.8014
20
-133.217
11
83.611
21
-133.121
0
LINE
8
BLACK
6
CONTINUOUS
10
83.611
20
-133.121
11
83.3252
21
-133.121
0
LINE
8
BLACK
6
CONTINUOUS
10
83.3252
20
-133.121
11
83.1348
21
-133.217
0
LINE
8
BLACK
6
CONTINUOUS
10
83.1348
20
-133.217
11
83.0395
21
-133.312
0
LINE
8
BLACK
6
CONTINUOUS
10
85.1348
20
-134.455
11
84.9443
21
-134.36
0
LINE
8
BLACK
6
CONTINUOUS
10
84.9443
20
-134.36
11
84.849
21
-134.264
0
LINE
8
BLACK
6
CONTINUOUS
10
84.849
20
-134.264
11
84.7538
21
-134.074
0
LINE
8
BLACK
6
CONTINUOUS
10
84.7538
20
-134.074
11
84.7538
21
-133.502
0
LINE
8
BLACK
6
CONTINUOUS
10
84.7538
20
-133.502
11
84.849
21
-133.312
0
LINE
8
BLACK
6
CONTINUOUS
10
84.849
20
-133.312
11
84.9443
21
-133.217
0
LINE
8
BLACK
6
CONTINUOUS
10
84.9443
20
-133.217
11
85.1348
21
-133.121
0
LINE
8
BLACK
6
CONTINUOUS
10
85.1348
20
-133.121
11
85.4205
21
-133.121
0
LINE
8
BLACK
6
CONTINUOUS
10
85.4205
20
-133.121
11
85.611
21
-133.217
0
LINE
8
BLACK
6
CONTINUOUS
10
85.611
20
-133.217
11
85.7062
21
-133.312
0
LINE
8
BLACK
6
CONTINUOUS
10
85.7062
20
-133.312
11
85.8014
21
-133.502
0
LINE
8
BLACK
6
CONTINUOUS
10
85.8014
20
-133.502
11
85.8014
21
-134.074
0
LINE
8
BLACK
6
CONTINUOUS
10
85.8014
20
-134.074
11
85.7062
21
-134.264
0
LINE
8
BLACK
6
CONTINUOUS
10
85.7062
20
-134.264
11
85.611
21
-134.36
0
LINE
8
BLACK
6
CONTINUOUS
10
85.611
20
-134.36
11
85.4205
21
-134.455
0
LINE
8
BLACK
6
CONTINUOUS
10
85.4205
20
-134.455
11
85.1348
21
-134.455
0
LINE
8
BLACK
6
CONTINUOUS
10
86.9443
20
-134.455
11
86.7538
21
-134.36
0
LINE
8
BLACK
6
CONTINUOUS
10
86.7538
20
-134.36
11
86.6586
21
-134.169
0
LINE
8
BLACK
6
CONTINUOUS
10
86.6586
20
-134.169
11
86.6586
21
-132.455
0
LINE
8
BLACK
6
CONTINUOUS
10
88.4681
20
-134.36
11
88.2776
21
-134.455
0
LINE
8
BLACK
6
CONTINUOUS
10
88.2776
20
-134.455
11
87.8967
21
-134.455
0
LINE
8
BLACK
6
CONTINUOUS
10
87.8967
20
-134.455
11
87.7062
21
-134.36
0
LINE
8
BLACK
6
CONTINUOUS
10
87.7062
20
-134.36
11
87.611
21
-134.169
0
LINE
8
BLACK
6
CONTINUOUS
10
87.611
20
-134.169
11
87.611
21
-133.407
0
LINE
8
BLACK
6
CONTINUOUS
10
87.611
20
-133.407
11
87.7062
21
-133.217
0
LINE
8
BLACK
6
CONTINUOUS
10
87.7062
20
-133.217
11
87.8967
21
-133.121
0
LINE
8
BLACK
6
CONTINUOUS
10
87.8967
20
-133.121
11
88.2776
21
-133.121
0
LINE
8
BLACK
6
CONTINUOUS
10
88.2776
20
-133.121
11
88.4681
21
-133.217
0
LINE
8
BLACK
6
CONTINUOUS
10
88.4681
20
-133.217
11
88.5633
21
-133.407
0
LINE
8
BLACK
6
CONTINUOUS
10
88.5633
20
-133.407
11
88.5633
21
-133.598
0
LINE
8
BLACK
6
CONTINUOUS
10
88.5633
20
-133.598
11
87.611
21
-133.788
0
LINE
8
BLACK
6
CONTINUOUS
10
89.3252
20
-134.36
11
89.5157
21
-134.455
0
LINE
8
BLACK
6
CONTINUOUS
10
89.5157
20
-134.455
11
89.8967
21
-134.455
0
LINE
8
BLACK
6
CONTINUOUS
10
89.8967
20
-134.455
11
90.0871
21
-134.36
0
LINE
8
BLACK
6
CONTINUOUS
10
90.0871
20
-134.36
11
90.1824
21
-134.169
0
LINE
8
BLACK
6
CONTINUOUS
10
90.1824
20
-134.169
11
90.1824
21
-134.074
0
LINE
8
BLACK
6
CONTINUOUS
10
90.1824
20
-134.074
11
90.0871
21
-133.883
0
LINE
8
BLACK
6
CONTINUOUS
10
90.0871
20
-133.883
11
89.8967
21
-133.788
0
LINE
8
BLACK
6
CONTINUOUS
10
89.8967
20
-133.788
11
89.611
21
-133.788
0
LINE
8
BLACK
6
CONTINUOUS
10
89.611
20
-133.788
11
89.4205
21
-133.693
0
LINE
8
BLACK
6
CONTINUOUS
10
89.4205
20
-133.693
11
89.3252
21
-133.502
0
LINE
8
BLACK
6
CONTINUOUS
10
89.3252
20
-133.502
11
89.3252
21
-133.407
0
LINE
8
BLACK
6
CONTINUOUS
10
89.3252
20
-133.407
11
89.4205
21
-133.217
0
LINE
8
BLACK
6
CONTINUOUS
10
89.4205
20
-133.217
11
89.611
21
-133.121
0
LINE
8
BLACK
6
CONTINUOUS
10
89.611
20
-133.121
11
89.8967
21
-133.121
0
LINE
8
BLACK
6
CONTINUOUS
10
89.8967
20
-133.121
11
90.0871
21
-133.217
0
LINE
8
BLACK
6
CONTINUOUS
10
92.5633
20
-133.693
11
94.0871
21
-133.693
0
LINE
8
BLACK
6
CONTINUOUS
10
93.3252
20
-134.455
11
93.3252
21
-132.931
0
LINE
8
BLACK
6
CONTINUOUS
10
97.4205
20
-133.121
11
97.4205
21
-134.455
0
LINE
8
BLACK
6
CONTINUOUS
10
96.9443
20
-132.36
11
96.4681
21
-133.788
0
LINE
8
BLACK
6
CONTINUOUS
10
96.4681
20
-133.788
11
97.7062
21
-133.788
0
LINE
8
BLACK
6
CONTINUOUS
10
99.8967
20
-134.36
11
100.087
21
-134.455
0
LINE
8
BLACK
6
CONTINUOUS
10
100.087
20
-134.455
11
100.468
21
-134.455
0
LINE
8
BLACK
6
CONTINUOUS
10
100.468
20
-134.455
11
100.659
21
-134.36
0
LINE
8
BLACK
6
CONTINUOUS
10
100.659
20
-134.36
11
100.754
21
-134.169
0
LINE
8
BLACK
6
CONTINUOUS
10
100.754
20
-134.169
11
100.754
21
-134.074
0
LINE
8
BLACK
6
CONTINUOUS
10
100.754
20
-134.074
11
100.659
21
-133.883
0
LINE
8
BLACK
6
CONTINUOUS
10
100.659
20
-133.883
11
100.468
21
-133.788
0
LINE
8
BLACK
6
CONTINUOUS
10
100.468
20
-133.788
11
100.182
21
-133.788
0
LINE
8
BLACK
6
CONTINUOUS
10
100.182
20
-133.788
11
99.9919
21
-133.693
0
LINE
8
BLACK
6
CONTINUOUS
10
99.9919
20
-133.693
11
99.8967
21
-133.502
0
LINE
8
BLACK
6
CONTINUOUS
10
99.8967
20
-133.502
11
99.8967
21
-133.407
0
LINE
8
BLACK
6
CONTINUOUS
10
99.8967
20
-133.407
11
99.9919
21
-133.217
0
LINE
8
BLACK
6
CONTINUOUS
10
99.9919
20
-133.217
11
100.182
21
-133.121
0
LINE
8
BLACK
6
CONTINUOUS
10
100.182
20
-133.121
11
100.468
21
-133.121
0
LINE
8
BLACK
6
CONTINUOUS
10
100.468
20
-133.121
11
100.659
21
-133.217
0
LINE
8
BLACK
6
CONTINUOUS
10
101.897
20
-134.455
11
101.706
21
-134.36
0
LINE
8
BLACK
6
CONTINUOUS
10
101.706
20
-134.36
11
101.611
21
-134.169
0
LINE
8
BLACK
6
CONTINUOUS
10
101.611
20
-134.169
11
101.611
21
-132.455
0
LINE
8
BLACK
6
CONTINUOUS
10
102.944
20
-134.455
11
102.754
21
-134.36
0
LINE
8
BLACK
6
CONTINUOUS
10
102.754
20
-134.36
11
102.659
21
-134.264
0
LINE
8
BLACK
6
CONTINUOUS
10
102.659
20
-134.264
11
102.563
21
-134.074
0
LINE
8
BLACK
6
CONTINUOUS
10
102.563
20
-134.074
11
102.563
21
-133.502
0
LINE
8
BLACK
6
CONTINUOUS
10
102.563
20
-133.502
11
102.659
21
-133.312
0
LINE
8
BLACK
6
CONTINUOUS
10
102.659
20
-133.312
11
102.754
21
-133.217
0
LINE
8
BLACK
6
CONTINUOUS
10
102.754
20
-133.217
11
102.944
21
-133.121
0
LINE
8
BLACK
6
CONTINUOUS
10
102.944
20
-133.121
11
103.23
21
-133.121
0
LINE
8
BLACK
6
CONTINUOUS
10
103.23
20
-133.121
11
103.42
21
-133.217
0
LINE
8
BLACK
6
CONTINUOUS
10
103.42
20
-133.217
11
103.516
21
-133.312
0
LINE
8
BLACK
6
CONTINUOUS
10
103.516
20
-133.312
11
103.611
21
-133.502
0
LINE
8
BLACK
6
CONTINUOUS
10
103.611
20
-133.502
11
103.611
21
-134.074
0
LINE
8
BLACK
6
CONTINUOUS
10
103.611
20
-134.074
11
103.516
21
-134.264
0
LINE
8
BLACK
6
CONTINUOUS
10
103.516
20
-134.264
11
103.42
21
-134.36
0
LINE
8
BLACK
6
CONTINUOUS
10
103.42
20
-134.36
11
103.23
21
-134.455
0
LINE
8
BLACK
6
CONTINUOUS
10
103.23
20
-134.455
11
102.944
21
-134.455
0
LINE
8
BLACK
6
CONTINUOUS
10
104.182
20
-133.121
11
104.944
21
-133.121
0
LINE
8
BLACK
6
CONTINUOUS
10
104.468
20
-132.455
11
104.468
21
-134.169
0
LINE
8
BLACK
6
CONTINUOUS
10
104.468
20
-134.169
11
104.563
21
-134.36
0
LINE
8
BLACK
6
CONTINUOUS
10
104.563
20
-134.36
11
104.754
21
-134.455
0
LINE
8
BLACK
6
CONTINUOUS
10
104.754
20
-134.455
11
104.944
21
-134.455
0
LINE
8
BLACK
6
CONTINUOUS
10
105.516
20
-134.36
11
105.706
21
-134.455
0
LINE
8
BLACK
6
CONTINUOUS
10
105.706
20
-134.455
11
106.087
21
-134.455
0
LINE
8
BLACK
6
CONTINUOUS
10
106.087
20
-134.455
11
106.278
21
-134.36
0
LINE
8
BLACK
6
CONTINUOUS
10
106.278
20
-134.36
11
106.373
21
-134.169
0
LINE
8
BLACK
6
CONTINUOUS
10
106.373
20
-134.169
11
106.373
21
-134.074
0
LINE
8
BLACK
6
CONTINUOUS
10
106.373
20
-134.074
11
106.278
21
-133.883
0
LINE
8
BLACK
6
CONTINUOUS
10
106.278
20
-133.883
11
106.087
21
-133.788
0
LINE
8
BLACK
6
CONTINUOUS
10
106.087
20
-133.788
11
105.801
21
-133.788
0
LINE
8
BLACK
6
CONTINUOUS
10
105.801
20
-133.788
11
105.611
21
-133.693
0
LINE
8
BLACK
6
CONTINUOUS
10
105.611
20
-133.693
11
105.516
21
-133.502
0
LINE
8
BLACK
6
CONTINUOUS
10
105.516
20
-133.502
11
105.516
21
-133.407
0
LINE
8
BLACK
6
CONTINUOUS
10
105.516
20
-133.407
11
105.611
21
-133.217
0
LINE
8
BLACK
6
CONTINUOUS
10
105.611
20
-133.217
11
105.801
21
-133.121
0
LINE
8
BLACK
6
CONTINUOUS
10
105.801
20
-133.121
11
106.087
21
-133.121
0
LINE
8
BLACK
6
CONTINUOUS
10
106.087
20
-133.121
11
106.278
21
-133.217
0
LINE
8
BLACK
6
CONTINUOUS
10
107.04
20
-135.217
11
107.135
21
-135.121
0
LINE
8
BLACK
6
CONTINUOUS
10
107.135
20
-135.121
11
107.325
21
-134.836
0
LINE
8
BLACK
6
CONTINUOUS
10
107.325
20
-134.836
11
107.42
21
-134.645
0
LINE
8
BLACK
6
CONTINUOUS
10
107.42
20
-134.645
11
107.516
21
-134.36
0
LINE
8
BLACK
6
CONTINUOUS
10
107.516
20
-134.36
11
107.611
21
-133.883
0
LINE
8
BLACK
6
CONTINUOUS
10
107.611
20
-133.883
11
107.611
21
-133.502
0
LINE
8
BLACK
6
CONTINUOUS
10
107.611
20
-133.502
11
107.516
21
-133.026
0
LINE
8
BLACK
6
CONTINUOUS
10
107.516
20
-133.026
11
107.42
21
-132.74
0
LINE
8
BLACK
6
CONTINUOUS
10
107.42
20
-132.74
11
107.325
21
-132.55
0
LINE
8
BLACK
6
CONTINUOUS
10
107.325
20
-132.55
11
107.135
21
-132.264
0
LINE
8
BLACK
6
CONTINUOUS
10
107.135
20
-132.264
11
107.04
21
-132.169
  0
ENDSEC
  0
EOF
