%TF.GenerationSoftware,KiCad,Pcbnew,(6.0.9)*%
%TF.CreationDate,2022-12-26T01:44:16+02:00*%
%TF.ProjectId,maru-logic,6d617275-2d6c-46f6-9769-632e6b696361,rev?*%
%TF.SameCoordinates,Original*%
%TF.FileFunction,Paste,Top*%
%TF.FilePolarity,Positive*%
%FSLAX46Y46*%
G04 Gerber Fmt 4.6, Leading zero omitted, Abs format (unit mm)*
G04 Created by KiCad (PCBNEW (6.0.9)) date 2022-12-26 01:44:16*
%MOMM*%
%LPD*%
G01*
G04 APERTURE LIST*
G04 Aperture macros list*
%AMRoundRect*
0 Rectangle with rounded corners*
0 $1 Rounding radius*
0 $2 $3 $4 $5 $6 $7 $8 $9 X,Y pos of 4 corners*
0 Add a 4 corners polygon primitive as box body*
4,1,4,$2,$3,$4,$5,$6,$7,$8,$9,$2,$3,0*
0 Add four circle primitives for the rounded corners*
1,1,$1+$1,$2,$3*
1,1,$1+$1,$4,$5*
1,1,$1+$1,$6,$7*
1,1,$1+$1,$8,$9*
0 Add four rect primitives between the rounded corners*
20,1,$1+$1,$2,$3,$4,$5,0*
20,1,$1+$1,$4,$5,$6,$7,0*
20,1,$1+$1,$6,$7,$8,$9,0*
20,1,$1+$1,$8,$9,$2,$3,0*%
G04 Aperture macros list end*
%ADD10RoundRect,0.135000X-0.135000X-0.185000X0.135000X-0.185000X0.135000X0.185000X-0.135000X0.185000X0*%
%ADD11RoundRect,0.135000X0.185000X-0.135000X0.185000X0.135000X-0.185000X0.135000X-0.185000X-0.135000X0*%
%ADD12RoundRect,0.150000X-0.587500X-0.150000X0.587500X-0.150000X0.587500X0.150000X-0.587500X0.150000X0*%
%ADD13RoundRect,0.140000X0.170000X-0.140000X0.170000X0.140000X-0.170000X0.140000X-0.170000X-0.140000X0*%
%ADD14RoundRect,0.218750X-0.218750X-0.256250X0.218750X-0.256250X0.218750X0.256250X-0.218750X0.256250X0*%
%ADD15RoundRect,0.140000X-0.170000X0.140000X-0.170000X-0.140000X0.170000X-0.140000X0.170000X0.140000X0*%
%ADD16R,1.000000X0.750000*%
%ADD17R,1.450000X0.600000*%
%ADD18R,1.450000X0.300000*%
%ADD19RoundRect,0.135000X-0.185000X0.135000X-0.185000X-0.135000X0.185000X-0.135000X0.185000X0.135000X0*%
%ADD20RoundRect,0.140000X0.140000X0.170000X-0.140000X0.170000X-0.140000X-0.170000X0.140000X-0.170000X0*%
%ADD21RoundRect,0.150000X-0.825000X-0.150000X0.825000X-0.150000X0.825000X0.150000X-0.825000X0.150000X0*%
%ADD22RoundRect,0.140000X-0.140000X-0.170000X0.140000X-0.170000X0.140000X0.170000X-0.140000X0.170000X0*%
%ADD23RoundRect,0.218750X0.026517X-0.335876X0.335876X-0.026517X-0.026517X0.335876X-0.335876X0.026517X0*%
%ADD24RoundRect,0.218750X-0.335876X-0.026517X-0.026517X-0.335876X0.335876X0.026517X0.026517X0.335876X0*%
%ADD25RoundRect,0.218750X-0.256250X0.218750X-0.256250X-0.218750X0.256250X-0.218750X0.256250X0.218750X0*%
%ADD26RoundRect,0.218750X0.256250X-0.218750X0.256250X0.218750X-0.256250X0.218750X-0.256250X-0.218750X0*%
G04 APERTURE END LIST*
D10*
%TO.C,R10302*%
X175516000Y-14224000D03*
X176536000Y-14224000D03*
%TD*%
D11*
%TO.C,R1303*%
X59182000Y-64010000D03*
X59182000Y-62990000D03*
%TD*%
D10*
%TO.C,R2502*%
X170436000Y-19304000D03*
X171456000Y-19304000D03*
%TD*%
D12*
%TO.C,Q7501*%
X108024500Y-118430000D03*
X108024500Y-120330000D03*
X109899500Y-119380000D03*
%TD*%
%TO.C,Q8001*%
X163908500Y-113350000D03*
X163908500Y-115250000D03*
X165783500Y-114300000D03*
%TD*%
D13*
%TO.C,C1104*%
X57658000Y-53848000D03*
X57658000Y-52888000D03*
%TD*%
D10*
%TO.C,R5902*%
X145036000Y-121920000D03*
X146056000Y-121920000D03*
%TD*%
D14*
%TO.C,D2901*%
X131038500Y-35560000D03*
X132613500Y-35560000D03*
%TD*%
D11*
%TO.C,R201*%
X57658000Y-32006000D03*
X57658000Y-30986000D03*
%TD*%
D12*
%TO.C,Q4901*%
X174068500Y-118430000D03*
X174068500Y-120330000D03*
X175943500Y-119380000D03*
%TD*%
%TO.C,Q10001*%
X158828500Y-10734000D03*
X158828500Y-12634000D03*
X160703500Y-11684000D03*
%TD*%
D11*
%TO.C,R1102*%
X59182000Y-57406000D03*
X59182000Y-56386000D03*
%TD*%
D15*
%TO.C,C7101*%
X116586000Y-115090000D03*
X116586000Y-116050000D03*
%TD*%
%TO.C,C7401*%
X101346000Y-120170000D03*
X101346000Y-121130000D03*
%TD*%
%TO.C,C2001*%
X152150000Y-17554000D03*
X152150000Y-18514000D03*
%TD*%
D16*
%TO.C,SW301*%
X110950000Y-33685000D03*
X104950000Y-33685000D03*
X104950000Y-37435000D03*
X110950000Y-37435000D03*
%TD*%
D10*
%TO.C,R2902*%
X114556000Y-14224000D03*
X115576000Y-14224000D03*
%TD*%
D17*
%TO.C,J101*%
X48540000Y-62790000D03*
X48540000Y-63590000D03*
D18*
X48540000Y-64790000D03*
X48540000Y-65790000D03*
X48540000Y-66290000D03*
X48540000Y-67290000D03*
D17*
X48540000Y-68490000D03*
X48540000Y-69290000D03*
X48540000Y-69290000D03*
X48540000Y-68490000D03*
D18*
X48540000Y-67790000D03*
X48540000Y-66790000D03*
X48540000Y-65290000D03*
X48540000Y-64290000D03*
D17*
X48540000Y-63590000D03*
X48540000Y-62790000D03*
%TD*%
D10*
%TO.C,R4502*%
X160276000Y-121920000D03*
X161296000Y-121920000D03*
%TD*%
D19*
%TO.C,R5801*%
X136910000Y-118108000D03*
X136910000Y-119128000D03*
%TD*%
D20*
%TO.C,C107*%
X81118000Y-104085000D03*
X80158000Y-104085000D03*
%TD*%
D12*
%TO.C,Q9801*%
X148668500Y-10734000D03*
X148668500Y-12634000D03*
X150543500Y-11684000D03*
%TD*%
D21*
%TO.C,U104*%
X62295000Y-112979299D03*
X62295000Y-114249299D03*
X62295000Y-115519299D03*
X62295000Y-116789299D03*
X62295000Y-118059299D03*
X62295000Y-119329299D03*
X62295000Y-120599299D03*
X67245000Y-120599299D03*
X67245000Y-119329299D03*
X67245000Y-118059299D03*
X67245000Y-116789299D03*
X67245000Y-115519299D03*
X67245000Y-114249299D03*
X67245000Y-112979299D03*
%TD*%
D10*
%TO.C,R5302*%
X119636000Y-19304000D03*
X120656000Y-19304000D03*
%TD*%
D19*
%TO.C,R7701*%
X111506000Y-118108000D03*
X111506000Y-119128000D03*
%TD*%
D14*
%TO.C,D3301*%
X125958500Y-60960000D03*
X127533500Y-60960000D03*
%TD*%
D19*
%TO.C,R6401*%
X136910000Y-113028000D03*
X136910000Y-114048000D03*
%TD*%
D10*
%TO.C,R9902*%
X155196000Y-14224000D03*
X156216000Y-14224000D03*
%TD*%
D19*
%TO.C,R204*%
X59182000Y-27430000D03*
X59182000Y-28450000D03*
%TD*%
D10*
%TO.C,R5502*%
X129796000Y-121920000D03*
X130816000Y-121920000D03*
%TD*%
%TO.C,R5002*%
X165356000Y-121920000D03*
X166376000Y-121920000D03*
%TD*%
D14*
%TO.C,D6901*%
X115798500Y-91440000D03*
X117373500Y-91440000D03*
%TD*%
%TO.C,D5801*%
X131038500Y-71120000D03*
X132613500Y-71120000D03*
%TD*%
D15*
%TO.C,C3701*%
X136910000Y-12474000D03*
X136910000Y-13434000D03*
%TD*%
D19*
%TO.C,R401*%
X224794000Y-118108000D03*
X224794000Y-119128000D03*
%TD*%
D10*
%TO.C,R10102*%
X165356000Y-14224000D03*
X166376000Y-14224000D03*
%TD*%
D19*
%TO.C,R1304*%
X59182000Y-65530000D03*
X59182000Y-66550000D03*
%TD*%
D21*
%TO.C,U1501*%
X62415000Y-74875000D03*
X62415000Y-76145000D03*
X62415000Y-77415000D03*
X62415000Y-78685000D03*
X62415000Y-79955000D03*
X62415000Y-81225000D03*
X62415000Y-82495000D03*
X67365000Y-82495000D03*
X67365000Y-81225000D03*
X67365000Y-79955000D03*
X67365000Y-78685000D03*
X67365000Y-77415000D03*
X67365000Y-76145000D03*
X67365000Y-74875000D03*
%TD*%
D10*
%TO.C,R7402*%
X104392000Y-121920000D03*
X105412000Y-121920000D03*
%TD*%
D19*
%TO.C,R2701*%
X106430000Y-10412000D03*
X106430000Y-11432000D03*
%TD*%
D12*
%TO.C,Q4001*%
X113108500Y-15814000D03*
X113108500Y-17714000D03*
X114983500Y-16764000D03*
%TD*%
D11*
%TO.C,R903*%
X59182000Y-38610000D03*
X59182000Y-37590000D03*
%TD*%
D12*
%TO.C,Q5501*%
X128348500Y-118430000D03*
X128348500Y-120330000D03*
X130223500Y-119380000D03*
%TD*%
D22*
%TO.C,C1102*%
X57940000Y-55118000D03*
X58900000Y-55118000D03*
%TD*%
D19*
%TO.C,R5201*%
X147070000Y-113028000D03*
X147070000Y-114048000D03*
%TD*%
D13*
%TO.C,C903*%
X57658000Y-38580000D03*
X57658000Y-37620000D03*
%TD*%
D12*
%TO.C,Q5801*%
X138508500Y-118430000D03*
X138508500Y-120330000D03*
X140383500Y-119380000D03*
%TD*%
%TO.C,Q2501*%
X168988500Y-15814000D03*
X168988500Y-17714000D03*
X170863500Y-16764000D03*
%TD*%
D23*
%TO.C,D4801*%
X181561153Y-84884847D03*
X182674847Y-83771153D03*
%TD*%
D15*
%TO.C,C7001*%
X111506000Y-115090000D03*
X111506000Y-116050000D03*
%TD*%
D14*
%TO.C,D3401*%
X120878500Y-50800000D03*
X122453500Y-50800000D03*
%TD*%
D12*
%TO.C,Q3601*%
X123268500Y-10734000D03*
X123268500Y-12634000D03*
X125143500Y-11684000D03*
%TD*%
D11*
%TO.C,R702*%
X59182000Y-108206000D03*
X59182000Y-107186000D03*
%TD*%
D12*
%TO.C,Q5601*%
X133428500Y-118430000D03*
X133428500Y-120330000D03*
X135303500Y-119380000D03*
%TD*%
D10*
%TO.C,R2102*%
X243080000Y-121920000D03*
X244100000Y-121920000D03*
%TD*%
D19*
%TO.C,R2101*%
X240034000Y-118108000D03*
X240034000Y-119128000D03*
%TD*%
D12*
%TO.C,Q6201*%
X133428500Y-113350000D03*
X133428500Y-115250000D03*
X135303500Y-114300000D03*
%TD*%
%TO.C,Q6901*%
X97864500Y-113350000D03*
X97864500Y-115250000D03*
X99739500Y-114300000D03*
%TD*%
D15*
%TO.C,C6301*%
X121670000Y-115090000D03*
X121670000Y-116050000D03*
%TD*%
D11*
%TO.C,R102*%
X52705000Y-68455000D03*
X52705000Y-67435000D03*
%TD*%
D14*
%TO.C,D4701*%
X165582500Y-96520000D03*
X167157500Y-96520000D03*
%TD*%
D11*
%TO.C,R1301*%
X57658000Y-70106000D03*
X57658000Y-69086000D03*
%TD*%
D19*
%TO.C,R504*%
X59182000Y-90930000D03*
X59182000Y-91950000D03*
%TD*%
D12*
%TO.C,Q7001*%
X113104500Y-113350000D03*
X113104500Y-115250000D03*
X114979500Y-114300000D03*
%TD*%
D10*
%TO.C,R4002*%
X114556000Y-19304000D03*
X115576000Y-19304000D03*
%TD*%
D19*
%TO.C,R7501*%
X106426000Y-118108000D03*
X106426000Y-119128000D03*
%TD*%
D15*
%TO.C,C4601*%
X152150000Y-120170000D03*
X152150000Y-121130000D03*
%TD*%
D14*
%TO.C,D3701*%
X131038500Y-50800000D03*
X132613500Y-50800000D03*
%TD*%
D11*
%TO.C,R1503*%
X59182000Y-76710000D03*
X59182000Y-75690000D03*
%TD*%
D19*
%TO.C,R1504*%
X59182000Y-78230000D03*
X59182000Y-79250000D03*
%TD*%
%TO.C,R6801*%
X106426000Y-113028000D03*
X106426000Y-114048000D03*
%TD*%
D10*
%TO.C,R3802*%
X145036000Y-14224000D03*
X146056000Y-14224000D03*
%TD*%
D15*
%TO.C,C101*%
X69635299Y-112749000D03*
X69635299Y-113709000D03*
%TD*%
D10*
%TO.C,R3902*%
X99316000Y-19304000D03*
X100336000Y-19304000D03*
%TD*%
D15*
%TO.C,C5701*%
X121670000Y-120170000D03*
X121670000Y-121130000D03*
%TD*%
D12*
%TO.C,Q10301*%
X174068500Y-10734000D03*
X174068500Y-12634000D03*
X175943500Y-11684000D03*
%TD*%
%TO.C,Q7401*%
X102944500Y-118430000D03*
X102944500Y-120330000D03*
X104819500Y-119380000D03*
%TD*%
D14*
%TO.C,D6401*%
X131038500Y-81280000D03*
X132613500Y-81280000D03*
%TD*%
%TO.C,D3001*%
X136118500Y-35560000D03*
X137693500Y-35560000D03*
%TD*%
D13*
%TO.C,C904*%
X57658000Y-41148000D03*
X57658000Y-40188000D03*
%TD*%
D10*
%TO.C,R2302*%
X150116000Y-19304000D03*
X151136000Y-19304000D03*
%TD*%
D11*
%TO.C,R503*%
X59182000Y-89410000D03*
X59182000Y-88390000D03*
%TD*%
D14*
%TO.C,D1701*%
X250926500Y-66040000D03*
X252501500Y-66040000D03*
%TD*%
D11*
%TO.C,R501*%
X57658000Y-95506000D03*
X57658000Y-94486000D03*
%TD*%
D12*
%TO.C,Q6101*%
X128348500Y-113350000D03*
X128348500Y-115250000D03*
X130223500Y-114300000D03*
%TD*%
D14*
%TO.C,D2801*%
X115798500Y-35560000D03*
X117373500Y-35560000D03*
%TD*%
D10*
%TO.C,R6202*%
X134876000Y-116840000D03*
X135896000Y-116840000D03*
%TD*%
D20*
%TO.C,C109*%
X81245000Y-80209000D03*
X80285000Y-80209000D03*
%TD*%
D15*
%TO.C,C5901*%
X141990000Y-120170000D03*
X141990000Y-121130000D03*
%TD*%
D14*
%TO.C,D7401*%
X120874500Y-101600000D03*
X122449500Y-101600000D03*
%TD*%
D13*
%TO.C,C1304*%
X57658000Y-66548000D03*
X57658000Y-65588000D03*
%TD*%
D12*
%TO.C,Q5001*%
X163908500Y-118430000D03*
X163908500Y-120330000D03*
X165783500Y-119380000D03*
%TD*%
D24*
%TO.C,D10201*%
X181561153Y-47195153D03*
X182674847Y-48308847D03*
%TD*%
D10*
%TO.C,R6102*%
X129796000Y-116840000D03*
X130816000Y-116840000D03*
%TD*%
D13*
%TO.C,C1303*%
X57658000Y-63980000D03*
X57658000Y-63020000D03*
%TD*%
D15*
%TO.C,C2501*%
X167390000Y-17554000D03*
X167390000Y-18514000D03*
%TD*%
D19*
%TO.C,R3501*%
X131830000Y-10412000D03*
X131830000Y-11432000D03*
%TD*%
D13*
%TO.C,C704*%
X57658000Y-104648000D03*
X57658000Y-103688000D03*
%TD*%
D14*
%TO.C,D5501*%
X120878500Y-71120000D03*
X122453500Y-71120000D03*
%TD*%
D19*
%TO.C,R3201*%
X101350000Y-15492000D03*
X101350000Y-16512000D03*
%TD*%
D11*
%TO.C,R1501*%
X57658000Y-82806000D03*
X57658000Y-81786000D03*
%TD*%
D12*
%TO.C,Q4301*%
X153748500Y-113350000D03*
X153748500Y-115250000D03*
X155623500Y-114300000D03*
%TD*%
D14*
%TO.C,D8001*%
X182854500Y-71120000D03*
X184429500Y-71120000D03*
%TD*%
D19*
%TO.C,R10201*%
X167390000Y-10412000D03*
X167390000Y-11432000D03*
%TD*%
D11*
%TO.C,R902*%
X59182000Y-44706000D03*
X59182000Y-43686000D03*
%TD*%
D21*
%TO.C,U501*%
X62415000Y-87575000D03*
X62415000Y-88845000D03*
X62415000Y-90115000D03*
X62415000Y-91385000D03*
X62415000Y-92655000D03*
X62415000Y-93925000D03*
X62415000Y-95195000D03*
X67365000Y-95195000D03*
X67365000Y-93925000D03*
X67365000Y-92655000D03*
X67365000Y-91385000D03*
X67365000Y-90115000D03*
X67365000Y-88845000D03*
X67365000Y-87575000D03*
%TD*%
D10*
%TO.C,R4902*%
X175516000Y-121920000D03*
X176536000Y-121920000D03*
%TD*%
%TO.C,R402*%
X227840000Y-121920000D03*
X228860000Y-121920000D03*
%TD*%
D14*
%TO.C,D1901*%
X256006500Y-66040000D03*
X257581500Y-66040000D03*
%TD*%
D15*
%TO.C,C7601*%
X96266000Y-120170000D03*
X96266000Y-121130000D03*
%TD*%
D19*
%TO.C,R3001*%
X116590000Y-10412000D03*
X116590000Y-11432000D03*
%TD*%
D10*
%TO.C,R4802*%
X170436000Y-121920000D03*
X171456000Y-121920000D03*
%TD*%
D19*
%TO.C,R5001*%
X162310000Y-118108000D03*
X162310000Y-119128000D03*
%TD*%
%TO.C,R6101*%
X126750000Y-113028000D03*
X126750000Y-114048000D03*
%TD*%
D20*
%TO.C,C105*%
X81245000Y-55825000D03*
X80285000Y-55825000D03*
%TD*%
D15*
%TO.C,C5201*%
X147070000Y-115090000D03*
X147070000Y-116050000D03*
%TD*%
D12*
%TO.C,Q3701*%
X138508500Y-10734000D03*
X138508500Y-12634000D03*
X140383500Y-11684000D03*
%TD*%
%TO.C,Q4601*%
X153748500Y-118430000D03*
X153748500Y-120330000D03*
X155623500Y-119380000D03*
%TD*%
D10*
%TO.C,R4302*%
X155196000Y-116840000D03*
X156216000Y-116840000D03*
%TD*%
D19*
%TO.C,R7601*%
X96266000Y-118108000D03*
X96266000Y-119128000D03*
%TD*%
D10*
%TO.C,R2802*%
X99316000Y-14224000D03*
X100336000Y-14224000D03*
%TD*%
D12*
%TO.C,Q3201*%
X102948500Y-15814000D03*
X102948500Y-17714000D03*
X104823500Y-16764000D03*
%TD*%
D15*
%TO.C,C3401*%
X126750000Y-12474000D03*
X126750000Y-13434000D03*
%TD*%
D14*
%TO.C,D3801*%
X136118500Y-50800000D03*
X137693500Y-50800000D03*
%TD*%
D15*
%TO.C,C6101*%
X126750000Y-115090000D03*
X126750000Y-116050000D03*
%TD*%
D19*
%TO.C,R704*%
X59182000Y-103630000D03*
X59182000Y-104650000D03*
%TD*%
D15*
%TO.C,C3501*%
X131830000Y-12474000D03*
X131830000Y-13434000D03*
%TD*%
D19*
%TO.C,R3601*%
X121670000Y-10412000D03*
X121670000Y-11432000D03*
%TD*%
%TO.C,R101*%
X52705000Y-63625000D03*
X52705000Y-64645000D03*
%TD*%
D15*
%TO.C,C10301*%
X172470000Y-12474000D03*
X172470000Y-13434000D03*
%TD*%
D16*
%TO.C,SW801*%
X104950000Y-99725000D03*
X110950000Y-99725000D03*
X110950000Y-103475000D03*
X104950000Y-103475000D03*
%TD*%
D15*
%TO.C,C6401*%
X136910000Y-115090000D03*
X136910000Y-116050000D03*
%TD*%
D12*
%TO.C,Q1701*%
X231472500Y-118430000D03*
X231472500Y-120330000D03*
X233347500Y-119380000D03*
%TD*%
D13*
%TO.C,C203*%
X57658000Y-25880000D03*
X57658000Y-24920000D03*
%TD*%
D15*
%TO.C,C5101*%
X157230000Y-115090000D03*
X157230000Y-116050000D03*
%TD*%
D19*
%TO.C,R6701*%
X101346000Y-113028000D03*
X101346000Y-114048000D03*
%TD*%
D12*
%TO.C,Q4801*%
X168988500Y-118430000D03*
X168988500Y-120330000D03*
X170863500Y-119380000D03*
%TD*%
D15*
%TO.C,C5601*%
X131830000Y-120170000D03*
X131830000Y-121130000D03*
%TD*%
D19*
%TO.C,R4001*%
X111510000Y-15492000D03*
X111510000Y-16512000D03*
%TD*%
D12*
%TO.C,Q6801*%
X108024500Y-113350000D03*
X108024500Y-115250000D03*
X109899500Y-114300000D03*
%TD*%
D10*
%TO.C,R10002*%
X160276000Y-14224000D03*
X161296000Y-14224000D03*
%TD*%
D19*
%TO.C,R1801*%
X219714000Y-118108000D03*
X219714000Y-119128000D03*
%TD*%
D14*
%TO.C,D2601*%
X120878500Y-35560000D03*
X122453500Y-35560000D03*
%TD*%
D10*
%TO.C,R6402*%
X139956000Y-116840000D03*
X140976000Y-116840000D03*
%TD*%
D19*
%TO.C,R3301*%
X106430000Y-15492000D03*
X106430000Y-16512000D03*
%TD*%
D12*
%TO.C,Q2901*%
X113108500Y-10734000D03*
X113108500Y-12634000D03*
X114983500Y-11684000D03*
%TD*%
D13*
%TO.C,C1103*%
X57658000Y-51280000D03*
X57658000Y-50320000D03*
%TD*%
D12*
%TO.C,Q5201*%
X148668500Y-113350000D03*
X148668500Y-115250000D03*
X150543500Y-114300000D03*
%TD*%
D10*
%TO.C,R6502*%
X145036000Y-116840000D03*
X146056000Y-116840000D03*
%TD*%
D14*
%TO.C,D10301*%
X188950500Y-50800000D03*
X190525500Y-50800000D03*
%TD*%
%TO.C,D401*%
X245846500Y-66040000D03*
X247421500Y-66040000D03*
%TD*%
D15*
%TO.C,C1301*%
X69596000Y-62004000D03*
X69596000Y-62964000D03*
%TD*%
D19*
%TO.C,R7101*%
X116586000Y-113028000D03*
X116586000Y-114048000D03*
%TD*%
D15*
%TO.C,C6801*%
X106426000Y-115090000D03*
X106426000Y-116050000D03*
%TD*%
%TO.C,C8001*%
X162310000Y-115090000D03*
X162310000Y-116050000D03*
%TD*%
D19*
%TO.C,R5501*%
X126750000Y-118108000D03*
X126750000Y-119128000D03*
%TD*%
D15*
%TO.C,C4301*%
X152150000Y-115090000D03*
X152150000Y-116050000D03*
%TD*%
%TO.C,C9901*%
X152150000Y-12474000D03*
X152150000Y-13434000D03*
%TD*%
D11*
%TO.C,R202*%
X59182000Y-32006000D03*
X59182000Y-30986000D03*
%TD*%
D20*
%TO.C,C106*%
X81372000Y-45157000D03*
X80412000Y-45157000D03*
%TD*%
D19*
%TO.C,R4501*%
X157230000Y-118108000D03*
X157230000Y-119128000D03*
%TD*%
D16*
%TO.C,SW1401*%
X110950000Y-69245000D03*
X104950000Y-69245000D03*
X110950000Y-72995000D03*
X104950000Y-72995000D03*
%TD*%
D15*
%TO.C,C7701*%
X111506000Y-120170000D03*
X111506000Y-121130000D03*
%TD*%
D14*
%TO.C,D5301*%
X136118500Y-60960000D03*
X137693500Y-60960000D03*
%TD*%
D15*
%TO.C,C501*%
X69596000Y-87404000D03*
X69596000Y-88364000D03*
%TD*%
%TO.C,C2401*%
X162310000Y-17554000D03*
X162310000Y-18514000D03*
%TD*%
D12*
%TO.C,Q3801*%
X143588500Y-10734000D03*
X143588500Y-12634000D03*
X145463500Y-11684000D03*
%TD*%
%TO.C,Q3501*%
X133428500Y-10734000D03*
X133428500Y-12634000D03*
X135303500Y-11684000D03*
%TD*%
D10*
%TO.C,R7502*%
X109472000Y-121920000D03*
X110492000Y-121920000D03*
%TD*%
D15*
%TO.C,C5801*%
X136910000Y-120170000D03*
X136910000Y-121130000D03*
%TD*%
D12*
%TO.C,Q2201*%
X158828500Y-15814000D03*
X158828500Y-17714000D03*
X160703500Y-16764000D03*
%TD*%
D21*
%TO.C,U103*%
X78382000Y-94941000D03*
X78382000Y-96211000D03*
X78382000Y-97481000D03*
X78382000Y-98751000D03*
X78382000Y-100021000D03*
X78382000Y-101291000D03*
X78382000Y-102561000D03*
X83332000Y-102561000D03*
X83332000Y-101291000D03*
X83332000Y-100021000D03*
X83332000Y-98751000D03*
X83332000Y-97481000D03*
X83332000Y-96211000D03*
X83332000Y-94941000D03*
%TD*%
D12*
%TO.C,Q2401*%
X163908500Y-15814000D03*
X163908500Y-17714000D03*
X165783500Y-16764000D03*
%TD*%
D14*
%TO.C,D2001*%
X170662500Y-55880000D03*
X172237500Y-55880000D03*
%TD*%
D10*
%TO.C,R6302*%
X124716000Y-116840000D03*
X125736000Y-116840000D03*
%TD*%
D12*
%TO.C,Q6701*%
X102944500Y-113350000D03*
X102944500Y-115250000D03*
X104819500Y-114300000D03*
%TD*%
D14*
%TO.C,D2101*%
X261086500Y-66040000D03*
X262661500Y-66040000D03*
%TD*%
%TO.C,D5701*%
X115798500Y-71120000D03*
X117373500Y-71120000D03*
%TD*%
D15*
%TO.C,C5501*%
X126750000Y-120170000D03*
X126750000Y-121130000D03*
%TD*%
D12*
%TO.C,Q3301*%
X108028500Y-15814000D03*
X108028500Y-17714000D03*
X109903500Y-16764000D03*
%TD*%
D10*
%TO.C,R7602*%
X99312000Y-121920000D03*
X100332000Y-121920000D03*
%TD*%
%TO.C,R2602*%
X104396000Y-14224000D03*
X105416000Y-14224000D03*
%TD*%
%TO.C,R4602*%
X155196000Y-121920000D03*
X156216000Y-121920000D03*
%TD*%
%TO.C,R2702*%
X109476000Y-14224000D03*
X110496000Y-14224000D03*
%TD*%
D12*
%TO.C,Q6401*%
X138508500Y-113350000D03*
X138508500Y-115250000D03*
X140383500Y-114300000D03*
%TD*%
D14*
%TO.C,D2401*%
X182854500Y-60960000D03*
X184429500Y-60960000D03*
%TD*%
D22*
%TO.C,C202*%
X57940000Y-29718000D03*
X58900000Y-29718000D03*
%TD*%
D10*
%TO.C,R8002*%
X165356000Y-116840000D03*
X166376000Y-116840000D03*
%TD*%
%TO.C,R1702*%
X232920000Y-121920000D03*
X233940000Y-121920000D03*
%TD*%
%TO.C,R3602*%
X124716000Y-14224000D03*
X125736000Y-14224000D03*
%TD*%
D15*
%TO.C,C5001*%
X162310000Y-120170000D03*
X162310000Y-121130000D03*
%TD*%
%TO.C,C3001*%
X116590000Y-12474000D03*
X116590000Y-13434000D03*
%TD*%
D19*
%TO.C,R904*%
X59182000Y-40130000D03*
X59182000Y-41150000D03*
%TD*%
D15*
%TO.C,C6701*%
X101346000Y-115090000D03*
X101346000Y-116050000D03*
%TD*%
%TO.C,C4801*%
X167390000Y-120170000D03*
X167390000Y-121130000D03*
%TD*%
D16*
%TO.C,SW601*%
X110950000Y-89565000D03*
X104950000Y-89565000D03*
X104950000Y-93315000D03*
X110950000Y-93315000D03*
%TD*%
D12*
%TO.C,Q5701*%
X123268500Y-118430000D03*
X123268500Y-120330000D03*
X125143500Y-119380000D03*
%TD*%
%TO.C,Q4701*%
X148668500Y-118430000D03*
X148668500Y-120330000D03*
X150543500Y-119380000D03*
%TD*%
D19*
%TO.C,R10001*%
X157230000Y-10412000D03*
X157230000Y-11432000D03*
%TD*%
%TO.C,R7001*%
X111506000Y-113028000D03*
X111506000Y-114048000D03*
%TD*%
D14*
%TO.C,D2701*%
X125958500Y-35560000D03*
X127533500Y-35560000D03*
%TD*%
%TO.C,D2301*%
X165582500Y-55880000D03*
X167157500Y-55880000D03*
%TD*%
%TO.C,D6301*%
X115798500Y-81280000D03*
X117373500Y-81280000D03*
%TD*%
%TO.C,D8101*%
X188950500Y-71120000D03*
X190525500Y-71120000D03*
%TD*%
D11*
%TO.C,R901*%
X57658000Y-44706000D03*
X57658000Y-43686000D03*
%TD*%
D10*
%TO.C,R3502*%
X134876000Y-14224000D03*
X135896000Y-14224000D03*
%TD*%
D13*
%TO.C,C204*%
X57658000Y-28448000D03*
X57658000Y-27488000D03*
%TD*%
D15*
%TO.C,C2901*%
X111510000Y-12474000D03*
X111510000Y-13434000D03*
%TD*%
D10*
%TO.C,R8102*%
X170436000Y-116840000D03*
X171456000Y-116840000D03*
%TD*%
D19*
%TO.C,R2201*%
X157230000Y-15492000D03*
X157230000Y-16512000D03*
%TD*%
D22*
%TO.C,C1302*%
X57940000Y-67818000D03*
X58900000Y-67818000D03*
%TD*%
D25*
%TO.C,D10101*%
X179578000Y-41884500D03*
X179578000Y-43459500D03*
%TD*%
D11*
%TO.C,R701*%
X57658000Y-108206000D03*
X57658000Y-107186000D03*
%TD*%
D19*
%TO.C,R2301*%
X147070000Y-15492000D03*
X147070000Y-16512000D03*
%TD*%
D12*
%TO.C,Q1801*%
X221312500Y-118430000D03*
X221312500Y-120330000D03*
X223187500Y-119380000D03*
%TD*%
D22*
%TO.C,C702*%
X57940000Y-105918000D03*
X58900000Y-105918000D03*
%TD*%
D23*
%TO.C,D5101*%
X175973153Y-74216847D03*
X177086847Y-73103153D03*
%TD*%
D19*
%TO.C,R2501*%
X167390000Y-15492000D03*
X167390000Y-16512000D03*
%TD*%
D14*
%TO.C,D4001*%
X131038500Y-60960000D03*
X132613500Y-60960000D03*
%TD*%
D15*
%TO.C,C5301*%
X116590000Y-17554000D03*
X116590000Y-18514000D03*
%TD*%
D13*
%TO.C,C1504*%
X57658000Y-79248000D03*
X57658000Y-78288000D03*
%TD*%
D10*
%TO.C,R2202*%
X160276000Y-19304000D03*
X161296000Y-19304000D03*
%TD*%
D14*
%TO.C,D1801*%
X240766500Y-66040000D03*
X242341500Y-66040000D03*
%TD*%
D12*
%TO.C,Q6301*%
X123268500Y-113350000D03*
X123268500Y-115250000D03*
X125143500Y-114300000D03*
%TD*%
D15*
%TO.C,C1701*%
X229874000Y-120170000D03*
X229874000Y-121130000D03*
%TD*%
D12*
%TO.C,Q5101*%
X158828500Y-113350000D03*
X158828500Y-115250000D03*
X160703500Y-114300000D03*
%TD*%
D15*
%TO.C,C10201*%
X167390000Y-12474000D03*
X167390000Y-13434000D03*
%TD*%
D19*
%TO.C,R8101*%
X167390000Y-113028000D03*
X167390000Y-114048000D03*
%TD*%
D12*
%TO.C,Q2801*%
X97868500Y-10734000D03*
X97868500Y-12634000D03*
X99743500Y-11684000D03*
%TD*%
D15*
%TO.C,C1501*%
X69596000Y-74704000D03*
X69596000Y-75664000D03*
%TD*%
D10*
%TO.C,R5702*%
X124716000Y-121920000D03*
X125736000Y-121920000D03*
%TD*%
D12*
%TO.C,Q3401*%
X128348500Y-10734000D03*
X128348500Y-12634000D03*
X130223500Y-11684000D03*
%TD*%
D11*
%TO.C,R1101*%
X57658000Y-57406000D03*
X57658000Y-56386000D03*
%TD*%
D12*
%TO.C,Q7601*%
X97864500Y-118430000D03*
X97864500Y-120330000D03*
X99739500Y-119380000D03*
%TD*%
D10*
%TO.C,R3402*%
X129796000Y-14224000D03*
X130816000Y-14224000D03*
%TD*%
D19*
%TO.C,R3801*%
X141990000Y-10412000D03*
X141990000Y-11432000D03*
%TD*%
D15*
%TO.C,C3201*%
X101350000Y-17554000D03*
X101350000Y-18514000D03*
%TD*%
D19*
%TO.C,R5701*%
X121670000Y-118108000D03*
X121670000Y-119128000D03*
%TD*%
D11*
%TO.C,R1302*%
X59182000Y-70106000D03*
X59182000Y-69086000D03*
%TD*%
D15*
%TO.C,C2101*%
X240034000Y-120170000D03*
X240034000Y-121130000D03*
%TD*%
D20*
%TO.C,C103*%
X95095000Y-69215000D03*
X94135000Y-69215000D03*
%TD*%
D19*
%TO.C,R2601*%
X101350000Y-10412000D03*
X101350000Y-11432000D03*
%TD*%
%TO.C,R1104*%
X59182000Y-52830000D03*
X59182000Y-53850000D03*
%TD*%
D10*
%TO.C,R3702*%
X139956000Y-14224000D03*
X140976000Y-14224000D03*
%TD*%
D12*
%TO.C,Q6501*%
X143588500Y-113350000D03*
X143588500Y-115250000D03*
X145463500Y-114300000D03*
%TD*%
D14*
%TO.C,D6701*%
X120878500Y-91440000D03*
X122453500Y-91440000D03*
%TD*%
D15*
%TO.C,C9801*%
X147070000Y-12474000D03*
X147070000Y-13434000D03*
%TD*%
D16*
%TO.C,SW1601*%
X104950000Y-79405000D03*
X110950000Y-79405000D03*
X104950000Y-83155000D03*
X110950000Y-83155000D03*
%TD*%
D14*
%TO.C,D7701*%
X131034500Y-101600000D03*
X132609500Y-101600000D03*
%TD*%
D12*
%TO.C,Q10101*%
X163908500Y-10734000D03*
X163908500Y-12634000D03*
X165783500Y-11684000D03*
%TD*%
D16*
%TO.C,SW1201*%
X104950000Y-59085000D03*
X110950000Y-59085000D03*
X104950000Y-62835000D03*
X110950000Y-62835000D03*
%TD*%
D10*
%TO.C,R7802*%
X119632000Y-121920000D03*
X120652000Y-121920000D03*
%TD*%
D14*
%TO.C,D5201*%
X165582500Y-76200000D03*
X167157500Y-76200000D03*
%TD*%
D21*
%TO.C,U1301*%
X62415000Y-62175000D03*
X62415000Y-63445000D03*
X62415000Y-64715000D03*
X62415000Y-65985000D03*
X62415000Y-67255000D03*
X62415000Y-68525000D03*
X62415000Y-69795000D03*
X67365000Y-69795000D03*
X67365000Y-68525000D03*
X67365000Y-67255000D03*
X67365000Y-65985000D03*
X67365000Y-64715000D03*
X67365000Y-63445000D03*
X67365000Y-62175000D03*
%TD*%
D12*
%TO.C,Q1901*%
X236552500Y-118430000D03*
X236552500Y-120330000D03*
X238427500Y-119380000D03*
%TD*%
D10*
%TO.C,R2402*%
X165356000Y-19304000D03*
X166376000Y-19304000D03*
%TD*%
D11*
%TO.C,R203*%
X59182000Y-25910000D03*
X59182000Y-24890000D03*
%TD*%
D24*
%TO.C,D10001*%
X176481153Y-37035153D03*
X177594847Y-38148847D03*
%TD*%
D13*
%TO.C,C1503*%
X57658000Y-76680000D03*
X57658000Y-75720000D03*
%TD*%
D22*
%TO.C,C1502*%
X57940000Y-80518000D03*
X58900000Y-80518000D03*
%TD*%
D10*
%TO.C,R9802*%
X150116000Y-14224000D03*
X151136000Y-14224000D03*
%TD*%
D19*
%TO.C,R5601*%
X131830000Y-118108000D03*
X131830000Y-119128000D03*
%TD*%
D15*
%TO.C,C401*%
X224794000Y-120170000D03*
X224794000Y-121130000D03*
%TD*%
D13*
%TO.C,C503*%
X57658000Y-89380000D03*
X57658000Y-88420000D03*
%TD*%
D15*
%TO.C,C3601*%
X121670000Y-12474000D03*
X121670000Y-13434000D03*
%TD*%
%TO.C,C7501*%
X106426000Y-120170000D03*
X106426000Y-121130000D03*
%TD*%
%TO.C,C10001*%
X157230000Y-12474000D03*
X157230000Y-13434000D03*
%TD*%
D14*
%TO.C,D4601*%
X170662500Y-96520000D03*
X172237500Y-96520000D03*
%TD*%
D12*
%TO.C,Q7801*%
X118184500Y-118430000D03*
X118184500Y-120330000D03*
X120059500Y-119380000D03*
%TD*%
%TO.C,Q9901*%
X153748500Y-10734000D03*
X153748500Y-12634000D03*
X155623500Y-11684000D03*
%TD*%
D15*
%TO.C,C4001*%
X111510000Y-17554000D03*
X111510000Y-18514000D03*
%TD*%
D16*
%TO.C,SW1001*%
X110950000Y-48925000D03*
X104950000Y-48925000D03*
X104950000Y-52675000D03*
X110950000Y-52675000D03*
%TD*%
D19*
%TO.C,R2901*%
X111510000Y-10412000D03*
X111510000Y-11432000D03*
%TD*%
D14*
%TO.C,D9801*%
X165582500Y-35560000D03*
X167157500Y-35560000D03*
%TD*%
D15*
%TO.C,C201*%
X69596000Y-23904000D03*
X69596000Y-24864000D03*
%TD*%
D12*
%TO.C,Q8101*%
X168988500Y-113350000D03*
X168988500Y-115250000D03*
X170863500Y-114300000D03*
%TD*%
D15*
%TO.C,C3301*%
X106430000Y-17554000D03*
X106430000Y-18514000D03*
%TD*%
D10*
%TO.C,R3002*%
X119636000Y-14224000D03*
X120656000Y-14224000D03*
%TD*%
D12*
%TO.C,Q7701*%
X113104500Y-118430000D03*
X113104500Y-120330000D03*
X114979500Y-119380000D03*
%TD*%
D11*
%TO.C,R502*%
X59182000Y-95506000D03*
X59182000Y-94486000D03*
%TD*%
D10*
%TO.C,R5802*%
X139956000Y-121920000D03*
X140976000Y-121920000D03*
%TD*%
D20*
%TO.C,C108*%
X53820000Y-66040000D03*
X52860000Y-66040000D03*
%TD*%
D12*
%TO.C,Q2601*%
X102948500Y-10734000D03*
X102948500Y-12634000D03*
X104823500Y-11684000D03*
%TD*%
D19*
%TO.C,R3901*%
X96270000Y-15492000D03*
X96270000Y-16512000D03*
%TD*%
%TO.C,R5101*%
X157230000Y-113028000D03*
X157230000Y-114048000D03*
%TD*%
D21*
%TO.C,U101*%
X78317000Y-46681000D03*
X78317000Y-47951000D03*
X78317000Y-49221000D03*
X78317000Y-50491000D03*
X78317000Y-51761000D03*
X78317000Y-53031000D03*
X78317000Y-54301000D03*
X83267000Y-54301000D03*
X83267000Y-53031000D03*
X83267000Y-51761000D03*
X83267000Y-50491000D03*
X83267000Y-49221000D03*
X83267000Y-47951000D03*
X83267000Y-46681000D03*
%TD*%
D12*
%TO.C,Q4501*%
X158828500Y-118430000D03*
X158828500Y-120330000D03*
X160703500Y-119380000D03*
%TD*%
%TO.C,Q2301*%
X148668500Y-15814000D03*
X148668500Y-17714000D03*
X150543500Y-16764000D03*
%TD*%
D10*
%TO.C,R5602*%
X134876000Y-121920000D03*
X135896000Y-121920000D03*
%TD*%
%TO.C,R7002*%
X114552000Y-116840000D03*
X115572000Y-116840000D03*
%TD*%
D22*
%TO.C,C902*%
X57940000Y-42418000D03*
X58900000Y-42418000D03*
%TD*%
D20*
%TO.C,C104*%
X81372000Y-69541000D03*
X80412000Y-69541000D03*
%TD*%
D14*
%TO.C,D9901*%
X170662500Y-35560000D03*
X172237500Y-35560000D03*
%TD*%
D15*
%TO.C,C2601*%
X101350000Y-12474000D03*
X101350000Y-13434000D03*
%TD*%
D19*
%TO.C,R4301*%
X152150000Y-113028000D03*
X152150000Y-114048000D03*
%TD*%
D10*
%TO.C,R1802*%
X222760000Y-121920000D03*
X223780000Y-121920000D03*
%TD*%
D15*
%TO.C,C2301*%
X147070000Y-17554000D03*
X147070000Y-18514000D03*
%TD*%
D10*
%TO.C,R5102*%
X160276000Y-116840000D03*
X161296000Y-116840000D03*
%TD*%
D15*
%TO.C,C701*%
X69596000Y-100104000D03*
X69596000Y-101064000D03*
%TD*%
D21*
%TO.C,U201*%
X62415000Y-24075000D03*
X62415000Y-25345000D03*
X62415000Y-26615000D03*
X62415000Y-27885000D03*
X62415000Y-29155000D03*
X62415000Y-30425000D03*
X62415000Y-31695000D03*
X67365000Y-31695000D03*
X67365000Y-30425000D03*
X67365000Y-29155000D03*
X67365000Y-27885000D03*
X67365000Y-26615000D03*
X67365000Y-25345000D03*
X67365000Y-24075000D03*
%TD*%
D14*
%TO.C,D7501*%
X125954500Y-101600000D03*
X127529500Y-101600000D03*
%TD*%
D10*
%TO.C,R10202*%
X170436000Y-14224000D03*
X171456000Y-14224000D03*
%TD*%
D14*
%TO.C,D6801*%
X125958500Y-91440000D03*
X127533500Y-91440000D03*
%TD*%
D15*
%TO.C,C4901*%
X172470000Y-120170000D03*
X172470000Y-121130000D03*
%TD*%
%TO.C,C4501*%
X157230000Y-120170000D03*
X157230000Y-121130000D03*
%TD*%
D12*
%TO.C,Q10201*%
X168988500Y-10734000D03*
X168988500Y-12634000D03*
X170863500Y-11684000D03*
%TD*%
D19*
%TO.C,R5901*%
X141990000Y-118108000D03*
X141990000Y-119128000D03*
%TD*%
D10*
%TO.C,R7102*%
X119632000Y-116840000D03*
X120652000Y-116840000D03*
%TD*%
%TO.C,R5202*%
X150116000Y-116840000D03*
X151136000Y-116840000D03*
%TD*%
D14*
%TO.C,D5901*%
X136118500Y-71120000D03*
X137693500Y-71120000D03*
%TD*%
%TO.C,D3201*%
X120878500Y-60960000D03*
X122453500Y-60960000D03*
%TD*%
D19*
%TO.C,R2801*%
X96270000Y-10412000D03*
X96270000Y-11432000D03*
%TD*%
%TO.C,R6501*%
X141990000Y-113028000D03*
X141990000Y-114048000D03*
%TD*%
D12*
%TO.C,Q3901*%
X97868500Y-15814000D03*
X97868500Y-17714000D03*
X99743500Y-16764000D03*
%TD*%
D10*
%TO.C,R3202*%
X104396000Y-19304000D03*
X105416000Y-19304000D03*
%TD*%
D19*
%TO.C,R4801*%
X167390000Y-118108000D03*
X167390000Y-119128000D03*
%TD*%
%TO.C,R6301*%
X121670000Y-113028000D03*
X121670000Y-114048000D03*
%TD*%
D15*
%TO.C,C2801*%
X96270000Y-12474000D03*
X96270000Y-13434000D03*
%TD*%
%TO.C,C2201*%
X157230000Y-17554000D03*
X157230000Y-18514000D03*
%TD*%
%TO.C,C6201*%
X131830000Y-115090000D03*
X131830000Y-116050000D03*
%TD*%
D11*
%TO.C,R1103*%
X59182000Y-51310000D03*
X59182000Y-50290000D03*
%TD*%
D12*
%TO.C,Q2701*%
X108028500Y-10734000D03*
X108028500Y-12634000D03*
X109903500Y-11684000D03*
%TD*%
D14*
%TO.C,D7601*%
X115794500Y-101600000D03*
X117369500Y-101600000D03*
%TD*%
%TO.C,D3601*%
X115798500Y-50800000D03*
X117373500Y-50800000D03*
%TD*%
D21*
%TO.C,U1101*%
X62415000Y-49475000D03*
X62415000Y-50745000D03*
X62415000Y-52015000D03*
X62415000Y-53285000D03*
X62415000Y-54555000D03*
X62415000Y-55825000D03*
X62415000Y-57095000D03*
X67365000Y-57095000D03*
X67365000Y-55825000D03*
X67365000Y-54555000D03*
X67365000Y-53285000D03*
X67365000Y-52015000D03*
X67365000Y-50745000D03*
X67365000Y-49475000D03*
%TD*%
D11*
%TO.C,R703*%
X59182000Y-102110000D03*
X59182000Y-101090000D03*
%TD*%
D15*
%TO.C,C3901*%
X96270000Y-17554000D03*
X96270000Y-18514000D03*
%TD*%
%TO.C,C901*%
X69596000Y-36604000D03*
X69596000Y-37564000D03*
%TD*%
D19*
%TO.C,R4701*%
X147070000Y-118108000D03*
X147070000Y-119128000D03*
%TD*%
D14*
%TO.C,D2501*%
X188950500Y-60960000D03*
X190525500Y-60960000D03*
%TD*%
%TO.C,D6201*%
X125958500Y-81280000D03*
X127533500Y-81280000D03*
%TD*%
D19*
%TO.C,R2401*%
X162310000Y-15492000D03*
X162310000Y-16512000D03*
%TD*%
D15*
%TO.C,C1101*%
X69596000Y-49304000D03*
X69596000Y-50264000D03*
%TD*%
D11*
%TO.C,R1502*%
X59182000Y-82806000D03*
X59182000Y-81786000D03*
%TD*%
D12*
%TO.C,Q5301*%
X118188500Y-15814000D03*
X118188500Y-17714000D03*
X120063500Y-16764000D03*
%TD*%
D14*
%TO.C,D7801*%
X136114500Y-101600000D03*
X137689500Y-101600000D03*
%TD*%
D15*
%TO.C,C7801*%
X116586000Y-120170000D03*
X116586000Y-121130000D03*
%TD*%
D19*
%TO.C,R5301*%
X116590000Y-15492000D03*
X116590000Y-16512000D03*
%TD*%
D21*
%TO.C,U102*%
X78382000Y-71065000D03*
X78382000Y-72335000D03*
X78382000Y-73605000D03*
X78382000Y-74875000D03*
X78382000Y-76145000D03*
X78382000Y-77415000D03*
X78382000Y-78685000D03*
X83332000Y-78685000D03*
X83332000Y-77415000D03*
X83332000Y-76145000D03*
X83332000Y-74875000D03*
X83332000Y-73605000D03*
X83332000Y-72335000D03*
X83332000Y-71065000D03*
%TD*%
D14*
%TO.C,D6501*%
X136118500Y-81280000D03*
X137693500Y-81280000D03*
%TD*%
D19*
%TO.C,R6901*%
X96266000Y-113028000D03*
X96266000Y-114048000D03*
%TD*%
D10*
%TO.C,R7702*%
X114552000Y-121920000D03*
X115572000Y-121920000D03*
%TD*%
D14*
%TO.C,D4901*%
X188950500Y-81280000D03*
X190525500Y-81280000D03*
%TD*%
%TO.C,D7001*%
X131038500Y-91440000D03*
X132613500Y-91440000D03*
%TD*%
D19*
%TO.C,R7801*%
X116586000Y-118108000D03*
X116586000Y-119128000D03*
%TD*%
D14*
%TO.C,D4301*%
X170662500Y-76200000D03*
X172237500Y-76200000D03*
%TD*%
D12*
%TO.C,Q2001*%
X153748500Y-15814000D03*
X153748500Y-17714000D03*
X155623500Y-16764000D03*
%TD*%
D10*
%TO.C,R2002*%
X155196000Y-19304000D03*
X156216000Y-19304000D03*
%TD*%
D15*
%TO.C,C6501*%
X141990000Y-115090000D03*
X141990000Y-116050000D03*
%TD*%
%TO.C,C1801*%
X219714000Y-120170000D03*
X219714000Y-121130000D03*
%TD*%
D19*
%TO.C,R8001*%
X162310000Y-113028000D03*
X162310000Y-114048000D03*
%TD*%
%TO.C,R2001*%
X152150000Y-15492000D03*
X152150000Y-16512000D03*
%TD*%
D12*
%TO.C,Q5901*%
X143588500Y-118430000D03*
X143588500Y-120330000D03*
X145463500Y-119380000D03*
%TD*%
%TO.C,Q2101*%
X241632500Y-118430000D03*
X241632500Y-120330000D03*
X243507500Y-119380000D03*
%TD*%
D15*
%TO.C,C3801*%
X141990000Y-12474000D03*
X141990000Y-13434000D03*
%TD*%
D19*
%TO.C,R4601*%
X152150000Y-118108000D03*
X152150000Y-119128000D03*
%TD*%
D15*
%TO.C,C10101*%
X162310000Y-12474000D03*
X162310000Y-13434000D03*
%TD*%
%TO.C,C8101*%
X167390000Y-115090000D03*
X167390000Y-116050000D03*
%TD*%
D19*
%TO.C,R3401*%
X126750000Y-10412000D03*
X126750000Y-11432000D03*
%TD*%
D12*
%TO.C,Q401*%
X226392500Y-118430000D03*
X226392500Y-120330000D03*
X228267500Y-119380000D03*
%TD*%
D10*
%TO.C,R6902*%
X99312000Y-116840000D03*
X100332000Y-116840000D03*
%TD*%
D21*
%TO.C,U701*%
X62415000Y-100275000D03*
X62415000Y-101545000D03*
X62415000Y-102815000D03*
X62415000Y-104085000D03*
X62415000Y-105355000D03*
X62415000Y-106625000D03*
X62415000Y-107895000D03*
X67365000Y-107895000D03*
X67365000Y-106625000D03*
X67365000Y-105355000D03*
X67365000Y-104085000D03*
X67365000Y-102815000D03*
X67365000Y-101545000D03*
X67365000Y-100275000D03*
%TD*%
D15*
%TO.C,C1901*%
X234954000Y-120170000D03*
X234954000Y-121130000D03*
%TD*%
D13*
%TO.C,C504*%
X57658000Y-91948000D03*
X57658000Y-90988000D03*
%TD*%
D19*
%TO.C,R10301*%
X172470000Y-10412000D03*
X172470000Y-11432000D03*
%TD*%
D14*
%TO.C,D6101*%
X120878500Y-81280000D03*
X122453500Y-81280000D03*
%TD*%
%TO.C,D7101*%
X136118500Y-91440000D03*
X137693500Y-91440000D03*
%TD*%
%TO.C,D3901*%
X115798500Y-60960000D03*
X117373500Y-60960000D03*
%TD*%
D19*
%TO.C,R1701*%
X229874000Y-118108000D03*
X229874000Y-119128000D03*
%TD*%
D24*
%TO.C,D2201*%
X175973153Y-57863153D03*
X177086847Y-58976847D03*
%TD*%
D20*
%TO.C,C102*%
X81372000Y-93417000D03*
X80412000Y-93417000D03*
%TD*%
D10*
%TO.C,R1902*%
X238000000Y-121920000D03*
X239020000Y-121920000D03*
%TD*%
D14*
%TO.C,D3501*%
X125958500Y-50800000D03*
X127533500Y-50800000D03*
%TD*%
D15*
%TO.C,C4701*%
X147070000Y-120170000D03*
X147070000Y-121130000D03*
%TD*%
D10*
%TO.C,R6802*%
X109472000Y-116840000D03*
X110492000Y-116840000D03*
%TD*%
D19*
%TO.C,R9901*%
X152150000Y-10412000D03*
X152150000Y-11432000D03*
%TD*%
D10*
%TO.C,R6702*%
X104392000Y-116840000D03*
X105412000Y-116840000D03*
%TD*%
D12*
%TO.C,Q7101*%
X118184500Y-113350000D03*
X118184500Y-115250000D03*
X120059500Y-114300000D03*
%TD*%
D14*
%TO.C,D5601*%
X125958500Y-71120000D03*
X127533500Y-71120000D03*
%TD*%
D23*
%TO.C,D4501*%
X176481153Y-95044847D03*
X177594847Y-93931153D03*
%TD*%
D26*
%TO.C,D5001*%
X179578000Y-90195500D03*
X179578000Y-88620500D03*
%TD*%
D19*
%TO.C,R9801*%
X147070000Y-10412000D03*
X147070000Y-11432000D03*
%TD*%
D22*
%TO.C,C502*%
X57940000Y-93218000D03*
X58900000Y-93218000D03*
%TD*%
D10*
%TO.C,R4702*%
X150116000Y-121920000D03*
X151136000Y-121920000D03*
%TD*%
D15*
%TO.C,C6901*%
X96266000Y-115090000D03*
X96266000Y-116050000D03*
%TD*%
D19*
%TO.C,R1901*%
X234954000Y-118108000D03*
X234954000Y-119128000D03*
%TD*%
%TO.C,R3701*%
X136910000Y-10412000D03*
X136910000Y-11432000D03*
%TD*%
D15*
%TO.C,C2701*%
X106430000Y-12474000D03*
X106430000Y-13434000D03*
%TD*%
D10*
%TO.C,R3302*%
X109476000Y-19304000D03*
X110496000Y-19304000D03*
%TD*%
D12*
%TO.C,Q3001*%
X118188500Y-10734000D03*
X118188500Y-12634000D03*
X120063500Y-11684000D03*
%TD*%
D19*
%TO.C,R10101*%
X162310000Y-10412000D03*
X162310000Y-11432000D03*
%TD*%
%TO.C,R6201*%
X131830000Y-113028000D03*
X131830000Y-114048000D03*
%TD*%
D21*
%TO.C,U901*%
X62415000Y-36775000D03*
X62415000Y-38045000D03*
X62415000Y-39315000D03*
X62415000Y-40585000D03*
X62415000Y-41855000D03*
X62415000Y-43125000D03*
X62415000Y-44395000D03*
X67365000Y-44395000D03*
X67365000Y-43125000D03*
X67365000Y-41855000D03*
X67365000Y-40585000D03*
X67365000Y-39315000D03*
X67365000Y-38045000D03*
X67365000Y-36775000D03*
%TD*%
D13*
%TO.C,C703*%
X57658000Y-102080000D03*
X57658000Y-101120000D03*
%TD*%
D19*
%TO.C,R7401*%
X101346000Y-118108000D03*
X101346000Y-119128000D03*
%TD*%
%TO.C,R4901*%
X172470000Y-118108000D03*
X172470000Y-119128000D03*
%TD*%
M02*
