M48
; DRILL file {KiCad (6.0.9)} date Mon 26 Dec 2022 01:44:19 EET
; FORMAT={-:-/ absolute / metric / decimal}
; #@! TF.CreationDate,2022-12-26T01:44:19+02:00
; #@! TF.GenerationSoftware,Kicad,Pcbnew,(6.0.9)
; #@! TF.FileFunction,Plated,1,2,PTH
FMAT,2
METRIC
; #@! TA.AperFunction,Plated,PTH,ViaDrill
T1C0.300
; #@! TA.AperFunction,Plated,PTH,ComponentDrill
T2C0.600
%
G90
G05
T1
X50.165Y-61.595
X50.165Y-70.485
X50.546Y-63.5
X50.546Y-68.58
X51.562Y-66.04
X52.07Y-61.976
X52.07Y-70.104
X56.134Y-31.496
X56.134Y-44.196
X56.134Y-56.896
X56.134Y-69.596
X56.134Y-82.296
X56.134Y-94.996
X56.134Y-107.696
X56.642Y-27.432
X56.642Y-40.132
X56.642Y-52.832
X56.642Y-65.532
X56.642Y-78.232
X56.642Y-90.932
X56.642Y-103.632
X59.944Y-29.718
X59.944Y-42.418
X59.944Y-55.118
X59.944Y-67.818
X59.944Y-80.518
X59.944Y-93.218
X59.944Y-105.918
X60.198Y-24.13
X60.198Y-26.416
X60.198Y-27.432
X60.198Y-36.83
X60.198Y-39.116
X60.198Y-40.132
X60.198Y-49.53
X60.198Y-51.816
X60.198Y-52.832
X60.198Y-62.23
X60.198Y-64.516
X60.198Y-65.532
X60.198Y-74.93
X60.198Y-77.216
X60.198Y-78.232
X60.198Y-87.63
X60.198Y-89.916
X60.198Y-90.932
X60.198Y-100.33
X60.198Y-102.616
X60.198Y-103.632
X60.198Y-112.268
X62.23Y-33.02
X62.23Y-45.72
X62.23Y-58.42
X62.23Y-71.12
X62.23Y-83.82
X62.23Y-96.52
X63.809Y-111.705
X64.008Y-27.94
X64.008Y-40.64
X64.008Y-53.34
X64.008Y-66.04
X64.008Y-78.74
X64.008Y-91.44
X64.008Y-104.14
X64.262Y-108.204
X64.262Y-120.345
X64.766Y-118.826
X64.774Y-116.785
X65.024Y-26.924
X65.024Y-39.624
X65.024Y-52.324
X65.024Y-65.024
X65.024Y-77.724
X65.024Y-90.424
X65.024Y-103.124
X65.786Y-29.21
X65.786Y-41.91
X65.786Y-54.61
X65.786Y-67.31
X65.786Y-80.01
X65.786Y-92.71
X65.786Y-105.41
X68.889Y-111.705
X69.342Y-29.21
X69.342Y-41.91
X69.342Y-54.61
X69.342Y-67.31
X69.342Y-80.01
X69.342Y-92.71
X69.342Y-105.41
X69.342Y-116.84
X69.795Y-110.689
X70.612Y-24.892
X70.612Y-37.592
X70.612Y-50.292
X70.612Y-62.992
X70.612Y-75.692
X70.612Y-88.392
X70.612Y-101.092
X70.651Y-113.737
X71.882Y-12.7
X71.882Y-19.812
X73.969Y-110.689
X74.422Y-13.208
X74.422Y-19.812
X74.93Y-94.996
X74.93Y-102.616
X74.93Y-104.14
X75.438Y-99.06
X75.946Y-20.32
X75.946Y-56.388
X75.946Y-85.344
X76.454Y-112.268
X76.962Y-38.608
X76.962Y-91.44
X76.962Y-113.792
X78.486Y-84.328
X79.502Y-37.592
X79.502Y-45.212
X80.01Y-81.28
X80.384Y-94.941
X80.518Y-56.896
X80.518Y-72.644
X80.518Y-77.724
X80.638Y-70.811
X80.638Y-102.561
X80.975Y-116.789
X81.4Y-48.459
X81.4Y-51.253
X81.534Y-100.584
X82.55Y-30.48
X82.55Y-108.204
X83.566Y-32.512
X84.074Y-57.912
X84.074Y-90.424
X85.09Y-102.616
X85.344Y-98.552
X86.106Y-67.056
X86.106Y-92.964
X86.106Y-111.76
X87.122Y-87.884
X87.122Y-96.52
X87.63Y-84.328
X88.138Y-18.796
X88.138Y-108.204
X88.193Y-97.481
X89.154Y-72.644
X89.154Y-79.248
X89.154Y-92.456
X89.662Y-32.004
X90.678Y-69.088
X91.186Y-78.232
X91.694Y-91.44
X92.202Y-30.48
X92.71Y-11.684
X92.71Y-69.215
X92.71Y-94.488
X92.71Y-100.584
X93.726Y-121.666
X94.742Y-93.98
X94.742Y-98.552
X95.758Y-80.264
X95.758Y-91.44
X95.758Y-94.488
X95.758Y-99.568
X96.774Y-87.884
X96.774Y-94.996
X96.774Y-98.552
X97.282Y-116.84
X97.282Y-121.92
X97.286Y-14.224
X97.286Y-19.304
X98.294Y-116.84
X98.294Y-121.92
X98.298Y-14.224
X98.298Y-19.304
X98.298Y-84.836
X98.298Y-88.9
X98.298Y-94.488
X98.298Y-99.568
X102.362Y-116.84
X102.362Y-121.92
X102.366Y-14.224
X102.366Y-19.304
X102.87Y-78.739
X102.87Y-27.94
X102.87Y-33.02
X102.87Y-37.592
X102.87Y-43.18
X102.87Y-48.26
X102.87Y-52.324
X102.87Y-58.42
X102.87Y-62.992
X102.87Y-68.58
X102.87Y-73.152
X102.87Y-83.312
X102.87Y-88.9
X102.87Y-93.472
X102.87Y-99.06
X103.027Y-103.475
X103.374Y-116.84
X103.374Y-121.92
X103.378Y-14.224
X103.378Y-19.304
X107.442Y-116.84
X107.442Y-121.92
X107.446Y-14.224
X107.446Y-19.304
X108.454Y-116.84
X108.454Y-121.92
X108.458Y-14.224
X108.458Y-19.304
X112.522Y-116.84
X112.522Y-121.92
X112.526Y-14.224
X112.526Y-19.304
X113.534Y-116.84
X113.534Y-121.92
X113.538Y-14.224
X113.538Y-19.304
X114.554Y-92.964
X114.554Y-103.124
X115.062Y-34.544
X115.57Y-59.436
X115.57Y-72.644
X115.57Y-82.804
X116.774Y-117.028
X117.094Y-49.276
X117.602Y-9.261
X117.602Y-116.84
X117.602Y-121.92
X117.606Y-14.224
X117.606Y-19.304
X118.614Y-116.84
X118.614Y-121.92
X118.618Y-14.224
X118.618Y-19.304
X119.634Y-34.544
X119.634Y-92.964
X119.634Y-103.124
X120.65Y-49.276
X120.65Y-59.436
X120.65Y-72.644
X120.65Y-82.804
X121.666Y-9.144
X121.666Y-117.094
X122.174Y-111.876
X122.686Y-14.224
X122.686Y-116.84
X122.686Y-121.92
X123.698Y-14.224
X123.698Y-110.236
X123.698Y-116.84
X123.698Y-121.92
X124.714Y-103.124
X125.222Y-34.544
X125.222Y-92.964
X125.73Y-49.276
X125.73Y-59.436
X125.73Y-72.644
X125.73Y-82.804
X127.766Y-14.224
X127.766Y-116.84
X127.766Y-121.92
X128.778Y-14.224
X128.778Y-116.84
X128.778Y-121.92
X129.675Y-24.773
X129.794Y-92.964
X129.794Y-103.124
X130.302Y-34.544
X130.81Y-49.276
X130.81Y-59.436
X130.81Y-72.644
X130.81Y-82.804
X130.81Y-108.204
X132.846Y-14.224
X132.846Y-116.84
X132.846Y-121.92
X133.858Y-14.224
X133.858Y-116.84
X133.858Y-121.92
X134.366Y-103.124
X134.874Y-92.964
X135.382Y-34.544
X135.89Y-49.276
X135.89Y-59.436
X135.89Y-72.644
X135.89Y-82.296
X136.906Y-24.892
X137.926Y-14.224
X137.926Y-116.84
X137.926Y-121.92
X138.938Y-14.224
X138.938Y-116.84
X138.938Y-121.92
X140.97Y-15.748
X141.478Y-108.204
X141.986Y-117.094
X142.748Y-24.892
X143.002Y-9.652
X143.002Y-17.78
X143.006Y-14.224
X143.006Y-116.84
X143.006Y-121.92
X144.018Y-14.224
X144.018Y-116.84
X144.018Y-121.92
X145.034Y-15.748
X145.542Y-108.204
X145.796Y-112.014
X146.05Y-8.636
X146.558Y-24.892
X147.066Y-108.204
X147.066Y-111.76
X147.066Y-117.094
X148.082Y-110.744
X148.086Y-14.224
X148.086Y-19.304
X148.086Y-116.84
X148.086Y-121.92
X149.098Y-14.224
X149.098Y-19.304
X149.098Y-116.84
X149.098Y-121.92
X150.622Y-107.95
X151.638Y-24.892
X153.166Y-14.224
X153.166Y-19.304
X153.166Y-116.84
X153.166Y-121.92
X154.178Y-14.224
X154.178Y-19.304
X154.178Y-116.84
X154.178Y-121.92
X156.21Y-107.95
X158.246Y-14.224
X158.246Y-19.304
X158.246Y-116.84
X158.246Y-121.92
X159.258Y-14.224
X159.258Y-19.304
X159.258Y-116.84
X159.258Y-121.92
X159.766Y-24.892
X163.326Y-14.224
X163.326Y-19.304
X163.326Y-116.84
X163.326Y-121.92
X164.338Y-14.224
X164.338Y-19.304
X164.338Y-34.036
X164.338Y-54.356
X164.338Y-98.044
X164.338Y-116.84
X164.338Y-121.92
X164.592Y-24.892
X165.354Y-77.724
X165.354Y-107.95
X167.132Y-24.892
X168.406Y-14.224
X168.406Y-19.304
X168.406Y-116.84
X168.406Y-121.92
X169.418Y-14.224
X169.418Y-19.304
X169.418Y-34.036
X169.418Y-54.356
X169.418Y-77.724
X169.418Y-116.84
X169.418Y-121.92
X169.672Y-24.892
X169.926Y-98.044
X172.212Y-24.892
X172.466Y-116.84
X172.466Y-122.428
X172.974Y-107.95
X173.486Y-14.224
X173.486Y-121.92
X174.498Y-14.224
X174.498Y-121.92
X175.514Y-24.892
X176.022Y-56.388
X176.022Y-76.2
X176.53Y-35.56
X176.53Y-96.52
X179.832Y-24.892
X181.102Y-40.64
X181.102Y-91.44
X181.61Y-59.436
X181.61Y-72.644
X182.626Y-85.344
X183.134Y-45.72
X184.095Y-22.777
X184.15Y-12.7
X184.15Y-17.78
X184.15Y-119.38
X184.205Y-109.303
X184.205Y-114.383
X187.198Y-72.644
X187.706Y-49.276
X187.706Y-59.436
X187.706Y-82.804
X189.175Y-22.777
X189.23Y-12.7
X189.23Y-17.78
X189.23Y-119.38
X189.285Y-109.303
X189.285Y-114.383
X194.255Y-22.777
X194.31Y-12.7
X194.31Y-17.78
X194.31Y-119.38
X194.365Y-109.303
X194.365Y-114.383
X199.335Y-22.777
X199.39Y-12.7
X199.39Y-17.78
X199.39Y-119.38
X199.445Y-109.303
X199.445Y-114.383
X204.415Y-22.777
X204.47Y-12.7
X204.47Y-17.78
X204.47Y-119.38
X204.525Y-109.303
X204.525Y-114.383
X209.495Y-22.777
X209.55Y-12.7
X209.55Y-17.78
X209.55Y-119.38
X209.605Y-109.303
X209.605Y-114.383
X214.575Y-22.777
X214.63Y-12.7
X214.63Y-17.78
X214.63Y-119.38
X214.685Y-109.303
X214.685Y-114.383
X219.655Y-22.777
X219.71Y-12.7
X219.71Y-17.78
X219.765Y-109.303
X219.765Y-114.383
X220.73Y-121.92
X221.742Y-121.92
X224.735Y-22.777
X224.79Y-12.7
X224.79Y-17.78
X224.845Y-109.303
X224.845Y-114.383
X225.81Y-121.92
X226.822Y-121.92
X229.815Y-22.777
X229.87Y-12.7
X229.87Y-17.78
X229.925Y-109.303
X229.925Y-114.383
X230.89Y-121.92
X231.902Y-121.92
X234.895Y-22.777
X234.95Y-12.7
X234.95Y-17.78
X235.005Y-109.303
X235.005Y-114.383
X235.97Y-121.92
X236.982Y-121.92
X239.975Y-22.777
X240.03Y-12.7
X240.03Y-17.78
X240.085Y-109.303
X240.085Y-114.383
X240.538Y-67.564
X241.05Y-121.92
X242.062Y-121.92
X244.602Y-67.564
X245.055Y-22.777
X245.11Y-12.7
X245.11Y-17.78
X245.165Y-109.303
X245.165Y-114.383
X249.682Y-67.564
X250.135Y-22.777
X250.19Y-12.7
X250.19Y-17.78
X250.19Y-119.38
X250.245Y-109.303
X250.245Y-114.383
X254.762Y-67.564
X255.215Y-22.777
X255.27Y-12.7
X255.27Y-119.38
X255.325Y-109.303
X259.842Y-67.564
X260.295Y-22.777
X260.35Y-12.7
X260.35Y-17.78
X260.35Y-27.94
X260.35Y-33.02
X260.35Y-38.1
X260.35Y-43.18
X260.35Y-48.26
X260.35Y-53.34
X260.35Y-58.42
X260.35Y-63.5
X260.35Y-68.58
X260.35Y-73.66
X260.35Y-78.74
X260.35Y-83.82
X260.35Y-88.9
X260.35Y-93.98
X260.35Y-99.06
X260.35Y-104.14
X260.35Y-114.3
X260.35Y-119.38
X260.405Y-109.303
T2
X43.745Y-61.72G85X43.145Y-61.72
G05
X43.745Y-70.36G85X43.145Y-70.36
G05
X48.175Y-61.72G85X47.075Y-61.72
G05
X48.175Y-70.36G85X47.075Y-70.36
G05
T0
M30
