%TF.GenerationSoftware,KiCad,Pcbnew,(6.0.9)*%
%TF.CreationDate,2022-11-25T00:28:20+02:00*%
%TF.ProjectId,maru-logic,6d617275-2d6c-46f6-9769-632e6b696361,rev?*%
%TF.SameCoordinates,Original*%
%TF.FileFunction,Legend,Top*%
%TF.FilePolarity,Positive*%
%FSLAX46Y46*%
G04 Gerber Fmt 4.6, Leading zero omitted, Abs format (unit mm)*
G04 Created by KiCad (PCBNEW (6.0.9)) date 2022-11-25 00:28:20*
%MOMM*%
%LPD*%
G01*
G04 APERTURE LIST*
%ADD10C,1.000000*%
%ADD11C,0.200000*%
%ADD12C,0.120000*%
%ADD13C,0.150000*%
G04 APERTURE END LIST*
D10*
X156210000Y-68515641D02*
X143510000Y-68515641D01*
X238760000Y-66040000D02*
X266700000Y-66040000D01*
X143510000Y-35495641D02*
X109220000Y-35560000D01*
X195580000Y-81280000D02*
X182880000Y-81280000D01*
X144780000Y-60895641D02*
X109220000Y-60960000D01*
X163830004Y-55815636D02*
G75*
G03*
X143510000Y-48195641I-20320004J-23283364D01*
G01*
X175260000Y-96520000D02*
X180340000Y-91440000D01*
X143510000Y-27875641D02*
X161290000Y-35495641D01*
X195580000Y-50800000D02*
X182880000Y-50800000D01*
X143510000Y-81215641D02*
X109220000Y-81280000D01*
X140977400Y-104075640D02*
G75*
G03*
X140977401Y-88835641I-10197100J7620000D01*
G01*
X161290000Y-35495641D02*
X143510000Y-43115641D01*
X180340000Y-91440000D02*
X180340000Y-83820000D01*
X195580000Y-45720000D02*
X218440000Y-45720000D01*
X143510000Y-43115641D02*
X143510000Y-27875641D01*
X144780000Y-101535641D02*
X109220000Y-101600000D01*
X180340000Y-83820000D02*
X182880000Y-81280000D01*
X163830000Y-35495641D02*
G75*
G03*
X163830000Y-35495641I-1270000J0D01*
G01*
X143509999Y-104075640D02*
G75*
G03*
X143510000Y-88835641I-10197099J7620000D01*
G01*
X143510000Y-104075639D02*
G75*
G03*
X163830000Y-96455641I0J30903339D01*
G01*
X163830000Y-55815641D02*
X175260000Y-55880000D01*
X143510000Y-63435639D02*
G75*
G03*
X163830000Y-55815641I0J30903339D01*
G01*
X163830004Y-96455636D02*
G75*
G03*
X143510000Y-88835641I-20320004J-23283364D01*
G01*
X175260000Y-35560000D02*
X180340000Y-40640000D01*
X175260000Y-55880000D02*
X180340000Y-60960000D01*
X175260000Y-76200000D02*
X180340000Y-71120000D01*
X180340000Y-48260000D02*
X182880000Y-50800000D01*
X163830000Y-96455641D02*
X175260000Y-96520000D01*
X195580000Y-86360000D02*
X218440000Y-86360000D01*
X143510000Y-68515641D02*
X143510000Y-83755641D01*
X163830000Y-76135641D02*
X175260000Y-76200000D01*
X144780000Y-50735641D02*
X109220000Y-50800000D01*
X143510000Y-71055641D02*
X109220000Y-71120000D01*
X143509999Y-63435640D02*
G75*
G03*
X143510000Y-48195641I-10197099J7620000D01*
G01*
X195580000Y-60960000D02*
X180340000Y-60960000D01*
X156210000Y-83755639D02*
G75*
G03*
X156210000Y-68515641I0J7619999D01*
G01*
X195580000Y-45720000D02*
X195580000Y-86360000D01*
X195580000Y-71120000D02*
X180340000Y-71120000D01*
X180340000Y-40640000D02*
X180340000Y-48260000D01*
X218440000Y-86360000D02*
G75*
G03*
X218440000Y-45720000I0J20320000D01*
G01*
X144780000Y-91375641D02*
X109220000Y-91375641D01*
X163830000Y-35495641D02*
X175260000Y-35495641D01*
X156210000Y-83755641D02*
X143510000Y-83755641D01*
D11*
X107958095Y-76366666D02*
X108434285Y-76366666D01*
X107862857Y-76652380D02*
X108196190Y-75652380D01*
X108529523Y-76652380D01*
X108862857Y-76652380D02*
X108862857Y-75652380D01*
X109434285Y-76652380D01*
X109434285Y-75652380D01*
X109910476Y-76652380D02*
X109910476Y-75652380D01*
X110148571Y-75652380D01*
X110291428Y-75700000D01*
X110386666Y-75795238D01*
X110434285Y-75890476D01*
X110481904Y-76080952D01*
X110481904Y-76223809D01*
X110434285Y-76414285D01*
X110386666Y-76509523D01*
X110291428Y-76604761D01*
X110148571Y-76652380D01*
X109910476Y-76652380D01*
X107862857Y-95972380D02*
X108529523Y-96972380D01*
X108529523Y-95972380D02*
X107862857Y-96972380D01*
X109100952Y-95972380D02*
X109291428Y-95972380D01*
X109386666Y-96020000D01*
X109481904Y-96115238D01*
X109529523Y-96305714D01*
X109529523Y-96639047D01*
X109481904Y-96829523D01*
X109386666Y-96924761D01*
X109291428Y-96972380D01*
X109100952Y-96972380D01*
X109005714Y-96924761D01*
X108910476Y-96829523D01*
X108862857Y-96639047D01*
X108862857Y-96305714D01*
X108910476Y-96115238D01*
X109005714Y-96020000D01*
X109100952Y-95972380D01*
X110529523Y-96972380D02*
X110196190Y-96496190D01*
X109958095Y-96972380D02*
X109958095Y-95972380D01*
X110339047Y-95972380D01*
X110434285Y-96020000D01*
X110481904Y-96067619D01*
X110529523Y-96162857D01*
X110529523Y-96305714D01*
X110481904Y-96400952D01*
X110434285Y-96448571D01*
X110339047Y-96496190D01*
X109958095Y-96496190D01*
X108029523Y-30932380D02*
X108029523Y-29932380D01*
X108600952Y-30932380D01*
X108600952Y-29932380D01*
X109267619Y-29932380D02*
X109458095Y-29932380D01*
X109553333Y-29980000D01*
X109648571Y-30075238D01*
X109696190Y-30265714D01*
X109696190Y-30599047D01*
X109648571Y-30789523D01*
X109553333Y-30884761D01*
X109458095Y-30932380D01*
X109267619Y-30932380D01*
X109172380Y-30884761D01*
X109077142Y-30789523D01*
X109029523Y-30599047D01*
X109029523Y-30265714D01*
X109077142Y-30075238D01*
X109172380Y-29980000D01*
X109267619Y-29932380D01*
X109981904Y-29932380D02*
X110553333Y-29932380D01*
X110267619Y-30932380D02*
X110267619Y-29932380D01*
X108624761Y-55332380D02*
X108815238Y-55332380D01*
X108910476Y-55380000D01*
X109005714Y-55475238D01*
X109053333Y-55665714D01*
X109053333Y-55999047D01*
X109005714Y-56189523D01*
X108910476Y-56284761D01*
X108815238Y-56332380D01*
X108624761Y-56332380D01*
X108529523Y-56284761D01*
X108434285Y-56189523D01*
X108386666Y-55999047D01*
X108386666Y-55665714D01*
X108434285Y-55475238D01*
X108529523Y-55380000D01*
X108624761Y-55332380D01*
X110053333Y-56332380D02*
X109720000Y-55856190D01*
X109481904Y-56332380D02*
X109481904Y-55332380D01*
X109862857Y-55332380D01*
X109958095Y-55380000D01*
X110005714Y-55427619D01*
X110053333Y-55522857D01*
X110053333Y-55665714D01*
X110005714Y-55760952D01*
X109958095Y-55808571D01*
X109862857Y-55856190D01*
X109481904Y-55856190D01*
D12*
%TO.C,R15*%
X89274641Y-97664000D02*
X88967359Y-97664000D01*
X89274641Y-98424000D02*
X88967359Y-98424000D01*
%TO.C,R56*%
X69968641Y-104522000D02*
X69661359Y-104522000D01*
X69968641Y-105282000D02*
X69661359Y-105282000D01*
%TO.C,C19*%
X65135164Y-109326000D02*
X65350836Y-109326000D01*
X65135164Y-108606000D02*
X65350836Y-108606000D01*
%TO.C,R30*%
X89272641Y-71500000D02*
X88965359Y-71500000D01*
X89272641Y-70740000D02*
X88965359Y-70740000D01*
%TO.C,Q11*%
X68799000Y-70576000D02*
X67124000Y-70576000D01*
X68799000Y-73696000D02*
X69449000Y-73696000D01*
X68799000Y-73696000D02*
X68149000Y-73696000D01*
X68799000Y-70576000D02*
X69449000Y-70576000D01*
D13*
%TO.C,SW1*%
X111720000Y-34060000D02*
X106720000Y-34060000D01*
X106720000Y-37060000D02*
X111720000Y-37060000D01*
X109220000Y-36060000D02*
X109720000Y-35310000D01*
X106720000Y-34060000D02*
X106720000Y-37060000D01*
X111720000Y-37060000D02*
X111720000Y-34060000D01*
X109220000Y-37060000D02*
X109220000Y-36060000D01*
X109220000Y-34060000D02*
X109220000Y-35060000D01*
D12*
%TO.C,J1*%
X43765000Y-70740000D02*
X41865000Y-70740000D01*
X41865000Y-61340000D02*
X41865000Y-70740000D01*
X43765000Y-61340000D02*
X41865000Y-61340000D01*
X47665000Y-61340000D02*
X45665000Y-61340000D01*
X47665000Y-70740000D02*
X45665000Y-70740000D01*
%TO.C,R27*%
X89272641Y-73788000D02*
X88965359Y-73788000D01*
X89272641Y-74548000D02*
X88965359Y-74548000D01*
%TO.C,R8*%
X65396641Y-107822000D02*
X65089359Y-107822000D01*
X65396641Y-107062000D02*
X65089359Y-107062000D01*
%TO.C,R64*%
X69970641Y-44068000D02*
X69663359Y-44068000D01*
X69970641Y-43308000D02*
X69663359Y-43308000D01*
%TO.C,C12*%
X79355836Y-103780000D02*
X79140164Y-103780000D01*
X79355836Y-104500000D02*
X79140164Y-104500000D01*
%TO.C,U4*%
X59650701Y-112409299D02*
X56200701Y-112409299D01*
X59650701Y-121279299D02*
X61600701Y-121279299D01*
X59650701Y-112409299D02*
X61600701Y-112409299D01*
X59650701Y-121279299D02*
X57700701Y-121279299D01*
%TO.C,R77*%
X69966641Y-66420000D02*
X69659359Y-66420000D01*
X69966641Y-65660000D02*
X69659359Y-65660000D01*
%TO.C,R49*%
X67199859Y-93344000D02*
X67507141Y-93344000D01*
X67199859Y-92584000D02*
X67507141Y-92584000D01*
%TO.C,R62*%
X69970641Y-46100000D02*
X69663359Y-46100000D01*
X69970641Y-45340000D02*
X69663359Y-45340000D01*
%TO.C,R46*%
X69968641Y-32384000D02*
X69661359Y-32384000D01*
X69968641Y-31624000D02*
X69661359Y-31624000D01*
%TO.C,C9*%
X64876000Y-77390164D02*
X64876000Y-77605836D01*
X64156000Y-77390164D02*
X64156000Y-77605836D01*
%TO.C,R9*%
X65398641Y-48640000D02*
X65091359Y-48640000D01*
X65398641Y-47880000D02*
X65091359Y-47880000D01*
%TO.C,C18*%
X65213664Y-96668000D02*
X65429336Y-96668000D01*
X65213664Y-97388000D02*
X65429336Y-97388000D01*
%TO.C,Q3*%
X88103000Y-79284000D02*
X87453000Y-79284000D01*
X88103000Y-79284000D02*
X88753000Y-79284000D01*
X88103000Y-76164000D02*
X86428000Y-76164000D01*
X88103000Y-76164000D02*
X88753000Y-76164000D01*
%TO.C,C22*%
X65135164Y-72792000D02*
X65350836Y-72792000D01*
X65135164Y-73512000D02*
X65350836Y-73512000D01*
%TO.C,R50*%
X70047141Y-92584000D02*
X69739859Y-92584000D01*
X70047141Y-93344000D02*
X69739859Y-93344000D01*
%TO.C,R61*%
X67123359Y-45340000D02*
X67430641Y-45340000D01*
X67123359Y-46100000D02*
X67430641Y-46100000D01*
%TO.C,R24*%
X89272641Y-47878000D02*
X88965359Y-47878000D01*
X89272641Y-47118000D02*
X88965359Y-47118000D01*
%TO.C,R2*%
X89053641Y-63372000D02*
X88746359Y-63372000D01*
X89053641Y-62612000D02*
X88746359Y-62612000D01*
%TO.C,R5*%
X52450000Y-68098641D02*
X52450000Y-67791359D01*
X51690000Y-68098641D02*
X51690000Y-67791359D01*
%TO.C,R80*%
X70001141Y-81406000D02*
X69693859Y-81406000D01*
X70001141Y-80646000D02*
X69693859Y-80646000D01*
%TO.C,C14*%
X64156000Y-113176164D02*
X64156000Y-113391836D01*
X64876000Y-113176164D02*
X64876000Y-113391836D01*
%TO.C,R54*%
X70047141Y-88520000D02*
X69739859Y-88520000D01*
X70047141Y-89280000D02*
X69739859Y-89280000D01*
%TO.C,R6*%
X65396641Y-36196000D02*
X65089359Y-36196000D01*
X65396641Y-36956000D02*
X65089359Y-36956000D01*
%TO.C,R1*%
X88746359Y-61596000D02*
X89053641Y-61596000D01*
X88746359Y-62356000D02*
X89053641Y-62356000D01*
%TO.C,R78*%
X69968641Y-65404000D02*
X69661359Y-65404000D01*
X69968641Y-64644000D02*
X69661359Y-64644000D01*
%TO.C,C5*%
X64156000Y-53740164D02*
X64156000Y-53955836D01*
X64876000Y-53740164D02*
X64876000Y-53955836D01*
%TO.C,C16*%
X79482836Y-79904000D02*
X79267164Y-79904000D01*
X79482836Y-80624000D02*
X79267164Y-80624000D01*
%TO.C,R28*%
X89272641Y-72772000D02*
X88965359Y-72772000D01*
X89272641Y-73532000D02*
X88965359Y-73532000D01*
%TO.C,R74*%
X69968641Y-68708000D02*
X69661359Y-68708000D01*
X69968641Y-69468000D02*
X69661359Y-69468000D01*
%TO.C,R58*%
X69968641Y-103250000D02*
X69661359Y-103250000D01*
X69968641Y-102490000D02*
X69661359Y-102490000D01*
%TO.C,R84*%
X70001141Y-76582000D02*
X69693859Y-76582000D01*
X70001141Y-77342000D02*
X69693859Y-77342000D01*
%TO.C,R45*%
X69968641Y-32640000D02*
X69661359Y-32640000D01*
X69968641Y-33400000D02*
X69661359Y-33400000D01*
%TO.C,R57*%
X69968641Y-103506000D02*
X69661359Y-103506000D01*
X69968641Y-104266000D02*
X69661359Y-104266000D01*
%TO.C,Q12*%
X68831500Y-85634000D02*
X68181500Y-85634000D01*
X68831500Y-82514000D02*
X67156500Y-82514000D01*
X68831500Y-85634000D02*
X69481500Y-85634000D01*
X68831500Y-82514000D02*
X69481500Y-82514000D01*
%TO.C,R20*%
X89272641Y-51182000D02*
X88965359Y-51182000D01*
X89272641Y-51942000D02*
X88965359Y-51942000D01*
%TO.C,C17*%
X65135164Y-38460000D02*
X65350836Y-38460000D01*
X65135164Y-37740000D02*
X65350836Y-37740000D01*
%TO.C,R67*%
X67121359Y-57784000D02*
X67428641Y-57784000D01*
X67121359Y-57024000D02*
X67428641Y-57024000D01*
%TO.C,C8*%
X79482836Y-56240000D02*
X79267164Y-56240000D01*
X79482836Y-55520000D02*
X79267164Y-55520000D01*
%TO.C,R51*%
X70047141Y-92328000D02*
X69739859Y-92328000D01*
X70047141Y-91568000D02*
X69739859Y-91568000D01*
%TO.C,Q1*%
X88103000Y-103160000D02*
X87453000Y-103160000D01*
X88103000Y-100040000D02*
X88753000Y-100040000D01*
X88103000Y-103160000D02*
X88753000Y-103160000D01*
X88103000Y-100040000D02*
X86428000Y-100040000D01*
%TO.C,C21*%
X65135164Y-61828000D02*
X65350836Y-61828000D01*
X65135164Y-61108000D02*
X65350836Y-61108000D01*
%TO.C,R42*%
X68361842Y-113226299D02*
X68054560Y-113226299D01*
X68361842Y-112466299D02*
X68054560Y-112466299D01*
%TO.C,R4*%
X51690000Y-63981359D02*
X51690000Y-64288641D01*
X52450000Y-63981359D02*
X52450000Y-64288641D01*
D13*
%TO.C,SW3*%
X109220000Y-102100000D02*
X109720000Y-101350000D01*
X111720000Y-103100000D02*
X111720000Y-100100000D01*
X109220000Y-103100000D02*
X109220000Y-102100000D01*
X106720000Y-100100000D02*
X106720000Y-103100000D01*
X109220000Y-100100000D02*
X109220000Y-101100000D01*
X106720000Y-103100000D02*
X111720000Y-103100000D01*
X111720000Y-100100000D02*
X106720000Y-100100000D01*
D12*
%TO.C,U9*%
X59655000Y-52969000D02*
X56205000Y-52969000D01*
X59655000Y-52969000D02*
X61605000Y-52969000D01*
X59655000Y-61839000D02*
X57705000Y-61839000D01*
X59655000Y-61839000D02*
X61605000Y-61839000D01*
%TO.C,R41*%
X68361842Y-113482299D02*
X68054560Y-113482299D01*
X68361842Y-114242299D02*
X68054560Y-114242299D01*
%TO.C,R39*%
X68361842Y-116274299D02*
X68054560Y-116274299D01*
X68361842Y-115514299D02*
X68054560Y-115514299D01*
%TO.C,R40*%
X68361842Y-114498299D02*
X68054560Y-114498299D01*
X68361842Y-115258299D02*
X68054560Y-115258299D01*
%TO.C,C11*%
X79609836Y-45572000D02*
X79394164Y-45572000D01*
X79609836Y-44852000D02*
X79394164Y-44852000D01*
%TO.C,C10*%
X64876000Y-89300164D02*
X64876000Y-89515836D01*
X64156000Y-89300164D02*
X64156000Y-89515836D01*
D13*
%TO.C,SW6*%
X109220000Y-69620000D02*
X109220000Y-70620000D01*
X109220000Y-72620000D02*
X109220000Y-71620000D01*
X106720000Y-72620000D02*
X111720000Y-72620000D01*
X111720000Y-69620000D02*
X106720000Y-69620000D01*
X111720000Y-72620000D02*
X111720000Y-69620000D01*
X109220000Y-71620000D02*
X109720000Y-70870000D01*
X106720000Y-69620000D02*
X106720000Y-72620000D01*
D12*
%TO.C,R11*%
X65396641Y-72008000D02*
X65089359Y-72008000D01*
X65396641Y-71248000D02*
X65089359Y-71248000D01*
%TO.C,U3*%
X79467000Y-103241000D02*
X77517000Y-103241000D01*
X79467000Y-103241000D02*
X81417000Y-103241000D01*
X79467000Y-94371000D02*
X76017000Y-94371000D01*
X79467000Y-94371000D02*
X81417000Y-94371000D01*
%TO.C,R72*%
X69968641Y-53720000D02*
X69661359Y-53720000D01*
X69968641Y-52960000D02*
X69661359Y-52960000D01*
%TO.C,R65*%
X69968641Y-42292000D02*
X69661359Y-42292000D01*
X69968641Y-43052000D02*
X69661359Y-43052000D01*
%TO.C,R68*%
X69968641Y-57784000D02*
X69661359Y-57784000D01*
X69968641Y-57024000D02*
X69661359Y-57024000D01*
%TO.C,R82*%
X70001141Y-79374000D02*
X69693859Y-79374000D01*
X70001141Y-78614000D02*
X69693859Y-78614000D01*
%TO.C,C23*%
X65167664Y-84730000D02*
X65383336Y-84730000D01*
X65167664Y-85450000D02*
X65383336Y-85450000D01*
%TO.C,C20*%
X65137164Y-50144000D02*
X65352836Y-50144000D01*
X65137164Y-49424000D02*
X65352836Y-49424000D01*
D13*
%TO.C,SW2*%
X109220000Y-89940000D02*
X109220000Y-90940000D01*
X111720000Y-89940000D02*
X106720000Y-89940000D01*
X109220000Y-91940000D02*
X109720000Y-91190000D01*
X106720000Y-92940000D02*
X111720000Y-92940000D01*
X109220000Y-92940000D02*
X109220000Y-91940000D01*
X111720000Y-92940000D02*
X111720000Y-89940000D01*
X106720000Y-89940000D02*
X106720000Y-92940000D01*
D12*
%TO.C,Q6*%
X68799000Y-35524000D02*
X69449000Y-35524000D01*
X68799000Y-35524000D02*
X67124000Y-35524000D01*
X68799000Y-38644000D02*
X68149000Y-38644000D01*
X68799000Y-38644000D02*
X69449000Y-38644000D01*
%TO.C,R59*%
X69966641Y-101474000D02*
X69659359Y-101474000D01*
X69966641Y-102234000D02*
X69659359Y-102234000D01*
%TO.C,Q9*%
X68801000Y-47208000D02*
X69451000Y-47208000D01*
X68801000Y-47208000D02*
X67126000Y-47208000D01*
X68801000Y-50328000D02*
X69451000Y-50328000D01*
X68801000Y-50328000D02*
X68151000Y-50328000D01*
%TO.C,U10*%
X59655000Y-64653000D02*
X61605000Y-64653000D01*
X59655000Y-73523000D02*
X61605000Y-73523000D01*
X59655000Y-73523000D02*
X57705000Y-73523000D01*
X59655000Y-64653000D02*
X56205000Y-64653000D01*
%TO.C,R60*%
X69968641Y-101218000D02*
X69661359Y-101218000D01*
X69968641Y-100458000D02*
X69661359Y-100458000D01*
%TO.C,R76*%
X69968641Y-67436000D02*
X69661359Y-67436000D01*
X69968641Y-66676000D02*
X69661359Y-66676000D01*
%TO.C,R7*%
X65475141Y-95884000D02*
X65167859Y-95884000D01*
X65475141Y-95124000D02*
X65167859Y-95124000D01*
%TO.C,C4*%
X88792164Y-61320000D02*
X89007836Y-61320000D01*
X88792164Y-60600000D02*
X89007836Y-60600000D01*
%TO.C,R19*%
X86933359Y-51942000D02*
X87240641Y-51942000D01*
X86933359Y-51182000D02*
X87240641Y-51182000D01*
%TO.C,R52*%
X70047141Y-90552000D02*
X69739859Y-90552000D01*
X70047141Y-91312000D02*
X69739859Y-91312000D01*
%TO.C,R83*%
X69999141Y-77598000D02*
X69691859Y-77598000D01*
X69999141Y-78358000D02*
X69691859Y-78358000D01*
%TO.C,R55*%
X67121359Y-104522000D02*
X67428641Y-104522000D01*
X67121359Y-105282000D02*
X67428641Y-105282000D01*
%TO.C,R18*%
X89270641Y-95376000D02*
X88963359Y-95376000D01*
X89270641Y-94616000D02*
X88963359Y-94616000D01*
D13*
%TO.C,SW7*%
X111720000Y-79780000D02*
X106720000Y-79780000D01*
X111720000Y-82780000D02*
X111720000Y-79780000D01*
X109220000Y-81780000D02*
X109720000Y-81030000D01*
X109220000Y-82780000D02*
X109220000Y-81780000D01*
X109220000Y-79780000D02*
X109220000Y-80780000D01*
X106720000Y-79780000D02*
X106720000Y-82780000D01*
X106720000Y-82780000D02*
X111720000Y-82780000D01*
%TO.C,SW5*%
X109220000Y-61460000D02*
X109720000Y-60710000D01*
X109220000Y-62460000D02*
X109220000Y-61460000D01*
X106720000Y-59460000D02*
X106720000Y-62460000D01*
X111720000Y-62460000D02*
X111720000Y-59460000D01*
X109220000Y-59460000D02*
X109220000Y-60460000D01*
X111720000Y-59460000D02*
X106720000Y-59460000D01*
X106720000Y-62460000D02*
X111720000Y-62460000D01*
D12*
%TO.C,R33*%
X89274641Y-27052000D02*
X88967359Y-27052000D01*
X89274641Y-27812000D02*
X88967359Y-27812000D01*
%TO.C,R48*%
X69968641Y-29592000D02*
X69661359Y-29592000D01*
X69968641Y-30352000D02*
X69661359Y-30352000D01*
%TO.C,R73*%
X67121359Y-69468000D02*
X67428641Y-69468000D01*
X67121359Y-68708000D02*
X67428641Y-68708000D01*
%TO.C,R37*%
X66022560Y-116530299D02*
X66329842Y-116530299D01*
X66022560Y-117290299D02*
X66329842Y-117290299D01*
%TO.C,R44*%
X69968641Y-34416000D02*
X69661359Y-34416000D01*
X69968641Y-33656000D02*
X69661359Y-33656000D01*
%TO.C,Q5*%
X67192201Y-117890299D02*
X65517201Y-117890299D01*
X67192201Y-121010299D02*
X67842201Y-121010299D01*
X67192201Y-121010299D02*
X66542201Y-121010299D01*
X67192201Y-117890299D02*
X67842201Y-117890299D01*
%TO.C,R34*%
X89272641Y-26036000D02*
X88965359Y-26036000D01*
X89272641Y-26796000D02*
X88965359Y-26796000D01*
%TO.C,R47*%
X69966641Y-31368000D02*
X69659359Y-31368000D01*
X69966641Y-30608000D02*
X69659359Y-30608000D01*
%TO.C,U8*%
X59657000Y-41285000D02*
X56207000Y-41285000D01*
X59657000Y-50155000D02*
X57707000Y-50155000D01*
X59657000Y-41285000D02*
X61607000Y-41285000D01*
X59657000Y-50155000D02*
X61607000Y-50155000D01*
%TO.C,C13*%
X64156000Y-101238164D02*
X64156000Y-101453836D01*
X64876000Y-101238164D02*
X64876000Y-101453836D01*
D13*
%TO.C,SW4*%
X106720000Y-49300000D02*
X106720000Y-52300000D01*
X111720000Y-49300000D02*
X106720000Y-49300000D01*
X109220000Y-49300000D02*
X109220000Y-50300000D01*
X109220000Y-52300000D02*
X109220000Y-51300000D01*
X111720000Y-52300000D02*
X111720000Y-49300000D01*
X106720000Y-52300000D02*
X111720000Y-52300000D01*
X109220000Y-51300000D02*
X109720000Y-50550000D01*
D12*
%TO.C,R31*%
X86933359Y-28828000D02*
X87240641Y-28828000D01*
X86933359Y-28068000D02*
X87240641Y-28068000D01*
%TO.C,R12*%
X65429141Y-83946000D02*
X65121859Y-83946000D01*
X65429141Y-83186000D02*
X65121859Y-83186000D01*
%TO.C,R69*%
X69968641Y-56768000D02*
X69661359Y-56768000D01*
X69968641Y-56008000D02*
X69661359Y-56008000D01*
%TO.C,R63*%
X69970641Y-44324000D02*
X69663359Y-44324000D01*
X69970641Y-45084000D02*
X69663359Y-45084000D01*
%TO.C,R53*%
X70045141Y-90296000D02*
X69737859Y-90296000D01*
X70045141Y-89536000D02*
X69737859Y-89536000D01*
%TO.C,C15*%
X52812836Y-66400000D02*
X52597164Y-66400000D01*
X52812836Y-65680000D02*
X52597164Y-65680000D01*
%TO.C,U1*%
X79402000Y-46111000D02*
X81352000Y-46111000D01*
X79402000Y-54981000D02*
X81352000Y-54981000D01*
X79402000Y-46111000D02*
X75952000Y-46111000D01*
X79402000Y-54981000D02*
X77452000Y-54981000D01*
%TO.C,R14*%
X89274641Y-98680000D02*
X88967359Y-98680000D01*
X89274641Y-99440000D02*
X88967359Y-99440000D01*
%TO.C,R38*%
X68361842Y-117290299D02*
X68054560Y-117290299D01*
X68361842Y-116530299D02*
X68054560Y-116530299D01*
%TO.C,R32*%
X89274641Y-28068000D02*
X88967359Y-28068000D01*
X89274641Y-28828000D02*
X88967359Y-28828000D01*
%TO.C,C2*%
X64156000Y-42056164D02*
X64156000Y-42271836D01*
X64876000Y-42056164D02*
X64876000Y-42271836D01*
%TO.C,C7*%
X79609836Y-69236000D02*
X79394164Y-69236000D01*
X79609836Y-69956000D02*
X79394164Y-69956000D01*
%TO.C,Q10*%
X68799000Y-62012000D02*
X68149000Y-62012000D01*
X68799000Y-58892000D02*
X67124000Y-58892000D01*
X68799000Y-62012000D02*
X69449000Y-62012000D01*
X68799000Y-58892000D02*
X69449000Y-58892000D01*
%TO.C,R81*%
X70001141Y-79630000D02*
X69693859Y-79630000D01*
X70001141Y-80390000D02*
X69693859Y-80390000D01*
%TO.C,R17*%
X89272641Y-95632000D02*
X88965359Y-95632000D01*
X89272641Y-96392000D02*
X88965359Y-96392000D01*
%TO.C,R13*%
X86931359Y-99440000D02*
X87238641Y-99440000D01*
X86931359Y-98680000D02*
X87238641Y-98680000D01*
%TO.C,U7*%
X59655000Y-109337000D02*
X61605000Y-109337000D01*
X59655000Y-100467000D02*
X61605000Y-100467000D01*
X59655000Y-109337000D02*
X57705000Y-109337000D01*
X59655000Y-100467000D02*
X56205000Y-100467000D01*
%TO.C,U11*%
X59687500Y-85461000D02*
X61637500Y-85461000D01*
X59687500Y-76591000D02*
X61637500Y-76591000D01*
X59687500Y-85461000D02*
X57737500Y-85461000D01*
X59687500Y-76591000D02*
X56237500Y-76591000D01*
%TO.C,Q7*%
X68877500Y-94452000D02*
X67202500Y-94452000D01*
X68877500Y-97572000D02*
X68227500Y-97572000D01*
X68877500Y-94452000D02*
X69527500Y-94452000D01*
X68877500Y-97572000D02*
X69527500Y-97572000D01*
%TO.C,R36*%
X89270641Y-24764000D02*
X88963359Y-24764000D01*
X89270641Y-24004000D02*
X88963359Y-24004000D01*
%TO.C,Q8*%
X68799000Y-106390000D02*
X69449000Y-106390000D01*
X68799000Y-109510000D02*
X68149000Y-109510000D01*
X68799000Y-106390000D02*
X67124000Y-106390000D01*
X68799000Y-109510000D02*
X69449000Y-109510000D01*
%TO.C,R16*%
X89272641Y-97408000D02*
X88965359Y-97408000D01*
X89272641Y-96648000D02*
X88965359Y-96648000D01*
%TO.C,R66*%
X69970641Y-42036000D02*
X69663359Y-42036000D01*
X69970641Y-41276000D02*
X69663359Y-41276000D01*
%TO.C,C6*%
X64156000Y-65396163D02*
X64156000Y-65611835D01*
X64876000Y-65396163D02*
X64876000Y-65611835D01*
%TO.C,U2*%
X79467000Y-70495000D02*
X76017000Y-70495000D01*
X79467000Y-79365000D02*
X77517000Y-79365000D01*
X79467000Y-79365000D02*
X81417000Y-79365000D01*
X79467000Y-70495000D02*
X81417000Y-70495000D01*
%TO.C,R29*%
X89272641Y-71756000D02*
X88965359Y-71756000D01*
X89272641Y-72516000D02*
X88965359Y-72516000D01*
%TO.C,C1*%
X64156000Y-30372164D02*
X64156000Y-30587836D01*
X64876000Y-30372164D02*
X64876000Y-30587836D01*
%TO.C,R35*%
X89272641Y-25020000D02*
X88965359Y-25020000D01*
X89272641Y-25780000D02*
X88965359Y-25780000D01*
%TO.C,Q2*%
X88103000Y-55662000D02*
X87453000Y-55662000D01*
X88103000Y-55662000D02*
X88753000Y-55662000D01*
X88103000Y-52542000D02*
X86428000Y-52542000D01*
X88103000Y-52542000D02*
X88753000Y-52542000D01*
%TO.C,R21*%
X89272641Y-50926000D02*
X88965359Y-50926000D01*
X89272641Y-50166000D02*
X88965359Y-50166000D01*
%TO.C,C3*%
X79609836Y-93112000D02*
X79394164Y-93112000D01*
X79609836Y-93832000D02*
X79394164Y-93832000D01*
%TO.C,R71*%
X69966641Y-53976000D02*
X69659359Y-53976000D01*
X69966641Y-54736000D02*
X69659359Y-54736000D01*
%TO.C,R23*%
X89272641Y-48134000D02*
X88965359Y-48134000D01*
X89272641Y-48894000D02*
X88965359Y-48894000D01*
%TO.C,R43*%
X67121359Y-33656000D02*
X67428641Y-33656000D01*
X67121359Y-34416000D02*
X67428641Y-34416000D01*
%TO.C,R10*%
X65396641Y-60324000D02*
X65089359Y-60324000D01*
X65396641Y-59564000D02*
X65089359Y-59564000D01*
%TO.C,R26*%
X89272641Y-75564000D02*
X88965359Y-75564000D01*
X89272641Y-74804000D02*
X88965359Y-74804000D01*
%TO.C,R3*%
X88746359Y-64388000D02*
X89053641Y-64388000D01*
X88746359Y-63628000D02*
X89053641Y-63628000D01*
%TO.C,R75*%
X69968641Y-68452000D02*
X69661359Y-68452000D01*
X69968641Y-67692000D02*
X69661359Y-67692000D01*
%TO.C,U5*%
X59655000Y-29601000D02*
X56205000Y-29601000D01*
X59655000Y-38471000D02*
X61605000Y-38471000D01*
X59655000Y-38471000D02*
X57705000Y-38471000D01*
X59655000Y-29601000D02*
X61605000Y-29601000D01*
%TO.C,Q4*%
X88103000Y-29428000D02*
X86428000Y-29428000D01*
X88103000Y-32548000D02*
X88753000Y-32548000D01*
X88103000Y-32548000D02*
X87453000Y-32548000D01*
X88103000Y-29428000D02*
X88753000Y-29428000D01*
%TO.C,U6*%
X59733500Y-97399000D02*
X61683500Y-97399000D01*
X59733500Y-97399000D02*
X57783500Y-97399000D01*
X59733500Y-88529000D02*
X56283500Y-88529000D01*
X59733500Y-88529000D02*
X61683500Y-88529000D01*
%TO.C,R25*%
X86933359Y-75564000D02*
X87240641Y-75564000D01*
X86933359Y-74804000D02*
X87240641Y-74804000D01*
%TO.C,R22*%
X89272641Y-49910000D02*
X88965359Y-49910000D01*
X89272641Y-49150000D02*
X88965359Y-49150000D01*
%TO.C,R70*%
X69968641Y-54992000D02*
X69661359Y-54992000D01*
X69968641Y-55752000D02*
X69661359Y-55752000D01*
%TO.C,R79*%
X67153859Y-80646000D02*
X67461141Y-80646000D01*
X67153859Y-81406000D02*
X67461141Y-81406000D01*
%TD*%
M02*
